<?xml version="1.0" encoding="utf-8" ?>
<svg baseProfile="full" height="200mm" version="1.1" viewBox="0,0,200,200" width="200mm" xmlns="http://www.w3.org/2000/svg" xmlns:ev="http://www.w3.org/2001/xml-events" xmlns:xlink="http://www.w3.org/1999/xlink"><defs /><rect fill="#1a1a1a" height="200" width="200" x="0" y="0" /><text alignment-baseline="middle" fill="#e1ed5e" style="dominant-baseline: central; font-size:9.0px; font-family:Arial;" text-anchor="middle" x="100.0" y="100.0">2025</text><line stroke="#e1ed5e" stroke-width="0.3" x1="100.0" x2="100.0" y1="15.0" y2="10.0" /><path d="M 100.0 14.0 a86.0,86.0 0 0,1 42.46469731375804,11.215312516191453" fill="none" id="id49" stroke="none" /><text fill="#e1ed5e" style="font-size:6.75px; font-family:Arial;" text-anchor="middle"><textPath startOffset="22.20632615414155" xlink:href="#id49">January</textPath></text><path d="M 100.0 79.0 l 0.0 -41.70055970149254 a62.70055970149254,62.70055970149254 0 0,0 1.0792870653119666,0.009289764514227273 l -0.7178065860394384 41.69438131358687" fill="#3cff2e" stroke="none" /><path d="M 100.72285384407766 79.0124445844662 l 0.7952211082518799 -23.088688278796024 a44.10237873134328,44.10237873134328 0 0,0 0.7584751615363041,0.03266153595063748 l -1.1925371021775155 23.071579016321195" fill="#ffcb12" stroke="none" /><path d="M 101.08401301168833 79.027996857942 l 0.7598130914482526 -14.699825896380533 a35.71944962686567,35.71944962686567 0 0,0 0.613758715234995,0.03702360180532299 l -1.0127338555228595 14.684569025194905" fill="#ff4706" stroke="none" /><path d="M 102.16513564639614 79.11191278185805 l 2.168309485963077 -20.918706748978774 a42.030783582089555,42.030783582089555 0 0,0 0.718993187631588,0.08078726210355094 l -2.5280693771043907 20.878283533404623" fill="#ffac0f" stroke="none" /><path d="M 102.52436894288641 79.15227682838746 l 3.0354493688565793 -25.068525867304494 a46.25163246268657,46.25163246268657 0 0,0 0.7895490009686436,0.10250612053378488 l -3.466513098333069 25.012561423606574" fill="#ffeb16" stroke="none" /><path d="M 102.88285421437855 79.19881850522331 l 2.99311263115983 -21.59674907060303 a42.803171641791046,42.803171641791046 0 0,0 0.7289400911971895,0.1074268209965325 l -3.3644217027856755 21.542027765445525" fill="#ffb711" stroke="none" /><path d="M 103.2404852339499 79.25152402106235 l 3.3190790922360027 -21.251703941113373 a42.509328358208954,42.509328358208954 0 0,0 0.721992185334553,0.11913489684796126 l -3.684400483709431 21.191422781325787" fill="#ffb310" stroke="none" /><path d="M 103.95276090670814 79.375362276772 l 4.168334920710035 -21.749455552150064 a43.14528917910448,43.14528917910448 0 0,0 0.7281971313490088,0.14606949402567432 l -4.5420984615261695 21.674482102047183" fill="#ffbd11" stroke="none" /><path d="M 104.66035177308747 79.52364482259891 l 6.786047272998876 -29.81609993798872 a51.578591417910445,51.578591417910445 0 0,0 0.8640060343170934,0.20448231340747403 l -7.298276994278493 29.694871712440378" fill="#c8ff1d" stroke="none" /><path d="M 105.01212808612495 79.60689891045804 l 5.2744566183511745 -21.46045056354484 a43.09911380597015,43.09911380597015 0 0,0 0.7189160224658983,0.18326770145952936 l -5.643081529502098 21.36647986591644" fill="#ffbc11" stroke="none" /><path d="M 105.36241919743992 79.69619591428918 l 8.054347917689954 -30.49629209089109 a52.5419776119403,52.5419776119403 0 0,0 0.8724523094116243,0.2384741732391174 l -8.578098116325288 30.353131376825676" fill="#bbff1f" stroke="none" /><path d="M 106.0581310904928 79.89281104454417 l 7.894380979262224 -26.201778678161613 a48.365205223880594,48.365205223880594 0 0,0 0.7950655378634077,0.2470307327948878 l -8.34423188983635 26.062007810484207" fill="#f5ff19" stroke="none" /><path d="M 106.74666289553966 80.11325718540242 l 7.814539875040882 -23.03446120186281 a45.32392723880597,45.32392723880597 0 0,0 0.7366605720538694,0.2570064088800934 l -8.209882451158025 22.89653393981051" fill="#ffdd14" stroke="none" /><path d="M 107.08798089147638 80.2323363322302 l 6.382866587706775 -17.801171006790295 a39.91091417910448,39.91091417910448 0 0,0 0.6446898801964821,0.23744472363807306 l -6.688338793675833 17.688663015345895" fill="#ff8b0c" stroke="none" /><path d="M 107.4271985657038 80.35727306442388 l 15.946603103856187 -42.17401319596676 a66.08815298507463,66.08815298507463 0 0,0 1.0606104833356027,0.411500389961726 l -16.67019675219146 41.893270102114485" fill="#33ff50" stroke="none" /><path d="M 108.43124777332544 80.76684994638697 l 13.567915818061648 -30.95078781448795 a54.794076492537314,54.794076492537314 0 0,0 0.8605745823494216,0.38611472995321794 l -14.09867251887785 30.712652754018197" fill="#9dff22" stroke="none" /><path d="M 110.05341064243156 81.56283822128135 l 6.041893476106836 -11.080355854421164 a33.62056902985074,33.62056902985074 0 0,0 0.505710850867649,0.2814275409863257 l -6.23172841604652 10.974712915874658" fill="#ff2403" stroke="none" /><line stroke="#e1ed5e" stroke-width="0.3" x1="143.23703022742887" x2="145.7803849466894" y1="26.81831364943548" y2="22.513508569990506" /><path d="M 143.74570117128098 25.957352633546492 a86.0,86.0 0 0,1 28.547481713284135,27.462654790039103" fill="none" id="id50" stroke="none" /><text fill="#e1ed5e" style="font-size:6.75px; font-family:Arial;" text-anchor="middle"><textPath startOffset="19.985693538727396" xlink:href="#id50">February</textPath></text><path d="M 111.90073688211348 82.69761687909136 l 7.922855314341467 -11.518973944067074 a34.98064365671642,34.98064365671642 0 0,0 0.4931752049559247,0.345500747822694 l -8.119961658881042 11.380888353480444" fill="#ff3b05" stroke="none" /><path d="M 112.19680574252982 82.90503203632743 l 12.332930806620555 -17.285760016838562 a42.234375,42.234375 0 0,0 0.5881733704581169,0.4273329674780713 l -12.628649493432459 17.070907814543816" fill="#ffaf10" stroke="none" /><path d="M 113.34407831869373 83.78471172551755 l 8.515652325245812 -10.347942660504772 a34.4013526119403,34.4013526119403 0 0,0 0.45400359975290644,0.3802149583484977 l -8.692513461957835 10.199826544762455" fill="#ff3104" stroke="none" /><path d="M 113.6212207817346 84.01681056812373 l 18.52179258417171 -21.733538001800035 a49.55527052238806,49.55527052238806 0 0,0 0.6444691280667326,0.5588772771552261 l -18.893155510885205 21.411495731225138" fill="#e4ff1a" stroke="none" /><path d="M 113.89432698308785 84.25364557470407 l 22.441263730680262 -25.432544727423615 a54.917910447761194,54.917910447761194 0 0,0 0.7034435473635783,0.6315585623549184 l -22.87571826563983 25.042487156299398" fill="#9cff22" stroke="none" /><path d="M 114.42810811169701 84.74124197986012 l 20.30538949101868 -21.474404152610905 a50.554337686567166,50.554337686567166 0 0,0 0.6271548607346172,0.6033224791325569 l -20.672027595365716 21.121698586716047" fill="#d6ff1c" stroke="none" /><path d="M 114.94478906791727 85.2469230424477 l 30.59061301748524 -30.198195904584665 a63.985074626865675,63.985074626865675 0 0,0 0.7670157082478831,0.7904771099336603 l -31.10589298943623 29.66715459910089" fill="#30ff32" stroke="none" /><path d="M 115.4437574822437 85.77008943001954 l 19.456479517292287 -17.92724107821866 a47.45638992537313,47.45638992537313 0 0,0 0.5483616575617566,0.6055146384168183 l -19.76218481547008 17.589673652532294" fill="#fffc17" stroke="none" /><path d="M 115.68641384162765 86.03803664274999 l 24.663143937497804 -21.951856900276518 a54.01749067164179,54.01749067164179 0 0,0 0.6122191566170682,0.6998723287955292 l -25.03735495769272 21.52406901527804" fill="#a7ff21" stroke="none" /><path d="M 115.9244219780498 86.31012108654704 l 25.78222064456579 -22.164413831192487 a54.99976679104478,54.99976679104478 0 0,0 0.6109934215730695,0.7232234938968232 l -26.159924679625973 21.717331387666558" fill="#9bff22" stroke="none" /><path d="M 116.38621287248628 86.86637796730983 l 28.179089020922078 -22.58566438177643 a57.113339552238806,57.113339552238806 0 0,0 0.6082459683099793,0.7724106114085043 l -28.56368906982602 22.097261376414885" fill="#80ff26" stroke="none" /><path d="M 116.82858285166822 87.43820079747576 l 21.86549610924374 -16.321634091765908 a48.28544776119403,48.28544776119403 0 0,0 0.49144787895654185,0.6703343545964883 l -22.143206600713906 15.942837293497925" fill="#f6ff19" stroke="none" /><path d="M 117.04232023915458 87.72973835380427 l 21.720782351715677 -15.638697012821968 a47.76492537313433,47.76492537313433 0 0,0 0.47466367339916404,0.6713781039894662 l -21.986758644918723 15.262492408500709" fill="#fdff18" stroke="none" /><path d="M 117.45458315368197 88.32363383020206 l 23.348761420130536 -15.619318178628957 a49.09141791044776,49.09141791044776 0 0,0 0.46380488040395534,0.7064066526790569 l -23.614162935892416 15.215093461972225" fill="#ebff1a" stroke="none" /><path d="M 117.65298651832404 88.62581576622439 l 24.090539504383976 -15.522032735338374 a49.658115671641795,49.658115671641795 0 0,0 0.4567894081041631,0.722531145407152 l -24.354156508734096 15.105053942217015" fill="#e3ff1b" stroke="none" /><line stroke="#e1ed5e" stroke-width="0.3" x1="172.23445277983987" x2="176.4835382374775" y1="55.19839476539836" y2="52.563006222186495" /><path d="M 173.08426987136738 54.67131705675599 a86.0,86.0 0 0,1 12.851231095245387,41.99856678651699" fill="none" id="id51" stroke="none" /><text fill="#e1ed5e" style="font-size:6.75px; font-family:Arial;" text-anchor="middle"><textPath startOffset="22.20632615414155" xlink:href="#id51">March</textPath></text><path d="M 117.84615892207809 88.93136811851018 l 20.603109845641388 -12.778561453533671 a45.244169776119406,45.244169776119406 0 0,0 0.4047935581232738,0.665374176255039 l -20.820019202050887 12.422019504071551" fill="#ffdc14" stroke="none" /><path d="M 118.21658344932153 89.55222093294921 l 12.972397095857135 -7.440074545516082 a35.95452425373134,35.95452425373134 0 0,0 0.3032890110721141,0.5395173088000068 l -13.098543748221681 7.215673726781281" fill="#ff4b07" stroke="none" /><path d="M 118.3937258080291 89.86733742301442 l 25.75219660703008 -14.186267728386271 a50.401119402985074,50.401119402985074 0 0,0 0.41206971389598196,0.7635025973057594 l -25.99257442014453 13.740884147748053" fill="#d8ff1c" stroke="none" /><path d="M 119.04729006885535 91.15688171328212 l 26.14560385850807 -12.13866470047142 a49.82602611940298,49.82602611940298 0 0,0 0.3544710884363124,0.7810300564460945 l -26.35067726390773 11.686812635183262" fill="#e0ff1b" stroke="none" /><path d="M 119.196687751892 91.48605970444005 l 19.646929895326572 -8.713627594602928 a42.492537313432834,42.492537313432834 0 0,0 0.29078916068080163,0.6711814750262558 l -19.794009765850056 8.374146974990069" fill="#ffb310" stroke="none" /><path d="M 119.47837535516314 92.15188598940014 l 29.223403430472455 -11.774524195074063 a52.506296641791046,52.506296641791046 0 0,0 0.330555766089028,0.8412283692556063 l -29.421752746443186 11.269746820922672" fill="#bcff1f" stroke="none" /><path d="M 119.61058180528143 92.48833698450437 l 19.61580850618902 -7.513665057877162 a42.00559701492537,42.00559701492537 0 0,0 0.2528245104731616,0.6774439916297584 l -19.742237605163805 7.174897929218071" fill="#ffab0f" stroke="none" /><path d="M 119.85752413597 93.16781622104841 l 12.50754102194325 -4.303347099042464 a34.22714552238806,34.22714552238806 0 0,0 0.18688462533640274,0.5587612426317482 l -12.579762941051424 4.087412753488401" fill="#ff2e04" stroke="none" /><path d="M 120.08093135843002 93.85539295169968 l 42.75359806076189 -13.082264726435234 a65.71035447761194,65.71035447761194 0 0,0 0.32164937804753124,1.0844418023051845 l -42.972453335921124 12.34439353738352" fill="#32ff4b" stroke="none" /><path d="M 120.37134235888165 94.90015583598534 l 13.562118015642723 -3.395195426755887 a34.98064365671642,34.98064365671642 0 0,0 0.14120053370733238,0.5853673708109459 l -13.618551349610875 3.161242824285535" fill="#ff3b05" stroke="none" /><path d="M 120.53481517161879 95.60439243477599 l 28.7190500429566 -6.147495002016893 a50.36963619402985,50.36963619402985 0 0,0 0.17418468785313826,0.8493863984046898 l -28.820614026724737 5.652232947448791" fill="#d9ff1c" stroke="none" /><path d="M 120.67395015179393 96.31383870115 l 31.949022246172493 -5.696504464567423 a53.45289179104478,53.45289179104478 0 0,0 0.15371050626772123,0.9072081090449545 l -32.04234461396044 5.14571056720663" fill="#afff20" stroke="none" /><path d="M 120.78858239683441 97.02765380044208 l 20.943721071437654 -2.994527887614314 a42.156716417910445,42.156716417910445 0 0,0 0.0965268377122542,0.7192370595866066 l -20.992163908207743 2.6335724859630436" fill="#ffad10" stroke="none" /><path d="M 120.83666639777658 97.38593545837742 l 20.933852341796058 -2.6262570068353686 a42.09794776119403,42.09794776119403 0 0,0 0.08401476809261886,0.7197872260633316 l -20.975957462892264 2.2655260424471844" fill="#ffad10" stroke="none" /><path d="M 120.87857604477298 97.74499172005257 l 21.712578332808796 -2.345085403070329 a42.8388526119403,42.8388526119403 0 0,0 0.07287271179875586,0.7338182629076739 l -21.749728170289778 1.9709916094582205" fill="#ffb811" stroke="none" /><path d="M 120.94382443527127 98.46500227214037 l 36.16535728626549 -2.6506019200657196 a57.26236007462686,57.26236007462686 0 0,0 0.06358687593488818,0.9836608264952633 l -36.20562475320479 2.0276820293174214" fill="#7eff26" stroke="none" /><path d="M 120.96714384426684 98.82574320788733 l 21.473579721368846 -1.2026195377910296 a42.50722947761194,42.50722947761194 0 0,0 0.03462596763584271,0.730899450123481 l -21.491099297238186 0.8328089810445489" fill="#ffb310" stroke="none" /><line stroke="#e1ed5e" stroke-width="0.3" x1="184.98032266829074" x2="189.97916517819016" y1="98.17113171792111" y2="98.06355123074" /><path d="M 185.9800911702706 98.14961562048488 a86.0,86.0 0 0,1 -9.607161424134198,41.387399972396054" fill="none" id="id52" stroke="none" /><text fill="#e1ed5e" style="font-size:6.75px; font-family:Arial;" text-anchor="middle"><textPath startOffset="21.466115282336823" xlink:href="#id52">April</textPath></text><path d="M 120.99513854157772 99.54816195383933 l 14.778993944729326 -0.3180599039621782 a35.78241604477612,35.78241604477612 0 0,0 0.007952203856757666,0.6159069523420054 l -14.782279155703797 0.06361669355971006" fill="#ff4806" stroke="none" /><path d="M 120.99980553446 99.90962569577887 l 21.6896312359851 -0.09334302303649634 a42.68983208955224,42.68983208955224 0 0,0 -0.0031625089282084603,0.7348556989261583 l -21.68802442976739 -0.28002215409334663" fill="#ffb610" stroke="none" /><path d="M 120.99824983174949 100.27111621757518 l 24.810898471909233 0.3203427429544749 a45.812966417910445,45.812966417910445 0 0,0 -0.016968113381541236,0.7884415539189665 l -24.801708295842683 -0.7473741126635562" fill="#ffe415" stroke="none" /><path d="M 120.95626037817324 101.35467743843564 l 13.949429716014837 0.9017342490653022 a34.978544776119406,34.978544776119406 0 0,0 -0.04401207266183947,0.6005097637162672 l -13.93184108468866 -1.1417171492783396" fill="#ff3b05" stroke="none" /><path d="M 120.92983693683757 101.71520430193887 l 23.249021293578036 1.905261921483403 a44.32695895522388,44.32695895522388 0 0,0 -0.06886594912969951,0.759930010139248 l -23.212780748171262 -2.3051733201712215" fill="#ffce13" stroke="none" /><path d="M 120.89721153311464 102.0752229133903 l 33.753981435234465 3.3519800276486516 a54.92000932835821,54.92000932835821 0 0,0 -0.10151754112702986,0.9399263502254052 l -33.69128159260638 -3.932502699758848" fill="#9cff22" stroke="none" /><path d="M 120.76222939487914 103.15116336523771 l 15.079869504189777 2.2887297616453623 a36.25256529850746,36.25256529850746 0 0,0 -0.09894921156253723,0.6161568348543177 l -15.038238538265952 -2.547965826192885" fill="#ff5007" stroke="none" /><path d="M 120.49622156327973 104.57218783832717 l 14.358144016893755 3.2029382221650233 a35.71105410447761,35.71105410447761 0 0,0 -0.1390000644058766,0.598808639490845 l -14.300883386557325 -3.4496155190044333" fill="#ff4706" stroke="none" /><path d="M 120.41448212921028 104.9243191809786 l 23.429454120108115 5.651581538697091 a45.10144589552239,45.10144589552239 0 0,0 -0.1885426980266825,0.7531343561182993 l -23.32870010778637 -6.054043734212786" fill="#ffda14" stroke="none" /><path d="M 120.13307415673323 105.97154293290107 l 20.404055032243626 6.051916844977703 a42.28264925373134,42.28264925373134 0 0,0 -0.21297010850277734,0.6959986369550865 l -20.296858151234716 -6.402242454484846" fill="#ffaf10" stroke="none" /><path d="M 119.9155931802556 106.66101706037122 l 20.408573115387863 6.825900311832305 a42.51982276119403,42.51982276119403 0 0,0 -0.23812957254214914,0.6921160037895712 l -20.288052711902484 -7.1761890187111765" fill="#ffb310" stroke="none" /><path d="M 119.79798401119884 107.00284435728193 l 27.468911318309793 9.716166581268755 a50.136660447761194,50.136660447761194 0 0,0 -0.29479339045320635,0.8111448018039257 l -27.29759366685136 -10.187559180078813" fill="#dcff1b" stroke="none" /><path d="M 119.67450827220406 107.3425965602758 l 27.29759366685136 10.187559180078813 a50.136660447761194,50.136660447761194 0 0,0 -0.308712237998738,0.8059502383263342 l -27.118187149259114 -10.655932985238291" fill="#dcff1b" stroke="none" /><path d="M 119.41010516605496 108.01547362559984 l 20.119489673223217 8.308416541620726 a42.767490671641795,42.767490671641795 0 0,0 -0.28684567133180133,0.6780184341868701 l -19.97349302069911 -8.65350950147376" fill="#ffb711" stroke="none" /><path d="M 119.26925614724726 108.34839909993367 l 40.863713712582545 17.70419097505257 a65.53404850746269,65.53404850746269 0 0,0 -0.4573618601153274,1.0312302545552354 l -40.552910767735945 -18.40496956610049" fill="#32ff48" stroke="none" /><path d="M 118.97047184881838 109.00673069616215 l 19.415408288769335 9.21797597901457 a42.492537313432834,42.492537313432834 0 0,0 -0.3193956491953862,0.6580496392088563 l -19.253859382959234 -9.550814574188701" fill="#ffb310" stroke="none" /><path d="M 118.81262510543309 109.33194174019688 l 21.404876485899212 10.617819639898846 a44.89365671641791,44.89365671641791 0 0,0 -0.34936100470264814,0.6893224061654288 l -21.218936811410295 -10.984696257766968" fill="#ffd714" stroke="none" /><path d="M 118.64920377521936 109.65438752849418 l 20.97662639455477 10.85925612130266 a44.62080223880597,44.62080223880597 0 0,0 -0.3589796485352069,0.6790542100158757 l -20.78659423779467 -11.21872534640467" fill="#ffd313" stroke="none" /><line stroke="#e1ed5e" stroke-width="0.3" x1="174.80103733775053" x2="179.2010983576182" y1="140.37084112569926" y2="142.7455964860345" /><path d="M 175.68104954172406 140.8457921977663 a86.0,86.0 0 0,1 -30.038265399797805,32.042727171017184" fill="none" id="id53" stroke="none" /><text fill="#e1ed5e" style="font-size:6.75px; font-family:Arial;" text-anchor="middle"><textPath startOffset="22.206326154141568" xlink:href="#id53">May</textPath></text><path d="M 118.30583269289576 110.29060199501025 l 25.244923990196135 14.191403883977015 a49.96035447761194,49.96035447761194 0 0,0 -0.42787000115800167,0.7460274122887033 l -24.996901992885753 -14.623851142124034" fill="#deff1b" stroke="none" /><path d="M 117.94076556474637 110.91462005526583 l 18.370516712169493 11.176067677192 a42.50303171641791,42.50303171641791 0 0,0 -0.3856347839662708,0.6217660605419865 l -18.17541728853526 -11.49063006909926" fill="#ffb310" stroke="none" /><path d="M 117.75023020441432 111.22182372390056 l 37.45431037535935 23.6788855069618 a65.31156716417911,65.31156716417911 0 0,0 -0.6089374864747334,0.9450845017368246 l -37.04116802550756 -24.32009160862008" fill="#32ff45" stroke="none" /><path d="M 117.14729908036423 112.12312394758627 l 17.158724519516927 12.131201722071602 a42.01399253731343,42.01399253731343 0 0,0 -0.42258115366005794,0.5869282624416534 l -16.94736357348127 -12.424763589964385" fill="#ffab0f" stroke="none" /><path d="M 116.93607887273984 112.41649034213515 l 11.930185623840991 8.746477605080804 a35.792910447761194,35.792910447761194 0 0,0 -0.3685625531676136,0.4937497695996617 l -11.777861803978286 -8.95054025418978" fill="#ff4806" stroke="none" /><path d="M 116.71984013943494 112.70617746262583 l 28.69767604422802 21.80868725669709 a57.044076492537314,57.044076492537314 0 0,0 -0.6008457542019187,0.7766741321287295 l -28.318023472808036 -22.299439382939074" fill="#80ff25" stroke="none" /><path d="M 116.498646956653 112.99209946851258 l 10.988837618517017 8.65331998182647 a34.98694029850746,34.98694029850746 0 0,0 -0.376662881595178,0.46994485935563896 l -10.838256824866985 -8.84119267476036" fill="#ff3b05" stroke="none" /><path d="M 115.80600337817218 113.82643327865902 l 17.693287363625572 15.477350685066073 a44.507462686567166,44.507462686567166 0 0,0 -0.5093797514915815,0.5722935506984621 l -17.424248762485654 -15.779618405505401" fill="#ffd113" stroke="none" /><path d="M 115.56566222782051 114.09645910891815 l 17.54404047272774 15.88810328204325 a44.669076492537314,44.669076492537314 0 0,0 -0.5210405113505177,0.5654865683202018 l -17.267953553381503 -16.187741105164786" fill="#ffd313" stroke="none" /><path d="M 115.07121518719521 114.62390073753431 l 27.14535936385042 26.339683687810425 a58.82392723880597,58.82392723880597 0 0,0 -0.7113756092069438,0.7206197363605976 l -26.687943129587943 -26.803043918151687" fill="#6aff28" stroke="none" /><path d="M 114.55890576462653 115.13401014063108 l 16.237622877212235 16.879039761390814 a44.421408582089555,44.421408582089555 0 0,0 -0.5556148676380748,0.5253685370832626 l -15.944672175183353 -17.15604293522" fill="#ffd013" stroke="none" /><path d="M 114.0293411484842 115.62618273729858 l 9.82652146540951 10.944991533480982 a35.708955223880594,35.708955223880594 0 0,0 -0.46091358967376606,0.40670265338294165 l -9.636665522829155 -11.112517328636212" fill="#ff4706" stroke="none" /><path d="M 112.34349029814194 116.9893568818739 l 6.183259598975952 8.510526721610336 a31.519589552238806,31.519589552238806 0 0,0 -0.4416835163163663,0.31512946146702536 l -6.035848754810702 -8.61570044492158" fill="#ff0000" stroke="none" /><line stroke="#e1ed5e" stroke-width="0.3" x1="143.8653032363475" x2="146.44561519142675" y1="172.8068346515853" y2="177.08958963109032" /><path d="M 144.38136562736335 173.6633856474863 a86.0,86.0 0 0,1 -40.68145358897372,12.25698825130547" fill="none" id="id54" stroke="none" /><text fill="#e1ed5e" style="font-size:6.75px; font-family:Arial;" text-anchor="middle"><textPath startOffset="21.466115282336833" xlink:href="#id54">June</textPath></text><path d="M 109.89434966115114 118.52300852407294 l 10.641634132160922 19.92198441440053 a43.58605410447761,43.58605410447761 0 0,0 -0.6648099834588835,0.34779716248544407 l -10.297133246175543 -20.10221099583069" fill="#ffc312" stroke="none" /><path d="M 109.2508944713604 118.85261126421891 l 9.263530621191345 18.878362765479334 a42.02868470149254,42.02868470149254 0 0,0 -0.6522198059442303,0.31310514218556534 l -8.937198147246882 -19.03502218416446" fill="#ffab0f" stroke="none" /><path d="M 108.2653958097858 119.30500536409082 l 11.198597974159416 26.15591544998819 a49.45242537313433,49.45242537313433 0 0,0 -0.7854188218577246,0.3283051312358814 l -10.74670769280423 -26.344805624244046" fill="#e6ff1a" stroke="none" /><path d="M 107.59598834532513 119.57807347666477 l 10.730447022204027 27.656898705941494 a50.665578358208954,50.665578358208954 0 0,0 -0.8157876583482949,0.3084610882122203 l -10.252789143095457 -27.837508044260343" fill="#d5ff1c" stroke="none" /><path d="M 107.2578585660854 119.70592522655815 l 8.072965216747516 21.91903403315222 a44.35844216417911,44.35844216417911 0 0,0 -0.718776675686065,0.25772774305181934 l -7.694468980431716 -22.054749317243996" fill="#ffcf13" stroke="none" /><path d="M 106.2309692047433 120.05430185196036 l 13.177702729114639 42.41228283456967 a65.41231343283582,65.41231343283582 0 0,0 -1.078135174231569,0.3248332839182796 l -12.445692580442824 -42.63283148759368" fill="#32ff46" stroke="none" /><path d="M 105.18746579009965 120.34920634021253 l 6.397920560683944 25.09753527167737 a46.900186567164184,46.900186567164184 0 0,0 -0.7840074494920742,0.19268995627867433 l -5.964959826448658 -25.203946486270073" fill="#fff417" stroke="none" /><path d="M 104.83641907484287 120.43548508189849 l 3.983568389770128 16.831906239331577 a38.296875,38.296875 0 0,0 -0.642803656129535,0.1463000193460532 l -3.693244584247731 -16.89798299225531" fill="#ff710a" stroke="none" /><path d="M 104.48393922423573 120.51570834832081 l 4.938218914430985 22.59420878432973 a44.12756529850746,44.12756529850746 0 0,0 -0.7434623518545056,0.15579976438015952 l -4.548565101147102 -22.675864529436428" fill="#ffcb12" stroke="none" /><path d="M 103.7750983002368 120.6578951692458 l 8.848641258377567 48.42107117961947 a70.22294776119404,70.22294776119404 0 0,0 -1.1909511938768458,0.20706213075325056 l -8.013841093028672 -48.566211888893726" fill="#39ff88" stroke="none" /><path d="M 103.06178313531738 120.77559828337769 l 3.4276751964308985 23.25834318751135 a44.509561567164184,44.509561567164184 0 0,0 -0.7589334007624279,0.10518125392877523 l -3.0268132044816403 -23.31389900693273" fill="#ffd113" stroke="none" /><path d="M 102.70371172650421 120.8252237178851 l 3.244345980984427 24.989435896548013 a46.199160447761194,46.199160447761194 0 0,0 -0.7895053220357527,0.09559809955191155 l -2.813713235897294 -25.041579524825277" fill="#ffea16" stroke="none" /><path d="M 101.98527174616119 120.90594882070398 l 2.3826435695532626 25.090481753632734 a46.20335820895522,46.20335820895522 0 0,0 -0.7924000951608671,0.0683716144561923 l -1.9503991566508538 -25.12777762036759" fill="#ffea16" stroke="none" /><path d="M 101.62511606390274 120.93702456842531 l 4.062411168137451 52.33767871943819 a73.4951026119403,73.4951026119403 0 0,0 -1.2621462334399702,0.08704499390021189 l -3.1609021739185503 -52.39985205785469" fill="#3effb2" stroke="none" /><path d="M 100.90346689309514 120.98055641714683 l 0.7455949629817356 17.31441108106157 a38.33045708955224,38.33045708955224 0 0,0 -0.659429240831584,0.022712076380250527 l -0.44744537047549926 -17.324679955867918" fill="#ff710a" stroke="none" /><line stroke="#e1ed5e" stroke-width="0.3" x1="102.19456741930631" x2="102.32365962044197" y1="184.97166512339345" y2="189.96999836594603" /><path d="M 102.22038585953345 185.97133177190398 a86.0,86.0 0 0,1 -42.740103519485714,-10.115201625700543" fill="none" id="id55" stroke="none" /><text fill="#e1ed5e" style="font-size:6.75px; font-family:Arial;" text-anchor="middle"><textPath startOffset="22.20632615414155" xlink:href="#id55">July</textPath></text><path d="M 100.54218724476979 120.99299961872073 l 0.6512532956733135 25.215938441276563 a46.22434701492537,46.22434701492537 0 0,0 -0.7955877295039788,0.013696764264589593 l -0.21710587627666672 -25.223412682820314" fill="#ffea16" stroke="none" /><path d="M 99.81925306533755 120.99922214144158 l -0.21918335803499642 25.464775010871936 a46.46571828358209,46.46571828358209 0 0,0 -0.7997420774179924,-0.01376828513141695 l 0.6574851253456567 -25.45722924846136" fill="#ffee16" stroke="none" /><path d="M 99.45781275523022 120.99299961872073 l -0.5554456881886574 21.506354553426924 a42.51352611940298,42.51352611940298 0 0,0 -0.7313938935947042,-0.025190684529583722 l 0.9255599334580046 -21.493607070471246" fill="#ffb310" stroke="none" /><path d="M 99.09653310690486 120.98055641714683 l -1.9155930174027427 44.4844273554124 a65.52565298507463,65.52565298507463 0 0,0 -1.126454407267106,-0.058224826034971186 l 2.6810354930833378 -44.44486272261523" fill="#32ff48" stroke="none" /><path d="M 98.37488393609728 120.93702456842531 l -1.821596147721447 23.468356596637452 a44.53894589552239,44.53894589552239 0 0,0 -0.7638549736225918,-0.06590862125826255 l 2.2252954390855804 -23.433523723100528" fill="#ffd113" stroke="none" /><path d="M 98.01472825383883 120.90594882070398 l -2.384230940352415 25.10719759757253 a46.22014925373134,46.22014925373134 0 0,0 -0.7913932881745763,-0.08203115013121744 l 2.8160568251325846 -25.062437078985553" fill="#ffea16" stroke="none" /><path d="M 97.65516085044442 120.86867818915974 l -3.2679008296978 29.08377352108643 a50.26679104477612,50.26679104477612 0 0,0 -0.8590177541512453,-0.1040150870249585 l 3.7680460069004345 -29.023212905336123" fill="#daff1c" stroke="none" /><path d="M 96.93821686468263 120.77559828337769 l -3.0650472964424345 20.797747108839715 a42.02238805970149,42.02238805970149 0 0,0 -0.714709044783383,-0.11162285406128195 l 3.4225922048343347 -20.741905947431327" fill="#ffab0f" stroke="none" /><path d="M 96.58105272829116 120.7198165907248 l -7.263782198299066 44.020636454128166 a65.61590485074626,65.61590485074626 0 0,0 -1.112817714304066,-0.19347762380898165 l 8.020448884075181 -43.88908025179818" fill="#32ff49" stroke="none" /><path d="M 95.86986931433489 120.58985236759428 l -4.170446793437619 20.79083939930087 a42.204990671641795,42.204990671641795 0 0,0 -0.7110707652342833,-0.14901179246639804 l 4.527709020101288 -20.715971626107933" fill="#ffae10" stroke="none" /><path d="M 95.16358092515715 120.4354850818985 l -5.904053429517315 24.946596627496163 a46.6357276119403,46.6357276119403 0 0,0 -0.7795866186562856,-0.19160342361751703 l 6.332593332916812 -24.841271945564618" fill="#fff016" stroke="none" /><path d="M 94.81253420990036 120.34920634021253 l -6.948017296087949 27.25543518442046 a49.12709888059702,49.12709888059702 0 0,0 -0.8176376464625545,-0.21594553382368742 l 7.416145385361992 -27.13179830129319" fill="#eaff1a" stroke="none" /><path d="M 94.11515582081647 120.15858648285463 l -13.794368057142007 47.252731421480846 a70.22504664179104,70.22504664179104 0 0,0 -1.157459336372612,-0.3487330032653516 l 14.605702367954864 -47.00828304910977" fill="#39ff88" stroke="none" /><path d="M 92.7421414339146 119.70592522655815 l -7.370779006862381 20.012517280156317 a42.32672574626866,42.32672574626866 0 0,0 -0.6815203063107557,-0.2576926644722414 l 7.714169533933419 -19.882676365577442" fill="#ffb010" stroke="none" /><path d="M 92.06813273071674 119.44442032107085 l -8.725159698067518 21.389121473917818 a44.10027985074627,44.10027985074627 0 0,0 -0.7004143797320417,-0.2927732675332826 l 9.092045537297022 -21.235763163364563" fill="#ffcb12" stroke="none" /><path d="M 91.7346041902142 119.30500536409082 l -17.84539048670636 41.680443017899435 a66.34001865671641,66.34001865671641 0 0,0 -1.045895648574209,-0.45848991629509095 l 18.560206809938315 -41.367088548309894" fill="#33ff53" stroke="none" /><path d="M 91.07499286063937 119.00905698771935 l -8.968419021101925 19.101518418962915 a42.10214552238806,42.10214552238806 0 0,0 -0.653359803607457,-0.31365241034146235 l 9.295891492709623 -18.944311732121893" fill="#ffad10" stroke="none" /><path d="M 90.10565033884886 118.52300852407294 l -6.427899066912552 12.03353765389866 a34.64272388059702,34.64272388059702 0 0,0 -0.5235623949730942,-0.2854879626686912 l 6.634084273754286 -11.921109039470203" fill="#ff3505" stroke="none" /><line stroke="#e1ed5e" stroke-width="0.3" x1="58.666819895761336" x2="56.23545636021788" y1="174.27360380694188" y2="178.64263932499728" /><path d="M 58.180547188652646 175.14741091055294 a86.0,86.0 0 0,1 -31.652253787137756,-30.449443065178592" fill="none" id="id56" stroke="none" /><text fill="#e1ed5e" style="font-size:6.75px; font-family:Arial;" text-anchor="middle"><textPath startOffset="22.20632615414155" xlink:href="#id56">August</textPath></text><path d="M 89.7882731507175 118.34994917583269 l -8.176253710314707 14.6923083869532 a37.81413246268657,37.81413246268657 0 0,0 -0.5660437698785872,-0.3214144253719975 l 8.427946247114502 -14.549390795786572" fill="#ff6909" stroke="none" /><path d="M 89.4739219176387 118.17145234162733 l -15.442993753762794 26.6596564088567 a51.80946828358209,51.80946828358209 0 0,0 -0.7678462435612747,-0.45365709508032276 l 15.89960786835245 -26.389880741482628" fill="#c5ff1e" stroke="none" /><path d="M 89.1626897886671 117.98757091392108 l -10.848863846952662 18.006747428754682 a42.02238805970149,42.02238805970149 0 0,0 -0.61636998051925,-0.3786247843956655 l 11.15721302740422 -17.817334177530636" fill="#ffab0f" stroke="none" /><path d="M 87.95078237400918 117.19931262002967 l -12.169244147518379 17.370641060640978 a42.209188432835816,42.209188432835816 0 0,0 -0.5914766985457357,-0.4220029197320231 l 12.466448173913001 -17.158593879064735" fill="#ffae10" stroke="none" /><path d="M 87.65650970185807 116.9893568818739 l -10.17425018211386 14.003654005012066 a38.30946828358209,38.30946828358209 0 0,0 -0.5301574884991563,-0.39219783571617123 l 10.41379264103158 -13.826446220556129" fill="#ff710a" stroke="none" /><path d="M 87.36589467227662 116.77436683061367 l -29.094724898994613 38.62921636568858 a69.36030783582089,69.36030783582089 0 0,0 -0.9474990333783387,-0.7265018553630291 l 29.75535266086644 -38.122675168498176" fill="#38ff7c" stroke="none" /><path d="M 87.07902340077011 116.55440617244103 l -6.786353814194401 8.69470326854121 a32.029617537313435,32.029617537313435 0 0,0 -0.43170205976501297,-0.34297022531087135 l 6.935013366676772 -8.576599129225206" fill="#ff0901" stroke="none" /><path d="M 86.79598089348748 116.32954008644616 l -13.359303579613503 16.52158191915257 a42.24696828358209,42.24696828358209 0 0,0 -0.5615424203034705,-0.46211118229641335 l 13.641716128461661 -16.28917561799898" fill="#ffaf10" stroke="none" /><path d="M 86.51685102203217 116.09983520530335 l -10.798288189011485 12.893921192040478 a37.818330223880594,37.818330223880594 0 0,0 -0.4954822982285183,-0.42226076380924693 l 11.01863596381706 -12.70613603800828" fill="#ff6909" stroke="none" /><path d="M 86.24171649860922 115.8653595955263 l -16.532766778107142 19.064753972915707 a46.234841417910445,46.234841417910445 0 0,0 -0.596776539451231,-0.5265859100472512 l 16.85848567046496 -18.77734492109617" fill="#ffea16" stroke="none" /><path d="M 85.70375840098266 115.38237550388516 l -9.013262127525454 9.69803018508538 a34.23973880597015,34.23973880597015 0 0,0 -0.428264401149834,-0.4049507222032965 l 9.178862363066106 -9.541444826136152" fill="#ff2e04" stroke="none" /><path d="M 85.44109423537348 115.13401014063109 l -32.3370098754626 33.61438306455671 a67.64342350746269,67.64342350746269 0 0,0 -0.8321753183151097,-0.8144586986584272 l 32.9108351461535 -33.05277426297571" fill="#35ff65" stroke="none" /><path d="M 85.18274418774928 114.88116024355367 l -9.052960232571499 9.092004187984095 a33.83045708955224,33.83045708955224 0 0,0 -0.4091219874546805,-0.4144384132984062 l 9.208122845081713 -8.934825280705025" fill="#ff2703" stroke="none" /><path d="M 84.67929136418377 114.36230785411682 l -15.34469828486619 14.384796808979019 a42.03288246268657,42.03288246268657 0 0,0 -0.49029074007278123,-0.5321137647518006 l 15.590035432934702 -14.118531789425873" fill="#ffac0f" stroke="none" /><path d="M 84.43433777217949 114.09645910891817 l -17.467809384391856 15.819067451519178 a44.56623134328358,44.56623134328358 0 0,0 -0.5100523479944313,-0.5730492199995654 l 17.737520582034627 -15.516044061778748" fill="#ffd213" stroke="none" /><path d="M 83.95833913139862 113.55231037782056 l -12.845727633185735 10.852323169019693 a37.81623134328358,37.81623134328358 0 0,0 -0.41580567076740976,-0.5008647165007657 l 13.03062930384668 -10.629597195405166" fill="#ff6909" stroke="none" /><path d="M 83.72743513129214 113.27417163493432 l -34.35259013427978 28.022759855385413 a65.33255597014926,65.33255597014926 0 0,0 -0.7033581268820954,-0.87754740954141 l 34.829866173216736 -27.42728461226574" fill="#32ff45" stroke="none" /><path d="M 83.50135304334701 112.99209946851258 l -13.191881894978406 10.388139233885331 a37.791044776119406,37.791044776119406 0 0,0 -0.3980534035563971,-0.514537682235426 l 13.368742115752873 -10.159523557536652" fill="#ff6909" stroke="none" /><path d="M 83.06392112726016 112.41649034213515 l -17.334993043949428 12.708949652899056 a42.49463619402985,42.49463619402985 0 0,0 -0.4274155180869529,-0.5936427718051479 l 17.55118835441199 -12.408673275642771" fill="#ffb310" stroke="none" /><path d="M 82.85270091963577 112.12312394758628 l -17.31639557982411 12.242675009969197 a42.207089552238806,42.207089552238806 0 0,0 -0.4143110072202421,-0.5968459066758364 l 17.524567494206487 -11.942787841106348" fill="#ffae10" stroke="none" /><path d="M 82.44556493220864 111.52570212397912 l -17.859134583726846 11.725758454156127 a42.364505597014926,42.364505597014926 0 0,0 -0.39498876958721196,-0.6130313419495117 l 18.058328216691102 -11.416605512285166" fill="#ffb110" stroke="none" /><path d="M 82.24976979558568 111.22182372390057 l -30.18059530625297 19.080390310933808 a56.70615671641791,56.70615671641791 0 0,0 -0.5145013334765738,-0.8295399703552307 l 30.504561279397503 -18.558054009213315" fill="#85ff25" stroke="none" /><line stroke="#e1ed5e" stroke-width="0.3" x1="26.63291911575756" x2="22.317208475507996" y1="142.92168965132927" y2="145.44649492493687" /><path d="M 25.769776987707644 143.4266507060508 a86.0,86.0 0 0,1 -11.730757126820373,-40.83630448921669" fill="none" id="id57" stroke="none" /><text fill="#e1ed5e" style="font-size:6.75px; font-family:Arial;" text-anchor="middle"><textPath startOffset="21.46611528233685" xlink:href="#id57">September</textPath></text><path d="M 81.69416730710424 110.29060199501025 l -12.82920764018374 7.211923759562752 a35.71735074626866,35.71735074626866 0 0,0 -0.2966642172401778,-0.5385317262378186 l 12.951448266875435 -6.990021514927111" fill="#ff4706" stroke="none" /><path d="M 81.51974371655577 109.97397251340807 l -17.314158022488634 9.344618037781906 a40.67490671641791,40.67490671641791 0 0,0 -0.32723445085359715,-0.6190042594923639 l 17.47244498156712 -9.045198763203416" fill="#ff970d" stroke="none" /><path d="M 81.18737489456691 109.33194174019688 l -19.267021200896806 9.557343451339031 a42.50722947761194,42.50722947761194 0 0,0 -0.31950608301770794,-0.6582771655922574 l 19.428680540529236 -9.22427732978149" fill="#ffb310" stroke="none" /><path d="M 80.87730276802145 108.67885076344099 l -38.33012656456519 17.39615725554462 a63.093050373134325,63.093050373134325 0 0,0 -0.440326143984823,-0.9928192119786845 l 38.6238937932813 -16.73378970707324" fill="#37ff2e" stroke="none" /><path d="M 80.58989483394504 108.01547362559985 l -21.467772897877545 8.865195010083415 a44.226212686567166,44.226212686567166 0 0,0 -0.2845164626310464,-0.7061465272249767 l 21.61719197476598 -8.494349115015632" fill="#ffcd13" stroke="none" /><path d="M 80.32549172779594 107.34259656027581 l -20.59806178218325 7.687270019545155 a42.98577425373134,42.98577425373134 0 0,0 -0.252747630582956,-0.6954529285763312 l 20.727333673771433 -7.331569293962706" fill="#ffba11" stroke="none" /><path d="M 80.20201598880116 107.00284435728193 l -13.904627563302325 4.918275649515603 a35.74883395522388,35.74883395522388 0 0,0 -0.2002090788677324,-0.5819012989820828 l 13.987227473113286 -4.678201647444222" fill="#ff4706" stroke="none" /><path d="M 80.0844068197444 106.66101706037122 l -42.013435360040155 14.051914355002879 a65.30107276119404,65.30107276119404 0 0,0 -0.3473636116370049,-1.0690752689489529 l 42.24909122269341 -13.326640186076121" fill="#32ff45" stroke="none" /><path d="M 79.86692584326677 105.97154293290107 l -14.115823081971307 4.186804405080729 a35.7236473880597,35.7236473880597 0 0,0 -0.1697849069815645,-0.5910435348900528 l 14.185800625838976 -3.9432033946860803" fill="#ff4706" stroke="none" /><path d="M 79.76711848015287 105.62410040840567 l -14.24040028612374 3.958380371401193 a35.7803171641791,35.7803171641791 0 0,0 -0.15983906582252624,-0.5948206255176102 l 14.306427428288043 -3.712668812708044" fill="#ff4806" stroke="none" /><path d="M 79.58551787078972 104.9243191809786 l -27.626474683119735 6.663974051550868 a49.41884328358209,49.41884328358209 0 0,0 -0.19235563249364693,-0.8286630303680075 l 27.737090881543935 -6.187442363834287" fill="#e6ff1a" stroke="none" /><path d="M 79.50377843672027 104.57218783832718 l -13.657546891229943 3.0466527503458782 a34.99323694029851,34.99323694029851 0 0,0 -0.12608556720148079,-0.5890297939186346 l 13.707966497155864 -2.81110913701108" fill="#ff3b05" stroke="none" /><path d="M 79.4281124754447 104.21870165774334 l -45.70487284614934 9.372753113337225 a67.65601679104478,67.65601679104478 0 0,0 -0.22413493441678195,-1.1428592018039567 l 45.859437713541794 -8.584630184465315" fill="#35ff65" stroke="none" /><path d="M 79.23777060512086 103.15116336523772 l -21.27409139355354 3.2288506283732485 a42.51772388059702,42.51772388059702 0 0,0 -0.1035933186173789,-0.7245314291313665 l 21.32651876318752 -2.862173727261481" fill="#ffb310" stroke="none" /><path d="M 79.1416061653843 102.43462659150553 l -13.900963161902064 1.6225436546001017 a34.99533582089552,34.99533582089552 0 0,0 -0.0646875426078553,-0.5989263052812899 l 13.926833006010972 -1.3830210274340298" fill="#ff3b05" stroke="none" /><path d="M 79.10278846688536 102.07522291339032 l -14.651579714632122 1.45499287754195 a35.7236473880597,35.7236473880597 0 0,0 -0.05549992469004052,-0.6124370442204712 l 14.674454235599239 -1.2025744447729125" fill="#ff4706" stroke="none" /><path d="M 79.07016306316243 101.71520430193888 l -23.037742622473896 1.8879475923427063 a44.11497201492537,44.11497201492537 0 0,0 -0.05550806547908898,-0.7573634520987725 l 23.06682724661732 -1.491111003747173" fill="#ffcb12" stroke="none" /><path d="M 79.0235259727143 100.99374915477108 l -21.47684567585768 1.0174539920184165 a42.50093283582089,42.50093283582089 0 0,0 -0.028329638644564562,-0.7310620934965926 l 21.491177447353444 -0.647614651507827" fill="#ffb310" stroke="none" /><path d="M 79.0095281055655 100.63252640178507 l -13.349117736968958 0.40226200971732773 a34.35517723880597,34.35517723880597 0 0,0 -0.012724400714709119,-0.5912529016399828 l 13.354064200368676 -0.17241929228721603" fill="#ff3004" stroke="none" /><line stroke="#e1ed5e" stroke-width="0.3" x1="15.007084014347285" x2="10.007500721073583" y1="101.09737516637583" y2="101.16192664675087" /><path d="M 14.007167355692545 101.11028546245083 a86.0,86.0 0 0,1 10.666146001902534,-42.60595125391555" fill="none" id="id58" stroke="none" /><text fill="#e1ed5e" style="font-size:6.75px; font-family:Arial;" text-anchor="middle"><textPath startOffset="22.20632615414155" xlink:href="#id58">October</textPath></text><path d="M 79.00019446554 99.90962569577889 l -21.704323264110887 -0.09340625132768568 a42.70452425373134,42.70452425373134 0 0,0 0.00949055765397656,-0.7350541492619553 l 21.699499699339192 0.466996658650113" fill="#ffb610" stroke="none" /><path d="M 79.01574976396665 99.18683210126434 l -36.08206034055682 -1.3982283312081745 a57.10914179104478,57.10914179104478 0 0,0 0.04652054061553703,-0.9819750862399058 l 36.05264619170778 2.0191145240710897" fill="#80ff26" stroke="none" /><path d="M 79.05617556472873 98.46500227214037 l -23.769035827142716 -1.742060820880144 a44.83278917910448,44.83278917910448 0 0,0 0.06303386868212979,-0.7691728568566216 l 23.73552747464109 2.1509475949445442" fill="#ffd614" stroke="none" /><path d="M 79.12142395522702 97.74499172005258 l -12.608111320214391 -1.3617497362182505 a33.68143656716418,33.68143656716418 0 0,0 0.06721795794580299,-0.5758824143644891 l 12.582803009265 1.5785758889076011" fill="#ff2503" stroke="none" /><path d="M 79.16333360222342 97.38593545837743 l -22.499934411138547 -2.822729874835771 a43.67630597014926,43.67630597014926 0 0,0 0.10000626368661873,-0.7451628245464901 l 22.448012148394096 3.2096110414469208" fill="#ffc512" stroke="none" /><path d="M 79.26566170972629 96.67025291283419 l -15.83673506272705 -2.5432363313020847 a37.03964552238806,37.03964552238806 0 0,0 0.10651215443084863,-0.6286407647582434 l 15.790611046775977 2.815462884376156" fill="#ff5d08" stroke="none" /><path d="M 79.32604984820605 96.31383870115002 l -45.67334030069828 -8.143547709532918 a67.39365671641791,67.39365671641791 0 0,0 0.21345906140761092,-1.140306841490715 l 45.526395515380806 8.928532628486206" fill="#35ff62" stroke="none" /><path d="M 79.3925641242962 95.95851677861259 l -15.465875132328742 -3.0331320804968747 a36.760494402985074,36.760494402985074 0 0,0 0.12712252314560368,-0.6198945695031431 l 15.411373313268143 3.2989023061634204" fill="#ff5808" stroke="none" /><path d="M 79.62865764111835 94.90015583598534 l -21.692059050991983 -5.430477717558513 a43.36147388059702,43.36147388059702 0 0,0 0.18749432780324132,-0.7224921287757369 l 21.59536839131843 5.803066271883114" fill="#ffc011" stroke="none" /><path d="M 79.71946130924805 94.55025226153421 l -14.211106419329218 -3.818781455995166 a35.71525186567164,35.71525186567164 0 0,0 0.16465280348340383,-0.5923437390647122 l 14.143266845279454 4.062836498478821" fill="#ff4706" stroke="none" /><path d="M 79.81627453868168 94.20196356495316 l -60.5451244939912 -17.39237082140135 a83.99370335820896,83.99370335820896 0 0,0 0.4111455897605951,-1.3861785372516071 l 60.236773007118906 18.431978745399498" fill="#4dd2ff" stroke="none" /><path d="M 80.02781315780177 93.51064311812611 l -15.182747846657751 -4.933173818316845 a36.96408582089552,36.96408582089552 0 0,0 0.20182867207030172,-0.6034420402519333 l 15.095581880815677 5.193788961491101" fill="#ff5b08" stroke="none" /><path d="M 80.2630227832202 92.82701384747504 l -12.561807460999516 -4.565322743131557 a34.365671641791046,34.365671641791046 0 0,0 0.20684110517057747,-0.5542313269295959 l 12.481361767327313 4.780877207090494" fill="#ff3004" stroke="none" /><path d="M 80.52162464483688 92.15188598940014 l -20.846326289620876 -8.399280866088407 a43.474813432835816,43.474813432835816 0 0,0 0.28564673430475573,-0.6917162244146867 l 20.69865786842992 8.756871660956406" fill="#ffc112" stroke="none" /><path d="M 80.803312248108 91.48605970444005 l -16.9608261986999 -7.5223113219033095 a39.55410447761194,39.55410447761194 0 0,0 0.2813948363592735,-0.620016221618626 l 16.828829045377272 7.813149552364006" fill="#ff850c" stroke="none" /><path d="M 81.10775173730289 90.83032412892265 l -14.261708868085483 -6.922164364430352 a36.85284514925373,36.85284514925373 0 0,0 0.2819066936860002,-0.5683066922913513 l 14.14044216144607 7.166630645220665" fill="#ff5a08" stroke="none" /><path d="M 81.26839172434947 90.50648371742162 l -19.17843102103184 -9.719974093689988 a42.50093283582089,42.50093283582089 0 0,0 0.33634543424804747,-0.6497123223657095 l 19.00827615362368 10.048659138316033" fill="#ffb310" stroke="none" /><path d="M 81.43458229118936 90.18545643968196 l -19.011987257909826 -10.050621000701494 a42.505130597014926,42.505130597014926 0 0,0 0.34751365072231355,-0.6438900166117721 l 18.836165507969042 10.376392000645739" fill="#ffb310" stroke="none" /><line stroke="#e1ed5e" stroke-width="0.3" x1="26.266209847984243" x2="21.928928074336255" y1="57.711370442889674" y2="55.22380399835377" /><path d="M 25.398753493254645 57.213857153982495 a86.0,86.0 0 0,1 29.58750427330803,-30.492523968695096" fill="none" id="id59" stroke="none" /><text fill="#e1ed5e" style="font-size:6.75px; font-family:Arial;" text-anchor="middle"><textPath startOffset="21.46611528233685" xlink:href="#id59">November</textPath></text><path d="M 81.78341655067845 89.55222093294921 l -39.59266628021183 -22.70762962340948 a66.64225746268656,66.64225746268656 0 0,0 0.5792809224414867,-0.9901788731224143 l 39.195925683300025 23.38578790888579" fill="#34ff58" stroke="none" /><path d="M 81.96595687620814 89.24020034530311 l -10.317183786039244 -6.155626321643626 a33.013992537313435,33.013992537313435 0 0,0 0.2953717920599012,-0.4855135633630254 l 10.209696195693127 6.332307658213726" fill="#ff1a02" stroke="none" /><path d="M 82.34701348167596 88.62581576622439 l -18.021149150269366 -11.611399030228945 a42.437966417910445,42.437966417910445 0 0,0 0.40094453932766766,-0.6106660406197586 l 17.818607975583777 11.919883134826371" fill="#ffb210" stroke="none" /><path d="M 82.54541684631803 88.32363383020206 l -22.92833019611295 -15.338067754163209 a48.585587686567166,48.585587686567166 0 0,0 0.4709922368614847,-0.6911229902047568 l 22.660913493582722 15.730468767638381" fill="#f2ff19" stroke="none" /><path d="M 82.95767976084542 87.72973835380427 l -17.242744647617457 -12.414564763236884 a42.24696828358209,42.24696828358209 0 0,0 0.4299884109596298,-0.5865037093182447 l 17.026493624144194 12.70953091622663" fill="#ffaf10" stroke="none" /><path d="M 83.39014120810768 87.1503855733568 l -49.82957637567698 -38.54884327992962 a84.0,84.0 0 0,0 0.8945836776241158,-1.1360304241878092 l 49.15863861745889 39.40086609807048" fill="#4dd2ff" stroke="none" /><path d="M 84.07557802195018 86.31012108654704 l -11.206408763404394 -9.633905659943595 a35.77821828358209,35.77821828358209 0 0,0 0.4055003361038333,-0.4635569819875297 l 11.038916563722717 9.825378198134068" fill="#ff4806" stroke="none" /><path d="M 84.31358615837235 86.03803664274999 l -15.693730265994091 -13.968475467024858 a42.009794776119406,42.009794776119406 0 0,0 0.4854258980400108,-0.53601940083996 l 15.450960727338035 14.236547655134373" fill="#ffab0f" stroke="none" /><line stroke="#e1ed5e" stroke-width="0.3" x1="56.762969772571076" x2="54.21961505331055" y1="26.818313649435495" y2="22.513508569990535" /><path d="M 56.25429882871897 25.957352633546506 a86.0,86.0 0 0,1 42.265352541879196,-11.944610805530505" fill="none" id="id60" stroke="none" /><text fill="#e1ed5e" style="font-size:6.75px; font-family:Arial;" text-anchor="middle"><textPath startOffset="22.20632615414155" xlink:href="#id60">December</textPath></text></svg>