<?xml version="1.0" encoding="utf-8" ?>
<svg baseProfile="full" height="200mm" version="1.1" viewBox="0,0,200,200" width="200mm" xmlns="http://www.w3.org/2000/svg" xmlns:ev="http://www.w3.org/2001/xml-events" xmlns:xlink="http://www.w3.org/1999/xlink"><defs /><rect fill="#1a1a1a" height="200" width="200" x="0" y="0" /><text alignment-baseline="middle" fill="#e1ed5e" style="dominant-baseline: central; font-size:9.0px; font-family:Arial;" text-anchor="middle" x="100.0" y="100.0">2026</text><line stroke="#e1ed5e" stroke-width="0.3" x1="100.0" x2="100.0" y1="15.0" y2="10.0" /><path d="M 100.0 14.0 a86.0,86.0 0 0,1 42.46469731375804,11.215312516191453" fill="none" id="id61" stroke="none" /><text fill="#e1ed5e" style="font-size:6.75px; font-family:Arial;" text-anchor="middle"><textPath startOffset="22.20632615414155" xlink:href="#id61">January</textPath></text><path d="M 100.0 79.0 l 0.0 -42.53738504598161 a63.53738504598161,63.53738504598161 0 0,0 1.0936916380068862,0.009413749219098346 l -0.7322111587343578 42.53108267337107" fill="#33ff53" stroke="none" /><path d="M 100.72285384407766 79.0124445844662 l 0.7417850423132011 -21.537209505784684 a42.5499800079968,42.5499800079968 0 0,0 0.7317769219780338,0.031511853594019604 l -1.1124027966805663 21.52124992566647" fill="#f8ff18" stroke="none" /><path d="M 101.44485096284872 79.0497635885617 l 1.4805245122113353 -21.467500345227307 a42.518492602958815,42.518492602958815 0 0,0 0.7297181841729088,0.05664017536711826 l -1.8498328857465853 21.438834907671726" fill="#f8ff18" stroke="none" /><path d="M 102.52436894288641 79.15227682838746 l 2.020958702876572 -16.690265381991686 a37.81217512994802,37.81217512994802 0 0,0 0.6454813270080135,0.08380200168376704 l -2.3079547583924316 16.65300505714378" fill="#ffca12" stroke="none" /><path d="M 103.59715602781102 79.31037775812273 l 3.766873905172766 -21.66578194781151 a42.99080367852859,42.99080367852859 0 0,0 0.727987596942482,0.13303508016162285 l -4.139256623218149 21.59773138629915" fill="#f3ff19" stroke="none" /><path d="M 104.66035177308747 79.52364482259891 l 4.696222133596045 -20.633960070309914 a42.161635345861654,42.161635345861654 0 0,0 0.7062602206475125,0.16714897587471544 l -5.050706041206081 20.550065182294333" fill="#fdff18" stroke="none" /><path d="M 105.01212808612495 79.60689891045804 l 3.114794113498484 -12.67332161872075 a34.05047980807677,34.05047980807677 0 0,0 0.5679800196561584,0.14479075361303426 l -3.3324830218396673 12.61782786893885" fill="#ff980e" stroke="none" /><path d="M 105.71112130821622 79.79150937346287 l 14.316623367397666 -50.6585893574868 a73.64274290283886,73.64274290283886 0 0,0 1.2168929609982735,0.3552444247175174 l -15.186506546119366 50.40464660385057" fill="#40ffc5" stroke="none" /><path d="M 106.40334571778207 80.00007090966166 l 6.412306817347139 -20.02791779558272 a42.02938824470212,42.02938824470212 0 0,0 0.6871148073832785,0.22653094890859382 l -6.756104446972835 19.91457312241489" fill="#feff18" stroke="none" /><path d="M 106.74666289553966 80.11325718540242 l 4.527898308741825 -13.346620477529802 a35.093762495002,35.093762495002 0 0,0 0.5703872706987396,0.19899691889914387 l -4.7569675835038385 13.266702705458451" fill="#ffa60f" stroke="none" /><path d="M 107.4271985657038 80.35727306442388 l 4.721809563962033 -12.487779219338671 a34.350659736105555,34.350659736105555 0 0,0 0.5512738392588413,0.2138856850794774 l -4.936066568220541 12.404650830368647" fill="#ff9c0e" stroke="none" /><path d="M 108.09893153111575 80.62456947434976 l 6.075008217662193 -14.533509662582908 a36.75209916033587,36.75209916033587 0 0,0 0.5815866422038346,0.24900504842337648 l -6.324278617656343 14.426785086196741" fill="#ffbc11" stroke="none" /><path d="M 110.05341064243156 81.56283822128135 l 6.593405360355202 -12.091785128965721 a34.772590963614554,34.772590963614554 0 0,0 0.5230392307598699,0.29107076563530787 l -6.800568680187107 11.976498965770233" fill="#ffa20f" stroke="none" /><line stroke="#e1ed5e" stroke-width="0.3" x1="143.23703022742887" x2="145.7803849466894" y1="26.81831364943548" y2="22.513508569990506" /><path d="M 143.74570117128098 25.957352633546492 a86.0,86.0 0 0,1 28.547481713284135,27.462654790039103" fill="none" id="id62" stroke="none" /><text fill="#e1ed5e" style="font-size:6.75px; font-family:Arial;" text-anchor="middle"><textPath startOffset="19.985693538727396" xlink:href="#id62">February</textPath></text><path d="M 110.68208982089419 81.91981866633111 l 5.3591972022259045 -9.070814685494213 a31.535685725709715,31.535685725709715 0 0,0 0.4649830746913666,0.28014709977041513 l -5.5145423431349085 8.977220976265183" fill="#ff760a" stroke="none" /><path d="M 110.99172775467656 82.1063720568725 l 11.543291862318261 -18.79152890548755 a43.05377848860456,43.05377848860456 0 0,0 0.6281358641388326,0.39333862049844204 l -11.865046878829357 18.590045943666166" fill="#f2ff19" stroke="none" /><path d="M 111.2981086023043 82.29822771554956 l 7.352127848960509 -11.519246058753733 a34.665533786485405,34.665533786485405 0 0,0 0.5002285621949617,0.3253625716143097 l -7.549323436939751 11.390984562979895" fill="#ffa10e" stroke="none" /><path d="M 111.60114157652 82.49532879139004 l 7.550483087237285 -11.392734330193873 a34.66763294682127,34.66763294682127 0 0,0 0.4945838136621313,0.3339451987592426 l -7.745471595305958 11.26107721913596" fill="#ffa10e" stroke="none" /><path d="M 111.90073688211348 82.69761687909136 l 11.91977044769862 -17.330055864804535 a42.03358656537385,42.03358656537385 0 0,0 0.5926112416010569,0.415162046031083 l -12.216312828883327 17.122308976009517" fill="#feff18" stroke="none" /><path d="M 112.19680574252982 82.90503203632743 l 7.710175881223371 -10.806535126176069 a34.2750899640144,34.2750899640144 0 0,0 0.47732907582720296,0.34679987344195656 l -7.895050273404363 10.672216017917437" fill="#ff9b0e" stroke="none" /><path d="M 112.48926042617603 83.11751280151076 l 27.50658486304843 -37.182311119983375 a67.25079968012795,67.25079968012795 0 0,0 0.9247108128791169,0.6964730129949189 l -28.142541829685932 36.70332151748261" fill="#38ff7e" stroke="none" /><path d="M 112.77801427241765 83.33499621200491 l 6.836058815071894 -8.915543809811048 a32.234706117552975,32.234706117552975 0 0,0 0.43742103988122627,0.3414140598848631 l -6.98851241011255 8.79655136070296" fill="#ff800b" stroke="none" /><path d="M 113.06298171725822 83.55741782278167 l 6.800480686073651 -8.559872848755798 a31.932427029188325,31.932427029188325 0 0,0 0.4274331768329629,0.3456212363472671 l -6.946817261471105 8.441545515144401" fill="#ff7b0b" stroke="none" /><path d="M 113.34407831869373 83.78471172551755 l 13.36141868436176 -16.236359720660804 a42.02728908436625,42.02728908436625 0 0,0 0.5546450672272603,0.4644992930646084 l -13.638921288548138 16.003959270202376" fill="#ffff18" stroke="none" /><path d="M 113.6212207817346 84.01681056812373 l 8.598361579033794 -10.089348386875114 a34.256197520991606,34.256197520991606 0 0,0 0.44550380846495957,0.38633651263338514 l -8.770759186145517 9.939846880822058" fill="#ff9b0e" stroke="none" /><path d="M 113.89432698308785 84.25364557470407 l 11.451292080723642 -12.977678152395548 a38.30757696921232,38.30757696921232 0 0,0 0.4906817760256676,0.4405389433195813 l -11.672984844345299 12.778640200306668" fill="#ffd013" stroke="none" /><path d="M 114.16331599549186 84.49514656593476 l 7.369058352312583 -8.067049392673885 a31.926129548180725,31.926129548180725 0 0,0 0.4025613050144117,0.37413686029496124 l -7.506827541121842 7.939007946304283" fill="#ff7b0b" stroke="none" /><path d="M 114.42810811169701 84.74124197986012 l 36.94282179939213 -39.06968079626979 a74.76999200319872,74.76999200319872 0 0,0 0.9275636091332742,0.8923154570785254 l -37.60986865213782 38.42798225242896" fill="#41ffd1" stroke="none" /><path d="M 114.68862486808459 84.99185889309783 l 4.4239131075108835 -4.520144857566601 a27.324770091963217,27.324770091963217 0 0,0 0.33331561267712545,0.33188424950893697 l -4.501064520355332 4.443324757407546" fill="#ff3a05" stroke="none" /><path d="M 114.94478906791727 85.2469230424477 l 1.664183828634531 -1.642835638815801 a23.33846461415434,23.33846461415434 0 0,0 0.27976788446109896,0.28832539722849154 l -1.6922159767987388 1.613946046037195" fill="#ff0000" stroke="none" /><path d="M 115.19652480421416 85.50635884689758 l 4.599667843578615 -4.38691977325011 a27.3562574970012,27.3562574970012 0 0,0 0.3220648000880575,0.3435562734151529 l -4.6744999656371355 4.307094082956902" fill="#ff3b05" stroke="none" /><path d="M 115.4437574822437 85.77008943001954 l 4.654431108453093 -4.2886025958107865 a27.328968412634946,27.328968412634946 0 0,0 0.3157879990823502,0.34870099585543196 l -4.727562748151479 4.207848812685806" fill="#ff3b05" stroke="none" /><path d="M 115.68641384162765 86.03803664274999 l 3.226973179335238 -2.8722231696541916 a25.320071971211515,25.320071971211515 0 0,0 0.2869706259020387,0.3280570332946865 l -3.275935668815125 2.816250580156557" fill="#ff1d03" stroke="none" /><path d="M 115.9244219780498 86.31012108654704 l 4.805660730880886 -4.131321915205368 a27.33736505397841,27.33736505397841 0 0,0 0.3036912915391116,0.3594747000180073 l -4.876062635907115 4.047988265558255" fill="#ff3b05" stroke="none" /><path d="M 116.15771136456269 86.58626213691792 l 4.939052514277561 -4.100280926160034 a27.41923230707717,27.41923230707717 0 0,0 0.29834932991782764,0.3657410012573957 l -5.008900336271798 4.014655755294537" fill="#ff3c05" stroke="none" /><path d="M 116.38621287248628 86.86637796730983 l 1.8377979651069176 -1.47300319079152 a23.355257896841263,23.355257896841263 0 0,0 0.24872895834781647,0.3158605182805373 l -1.8628810040486983 1.4411502785579444" fill="#ff0000" stroke="none" /><path d="M 116.60985879189232 87.15038557335679 l 3.3256244662295384 -2.5727486701885582 a25.204618152738902,25.204618152738902 0 0,0 0.2625169717841932,0.34544156297445316 l -3.3694173782378454 2.5151223313330715" fill="#ff1c02" stroke="none" /><path d="M 116.82858285166822 87.43820079747576 l 3.367735192826845 -2.5138666536838805 a25.20251899240304,25.20251899240304 0 0,0 0.2565105032148542,0.3498800381127596 l -3.4105083085553254 2.455524171899627" fill="#ff1c02" stroke="none" /><path d="M 117.04232023915458 87.72973835380427 l 10.589270552437515 -7.624144981282758 a34.048380647740906,34.048380647740906 0 0,0 0.3383555884427249,0.4785799844680443 l -10.718938760684122 7.440738496482921" fill="#ff980e" stroke="none" /><path d="M 117.2510076193507 88.02491185347247 l 9.582551913307862 -6.651895724735456 a32.66503398640544,32.66503398640544 0 0,0 0.31665722608245106,0.46465540582658993 l -9.695633605059045 6.485962295638459" fill="#ff850c" stroke="none" /><path d="M 117.45458315368197 88.32363383020206 l 6.726051385190322 -4.499439382704024 a29.092263094762096,29.092263094762096 0 0,0 0.27485728014539373,0.4186264945355274 l -6.802505300693641 4.382994824190822" fill="#ff5407" stroke="none" /><path d="M 117.65298651832404 88.62581576622439 l 37.25584809689878 -24.004713287455463 a65.31957217113154,65.31957217113154 0 0,0 0.6008542270706314,0.950407091770996 l -37.66352992021537 23.35985854797026" fill="#35ff68" stroke="none" /><line stroke="#e1ed5e" stroke-width="0.3" x1="172.23445277983987" x2="176.4835382374775" y1="55.19839476539836" y2="52.563006222186495" /><path d="M 173.08426987136738 54.67131705675599 a86.0,86.0 0 0,1 12.851231095245387,41.99856678651699" fill="none" id="id63" stroke="none" /><text fill="#e1ed5e" style="font-size:6.75px; font-family:Arial;" text-anchor="middle"><textPath startOffset="22.20632615414155" xlink:href="#id63">March</textPath></text><path d="M 117.84615892207809 88.93136811851018 l 8.971244823983474 -5.564189297482235 a31.55667732906837,31.55667732906837 0 0,0 0.282333387081487,0.4640818537962759 l -9.065694009351185 5.408939670478878" fill="#ff760a" stroke="none" /><path d="M 118.21658344932153 89.55222093294921 l 11.477321619459577 -6.582602105120066 a34.23100759696121,34.23100759696121 0 0,0 0.2887505441267788,0.5136549983499915 l -11.588929804878788 6.384063596835281" fill="#ff9b0e" stroke="none" /><path d="M 118.56541770881063 90.18545643968196 l 14.915060188495705 -7.884794741531 a37.870951619352255,37.870951619352255 0 0,0 0.2997045198279029,0.5789337382748019 l -15.048574141483725 7.6268882809958525" fill="#ffcb12" stroke="none" /><path d="M 118.73160827565052 90.50648371742162 l 12.180039167643606 -6.173063116570615 a34.65503798480608,34.65503798480608 0 0,0 0.26509451680849516,0.534414369599244 l -12.284493697405509 5.962489158472422" fill="#ffa00e" stroke="none" /><path d="M 118.89224826269711 90.83032412892265 l 39.95057097134719 -19.39069302805289 a65.4077369052379,65.4077369052379 0 0,0 0.48290160316720493,1.0171139315330269 l -40.27843076835615 18.700136680879325" fill="#35ff69" stroke="none" /><path d="M 119.196687751892 91.48605970444005 l 12.472857895571572 -5.531848452732869 a34.644542183126745,34.644542183126745 0 0,0 0.2370829792839261,0.5472202036927936 l -12.56623158469818 5.316329104453473" fill="#ffa00e" stroke="none" /><path d="M 119.34039704204932 91.81776055985345 l 13.554130713895228 -5.734274361742049 a35.7172131147541,35.7172131147541 0 0,0 0.23467622927142656,0.568287103532292 l -13.650828630052853 5.500112687756454" fill="#ffaf10" stroke="none" /><path d="M 119.7369772167798 92.82701384747503 l 16.189687629037895 -5.8837989171951115 a38.225709716113556,38.225709716113556 0 0,0 0.21942816857790565,0.620352981084701 l -16.288568878425608 5.604248309683795" fill="#ffcf13" stroke="none" /><path d="M 120.08093135843002 93.85539295169968 l 12.35888588303215 -3.781721870890148 a33.92453018792483,33.92453018792483 0 0,0 0.166059126027367,0.5598688205507127 l -12.422150906171218 3.5684236635929056" fill="#ff970d" stroke="none" /><path d="M 120.28053869075195 94.5502522615342 l 19.277053419668164 -5.180093087272218 a40.9609156337465,40.9609156337465 0 0,0 0.17711435188072608,0.6824938472876132 l -19.363364103419194 4.847502814435755" fill="#fff216" stroke="none" /><path d="M 120.37134235888165 94.90015583598534 l 16.312957180827755 -4.083851619144476 a37.81637345061975,37.81637345061975 0 0,0 0.15264705150952998,0.6328205769348059 l -16.380837032598105 3.802445810550264" fill="#ffca12" stroke="none" /><path d="M 120.53481517161879 95.60439243477599 l 47.4349304079307 -10.153748023266877 a69.5094962015194,69.5094962015194 0 0,0 0.24037278832134223,1.1721430825130894 l -47.60268249216704 9.335729284590377" fill="#3bff98" stroke="none" /><path d="M 120.6074358757038 95.95851677861258 l 22.7147336466799 -4.454761643566491 a44.14744102359056,44.14744102359056 0 0,0 0.13983024194839555,0.7469787437909677 l -22.788049612538156 4.063104822312961" fill="#e5ff1a" stroke="none" /><path d="M 120.67395015179393 96.31383870115 l 20.680149856957406 -3.687266705077156 a42.00629748100759,42.00629748100759 0 0,0 0.12079438615741872,0.7129353048792251 l -20.740556104635047 3.330745611882093" fill="#ffff18" stroke="none" /><path d="M 120.73433829027371 96.67025291283417 l 16.628508207003794 -2.670387932860001 a37.841563374650136,37.841563374650136 0 0,0 0.09774675219609565,0.6440289685033921 l -16.67201085263919 2.383759851964527" fill="#ffca12" stroke="none" /><path d="M 120.78858239683441 97.02765380044208 l 10.419227522763668 -1.489738489062712 a31.525189924030386,31.525189924030386 0 0,0 0.07218367914328429,0.5378522529860926 l -10.443327200964788 1.310167894011955" fill="#ff760a" stroke="none" /><path d="M 120.87857604477298 97.74499172005257 l 16.731661750394352 -1.8071172911174076 a37.82896841263495,37.82896841263495 0 0,0 0.06435045162740476,0.6480002660111334 l -16.760289327703983 1.5188414944018394" fill="#ffca12" stroke="none" /><path d="M 120.94382443527127 98.46500227214037 l 4.432034819019318 -0.3248290873529431 a25.443922431027588,25.443922431027588 0 0,0 0.028254153981955177,0.4370792565162894 l -4.436969564005689 0.2484907665836184" fill="#ff1f03" stroke="none" /><path d="M 120.98425023603335 99.18683210126433 l 13.634308929849736 -0.5283477950601602 a34.644542183126745,34.644542183126745 0 0,0 0.017962874320675115,0.5961003485503613 l -13.641383498626055 0.29357729908479974" fill="#ffa00e" stroke="none" /><line stroke="#e1ed5e" stroke-width="0.3" x1="184.98032266829074" x2="189.97916517819016" y1="98.17113171792111" y2="98.06355123074" /><path d="M 185.9800911702706 98.14961562048488 a86.0,86.0 0 0,1 -9.607161424134198,41.387399972396054" fill="none" id="id64" stroke="none" /><text fill="#e1ed5e" style="font-size:6.75px; font-family:Arial;" text-anchor="middle"><textPath startOffset="21.466115282336823" xlink:href="#id64">April</textPath></text><path d="M 120.99513854157772 99.54816195383933 l 21.018223959806157 -0.4523348692821955 a42.023090763694526,42.023090763694526 0 0,0 0.009339117404083604,0.7233249350147538 l -21.022896084327954 0.09047367620697898" fill="#ffff18" stroke="none" /><path d="M 120.99824983174949 100.27111621757518 l 14.707590620858529 0.1898951755846984 a35.708816473410636,35.708816473410636 0 0,0 -0.013225758862988622,0.614549044741539 l -14.702142799310533 -0.4430340361163523" fill="#ffae10" stroke="none" /><path d="M 120.92983693683757 101.71520430193887 l 13.287224548766032 1.0888906958830231 a34.33176729308276,34.33176729308276 0 0,0 -0.053337512783729786,0.5885750090252028 l -13.266512439705227 -1.3174470934567963" fill="#ff9c0e" stroke="none" /><path d="M 120.89721153311464 102.0752229133903 l 13.588200821962294 1.3493927480611658 a34.65503798480608,34.65503798480608 0 0,0 -0.06405851504589509,0.5931022912838844 l -13.562960005415349 -1.5830913612298416" fill="#ffa00e" stroke="none" /><path d="M 120.81339534386255 102.79330883721812 l 13.550344249757776 1.8185546238306254 a34.671831267493005,34.671831267493005 0 0,0 -0.08447700713302636,0.5908319911335045 l -13.51703319160815 -2.0515320869445395" fill="#ffa10e" stroke="none" /><path d="M 120.70491114924044 103.5080841355445 l 35.29189773259176 5.979593230638225 a56.794882047181126,56.794882047181126 0 0,0 -0.17161130108665634,0.962487313090968 l -35.183739989165915 -6.5861992944624115" fill="#56ff2a" stroke="none" /><path d="M 120.5718875245553 104.21870165774334 l 12.354648165486624 2.533582522963011 a33.61175529788085,33.61175529788085 0 0,0 -0.12110789403680701,0.5657757620460118 l -12.309206232725375 -2.745872104425192" fill="#ff920d" stroke="none" /><path d="M 120.49622156327973 104.57218783832717 l 12.47515924618256 2.7828920179502328 a33.78178728508597,33.78178728508597 0 0,0 -0.13149067497797015,0.5664583863744048 l -12.425408005274036 -2.9972190616732024" fill="#ff950d" stroke="none" /><path d="M 120.41448212921028 104.9243191809786 l 20.498148039575902 4.944500816966219 a42.08606557377049,42.08606557377049 0 0,0 -0.17593716110539032,0.7027815021912843 l -20.40999956417545 -5.296610158554899" fill="#feff18" stroke="none" /><path d="M 120.23288151984713 105.62410040840565 l 44.955666775605955 12.49625188704928 a67.66013594562176,67.66013594562176 0 0,0 -0.3215704646028833,1.1194289733642857 l -44.73390367411697 -13.268238335918147" fill="#38ff83" stroke="none" /><path d="M 120.02730092923936 106.31721596034902 l 20.507763966326266 6.468768522372586 a42.503798480607756,42.503798480607756 0 0,0 -0.2260954119775121,0.6958501272740506 l -20.393376303332506 -6.820817549624431" fill="#f9ff18" stroke="none" /><path d="M 119.9155931802556 106.66101706037122 l 11.968467233076442 4.003002255792864 a33.620151939224314,33.620151939224314 0 0,0 -0.1882875301492619,0.5472516980529554 l -11.89778887198395 -4.20842665693512" fill="#ff920d" stroke="none" /><path d="M 119.67450827220406 107.3425965602758 l 19.784641465251184 7.383698660173377 a42.117552978808476,42.117552978808476 0 0,0 -0.25933526331826073,0.6770425384905839 l -19.654611922339416 -7.723164765497105" fill="#fdff18" stroke="none" /><path d="M 119.54520255179757 107.68017299344265 l 15.194226333999374 5.970482344062725 a37.325169932027194,37.325169932027194 0 0,0 -0.24012061334359308,0.5959596701706251 l -15.089203106398388 -6.231141382076163" fill="#ffc412" stroke="none" /><path d="M 119.41010516605496 108.01547362559984 l 43.12559051638381 17.808869679748852 a67.65803678528589,67.65803678528589 0 0,0 -0.45378895693629456,1.0726230471065459 l -42.81265057825521 -18.548567252521565" fill="#38ff83" stroke="none" /><path d="M 119.26925614724726 108.34839909993367 l 8.530941171147358 3.6960275503404874 a30.29718112754898,30.29718112754898 0 0,0 -0.21144390484541567,0.47675018586575757 l -8.46605618157067 -3.8423260726989326" fill="#ff6509" stroke="none" /><path d="M 119.12269723197855 108.67885076344098 l 19.172396365128424 8.701406753030094 a42.054578168732505,42.054578168732505 0 0,0 -0.30484639406545566,0.6566120124086272 l -19.01977535422314 -9.030138832717551" fill="#feff18" stroke="none" /><path d="M 118.81262510543309 109.33194174019688 l 30.125775108860264 14.943793150535184 a54.628548580567774,54.628548580567774 0 0,0 -0.4251176226991338,0.8387974005047064 l -29.86407881637486 -15.460144762742585" fill="#6dff28" stroke="none" /><path d="M 118.64920377521936 109.65438752849418 l 28.9021646672332 14.96217755315612 a53.5453818472611,53.5453818472611 0 0,0 -0.4307789504397669,0.8148714309459102 l -28.640333208568542 -15.457463999188166" fill="#79ff26" stroke="none" /><line stroke="#e1ed5e" stroke-width="0.3" x1="174.80103733775053" x2="179.2010983576182" y1="140.37084112569926" y2="142.7455964860345" /><path d="M 175.68104954172406 140.8457921977663 a86.0,86.0 0 0,1 -30.038265399797805,32.042727171017184" fill="none" id="id65" stroke="none" /><text fill="#e1ed5e" style="font-size:6.75px; font-family:Arial;" text-anchor="middle"><textPath startOffset="22.206326154141568" xlink:href="#id65">May</textPath></text><path d="M 117.94076556474637 110.91462005526583 l 10.880310343994026 6.619252286615131 a33.73560575769692,33.73560575769692 0 0,0 -0.3060869428124919,0.4935096120180617 l -10.764758761513571 -6.805558229998466" fill="#ff940d" stroke="none" /><path d="M 117.55443506779139 111.5257021239791 l 17.638662665077863 11.581003373674319 a42.10075969612155,42.10075969612155 0 0,0 -0.4029581885128527,0.602367817741737 l -17.43670137115429 -11.882908105621862" fill="#feff18" stroke="none" /><path d="M 117.14729908036423 112.12312394758627 l 17.55695566575079 12.412750759208938 a42.5016993202719,42.5016993202719 0 0,0 -0.42748655975321576,0.5937414424661083 l -17.340689313621972 -12.713125807126177" fill="#f9ff18" stroke="none" /><path d="M 116.93607887273984 112.41649034213515 l 11.872523104210766 8.704202995741078 a35.72141143542583,35.72141143542583 0 0,0 -0.36782632193618736,0.49276346755197786 l -11.720935515579486 -8.90727934280237" fill="#ffaf10" stroke="none" /><path d="M 116.71984013943494 112.70617746262583 l 35.30821099417257 26.832337572514312 a65.3468612554978,65.3468612554978 0 0,0 -0.6882990583768023,0.8897193165988049 l -34.841105118577694 -27.43613488322637" fill="#35ff68" stroke="none" /><path d="M 116.27256486870786 113.27417163493432 l 16.28232450377505 13.282132953387901 a42.01259496201519,42.01259496201519 0 0,0 -0.461946487218175,0.5564443022915831 l -16.051282016663333 -13.560438512793255" fill="#ffff18" stroke="none" /><path d="M 115.80600337817218 113.82643327865902 l 15.824962998377899 13.843018364559054 a42.025189924030386,42.025189924030386 0 0,0 -0.48097059476612025,0.5403755619540037 l -15.584333553963441 -14.113368096253923" fill="#ffff18" stroke="none" /><path d="M 115.32070863581623 114.36230785411682 l 32.34593033757245 30.322501418112896 a65.33636545381847,65.33636545381847 0 0,0 -0.776237863687498,0.8138822967182593 l -31.819185922505984 -30.874790831413662" fill="#35ff68" stroke="none" /><path d="M 114.55890576462653 115.13401014063108 l 14.585101316782 15.16124046675377 a42.037784886045586,42.037784886045586 0 0,0 -0.5258009376738991,0.4971776054104535 l -14.321964544717293 -15.410052708910143" fill="#feff18" stroke="none" /><path d="M 114.0293411484842 115.62618273729858 l 14.170980838208001 15.783944078408842 a42.212015193922426,42.212015193922426 0 0,0 -0.5448518817874277,0.4807684368353702 l -13.897186603513985 -16.0255356570165" fill="#fcff18" stroke="none" /><path d="M 113.48314897796784 116.09983520530334 l 28.481197941065204 34.0085683285156 a65.35945621751299,65.35945621751299 0 0,0 -0.868751267256347,0.7149231486668225 l -27.891576545264165 -34.493786596039605" fill="#35ff68" stroke="none" /><path d="M 112.92097659922987 116.55440617244103 l 13.956824583294491 17.881538694461998 a43.683526589364256,43.683526589364256 0 0,0 -0.5967404198371047,0.4575551076141944 l -13.646955434963893 -18.119133143903564" fill="#eaff1a" stroke="none" /><path d="M 112.63410532772338 116.77436683061366 l 12.665677961988978 16.816285980030433 a42.052479008396645,42.052479008396645 0 0,0 -0.581956306237995,0.4305173627445229 l -12.37433668533242 -17.031813291514727" fill="#feff18" stroke="none" /><path d="M 112.34349029814194 116.9893568818739 l 12.638381759682916 17.395240158040217 a42.5016993202719,42.5016993202719 0 0,0 -0.5955756490447456,0.4249274120791776 l -12.337078782789288 -17.610211831963614" fill="#f9ff18" stroke="none" /><line stroke="#e1ed5e" stroke-width="0.3" x1="143.8653032363475" x2="146.44561519142675" y1="172.8068346515853" y2="177.08958963109032" /><path d="M 144.38136562736335 173.6633856474863 a86.0,86.0 0 0,1 -40.68145358897372,12.25698825130547" fill="none" id="id66" stroke="none" /><text fill="#e1ed5e" style="font-size:6.75px; font-family:Arial;" text-anchor="middle"><textPath startOffset="21.466115282336833" xlink:href="#id66">June</textPath></text><path d="M 110.5260780823613 118.17145234162733 l 7.365308534239208 12.714930666872378 a35.694122351059576,35.694122351059576 0 0,0 -0.5343091130819603,0.3033946590192061 l -7.145350654236049 -12.839828491686214" fill="#ffae10" stroke="none" /><path d="M 110.21172684928248 118.3499491758327 l 7.188222758161465 12.916867462636331 a35.78228708516593,35.78228708516593 0 0,0 -0.5407848409523205,0.2948790134049332 l -6.964815105340496 -13.038687127801035" fill="#ffaf10" stroke="none" /><path d="M 109.89434966115114 118.52300852407294 l 6.942067200281871 12.996101242549765 a35.73400639744102,35.73400639744102 0 0,0 -0.5450441589655602,0.28514134359297144 l -6.717332138789815 -13.113672005087453" fill="#ffaf10" stroke="none" /><path d="M 109.2508944713604 118.85261126421891 l 14.827878133572966 30.21807493220214 a54.66003598560576,54.66003598560576 0 0,0 -0.8482387283028728,0.4072061369680084 l -14.30552673726986 -30.468835345669707" fill="#6dff28" stroke="none" /><path d="M 108.92500713936063 119.00905698771935 l 6.256604864887653 13.325721376936803 a35.72141143542583,35.72141143542583 0 0,0 -0.5588393758522414,0.25653574811326035 l -6.026297493267992 -13.431444195384138" fill="#ffaf10" stroke="none" /><path d="M 108.2653958097858 119.30500536409082 l 9.943426486482618 23.224284241986503 a46.26339464214314,46.26339464214314 0 0,0 -0.7347696425565228,0.307133770180209 l -9.542185384428635 -23.392003055186684" fill="#cbff1d" stroke="none" /><path d="M 107.59598834532513 119.57807347666477 l 9.123690119694796 23.51560684682167 a46.223510595761695,46.223510595761695 0 0,0 -0.7442640682585715,0.28141698647061053 l -8.71755583067595 -23.66917208339891" fill="#ccff1d" stroke="none" /><path d="M 107.2578585660854 119.70592522655815 l 5.819200675586868 15.799802703141033 a37.83736505397841,37.83736505397841 0 0,0 -0.6131102478657567,0.21983952146688512 l -5.546370867091376 -15.897629765647878" fill="#ffca12" stroke="none" /><path d="M 106.91757812671514 119.82793768551818 l 14.595785595632059 41.83607643601737 a65.30907636945221,65.30907636945221 0 0,0 -1.0646320740560768,0.361181002761455 l -13.873483788638756 -42.08112042567695" fill="#35ff68" stroke="none" /><path d="M 105.88484417918355 120.15858648285463 l 7.066048408671812 24.204812158341642 a46.21511395441823,46.21511395441823 0 0,0 -0.7655617955826668,0.21635541042174777 l -6.6483554449845395 -24.32285636210191" fill="#ccff1d" stroke="none" /><path d="M 105.18746579009965 120.34920634021253 l 6.272768258979961 24.60659227284596 a46.393542582966816,46.393542582966816 0 0,0 -0.7755381301369744,0.19060840363870693 l -5.848276844099775 -24.710921934798694" fill="#caff1d" stroke="none" /><path d="M 104.48393922423573 120.51570834832081 l 10.313418787451429 47.187769801565565 a69.30167932826869,69.30167932826869 0 0,0 -1.1675964706487918,0.24468119275229602 l -9.499630855373258 -47.3583069750444" fill="#3aff96" stroke="none" /><path d="M 104.13013068566511 120.58985236759428 l 3.3064990665225733 16.483819233512843 a37.81217512994802,37.81217512994802 0 0,0 -0.6392641302199009,0.12251649201809711 l -3.0222673217309683 -16.538292923879407" fill="#ffca12" stroke="none" /><path d="M 103.41894727170886 120.7198165907248 l 4.10690617394296 24.889047977882836 a46.22560975609756,46.22560975609756 0 0,0 -0.7861966660812519,0.12278775029082206 l -3.677873644253191 -24.956054035520765" fill="#ccff1d" stroke="none" /><path d="M 102.70371172650421 120.8252237178851 l 3.2458594397556513 25.001093247880842 a46.2109156337465,46.2109156337465 0 0,0 -0.7897062084113269,0.09562242409437473 l -2.8150258082929445 -25.053261200700568" fill="#ccff1d" stroke="none" /><path d="M 101.98527174616119 120.90594882070398 l 4.764930017700555 50.177202832259425 a71.40293882447021,71.40293882447021 0 0,0 -1.2245797213136205,0.10566189111767933 l -3.9005059786453926 -50.251788975655764" fill="#3dffad" stroke="none" /><path d="M 101.62511606390274 120.93702456842531 l 1.3013599348185514 16.765944004163853 a37.81637345061975,37.81637345061975 0 0,0 -0.6494282151706887,0.04478837200511023 l -1.0125689588689324 -16.78586072068525" fill="#ffca12" stroke="none" /><path d="M 100.90346689309514 120.98055641714683 l 0.9042796881808938 20.999431367941945 a42.01889244302279,42.01889244302279 0 0,0 -0.7228843183255184,0.024897597551467487 l -0.5426750181807232 -21.01188576391951" fill="#ffff18" stroke="none" /><line stroke="#e1ed5e" stroke-width="0.3" x1="102.19456741930631" x2="102.32365962044197" y1="184.97166512339345" y2="189.96999836594603" /><path d="M 102.22038585953345 185.97133177190398 a86.0,86.0 0 0,1 -42.740103519485714,-10.115201625700543" fill="none" id="id67" stroke="none" /><text fill="#e1ed5e" style="font-size:6.75px; font-family:Arial;" text-anchor="middle"><textPath startOffset="22.20632615414155" xlink:href="#id67">July</textPath></text><path d="M 100.18074693466247 120.99922214144158 l 0.1808372719948609 21.009717554347134 a42.010495801679326,42.010495801679326 0 0,0 -0.7231684133146182,0.0 l 0.18083727199484645 -21.009717554347134" fill="#ffff18" stroke="none" /><path d="M 99.45781275523022 120.99299961872073 l -1.0849706570418063 42.00908230379552 a63.02309076369452,63.02309076369452 0 0,0 -1.0842361936897433,-0.037343286770630375 l 1.8079272024061925 -41.9841822185988" fill="#32ff4d" stroke="none" /><path d="M 99.09653310690486 120.98055641714683 l -0.633257682365364 14.705683886148895 a35.71931227508996,35.71931227508996 0 0,0 -0.6140522818748573,-0.03173948901783012 l 0.8862980326537101 -14.692604590368862" fill="#ffaf10" stroke="none" /><path d="M 98.37488393609728 120.93702456842531 l -1.9656041956440313 25.323670259690754 a46.39984006397441,46.39984006397441 0 0,0 -0.7957698121392406,-0.06866236781611594 l 2.4012183255248134 -25.286083639595976" fill="#caff1d" stroke="none" /><path d="M 97.65516085044442 120.86867818915974 l -2.8574504270523904 25.430833247105795 a46.59086365453818,46.59086365453818 0 0,0 -0.7961992048554991,-0.09640863553987285 l 3.2947770549592788 -25.377879082840575" fill="#c7ff1e" stroke="none" /><path d="M 96.93821686468263 120.77559828337769 l -6.737208332441134 45.715038485804996 a67.20881647341064,67.20881647341064 0 0,0 -1.1430751854104466,-0.17852483543259842 l 7.523119381460098 -45.59229534302529" fill="#38ff7e" stroke="none" /><path d="M 95.86986931433489 120.58985236759428 l -4.959542175819158 24.724699769283294 a46.2172131147541,46.2172131147541 0 0,0 -0.7786687918541776,-0.16317761618789914 l 5.384402429102723 -24.635666172368854" fill="#ccff1d" stroke="none" /><path d="M 95.16358092515715 120.4354850818985 l -5.88356858664909 24.86004132813922 a46.546781287485004,46.546781287485004 0 0,0 -0.7780997465118002,-0.19123798661982205 l 6.310621617904101 -24.75508208320537" fill="#c8ff1d" stroke="none" /><path d="M 94.46302465271185 120.25689768951611 l -12.180902983118516 44.56355501308183 a67.19832067173131,67.19832067173131 0 0,0 -1.1131524436860356,-0.31458799956489947 l 12.946186594909166 -44.34727822017841" fill="#38ff7e" stroke="none" /><path d="M 94.11515582081647 120.15858648285463 l -4.725405167071306 16.186917754575298 a37.862554978008795,37.862554978008795 0 0,0 -0.6240560861676615,-0.1880229795521819 l 5.003336227679214 -16.10317940591739" fill="#ffcb12" stroke="none" /><path d="M 93.42475214034765 119.94407469862007 l -7.8924006696027025 23.939269190426806 a46.20671731307477,46.20671731307477 0 0,0 -0.7532360894228094,-0.2555385778087281 l 8.303306491962736 -23.799867625719955" fill="#ccff1d" stroke="none" /><path d="M 92.7421414339146 119.70592522655815 l -8.83000765771945 23.97449179652531 a46.54888044782087,46.54888044782087 0 0,0 -0.7495029842703644,-0.2833978962300488 l 9.241380862750098 -23.818945650188628" fill="#c8ff1d" stroke="none" /><path d="M 92.06813273071674 119.44442032107085 l -19.039970072427842 46.675160894661666 a71.4092363054778,71.4092363054778 0 0,0 -1.1341437315888971,-0.4740721717859408 l 19.840585263514203 -46.34050367985575" fill="#3dffad" stroke="none" /><path d="M 91.7346041902142 119.30500536409082 l -6.617934869690547 15.457126446058329 a37.81427429028389,37.81427429028389 0 0,0 -0.5961678295397254,-0.26134245671268874 l 6.883023373888016 -15.340919436051188" fill="#ffca12" stroke="none" /><path d="M 91.07499286063937 119.00905698771935 l -10.720000578424367 22.832150016436994 a46.223510595761695,46.223510595761695 0 0,0 -0.7173169782721581,-0.34435574085162296 l 11.111430224696766 -22.64423999908581" fill="#ccff1d" stroke="none" /><path d="M 90.42595943632237 118.69057910512821 l -11.649819650304657 22.742944766765866 a46.553078768492604,46.553078768492604 0 0,0 -0.7100654592832774,-0.3714726885308893 l 12.03957601211443 -22.53904265929026" fill="#c8ff1d" stroke="none" /><path d="M 90.10565033884886 118.52300852407294 l -6.428755777437261 12.03514148405378 a34.644542183126745,34.644542183126745 0 0,0 -0.5235898753418589,-0.28550294715681973 l 6.63496846464776 -11.922697885137193" fill="#ffa00e" stroke="none" /><line stroke="#e1ed5e" stroke-width="0.3" x1="58.666819895761336" x2="56.23545636021788" y1="174.27360380694188" y2="178.64263932499728" /><path d="M 58.180547188652646 175.14741091055294 a86.0,86.0 0 0,1 -31.652253787137756,-30.449443065178592" fill="none" id="id68" stroke="none" /><text fill="#e1ed5e" style="font-size:6.75px; font-family:Arial;" text-anchor="middle"><textPath startOffset="22.20632615414155" xlink:href="#id68">August</textPath></text><path d="M 89.7882731507175 118.34994917583269 l -28.388478149279834 51.01263859746932 a79.3797481007597,79.3797481007597 0 0,0 -1.1882438903313224,-0.6747158921907186 l 29.262370806532363 -50.51641953948397" fill="#47feff" stroke="none" /><path d="M 89.4739219176387 118.17145234162733 l -8.429069523970037 14.55132993890209 a37.81637345061975,37.81637345061975 0 0,0 -0.560460496143912,-0.3311299400367955 l 8.678297891142332 -14.404081426571544" fill="#ffca12" stroke="none" /><path d="M 88.8546689885994 117.79835938074946 l -13.383532730903177 21.3726200760639 a46.2172131147541,46.2172131147541 0 0,0 -0.670629804511484,-0.42802767099023425 l 13.749444337461584 -21.13907797624986" fill="#ccff1d" stroke="none" /><path d="M 88.24862548938628 117.40417183066458 l -14.397900577428254 21.32376390728266 a46.72940823670532,46.72940823670532 0 0,0 -0.6627634537594802,-0.45585474689559013 l 14.762820915810625 -21.07276837102197" fill="#c6ff1e" stroke="none" /><path d="M 87.65650970185807 116.9893568818739 l -34.565227630162745 47.57495438712669 a79.80587764894042,79.80587764894042 0 0,0 -1.1044184520818694,-0.8170223679339813 l 35.37903105266318 -46.97292207045294" fill="#48faff" stroke="none" /><path d="M 86.79598089348748 116.32954008644616 l -13.210618476317856 16.337701591887207 a42.010495801679326,42.010495801679326 0 0,0 -0.5583992520426972,-0.45952456880360276 l 13.489887856905243 -16.107881904226424" fill="#ffff18" stroke="none" /><path d="M 86.24171649860922 115.8653595955263 l -13.992080801994181 16.134962867341518 a42.35685725709716,42.35685725709716 0 0,0 -0.5467214317323944,-0.4824180972929584 l 14.267744586633164 -15.891721628276269" fill="#faff18" stroke="none" /><path d="M 85.70375840098266 115.38237550388516 l -34.345848719590435 36.95521919835825 a71.45121951219512,71.45121951219512 0 0,0 -0.8936988073775862,-0.8450480042425038 l 34.97688336135884 -36.35853655736982" fill="#3dffae" stroke="none" /><path d="M 85.44109423537348 115.13401014063109 l -11.659931326088332 12.120520716387075 a37.81847261095562,37.81847261095562 0 0,0 -0.46525734286262405,-0.45535223368122596 l 11.86683862132675 -11.918018379783279" fill="#ffca12" stroke="none" /><path d="M 84.9287848128048 114.62390073753433 l -15.167632397509117 14.717456280037544 a42.1343462614954,42.1343462614954 0 0,0 -0.5005830168654104,-0.5248592918788542 l 15.418721965753484 -14.454189871576189" fill="#fdff18" stroke="none" /><path d="M 84.43433777217949 114.09645910891817 l -19.14588901572684 17.338757430551585 a46.83016793282687,46.83016793282687 0 0,0 -0.5359626872446243,-0.6021597608207778 l 19.441510552619803 -17.006623499989942" fill="#c5ff1e" stroke="none" /><path d="M 83.95833913139862 113.55231037782056 l -16.076938411495156 13.582113539387143 a42.046181527389045,42.046181527389045 0 0,0 -0.46231578589888705,-0.5568891463425995 l 16.308350197287577 -13.303363135930782" fill="#feff18" stroke="none" /><path d="M 83.72743513129214 113.27417163493432 l -42.312897833836196 34.516296155492455 a75.60545781687324,75.60545781687324 0 0,0 -0.8139542744422303,-1.015533108557759 l 42.90077002033328 -33.782835213356435" fill="#42ffda" stroke="none" /><path d="M 83.28015986056508 112.70617746262583 l -16.733210663336912 12.71633834024489 a42.016793282686926,42.016793282686926 0 0,0 -0.43265038842774667,-0.5796058980149631 l 16.949622318459742 -12.42641956272062" fill="#ffff18" stroke="none" /><path d="M 82.85270091963577 112.12312394758628 l -20.849634747456065 14.740671701163489 a46.53418632546981,46.53418632546981 0 0,0 -0.4567864264324087,-0.6580349160174236 l 21.100282081050608 -14.379595522959054" fill="#c8ff1d" stroke="none" /><path d="M 82.44556493220864 111.52570212397912 l -49.1468030166634 32.26827919716185 a79.79328268692524,79.79328268692524 0 0,0 -0.743958889775264,-1.1546407180913543 l 49.69496676981571 -31.417516879149048" fill="#48faff" stroke="none" /><path d="M 82.24976979558568 111.22182372390057 l -17.76974765066068 11.23416279436867 a42.023090763694526,42.023090763694526 0 0,0 -0.38128022575841575,-0.6147451261894019 l 17.960492516087054 -10.926621336814005" fill="#ffff18" stroke="none" /><line stroke="#e1ed5e" stroke-width="0.3" x1="26.63291911575756" x2="22.317208475507996" y1="142.92168965132927" y2="145.44649492493687" /><path d="M 25.769776987707644 143.4266507060508 a86.0,86.0 0 0,1 -11.730757126820373,-40.83630448921669" fill="none" id="id69" stroke="none" /><text fill="#e1ed5e" style="font-size:6.75px; font-family:Arial;" text-anchor="middle"><textPath startOffset="21.46611528233685" xlink:href="#id69">September</textPath></text><path d="M 81.87401531095188 110.60418214915194 l -18.142291552522888 10.613722097106995 a42.01889244302279,42.01889244302279 0 0,0 -0.35985780617931484,-0.6274424175783957 l 18.32230135485458 -10.299859833670293" fill="#ffff18" stroke="none" /><path d="M 81.51974371655577 109.97397251340807 l -22.46300643809296 12.12350117583388 a46.52578968412635,46.52578968412635 0 0,0 -0.37430549857093415,-0.7080449425860755 l 22.66836444488878 -11.73504121816168" fill="#c8ff1d" stroke="none" /><path d="M 81.18737489456691 109.33194174019688 l -56.43035327507357 27.992093936408235 a83.99160335865653,83.99160335865653 0 0,0 -0.6313238600891508,-1.300714143734209 l 56.90383039177744 -27.01659083670874" fill="#4dd2ff" stroke="none" /><path d="M 81.02952815118164 109.00673069616217 l -18.991331024181925 9.016634138550991 a42.023090763694526,42.023090763694526 0 0,0 -0.3046181472894352,-0.6561203891588525 l 19.14372378831119 -8.688393682113311" fill="#ffff18" stroke="none" /><path d="M 80.73074385275274 108.34839909993369 l -19.471502438276943 8.436022241226475 a42.22041183526589,42.22041183526589 0 0,0 -0.28317636098352034,-0.6693452684202866 l 19.61382978045277 -8.099602447140029" fill="#fcff18" stroke="none" /><path d="M 80.45479744820244 107.68017299344265 l -19.87538440218279 7.809916019821282 a42.354758096761294,42.354758096761294 0 0,0 -0.26079583373068443,-0.6808556269499574 l 20.006874515506983 -7.466636826038167" fill="#faff18" stroke="none" /><path d="M 80.20201598880116 107.00284435728193 l -51.4779248399944 18.20851533602734 a75.60335865653738,75.60335865653738 0 0,0 -0.4234118185474494,-1.2306329393778372 l 51.78372748948508 -17.319709693560206" fill="#42ffda" stroke="none" /><path d="M 80.0844068197444 106.66101706037122 l -19.927537758332527 6.665012072602555 a42.01259496201519,42.01259496201519 0 0,0 -0.2234824958177515,-0.6878083982251342 l 20.039312505166528 -6.321004774399617" fill="#ffff18" stroke="none" /><path d="M 79.86692584326677 105.97154293290107 l -24.2385790827364 7.189250608142799 a46.28228708516593,46.28228708516593 0 0,0 -0.21996728727860632,-0.7657349840138612 l 24.35873900690111 -6.7709581486243415" fill="#cbff1d" stroke="none" /><path d="M 79.67330655649465 105.27499134158121 l -24.934944216183286 6.470881021979671 a46.7608956417433,46.7608956417433 0 0,0 -0.19547988432259858,-0.7808449669715812 l 25.042635414800944 -6.040708215610698" fill="#c5ff1e" stroke="none" /><path d="M 79.50377843672027 104.57218783832718 l -57.39925462983257 12.804319719969431 a79.81007596961216,79.81007596961216 0 0,0 -0.2875669579864817,-1.3434170917430481 l 57.611155626543486 -11.81438880881022" fill="#48faff" stroke="none" /><path d="M 79.4281124754447 104.21870165774334 l -20.59862028523294 4.224183777050684 a42.02728908436625,42.02728908436625 0 0,0 -0.13923053897382867,-0.7099335186297957 l 20.668280757182437 -3.8689865313529337" fill="#ffff18" stroke="none" /><path d="M 79.29508885075956 103.50808413554451 l -24.877352260482816 4.21503111847711 a46.23190723710516,46.23190723710516 0 0,0 -0.12618722930297205,-0.7857679973247363 l 24.94622124414708 -3.78618389145916" fill="#ccff1d" stroke="none" /><path d="M 79.18660465613746 102.79330883721812 l -30.39413160520671 4.0791132349979575 a51.666633346661335,51.666633346661335 0 0,0 -0.11071050109029659,-0.8824716227233118 l 30.459843615543857 -3.5553238579872373" fill="#8dff24" stroke="none" /><path d="M 79.10278846688536 102.07522291339032 l -62.69163459934394 6.225668740170943 a84.0,84.0 0 0,0 -0.13050161489169865,-1.4400744458057353 l 62.78951081051271 -5.145612905816642" fill="#4dd2ff" stroke="none" /><line stroke="#e1ed5e" stroke-width="0.3" x1="15.007084014347285" x2="10.007500721073583" y1="101.09737516637583" y2="101.16192664675087" /><path d="M 14.007167355692545 101.11028546245083 a86.0,86.0 0 0,1 10.666146001902534,-42.60595125391555" fill="none" id="id70" stroke="none" /><text fill="#e1ed5e" style="font-size:6.75px; font-family:Arial;" text-anchor="middle"><textPath startOffset="22.20632615414155" xlink:href="#id70">October</textPath></text><line stroke="#e1ed5e" stroke-width="0.3" x1="26.266209847984243" x2="21.928928074336255" y1="57.711370442889674" y2="55.22380399835377" /><path d="M 25.398753493254645 57.213857153982495 a86.0,86.0 0 0,1 29.58750427330803,-30.492523968695096" fill="none" id="id71" stroke="none" /><text fill="#e1ed5e" style="font-size:6.75px; font-family:Arial;" text-anchor="middle"><textPath startOffset="21.46611528233685" xlink:href="#id71">November</textPath></text><line stroke="#e1ed5e" stroke-width="0.3" x1="56.762969772571076" x2="54.21961505331055" y1="26.818313649435495" y2="22.513508569990535" /><path d="M 56.25429882871897 25.957352633546506 a86.0,86.0 0 0,1 42.265352541879196,-11.944610805530505" fill="none" id="id72" stroke="none" /><text fill="#e1ed5e" style="font-size:6.75px; font-family:Arial;" text-anchor="middle"><textPath startOffset="22.20632615414155" xlink:href="#id72">December</textPath></text></svg>