<?xml version="1.0" encoding="utf-8" ?>
<svg baseProfile="full" height="200mm" version="1.1" viewBox="0,0,200,200" width="200mm" xmlns="http://www.w3.org/2000/svg" xmlns:ev="http://www.w3.org/2001/xml-events" xmlns:xlink="http://www.w3.org/1999/xlink"><defs /><rect fill="#1a1a1a" height="200" width="200" x="0" y="0" /><text alignment-baseline="middle" fill="#e1ed5e" style="dominant-baseline: central; font-size:9.0px; font-family:Arial;" text-anchor="middle" x="100.0" y="100.0">2026</text><line stroke="#e1ed5e" stroke-width="0.3" x1="100.0" x2="100.0" y1="15.0" y2="10.0" /><path d="M 100.0 14.0 a86.0,86.0 0 0,1 42.46469731375804,11.215312516191453" fill="none" id="id61" stroke="none" /><text fill="#e1ed5e" style="font-size:6.75px; font-family:Arial;" text-anchor="middle"><textPath startOffset="22.20632615414155" xlink:href="#id61">January</textPath></text><path d="M 100.0 79.0 l 0.0 -49.83923482334569 a70.83923482334569,70.83923482334569 0 0,0 1.2193809788210563,0.010495597057026983 l -0.857900499548528 49.83185060289723" fill="#3cffa6" stroke="none" /><path d="M 100.72285384407766 79.0124445844662 l 0.8691178094828731 -25.234227276502445 a46.2491899277767,46.2491899277767 0 0,0 0.7953961398563593,0.03425143094244001 l -1.3033547817285638 25.21552811903581" fill="#ceff1d" stroke="none" /><path d="M 101.44485096284872 79.0497635885617 l 1.7346672520197777 -25.152552034392432 a46.21229748194418,46.21229748194418 0 0,0 0.7931126373618409,0.061560805034574735 l -2.16737007874396 25.11896596716939" fill="#cfff1d" stroke="none" /><path d="M 102.52436894288641 79.15227682838746 l 2.367870879981717 -19.555270140321472 a40.69810657817685,40.69810657817685 0 0,0 0.6947462755187782,0.09019800591395377 l -2.7041318840083415 19.511613811243382" fill="#ffeb16" stroke="none" /><path d="M 103.59715602781102 79.31037775812273 l 4.413485053368927 -25.384870108050716 a46.76568416943198,46.76568416943198 0 0,0 0.7919097836005164,0.14471645119304402 l -4.849789958072344 25.305138175506933" fill="#c8ff1d" stroke="none" /><path d="M 104.66035177308747 79.52364482259891 l 5.502362626331622 -24.175928543046698 a45.79418309584228,45.79418309584228 0 0,0 0.7671099470485013,0.1815501401380191 l -5.917696260342647 24.077632490767808" fill="#d4ff1c" stroke="none" /><path d="M 105.01212808612495 79.60689891045804 l 3.6494710495536387 -14.848788929183954 a36.29068904938512,36.29068904938512 0 0,0 0.6053478951188241,0.1543166570989223 l -3.9045278333574878 14.783769275916164" fill="#ffb210" stroke="none" /><path d="M 105.71112130821622 79.79150937346287 l 16.774175307528353 -59.35450258820588 a82.67925043919578,82.67925043919578 0 0,0 1.366214699699789,0.3988355349161691 l -17.79338022495157 59.05696872437101" fill="#4bdeff" stroke="none" /><path d="M 106.40334571778207 80.00007090966166 l 7.513025656928454 -23.46585472890996 a45.639234823345696,45.639234823345696 0 0,0 0.746130156884125,0.24598738177679402 l -7.915838636054996 23.33305362287393" fill="#d6ff1c" stroke="none" /><path d="M 106.74666289553966 80.11325718540242 l 5.305144799608031 -15.637664406465918 a37.513058754635956,37.513058754635956 0 0,0 0.6097086683613815,0.21271538244775728 l -5.5735354720326855 15.544028170845953" fill="#ffc212" stroke="none" /><path d="M 107.4271985657038 80.35727306442388 l 5.532342324170547 -14.631396835088513 a36.642397032988484,36.642397032988484 0 0,0 0.5880526035658747,0.2281552742382202 l -5.783378092736089 14.533998856959746" fill="#ffb710" stroke="none" /><path d="M 108.09893153111575 80.62456947434976 l 7.117827313233563 -17.02829170382347 a39.45606090181534,39.45606090181534 0 0,0 0.62437570910894,0.26732509380186475 l -7.409886780132818 16.903247082058815" fill="#ffdb14" stroke="none" /><path d="M 110.05341064243156 81.56283822128135 l 7.725211074564918 -14.167427495237918 a37.136755807144255,37.136755807144255 0 0,0 0.5586003128329087,0.31086046930778727 l -7.9679354764698616 14.032351628369952" fill="#ffbd11" stroke="none" /><line stroke="#e1ed5e" stroke-width="0.3" x1="143.23703022742887" x2="145.7803849466894" y1="26.81831364943548" y2="22.513508569990506" /><path d="M 143.74570117128098 25.957352633546492 a86.0,86.0 0 0,1 28.547481713284135,27.462654790039103" fill="none" id="id62" stroke="none" /><text fill="#e1ed5e" style="font-size:6.75px; font-family:Arial;" text-anchor="middle"><textPath startOffset="19.985693538727396" xlink:href="#id62">February</textPath></text><path d="M 110.68208982089419 81.91981866633111 l 6.2791421601875435 -10.627885627212665 a33.3442123755612,33.3442123755612 0 0,0 0.4916491915985262,0.29621313683776024 l -6.461153418003707 10.51822588091629" fill="#ff8a0c" stroke="none" /><path d="M 110.99172775467656 82.1063720568725 l 13.524781392617438 -22.01723074415352 a46.83946906109701,46.83946906109701 0 0,0 0.6833674396843835,0.4279246280381116 l -13.901767984674084 21.781161774792462" fill="#c7ff1e" stroke="none" /><path d="M 111.2981086023043 82.29822771554956 l 8.61417376548908 -13.496607952969628 a37.01132149131368,37.01132149131368 0 0,0 0.5340786110079513,0.34737958496264326 l -8.84521940228131 13.346329443847456" fill="#ffbb11" stroke="none" /><path d="M 111.60114157652 82.49532879139004 l 8.846578114939113 -13.348379571258189 a37.01378098770252,37.01378098770252 0 0,0 0.5280550012466698,0.35654509402848494 l -9.075037810592326 13.194122564931034" fill="#ffbc11" stroke="none" /><path d="M 111.90073688211348 82.69761687909136 l 13.96588524990556 -20.30488528653186 a45.644153816123364,45.644153816123364 0 0,0 0.6435148859527712,0.45082330193706366 l -14.313331275441982 20.06147714183086" fill="#d6ff1c" stroke="none" /><path d="M 112.19680574252982 82.90503203632743 l 9.03368333192566 -12.661555034424989 a36.55385516299044,36.55385516299044 0 0,0 0.5090641022734188,0.36985671978250706 l -9.250292750552868 12.504179079825807" fill="#ffb510" stroke="none" /><path d="M 112.48926042617603 83.11751280151076 l 32.22828908490375 -43.564923729570204 a75.19008393519422,75.19008393519422 0 0,0 1.0338774255008263,0.7786950423603637 l -32.97341266416296 43.003712097703996" fill="#42ffd5" stroke="none" /><path d="M 112.77801427241765 83.33499621200491 l 8.009517749675494 -10.445961382785448 a34.16322467304314,34.16322467304314 0 0,0 0.4635908020281624,0.3618399743384356 l -8.188141106863085 10.306543019223788" fill="#ff950d" stroke="none" /><path d="M 113.06298171725822 83.55741782278167 l 7.9678323775304465 -10.029236929020458 a33.80905719305095,33.80905719305095 0 0,0 0.4525529083193031,0.3659329789156571 l -8.139288684414241 9.89059785284067" fill="#ff900d" stroke="none" /><path d="M 113.34407831869373 83.78471172551755 l 15.655002832522554 -19.023448289536294 a45.636775326956865,45.636775326956865 0 0,0 0.6022803961598194,0.5043925111269042 l -15.980140765641492 18.75115462101557" fill="#d6ff1c" stroke="none" /><path d="M 113.6212207817346 84.01681056812373 l 10.07433252820465 -11.821258004563571 a36.53171969549092,36.53171969549092 0 0,0 0.4750971045207959,0.4119995273558246 l -10.27632343137221 11.646093483788075" fill="#ffb510" stroke="none" /><path d="M 113.89432698308785 84.25364557470407 l 13.416989183161347 -15.205390462998054 a41.278547725941834,41.278547725941834 0 0,0 0.5287369422034708,0.4747052472561341 l -13.676737112960808 14.972186206972621" fill="#fff316" stroke="none" /><path d="M 114.16331599549186 84.49514656593476 l 8.634010512184473 -9.451816762558215 a33.80167870388444,33.80167870388444 0 0,0 0.42621038263277244,0.3961161005716405 l -8.795428778612093 9.301796075911932" fill="#ff900d" stroke="none" /><path d="M 114.42810811169701 84.74124197986012 l 43.28432433509102 -45.77627406041963 a84.0,84.0 0 0,0 1.042067025550327,1.0024676529507923 l -44.06587460425377 45.02442332070654" fill="#4dd2ff" stroke="none" /><path d="M 114.68862486808459 84.99185889309783 l 5.183309786555402 -5.296060412464915 a28.410462619558853,28.410462619558853 0 0,0 0.34655921065788037,0.34507097527116093 l -5.273704797380605 5.206053586543636" fill="#ff4506" stroke="none" /><path d="M 114.94478906791727 85.2469230424477 l 1.9498530183478235 -1.9248402573546664 a23.73987897716182,23.73987897716182 0 0,0 0.28457980542451966,0.29328450476109075 l -1.9826970874754524 1.8909915570434612" fill="#ff0000" stroke="none" /><path d="M 115.19652480421416 85.50635884689758 l 5.38923409414333 -5.139966278929623 a28.44735506539137,28.44735506539137 0 0,0 0.3349102750320869,0.35725893046060414 l -5.4769116911458795 5.0464379315909635" fill="#ff4506" stroke="none" /><path d="M 115.4437574822437 85.77008943001954 l 5.453397869486403 -5.024772246944107 a28.41538161233652,28.41538161233652 0 0,0 0.32834157393122015,0.3625629667475085 l -5.539083084033659 4.9301564929270505" fill="#ff4506" stroke="none" /><path d="M 115.68641384162765 86.03803664274999 l 3.7809064633304397 -3.3652610489034407 a26.061643568221747,26.061643568221747 0 0,0 0.29537539132241986,0.33766513308079227 l -3.8382737182307074 3.2996803596197006" fill="#ff2303" stroke="none" /><path d="M 115.9244219780498 86.31012108654704 l 5.630587150310253 -4.840493200044642 a28.42521959789186,28.42521959789186 0 0,0 0.31577628768981736,0.37377952365643635 l -5.7130740514871885 4.7428547267590995" fill="#ff4506" stroke="none" /><path d="M 116.15771136456269 86.58626213691792 l 5.786876598028427 -4.804123800738432 a28.521139957056413,28.521139957056413 0 0,0 0.3103392137089132,0.3804391810854491 l -5.868714303813749 4.703800450044882" fill="#ff4606" stroke="none" /><path d="M 116.38621287248628 86.86637796730983 l 2.153269276938856 -1.7258548413833725 a23.759554948272495,23.759554948272495 0 0,0 0.25303464338498255,0.3213283010285768 l -2.1826580009178027 1.6885341464017574" fill="#ff0000" stroke="none" /><path d="M 116.60985879189232 87.15038557335679 l 3.8964919570751873 -3.014379585777826 a25.926371266835837,25.926371266835837 0 0,0 0.27003434184472513,0.3553335407978994 l -3.9478022391440257 2.946861269098893" fill="#ff2103" stroke="none" /><path d="M 116.82858285166822 87.43820079747576 l 3.945831294441508 -2.9453900453000426 a25.923911770447003,25.923911770447003 0 0,0 0.2638528178686949,0.3598949470491391 l -3.9959467248238294 2.8770326545794096" fill="#ff2103" stroke="none" /><path d="M 117.04232023915458 87.72973835380427 l 12.406995425327137 -8.932884605826981 a36.28822955299629,36.28822955299629 0 0,0 0.3606140741604814,0.5100630339962459 l -12.558922119291502 8.717995071498942" fill="#ffb210" stroke="none" /><path d="M 117.2510076193507 88.02491185347247 l 11.227466251110501 -7.793741732998652 a34.667421432754246,34.667421432754246 0 0,0 0.3360685162885786,0.49313907897667747 l -11.359959233067814 7.599324630751568" fill="#ff9c0e" stroke="none" /><path d="M 117.45458315368197 88.32363383020206 l 7.88062674887105 -5.2718006930983075 a30.481358578957643,30.481358578957643 0 0,0 0.28798114766317984,0.43861504514191224 l -7.970204531892155 5.135367583978722" fill="#ff6209" stroke="none" /><path d="M 117.65298651832404 88.62581576622439 l 43.65108386039923 -28.125295927507842 a72.92734725746632,72.92734725746632 0 0,0 0.6708357604347943,1.0611010714515128 l -44.128747217079976 27.369747208342122" fill="#3fffbd" stroke="none" /><line stroke="#e1ed5e" stroke-width="0.3" x1="172.23445277983987" x2="176.4835382374775" y1="55.19839476539836" y2="52.563006222186495" /><path d="M 173.08426987136738 54.67131705675599 a86.0,86.0 0 0,1 12.851231095245387,41.99856678651699" fill="none" id="id63" stroke="none" /><text fill="#e1ed5e" style="font-size:6.75px; font-family:Arial;" text-anchor="middle"><textPath startOffset="22.20632615414155" xlink:href="#id63">March</textPath></text><path d="M 117.84615892207809 88.93136811851018 l 10.511223878875347 -6.51932263111602 a33.36880733944954,33.36880733944954 0 0,0 0.2985462728149175,0.490731575050766 l -10.621885949976487 6.337423282858172" fill="#ff8a0c" stroke="none" /><path d="M 118.21658344932153 89.55222093294921 l 13.447486880469288 -7.712553362438549 a36.502205738824905,36.502205738824905 0 0,0 0.30790889631449203,0.5477355691455489 l -13.578253418076214 7.479934283358206" fill="#ffb510" stroke="none" /><path d="M 118.56541770881063 90.18545643968196 l 17.47533813691717 -9.23827678246451 a40.76697247706422,40.76697247706422 0 0,0 0.32262315544329706,0.6232052474285417 l -17.631770725520582 8.936098812775624" fill="#ffec16" stroke="none" /><path d="M 118.73160827565052 90.50648371742162 l 14.270830977916058 -7.232714044681525 a36.999024009369506,36.999024009369506 0 0,0 0.2830248922667457,0.5705609123967359 l -14.393215883136211 6.985993543785839" fill="#ffbb11" stroke="none" /><path d="M 118.89224826269711 90.83032412892265 l 46.80837540472661 -22.719245721566406 a73.03064610579739,73.03064610579739 0 0,0 0.5391811084355401,1.1356529226914178 l -47.19251470700391 21.91015038323445" fill="#3fffbe" stroke="none" /><path d="M 119.196687751892 91.48605970444005 l 14.613914158184425 -6.481430246473507 a36.98672652742533,36.98672652742533 0 0,0 0.25311124830948495,0.5842156584803988 l -14.72331611633659 6.228915443406505" fill="#ffbb11" stroke="none" /><path d="M 119.34039704204932 91.81776055985345 l 15.880795275636286 -6.718604026726617 a38.24352918211985,38.24352918211985 0 0,0 0.25127512590797046,0.6084826483503539 l -15.994092088430454 6.444246807922961" fill="#ffcc13" stroke="none" /><path d="M 119.7369772167798 92.82701384747503 l 18.968764595849514 -6.893795553498329 a41.18262736677728,41.18262736677728 0 0,0 0.2364018501534584,0.6683398645993314 l -19.08461952681278 6.566258062472383" fill="#fff116" stroke="none" /><path d="M 120.08093135843002 93.85539295169968 l 14.480378025436691 -4.4308817797835305 a36.143119266055045,36.143119266055045 0 0,0 0.1769190247875656,0.5964830004252385 l -14.554502947335958 4.180969392611762" fill="#ffb010" stroke="none" /><path d="M 120.28053869075195 94.5502522615342 l 22.586099052550498 -6.069293528604873 a44.38735116142885,44.38735116142885 0 0,0 0.1919302049532724,0.7395853729429687 l -22.687225589374073 5.679611730113054" fill="#e5ff1a" stroke="none" /><path d="M 120.37134235888165 94.90015583598534 l 19.113194257700677 -4.784874284355419 a40.70302557095452,40.70302557095452 0 0,0 0.16429911897914648,0.6811259191322977 l -19.192726176940642 4.455163133563715" fill="#ffeb16" stroke="none" /><path d="M 120.53481517161879 95.60439243477599 l 55.57747926616499 -11.896712304285986 a77.83650204958033,77.83650204958033 0 0,0 0.26916864677877667,1.3125619149925185 l -55.77402720885876 10.938274733130056" fill="#45fff0" stroke="none" /><path d="M 120.6074358757038 95.95851677861258 l 26.61388195214356 -5.219453696924363 a48.12086667967988,48.12086667967988 0 0,0 0.15241545771567047,0.8142094696567408 l -26.699783133769092 4.76056614980506" fill="#b8ff1f" stroke="none" /><path d="M 120.67395015179393 96.31383870115 l 24.230047140620957 -4.320212701650425 a45.61218036306852,45.61218036306852 0 0,0 0.13116355543474026,0.7741347289189946 l -24.300822557575923 3.9024921844155926" fill="#d6ff1c" stroke="none" /><path d="M 120.73433829027371 96.67025291283417 l 19.482911899613427 -3.128779334022813 a40.73253952762053,40.73253952762053 0 0,0 0.10521429593448464,0.6932307515093418 l -19.533882088987212 2.792949470121389" fill="#ffec16" stroke="none" /><path d="M 120.78858239683441 97.02765380044208 l 12.207763279843192 -1.7454628746340086 a33.331914893617025,33.331914893617025 0 0,0 0.07632056319756214,0.5686768442973626 l -12.23599984209859 1.5350676882719818" fill="#ff8a0c" stroke="none" /><path d="M 120.87857604477298 97.74499172005257 l 19.603772494742735 -2.1173220433736337 a40.71778254928753,40.71778254928753 0 0,0 0.06926458230983527,0.6974848913540321 l -19.6373142027348 1.7795616213151666" fill="#ffec16" stroke="none" /><path d="M 120.94382443527127 98.46500227214037 l 5.192825648581214 -0.380588349390456 a26.20675385516299,26.20675385516299 0 0,0 0.029101238647388398,0.450183281361994 l -5.198607478233018 0.29114600377542676" fill="#ff2503" stroke="none" /><path d="M 120.98425023603335 99.18683210126433 l 15.97473666221551 -0.619042515141344 a36.98672652742533,36.98672652742533 0 0,0 0.019177275215052622,0.6364004020660224 l -15.983025631886207 0.3439719656503225" fill="#ffbb11" stroke="none" /><line stroke="#e1ed5e" stroke-width="0.3" x1="184.98032266829074" x2="189.97916517819016" y1="98.17113171792111" y2="98.06355123074" /><path d="M 185.9800911702706 98.14961562048488 a86.0,86.0 0 0,1 -9.607161424134198,41.387399972396054" fill="none" id="id64" stroke="none" /><text fill="#e1ed5e" style="font-size:6.75px; font-family:Arial;" text-anchor="middle"><textPath startOffset="21.466115282336823" xlink:href="#id64">April</textPath></text><path d="M 120.99513854157772 99.54816195383933 l 24.626154108206215 -0.5299814209212278 a45.63185633417919,45.63185633417919 0 0,0 0.010141121367478134,0.7854410258190374 l -24.63162823669141 0.1060041370417276" fill="#d6ff1c" stroke="none" /><path d="M 120.99824983174949 100.27111621757518 l 17.23225491755636 0.22249205581292092 a38.233691196564514,38.233691196564514 0 0,0 -0.014160916830841004,0.6580021608749641 l -17.225871938040513 -0.5190840324779998" fill="#ffcc13" stroke="none" /><path d="M 120.92983693683757 101.71520430193887 l 15.568072736973116 1.2758066587874803 a36.620261565488974,36.620261565488974 0 0,0 -0.05689289609586566,0.627808367609309 l -15.543805244600174 -1.5435964149453598" fill="#ffb610" stroke="none" /><path d="M 120.89721153311464 102.0752229133903 l 15.920713764151172 1.5810257721964356 a36.999024009369506,36.999024009369506 0 0,0 -0.06839128375004991,0.6332183483638244 l -15.89114017890007 -1.8548404424450513" fill="#ffbb11" stroke="none" /><path d="M 120.81339534386255 102.79330883721812 l 15.87635883754559 2.1307226769629013 a37.018699980480186,37.018699980480186 0 0,0 -0.09019509117299952,0.6308242575911223 l -15.83732969535599 -2.403692406534433" fill="#ffbc11" stroke="none" /><path d="M 120.70491114924044 103.5080841355445 l 41.35000721259199 7.006033653637104 a62.93933242240875,62.93933242240875 0 0,0 -0.19017735995229917,1.0666156309763848 l -41.2232834103005 -7.716768035346707" fill="#32ff4a" stroke="none" /><path d="M 120.5718875245553 104.21870165774334 l 14.475412873026919 2.9684902861278895 a35.77665430411868,35.77665430411868 0 0,0 -0.12890833043544908,0.6022168040014757 l -14.422170503867028 -3.217220909545534" fill="#ffab0f" stroke="none" /><path d="M 120.49622156327973 104.57218783832717 l 14.61661055227136 3.260595558958515 a35.97587351161429,35.97587351161429 0 0,0 -0.14003083528539842,0.6032491734620447 l -14.558319151055409 -3.511713389769125" fill="#ffae10" stroke="none" /><path d="M 120.41448212921028 104.9243191809786 l 24.016803395032287 5.793260141276212 a45.70564122584423,45.70564122584423 0 0,0 -0.19106848440563565,0.7632236171616309 l -23.91352359633159 -6.205811597835239" fill="#d5ff1c" stroke="none" /><path d="M 120.23288151984713 105.62410040840565 l 52.67263210109255 14.641323897486743 a75.66968573101698,75.66968573101698 0 0,0 -0.35963770478430257,1.2519460303885452 l -52.41280175942215 -15.54582740337987" fill="#42ffda" stroke="none" /><path d="M 120.02730092923936 106.31721596034902 l 24.0280699651526 7.579179421957682 a46.19508100722233,46.19508100722233 0 0,0 -0.24573088159232992,0.7562818888522808 l -23.894046832544024 -7.991660210787758" fill="#cfff1d" stroke="none" /><path d="M 119.9155931802556 106.66101706037122 l 14.022941190673043 4.6901465430745795 a35.786492289674015,35.786492289674015 0 0,0 -0.2004199819830971,0.5825142821568983 l -13.940130377746716 -4.930833528320778" fill="#ffab0f" stroke="none" /><path d="M 119.67450827220406 107.3425965602758 l 23.180818257080563 8.651163934769604 a45.74253367167675,45.74253367167675 0 0,0 -0.281655774744497,0.7353143505190216 l -23.02846820274256 -9.04890185212177" fill="#d4ff1c" stroke="none" /><path d="M 119.54520255179757 107.68017299344265 l 17.802425170251382 6.995358817490161 a40.12750341596721,40.12750341596721 0 0,0 -0.2581486098987964,0.6407036791554032 l -17.679373946095193 -7.300761864488377" fill="#ffe415" stroke="none" /><path d="M 119.41010516605496 108.01547362559984 l 50.52841001669767 20.86589095563625 a75.66722623462815,75.66722623462815 0 0,0 -0.5075073605260455,1.1995974850328235 l -50.161751674979314 -21.732562966335237" fill="#42ffda" stroke="none" /><path d="M 119.26925614724726 108.34839909993367 l 9.995338919714014 4.330477409362431 a31.89310950614874,31.89310950614874 0 0,0 -0.22258188256037562,0.5018633852727489 l -9.919315952422364 -4.501889131127868" fill="#ff760a" stroke="none" /><path d="M 119.12269723197855 108.67885076344098 l 22.463476857709715 10.195066151549451 a45.66874878001171,45.66874878001171 0 0,0 -0.33104489435632223,0.7130412513071537 l -22.284657346513562 -10.580227470135435" fill="#d5ff1c" stroke="none" /><path d="M 118.81262510543309 109.33194174019688 l 35.29708227863027 17.509003319690102 a60.40113214913137,60.40113214913137 0 0,0 -0.4700396839155428,0.9274328890417333 l -34.990463924928456 -18.11399042043453" fill="#33ff2f" stroke="none" /><path d="M 118.64920377521936 109.65438752849418 l 33.86343025543638 17.530543537978584 a59.13203201249268,59.13203201249268 0 0,0 -0.4757242139083794,0.8998909313637473 l -33.556653533303106 -18.110849484428467" fill="#40ff2d" stroke="none" /><line stroke="#e1ed5e" stroke-width="0.3" x1="174.80103733775053" x2="179.2010983576182" y1="140.37084112569926" y2="142.7455964860345" /><path d="M 175.68104954172406 140.8457921977663 a86.0,86.0 0 0,1 -30.038265399797805,32.042727171017184" fill="none" id="id65" stroke="none" /><text fill="#e1ed5e" style="font-size:6.75px; font-family:Arial;" text-anchor="middle"><textPath startOffset="22.206326154141568" xlink:href="#id65">May</textPath></text><path d="M 117.94076556474637 110.91462005526583 l 12.747994301930456 7.755494812644672 a35.921764591059926,35.921764591059926 0 0,0 -0.32592220762477214,0.5254903745812678 l -12.61260745463772 -7.973781518591213" fill="#ffad10" stroke="none" /><path d="M 117.55443506779139 111.5257021239791 l 20.66646667594444 13.56896635763083 a45.722857700566074,45.722857700566074 0 0,0 -0.4376263052172038,0.6541919483828985 l -20.429837265316515 -13.922695220219534" fill="#d5ff1c" stroke="none" /><path d="M 117.14729908036423 112.12312394758627 l 20.570734079270455 14.543489197164886 a46.1926215108335,46.1926215108335 0 0,0 -0.4646102431539737,0.6453029917806545 l -20.317344043740878 -14.895425794396672" fill="#cfff1d" stroke="none" /><path d="M 116.93607887273984 112.41649034213515 l 13.910527558210948 10.198342389544454 a38.24844817489752,38.24844817489752 0 0,0 -0.39384742781991705,0.5276229911915837 l -13.73291886369594 -10.436278260245352" fill="#ffcc13" stroke="none" /><path d="M 116.71984013943494 112.70617746262583 l 41.36912076350214 31.43830237073198 a72.95932071052118,72.95932071052118 0 0,0 -0.7684811600746608,0.9933654916993678 l -40.821832786209406 -32.1457458565446" fill="#3fffbd" stroke="none" /><path d="M 116.27256486870786 113.27417163493432 l 19.077303260093572 15.56210713242544 a45.619558852235016,45.619558852235016 0 0,0 -0.5016066010510942,0.6042174642945244 l -18.806600659148934 -15.888185853833736" fill="#d6ff1c" stroke="none" /><line stroke="#e1ed5e" stroke-width="0.3" x1="143.8653032363475" x2="146.44561519142675" y1="172.8068346515853" y2="177.08958963109032" /><path d="M 144.38136562736335 173.6633856474863 a86.0,86.0 0 0,1 -40.68145358897372,12.25698825130547" fill="none" id="id66" stroke="none" /><text fill="#e1ed5e" style="font-size:6.75px; font-family:Arial;" text-anchor="middle"><textPath startOffset="21.466115282336833" xlink:href="#id66">June</textPath></text><line stroke="#e1ed5e" stroke-width="0.3" x1="102.19456741930631" x2="102.32365962044197" y1="184.97166512339345" y2="189.96999836594603" /><path d="M 102.22038585953345 185.97133177190398 a86.0,86.0 0 0,1 -42.740103519485714,-10.115201625700543" fill="none" id="id67" stroke="none" /><text fill="#e1ed5e" style="font-size:6.75px; font-family:Arial;" text-anchor="middle"><textPath startOffset="22.20632615414155" xlink:href="#id67">July</textPath></text><line stroke="#e1ed5e" stroke-width="0.3" x1="58.666819895761336" x2="56.23545636021788" y1="174.27360380694188" y2="178.64263932499728" /><path d="M 58.180547188652646 175.14741091055294 a86.0,86.0 0 0,1 -31.652253787137756,-30.449443065178592" fill="none" id="id68" stroke="none" /><text fill="#e1ed5e" style="font-size:6.75px; font-family:Arial;" text-anchor="middle"><textPath startOffset="22.20632615414155" xlink:href="#id68">August</textPath></text><line stroke="#e1ed5e" stroke-width="0.3" x1="26.63291911575756" x2="22.317208475507996" y1="142.92168965132927" y2="145.44649492493687" /><path d="M 25.769776987707644 143.4266507060508 a86.0,86.0 0 0,1 -11.730757126820373,-40.83630448921669" fill="none" id="id69" stroke="none" /><text fill="#e1ed5e" style="font-size:6.75px; font-family:Arial;" text-anchor="middle"><textPath startOffset="21.46611528233685" xlink:href="#id69">September</textPath></text><line stroke="#e1ed5e" stroke-width="0.3" x1="15.007084014347285" x2="10.007500721073583" y1="101.09737516637583" y2="101.16192664675087" /><path d="M 14.007167355692545 101.11028546245083 a86.0,86.0 0 0,1 10.666146001902534,-42.60595125391555" fill="none" id="id70" stroke="none" /><text fill="#e1ed5e" style="font-size:6.75px; font-family:Arial;" text-anchor="middle"><textPath startOffset="22.20632615414155" xlink:href="#id70">October</textPath></text><line stroke="#e1ed5e" stroke-width="0.3" x1="26.266209847984243" x2="21.928928074336255" y1="57.711370442889674" y2="55.22380399835377" /><path d="M 25.398753493254645 57.213857153982495 a86.0,86.0 0 0,1 29.58750427330803,-30.492523968695096" fill="none" id="id71" stroke="none" /><text fill="#e1ed5e" style="font-size:6.75px; font-family:Arial;" text-anchor="middle"><textPath startOffset="21.46611528233685" xlink:href="#id71">November</textPath></text><line stroke="#e1ed5e" stroke-width="0.3" x1="56.762969772571076" x2="54.21961505331055" y1="26.818313649435495" y2="22.513508569990535" /><path d="M 56.25429882871897 25.957352633546506 a86.0,86.0 0 0,1 42.265352541879196,-11.944610805530505" fill="none" id="id72" stroke="none" /><text fill="#e1ed5e" style="font-size:6.75px; font-family:Arial;" text-anchor="middle"><textPath startOffset="22.20632615414155" xlink:href="#id72">December</textPath></text></svg>