<?xml version="1.0" encoding="utf-8" ?>
<svg baseProfile="full" height="200mm" version="1.1" viewBox="0,0,200,200" width="200mm" xmlns="http://www.w3.org/2000/svg" xmlns:ev="http://www.w3.org/2001/xml-events" xmlns:xlink="http://www.w3.org/1999/xlink"><defs /><rect fill="#1a1a1a" height="200" width="200" x="0" y="0" /><text alignment-baseline="middle" fill="#e1ed5e" style="dominant-baseline: central; font-size:9.0px; font-family:Arial;" text-anchor="middle" x="100.0" y="100.0">2025</text><line stroke="#e1ed5e" stroke-width="0.3" x1="100.0" x2="100.0" y1="15.0" y2="10.0" /><path d="M 100.0 14.0 a86.0,86.0 0 0,1 42.46469731375804,11.215312516191453" fill="none" id="id49" stroke="none" /><text fill="#e1ed5e" style="font-size:6.75px; font-family:Arial;" text-anchor="middle"><textPath startOffset="22.20632615414155" xlink:href="#id49">January</textPath></text><path d="M 100.0 79.0 l 0.0 -58.26664183967972 a79.26664183967972,79.26664183967972 0 0,0 1.364444937263394,0.011744208345666345 l -1.0029644579908656 58.25800900794261" fill="#45ffef" stroke="none" /><path d="M 100.72285384407766 79.0124445844662 l 1.1111328919694827 -32.260965802827556 a53.280094963225025,53.280094963225025 0 0,0 0.9163140355778914,0.03945840988975946 l -1.6662877599367056 32.23705966641361" fill="#f3ff19" stroke="none" /><path d="M 101.08401301168833 79.027996857942 l 1.0616585863937602 -20.53952025443433 a41.56693976352295,41.56693976352295 0 0,0 0.7142347323941376,0.04308458954846337 l -1.4150553676275097 20.51820239550556" fill="#ff3a05" stroke="none" /><path d="M 102.16513564639614 79.11191278185805 l 3.0296982371598418 -29.22893128094902 a50.38553207336375,50.38553207336375 0 0,0 0.8619124181967108,0.096845902905609 l -3.532377358866278 29.17244942457281" fill="#ffda14" stroke="none" /><path d="M 102.52436894288641 79.15227682838746 l 4.241320559333352 -35.0273192641752 a56.28316730285821,56.28316730285821 0 0,0 0.9607945957620688,0.12473871351945022 l -4.843629883603267 34.949122227491614" fill="#c3ff1e" stroke="none" /><path d="M 102.88285421437855 79.19881850522331 l 4.182165009631015 -30.176334610521387 a51.46476119541942,51.46476119541942 0 0,0 0.8764473818244571,0.129165561254149 l -4.700981371884128 30.09987456510627" fill="#ffec16" stroke="none" /><path d="M 103.2404852339499 79.25152402106235 l 4.637625827788654 -29.694215878245 a51.0541848989852,51.0541848989852 0 0,0 0.8671207932311287,0.14308236066079333 l -5.148075827158658 29.609987254644583" fill="#ffe515" stroke="none" /><path d="M 103.95276090670814 79.375362276772 l 5.824259425567098 -30.389705700276338 a51.942789311982125,51.942789311982125 0 0,0 0.8766794913399262,0.1758536585903331 l -6.3465053263741495 30.284948085608796" fill="#fff417" stroke="none" /><path d="M 104.66035177308747 79.52364482259891 l 9.481891581153258 -41.66092802060653 a63.72632901964435,63.72632901964435 0 0,0 1.0674958602830302,0.2526417807210182 l -10.197611128398812 41.491540327744644" fill="#55ff2b" stroke="none" /><path d="M 105.01212808612495 79.60689891045804 l 7.36980215326454 -29.985889773548173 a51.878270179685316,51.878270179685316 0 0,0 0.8653569959209759,0.22059876623751754 l -7.8848680378705405 29.854588011141786" fill="#fff316" stroke="none" /><path d="M 105.36241919743992 79.69619591428918 l 11.254040922511017 -42.61133522950316 a65.07243273438228,65.07243273438228 0 0,0 1.080518792753676,0.29534660289344283 l -11.985857604488404 42.411302085783426" fill="#43ff2d" stroke="none" /><path d="M 106.0581310904928 79.89281104454417 l 11.030525066266406 -36.61077128776181 a59.23638394935295,59.23638394935295 0 0,0 0.9737745812876509,0.3025565024978486 l -11.659085020264776 36.41547465038144" fill="#96ff23" stroke="none" /><path d="M 106.74666289553966 80.11325718540242 l 10.91896605945569 -32.185196324137145 a54.98691928125873,54.98691928125873 0 0,0 0.8937154805625603,0.3117997826048088 l -11.471363544081523 31.992475688360127" fill="#d8ff1c" stroke="none" /><path d="M 107.08798089147638 80.2323363322302 l 8.918542197961388 -24.87291448374534 a47.42351736337399,47.42351736337399 0 0,0 0.7660426316041696,0.2821399661195222 l -9.345367155338135 24.715711249819496" fill="#ffa60f" stroke="none" /><path d="M 107.4271985657038 80.35727306442388 l 22.28159569711141 -58.92818080672834 a84.0,84.0 0 0,0 1.3480673400013319,0.5230291844378128 l -23.292646202112408 58.53590891839998" fill="#4dd2ff" stroke="none" /><path d="M 108.43124777332544 80.76684994638697 l 18.957944381106895 -43.246385208065824 a68.21920677776743,68.21920677776743 0 0,0 1.0714244885390438,0.48071693673325877 l -19.69955098811272 42.913647940816034" fill="#32ff4b" stroke="none" /><path d="M 110.05341064243156 81.56283822128135 l 8.442113144903772 -15.482169319723754 a38.63425193184992,38.63425193184992 0 0,0 0.5811252153330276,0.323395553161909 l -8.707362449308834 15.334558369001664" fill="#ff0000" stroke="none" /><line stroke="#e1ed5e" stroke-width="0.3" x1="143.23703022742887" x2="145.7803849466894" y1="26.81831364943548" y2="22.513508569990506" /><path d="M 143.74570117128098 25.957352633546492 a86.0,86.0 0 0,1 28.547481713284135,27.462654790039103" fill="none" id="id50" stroke="none" /><text fill="#e1ed5e" style="font-size:6.75px; font-family:Arial;" text-anchor="middle"><textPath startOffset="19.985693538727396" xlink:href="#id50">February</textPath></text><path d="M 111.90073688211348 82.69761687909136 l 11.070311196130408 -16.09503407062272 a40.53463364677404,40.53463364677404 0 0,0 0.5714782281521233,0.4003570195881859 l -11.345720563866182 15.902092208270597" fill="#ff2603" stroke="none" /><path d="M 112.19680574252982 82.90503203632743 l 17.232345735570366 -24.152749868048893 a50.67000279303603,50.67000279303603 0 0,0 0.7056514112947617,0.5126857602526438 l -17.645542463218916 23.852544872979575" fill="#ffdf14" stroke="none" /><path d="M 113.34407831869373 83.78471172551755 l 11.898604422054667 -14.458795591551596 a39.72521180523229,39.72521180523229 0 0,0 0.5242639545010869,0.4390559848704666 l -12.145725913514871 14.251838449287309" fill="#ff1602" stroke="none" /><path d="M 113.6212207817346 84.01681056812373 l 25.87981222449018 -30.367464698912105 a60.89921794991155,60.89921794991155 0 0,0 0.7919978133182447,0.6868126992335323 l -26.398703836455187 29.917487006258902" fill="#7dff26" stroke="none" /><path d="M 113.89432698308785 84.25364557470407 l 31.356343549953394 -35.53594928490584 a68.39223535983615,68.39223535983615 0 0,0 0.8760361831211874,0.786513934851616 l -31.96339072067057 34.99093634128493" fill="#33ff4e" stroke="none" /><path d="M 114.42810811169701 84.74124197986012 l 28.371965876660305 -30.00538660482119 a62.295177357787914,62.295177357787914 0 0,0 0.7728065497066683,0.743439288523988 l -28.884255669979392 29.512564229534902" fill="#69ff28" stroke="none" /><path d="M 114.94478906791727 85.2469230424477 l 42.74312635382351 -42.19481651019519 a81.06144679266362,81.06144679266362 0 0,0 0.971717285411544,1.0014400789774425 l -43.46310790293817 41.452812235667636" fill="#48f7ff" stroke="none" /><path d="M 115.4437574822437 85.77008943001954 l 27.185815528863483 -25.04906750785827 a57.96653011823852,57.96653011823852 0 0,0 0.6698070078386991,0.7396176274684643 l -27.612966177318217 24.577397093120258" fill="#a9ff21" stroke="none" /><path d="M 115.68641384162765 86.03803664274999 l 34.460894163855045 -30.672513579680665 a67.13411228004841,67.13411228004841 0 0,0 0.7608792835299913,0.8698165523583726 l -34.98376531096289 30.074781471119344" fill="#30ff39" stroke="none" /><path d="M 115.9244219780498 86.31012108654704 l 36.02453844461814 -30.969511477379843 a68.5066101852714,68.5066101852714 0 0,0 0.7610411934380558,0.9008327282814376 l -36.55229025154331 30.3448197994693" fill="#33ff50" stroke="none" /><path d="M 116.38621287248628 86.86637796730983 l 39.3735935225769 -31.558109211591155 a71.45982683176612,71.45982683176612 0 0,0 0.7610332701136405,0.96643496890573 l -39.9109808732845 30.875681848732388" fill="#38ff7e" stroke="none" /><path d="M 116.82858285166822 87.43820079747576 l 30.551844856859702 -22.805612554624595 a59.12494181174937,59.12494181174937 0 0,0 0.6017719332441509,0.8208162406601209 l -30.93987940261748 22.27633387029298" fill="#98ff23" stroke="none" /><path d="M 117.04232023915458 87.72973835380427 l 30.34964170324447 -21.851369962613543 a58.39763522949446,58.39763522949446 0 0,0 0.5803261669376987,0.8208302077636784 l -30.72128048998605 21.32571325451807" fill="#a3ff22" stroke="none" /><path d="M 117.45458315368197 88.32363383020206 l 32.62435633491473 -21.82429263800981 a60.25109393911181,60.25109393911181 0 0,0 0.5692390362326438,0.8669901054278019 l -32.9951920065053 21.259484468604334" fill="#87ff25" stroke="none" /><path d="M 117.65298651832404 88.62581576622439 l 33.66081527621215 -21.688359304716347 a61.04291965366353,61.04291965366353 0 0,0 0.5615146438887229,0.8881813185985526 l -34.02915751634682 21.10573033840359" fill="#7bff26" stroke="none" /><line stroke="#e1ed5e" stroke-width="0.3" x1="172.23445277983987" x2="176.4835382374775" y1="55.19839476539836" y2="52.563006222186495" /><path d="M 173.08426987136738 54.67131705675599 a86.0,86.0 0 0,1 12.851231095245387,41.99856678651699" fill="none" id="id51" stroke="none" /><text fill="#e1ed5e" style="font-size:6.75px; font-family:Arial;" text-anchor="middle"><textPath startOffset="22.20632615414155" xlink:href="#id51">March</textPath></text><path d="M 117.84615892207809 88.93136811851018 l 28.787959460328267 -17.855008872044813 a54.875477143655154,54.875477143655154 0 0,0 0.4909635817522959,0.8070150382189966 l -29.09103884036679 17.356826060618733" fill="#daff1c" stroke="none" /><path d="M 118.21658344932153 89.55222093294921 l 18.125848209163383 -10.395739575375233 a41.89540080067033,41.89540080067033 0 0,0 0.35340238651569683,0.6286634119134409 l -18.302108236971513 10.082192653526997" fill="#ff4006" stroke="none" /><path d="M 118.3937258080291 89.86733742301442 l 35.98258697312238 -19.821944517979812 a62.081091146075785,62.081091146075785 0 0,0 0.5075628829267375,0.9404369366208396 l -36.31845795526758 19.199626598026516" fill="#6cff28" stroke="none" /><path d="M 119.04729006885535 91.15688171328212 l 36.53228030057622 -16.960904927350814 a61.27753468019738,61.27753468019738 0 0,0 0.4359391287342686,0.9605340842446763 l -36.818821746273834 16.329548834264074" fill="#78ff26" stroke="none" /><path d="M 119.196687751892 91.48605970444005 l 27.451924762039027 -12.175227906135436 a51.03072339633181,51.03072339633181 0 0,0 0.3492185255000642,0.8060445049013202 l -27.657433997381773 11.700884256647514" fill="#ffe515" stroke="none" /><path d="M 119.47837535516314 92.15188598940014 l 40.8327752243302 -16.4521049361951 a65.02257704124384,65.02257704124384 0 0,0 0.4093525756269759,1.04175765475081 l -41.10992134983887 15.746798276548503" fill="#43ff2d" stroke="none" /><path d="M 119.61058180528143 92.48833698450437 l 27.408440001944403 -10.498564862547292 a50.35033981938367,50.35033981938367 0 0,0 0.3030500914549525,0.8120235780731385 l -27.58509468190098 10.025218147444821" fill="#ffd914" stroke="none" /><path d="M 119.85752413597 93.16781622104841 l 17.476322098251963 -6.012906923231478 a39.481798715203425,39.481798715203425 0 0,0 0.21557570892587982,0.6445439306942362 l -17.577235100949615 5.711189889614928" fill="#ff1101" stroke="none" /><path d="M 120.08093135843002 93.85539295169968 l 59.73801319205981 -18.279362165006983 a83.47211619029886,83.47211619029886 0 0,0 0.4085924428556916,1.3775705951255612 l -60.043811532027206 17.24836218313489" fill="#4cd9ff" stroke="none" /><path d="M 120.37134235888165 94.90015583598534 l 18.949843327322036 -4.743980352364988 a40.53463364677404,40.53463364677404 0 0,0 0.16361939936621925,0.6783080425119972 l -19.028695526949072 4.417087078193585" fill="#ff2603" stroke="none" /><path d="M 120.53481517161879 95.60439243477599 l 40.1280609854476 -8.589666231288476 a62.037100828600686,62.037100828600686 0 0,0 0.21453228293168147,1.0461356011644038 l -40.26997256429427 7.89765497396066" fill="#6dff28" stroke="none" /><path d="M 120.67395015179393 96.31383870115 l 44.641181069784636 -7.95951391902317 a66.34521925332837,66.34521925332837 0 0,0 0.19078401370195996,1.1260180485327584 l -44.77157694500682 7.189910082174574" fill="#32ff2f" stroke="none" /><path d="M 120.78858239683441 97.02765380044208 l 29.26388286380564 -4.18414249486227 a50.56149334326413,50.56149334326413 0 0,0 0.11577137588355817,0.8626312220338623 l -29.331570238747034 3.6797929307637434" fill="#ffdd14" stroke="none" /><path d="M 120.83666639777658 97.38593545837742 l 29.250093654750508 -3.669571283733843 a50.47937808397728,50.47937808397728 0 0,0 0.10074156743323134,0.8630922279294877 l -29.308925575187327 3.165535317479503" fill="#ffdc14" stroke="none" /><path d="M 120.87857604477298 97.74499172005257 l 30.338178532612837 -3.276700654434365 a51.51461688855787,51.51461688855787 0 0,0 0.08763096117324251,0.8824318200571825 l -30.390086619468306 2.7539933036727473" fill="#ffed16" stroke="none" /><path d="M 120.94382443527127 98.46500227214037 l 50.53250927774625 -3.703587525960928 a71.66804766781492,71.66804766781492 0 0,0 0.07958364359432482,1.2311237418497918 l -50.58877351234499 2.833204719858101" fill="#38ff81" stroke="none" /><path d="M 120.96714384426684 98.82574320788733 l 30.00423465769515 -1.6803755724018035 a51.051252211153525,51.051252211153525 0 0,0 0.041585843833074836,0.8778114364969315 l -30.028714109761722 1.1636530292818723" fill="#ffe515" stroke="none" /><line stroke="#e1ed5e" stroke-width="0.3" x1="184.98032266829074" x2="189.97916517819016" y1="98.17113171792111" y2="98.06355123074" /><path d="M 185.9800911702706 98.14961562048488 a86.0,86.0 0 0,1 -9.607161424134198,41.387399972396054" fill="none" id="id52" stroke="none" /><text fill="#e1ed5e" style="font-size:6.75px; font-family:Arial;" text-anchor="middle"><textPath startOffset="21.466115282336823" xlink:href="#id52">April</textPath></text><path d="M 120.99513854157772 99.54816195383933 l 20.65013882529538 -0.4444132798309626 a41.65492039847314,41.65492039847314 0 0,0 0.009257296048180924,0.7169877808297934 l -20.654729128461277 0.0888892409407065" fill="#ff3b05" stroke="none" /><path d="M 120.99980553446 99.90962569577887 l 30.306115407286498 -0.13042473603311952 a51.30639605250907,51.30639605250907 0 0,0 -0.003800833304986679,0.8831798038338055 l -30.30387027669201 -0.39126454600437066" fill="#ffea16" stroke="none" /><path d="M 120.99824983174949 100.27111621757518 l 34.66734608196758 0.4476030058896526 a55.67023554603854,55.67023554603854 0 0,0 -0.020619028685140834,0.9580852420810231 l -34.65450499059743 -1.0442780637607907" fill="#cdff1d" stroke="none" /><path d="M 120.95626037817324 101.35467743843564 l 19.491019567819624 1.259959743969095 a40.531700958942366,40.531700958942366 0 0,0 -0.05099938202491533,0.6958460485323019 l -19.46644362713037 -1.5952789289981673" fill="#ff2503" stroke="none" /><path d="M 120.92983693683757 101.71520430193887 l 32.484993163953 2.6621516541870323 a53.59389256121404,53.59389256121404 0 0,0 -0.083262970566317,0.918799942007875 l -32.43435559710961 -3.220932984743478" fill="#eeff19" stroke="none" /><path d="M 120.89721153311464 102.0752229133903 l 47.16318344474433 4.68359708173829 a68.39516804766782,68.39516804766782 0 0,0 -0.1264258577171076,1.1705464267447432 l -47.07557528552617 -5.494739830367824" fill="#33ff4e" stroke="none" /><path d="M 120.76222939487914 103.15116336523771 l 21.070541059387413 3.197957011709673 a42.3118424727679,42.3118424727679 0 0,0 -0.1154876466800276,0.7191416861180994 l -21.012371658346094 -3.5601779275209773" fill="#ff4806" stroke="none" /><path d="M 120.49622156327973 104.57218783832717 l 20.06210086635709 4.475346507611272 a41.55520901219626,41.55520901219626 0 0,0 -0.16174758415688156,0.6968043592202706 l -19.982092716269655 -4.820019524180108" fill="#ff3905" stroke="none" /><path d="M 120.41448212921028 104.9243191809786 l 32.7371052448173 7.896744784728232 a54.67605437110139,54.67605437110139 0 0,0 -0.2285685215605135,0.9130176247399798 l -32.596325408961725 -8.459090248865607" fill="#ddff1b" stroke="none" /><path d="M 120.13307415673323 105.97154293290107 l 28.509827569491886 8.456118425605192 a50.73745461316451,50.73745461316451 0 0,0 -0.25555544425038174,0.8351699781492938 l -28.36004535273537 -8.945615376306543" fill="#ffe015" stroke="none" /><path d="M 119.9155931802556 106.66101706037122 l 28.516140519108188 9.537576750766151 a51.06884833814356,51.06884833814356 0 0,0 -0.28600784846358257,0.8312726849414328 l -28.347741839701374 -10.027022138796884" fill="#ffe615" stroke="none" /><path d="M 119.79798401119884 107.00284435728193 l 38.38128861979269 13.576038362506422 a61.71157247928498,61.71157247928498 0 0,0 -0.36285152459091546,0.9984115571453754 l -38.14191283419655 -14.23469771665793" fill="#72ff27" stroke="none" /><path d="M 119.67450827220406 107.3425965602758 l 38.14191283419655 14.23469771665793 a61.71157247928498,61.71157247928498 0 0,0 -0.37998377794530797,0.9920177391749975 l -37.89123477665774 -14.88913902266607" fill="#72ff27" stroke="none" /><path d="M 119.41010516605496 108.01547362559984 l 28.112214972137977 11.609041565649738 a51.41490550228098,51.41490550228098 0 0,0 -0.3448447139088778,0.8151110381988703 l -27.90821927703679 -12.091227129514772" fill="#ffeb16" stroke="none" /><path d="M 119.26925614724726 108.34839909993367 l 57.0973480493845 24.737407890660922 a83.22577041243832,83.22577041243832 0 0,0 -0.5808323159071944,1.3096235371175189 l -56.66307464874603 -25.716579764271128" fill="#4cdcff" stroke="none" /><path d="M 118.97047184881838 109.00673069616215 l 27.128428228083994 12.879935154366507 a51.03072339633181,51.03072339633181 0 0,0 -0.3835730238431563,0.7902740396937292 l -26.902701947626124 -13.344998150025512" fill="#ffe515" stroke="none" /><path d="M 118.81262510543309 109.33194174019688 l 29.908238180837483 14.835884662098675 a54.385718275765754,54.385718275765754 0 0,0 -0.4232279250121361,0.8350688476925939 l -29.648431586039077 -15.348507721493963" fill="#e1ff1b" stroke="none" /><path d="M 118.64920377521936 109.65438752849418 l 29.309860248531606 15.173234882088288 a54.00446885764826,54.00446885764826 0 0,0 -0.4344723599117404,0.8218579697691832 l -29.044335380394973 -15.675507866943606" fill="#e8ff1a" stroke="none" /><line stroke="#e1ed5e" stroke-width="0.3" x1="174.80103733775053" x2="179.2010983576182" y1="140.37084112569926" y2="142.7455964860345" /><path d="M 175.68104954172406 140.8457921977663 a86.0,86.0 0 0,1 -30.038265399797805,32.042727171017184" fill="none" id="id53" stroke="none" /><text fill="#e1ed5e" style="font-size:6.75px; font-family:Arial;" text-anchor="middle"><textPath startOffset="22.206326154141568" xlink:href="#id53">May</textPath></text><path d="M 118.30583269289576 110.29060199501025 l 35.27379380363686 19.829121077248583 a61.46522670142445,61.46522670142445 0 0,0 -0.526399920394888,0.917822631589823 l -34.92724188708959 -20.43336355469672" fill="#75ff27" stroke="none" /><line stroke="#e1ed5e" stroke-width="0.3" x1="143.8653032363475" x2="146.44561519142675" y1="172.8068346515853" y2="177.08958963109032" /><path d="M 144.38136562736335 173.6633856474863 a86.0,86.0 0 0,1 -40.68145358897372,12.25698825130547" fill="none" id="id54" stroke="none" /><text fill="#e1ed5e" style="font-size:6.75px; font-family:Arial;" text-anchor="middle"><textPath startOffset="21.466115282336833" xlink:href="#id54">June</textPath></text><line stroke="#e1ed5e" stroke-width="0.3" x1="102.19456741930631" x2="102.32365962044197" y1="184.97166512339345" y2="189.96999836594603" /><path d="M 102.22038585953345 185.97133177190398 a86.0,86.0 0 0,1 -42.740103519485714,-10.115201625700543" fill="none" id="id55" stroke="none" /><text fill="#e1ed5e" style="font-size:6.75px; font-family:Arial;" text-anchor="middle"><textPath startOffset="22.20632615414155" xlink:href="#id55">July</textPath></text><line stroke="#e1ed5e" stroke-width="0.3" x1="58.666819895761336" x2="56.23545636021788" y1="174.27360380694188" y2="178.64263932499728" /><path d="M 58.180547188652646 175.14741091055294 a86.0,86.0 0 0,1 -31.652253787137756,-30.449443065178592" fill="none" id="id56" stroke="none" /><text fill="#e1ed5e" style="font-size:6.75px; font-family:Arial;" text-anchor="middle"><textPath startOffset="22.20632615414155" xlink:href="#id56">August</textPath></text><line stroke="#e1ed5e" stroke-width="0.3" x1="26.63291911575756" x2="22.317208475507996" y1="142.92168965132927" y2="145.44649492493687" /><path d="M 25.769776987707644 143.4266507060508 a86.0,86.0 0 0,1 -11.730757126820373,-40.83630448921669" fill="none" id="id57" stroke="none" /><text fill="#e1ed5e" style="font-size:6.75px; font-family:Arial;" text-anchor="middle"><textPath startOffset="21.46611528233685" xlink:href="#id57">September</textPath></text><line stroke="#e1ed5e" stroke-width="0.3" x1="15.007084014347285" x2="10.007500721073583" y1="101.09737516637583" y2="101.16192664675087" /><path d="M 14.007167355692545 101.11028546245083 a86.0,86.0 0 0,1 10.666146001902534,-42.60595125391555" fill="none" id="id58" stroke="none" /><text fill="#e1ed5e" style="font-size:6.75px; font-family:Arial;" text-anchor="middle"><textPath startOffset="22.20632615414155" xlink:href="#id58">October</textPath></text><line stroke="#e1ed5e" stroke-width="0.3" x1="26.266209847984243" x2="21.928928074336255" y1="57.711370442889674" y2="55.22380399835377" /><path d="M 25.398753493254645 57.213857153982495 a86.0,86.0 0 0,1 29.58750427330803,-30.492523968695096" fill="none" id="id59" stroke="none" /><text fill="#e1ed5e" style="font-size:6.75px; font-family:Arial;" text-anchor="middle"><textPath startOffset="21.46611528233685" xlink:href="#id59">November</textPath></text><line stroke="#e1ed5e" stroke-width="0.3" x1="56.762969772571076" x2="54.21961505331055" y1="26.818313649435495" y2="22.513508569990535" /><path d="M 56.25429882871897 25.957352633546506 a86.0,86.0 0 0,1 42.265352541879196,-11.944610805530505" fill="none" id="id60" stroke="none" /><text fill="#e1ed5e" style="font-size:6.75px; font-family:Arial;" text-anchor="middle"><textPath startOffset="22.20632615414155" xlink:href="#id60">December</textPath></text></svg>