<?xml version="1.0" encoding="utf-8" ?>
<svg baseProfile="full" height="200mm" version="1.1" viewBox="0,0,200,200" width="200mm" xmlns="http://www.w3.org/2000/svg" xmlns:ev="http://www.w3.org/2001/xml-events" xmlns:xlink="http://www.w3.org/1999/xlink"><defs /><rect fill="#1a1a1a" height="200" width="200" x="0" y="0" /><text alignment-baseline="middle" fill="#e1ed5e" style="dominant-baseline: central; font-size:9.0px; font-family:Arial;" text-anchor="middle" x="100.0" y="100.0">2022</text><line stroke="#e1ed5e" stroke-width="0.3" x1="100.0" x2="100.0" y1="15.0" y2="10.0" /><path d="M 100.0 14.0 a86.0,86.0 0 0,1 42.46469731375804,11.215312516191453" fill="none" id="id13" stroke="none" /><text fill="#e1ed5e" style="font-size:6.75px; font-family:Arial;" text-anchor="middle"><textPath startOffset="22.20632615414155" xlink:href="#id13">January</textPath></text><path d="M 100.36148047927253 79.00311137660856 l 0.5337609902946725 -31.00394269500485 a52.008536944362675,52.008536944362675 0 0,0 0.8949761901988746,0.02311459455588117 l -1.0673638156884149 30.990161308306607" fill="#a8ff21" stroke="none" /><path d="M 102.52436894288641 79.15227682838746 l 3.7467966470512986 -30.94324999448644 a52.169267000294376,52.169267000294376 0 0,0 0.8905673259117711,0.11562119835674135 l -4.278878701470916 30.874170472965563" fill="#a6ff21" stroke="none" /><path d="M 110.36928655335952 81.73862282372117 l 3.4645688072013714 -6.101461022983949 a28.016485133941714,28.016485133941714 0 0,0 0.4173165759396915,0.24173669670541525 l -3.569082115606391 6.040920168888484" fill="#ff0000" stroke="none" /><line stroke="#e1ed5e" stroke-width="0.3" x1="143.23703022742887" x2="145.7803849466894" y1="26.81831364943548" y2="22.513508569990506" /><path d="M 143.74570117128098 25.957352633546492 a86.0,86.0 0 0,1 28.547481713284135,27.462654790039103" fill="none" id="id14" stroke="none" /><text fill="#e1ed5e" style="font-size:6.75px; font-family:Arial;" text-anchor="middle"><textPath startOffset="19.985693538727396" xlink:href="#id14">February</textPath></text><path d="M 111.60114157652 82.49532879139004 l 10.197529804971666 -15.386796652607993 a39.45922873123344,39.45922873123344 0 0,0 0.5629428423912403,0.380101520105266 l -10.460877341769448 15.208983220204058" fill="#ffaf10" stroke="none" /><path d="M 112.19680574252982 82.90503203632743 l 13.130326346903603 -18.40338470507818 a43.60730055931704,43.60730055931704 0 0,0 0.6072932995114437,0.44122440906775845 l -13.445164962768835 18.17464106119375" fill="#ffe915" stroke="none" /><path d="M 112.48926042617603 83.11751280151076 l 14.136357473843637 -19.108967700380088 a44.76950250220783,44.76950250220783 0 0,0 0.6155888591350576,0.463648766205079 l -14.463192486737077 18.86280234466916" fill="#fff917" stroke="none" /><line stroke="#e1ed5e" stroke-width="0.3" x1="172.23445277983987" x2="176.4835382374775" y1="55.19839476539836" y2="52.563006222186495" /><path d="M 173.08426987136738 54.67131705675599 a86.0,86.0 0 0,1 12.851231095245387,41.99856678651699" fill="none" id="id15" stroke="none" /><text fill="#e1ed5e" style="font-size:6.75px; font-family:Arial;" text-anchor="middle"><textPath startOffset="22.20632615414155" xlink:href="#id15">March</textPath></text><line stroke="#e1ed5e" stroke-width="0.3" x1="184.98032266829074" x2="189.97916517819016" y1="98.17113171792111" y2="98.06355123074" /><path d="M 185.9800911702706 98.14961562048488 a86.0,86.0 0 0,1 -9.607161424134198,41.387399972396054" fill="none" id="id16" stroke="none" /><text fill="#e1ed5e" style="font-size:6.75px; font-family:Arial;" text-anchor="middle"><textPath startOffset="21.466115282336823" xlink:href="#id16">April</textPath></text><line stroke="#e1ed5e" stroke-width="0.3" x1="174.80103733775053" x2="179.2010983576182" y1="140.37084112569926" y2="142.7455964860345" /><path d="M 175.68104954172406 140.8457921977663 a86.0,86.0 0 0,1 -30.038265399797805,32.042727171017184" fill="none" id="id17" stroke="none" /><text fill="#e1ed5e" style="font-size:6.75px; font-family:Arial;" text-anchor="middle"><textPath startOffset="22.206326154141568" xlink:href="#id17">May</textPath></text><path d="M 112.63410532772338 116.77436683061366 l 5.281256863516983 7.011951986891788 a29.77833382396232,29.77833382396232 0 0,0 -0.4120967316731751,0.30485931025037755 l -5.159775161425244 -7.1018212458819345" fill="#ff1c02" stroke="none" /><path d="M 111.45004920935366 117.60387380957326 l 4.048133382523921 6.223801131968647 a28.42449219899912,28.42449219899912 0 0,0 -0.4124504781242902,0.2632454095578825 l -3.9404011023527006 -6.292560970350338" fill="#ff0701" stroke="none" /><path d="M 111.1453310114006 117.79835938074945 l 4.35051778661089 6.94749029698963 a29.197232852516926,29.197232852516926 0 0,0 -0.4282550010949973,0.26306919963778924 l -4.230283585583584 -7.021347963455797" fill="#ff1302" stroke="none" /><line stroke="#e1ed5e" stroke-width="0.3" x1="143.8653032363475" x2="146.44561519142675" y1="172.8068346515853" y2="177.08958963109032" /><path d="M 144.38136562736335 173.6633856474863 a86.0,86.0 0 0,1 -40.68145358897372,12.25698825130547" fill="none" id="id18" stroke="none" /><text fill="#e1ed5e" style="font-size:6.75px; font-family:Arial;" text-anchor="middle"><textPath startOffset="21.466115282336833" xlink:href="#id18">June</textPath></text><path d="M 110.8373102113329 117.98757091392108 l 3.9463505244094232 6.550081018698962 a28.647041507212247,28.647041507212247 0 0,0 -0.4245657008108559,0.2508408996145908 l -3.833016952570185 -6.617040490607302" fill="#ff0a01" stroke="none" /><path d="M 109.89434966115114 118.52300852407294 l 23.321771485674763 43.66020878782806 a70.49867530173682,70.49867530173682 0 0,0 -1.075303193284617,0.5625478087590373 l -22.56677738986365 -44.05518601553182" fill="#3aff96" stroke="none" /><path d="M 107.59598834532513 119.57807347666477 l 14.921410134929229 38.458782546300874 a62.25198704739476,62.25198704739476 0 0,0 -1.002345268455706,0.37900121325470326 l -14.257194645713248 -38.70993200966221" fill="#31ff2f" stroke="none" /><path d="M 106.57524785965236 119.94407469862006 l 10.074820462022538 30.558995821700748 a53.176920812481605,53.176920812481605 0 0,0 -0.8717942271203212,0.2791209811696215 l -9.547304889811278 -30.727889649530074" fill="#99ff23" stroke="none" /><path d="M 105.88484417918355 120.15858648285463 l 8.767499673490713 30.03314871643429 a52.28672357962908,52.28672357962908 0 0,0 -0.8661391169182351,0.24477956607088783 l -8.249229388467873 -30.179617075843694" fill="#a4ff21" stroke="none" /><path d="M 105.18746579009965 120.34920634021253 l 10.503205682751082 41.201601768614005 a63.51928171916397,63.51928171916397 0 0,0 -1.0618207239515767,0.2609696999774337 l -9.792431674056294 -41.37629272690547" fill="#31ff3e" stroke="none" /><path d="M 103.7750983002368 120.6578951692458 l 4.495223027511892 24.59852397986437 a46.00588754783632,46.00588754783632 0 0,0 -0.7802401985001484,0.1356547596840365 l -4.071133857539693 -24.672257318069413" fill="#f5ff19" stroke="none" /><path d="M 103.41894727170886 120.7198165907248 l 5.303041852997935 32.137978691942585 a53.57256402708272,53.57256402708272 0 0,0 -0.9111523126195439,0.14230325243743933 l -4.749053676769874 -32.22450025172713" fill="#94ff23" stroke="none" /><line stroke="#e1ed5e" stroke-width="0.3" x1="102.19456741930631" x2="102.32365962044197" y1="184.97166512339345" y2="189.96999836594603" /><path d="M 102.22038585953345 185.97133177190398 a86.0,86.0 0 0,1 -42.740103519485714,-10.115201625700543" fill="none" id="id19" stroke="none" /><text fill="#e1ed5e" style="font-size:6.75px; font-family:Arial;" text-anchor="middle"><textPath startOffset="22.20632615414155" xlink:href="#id19">July</textPath></text><path d="M 98.37488393609728 120.93702456842531 l -0.7405592189936439 9.540922588143184 a30.569620253164558,30.569620253164558 0 0,0 -0.5242772589838317,-0.04523684794878111 l 0.9046807957190173 -9.526761487915739" fill="#ff2904" stroke="none" /><path d="M 93.76903079525671 120.05430185196036 l -8.705381173303405 28.01816796862051 a50.339417132764204,50.339417132764204 0 0,0 -0.8252755628273396,-0.26422717387400924 l 9.186378081221683 -27.864167948086795" fill="#bcff1f" stroke="none" /><path d="M 92.7421414339146 119.70592522655815 l -7.409553578800166 20.117794726436166 a42.438916691198116,42.438916691198116 0 0,0 -0.6833267396175029,-0.25837570297849954 l 7.754750539177952 -19.987270773351035" fill="#ffd914" stroke="none" /><path d="M 91.7346041902142 119.30500536409082 l -7.0317909597530015 16.423746100153803 a38.86576390933176,38.86576390933176 0 0,0 -0.6127452806672852,-0.26860952412062966 l 7.31345691507803 -16.30027202273872" fill="#ffa60f" stroke="none" /><path d="M 91.07499286063937 119.00905698771935 l -13.20228462622525 28.119079000085282 a52.06417427141595,52.06417427141595 0 0,0 -0.8079549926705802,-0.3878674958259304 l 13.684352286896072 -27.887657227759792" fill="#a7ff21" stroke="none" /><path d="M 90.10565033884886 118.52300852407294 l -17.682836853944227 33.10367522803849 a58.53046806005299,58.53046806005299 0 0,0 -0.8845826368053316,-0.48234498355564825 l 18.250042302618198 -32.79438959272308" fill="#5aff2a" stroke="none" /><line stroke="#e1ed5e" stroke-width="0.3" x1="58.666819895761336" x2="56.23545636021788" y1="174.27360380694188" y2="178.64263932499728" /><path d="M 58.180547188652646 175.14741091055294 a86.0,86.0 0 0,1 -31.652253787137756,-30.449443065178592" fill="none" id="id20" stroke="none" /><text fill="#e1ed5e" style="font-size:6.75px; font-family:Arial;" text-anchor="middle"><textPath startOffset="22.20632615414155" xlink:href="#id20">August</textPath></text><path d="M 88.24862548938628 117.40417183066458 l -34.65565788852758 51.32616820712328 a82.93052693553136,82.93052693553136 0 0,0 -1.1762041191592367,-0.8090039183594845 l 35.5340188923097 -50.722023499398695" fill="#4cddff" stroke="none" /><path d="M 87.07902340077011 116.55440617244103 l -27.15421016835506 34.79008114956036 a65.13276420370916,65.13276420370916 0 0,0 -0.8778733755460452,-0.6974357026911815 l 27.74904103661846 -34.317511532864046" fill="#33ff53" stroke="none" /><path d="M 85.97065885151581 115.62618273729859 l -20.756982223220945 23.119574459129435 a52.0703561966441,52.0703561966441 0 0,0 -0.6617905489669366,-0.6045299755788256 l 21.151872321654736 -22.75885171696403" fill="#a7ff21" stroke="none" /><path d="M 84.43433777217949 114.09645910891817 l -25.270717452584663 22.885478947802092 a55.09331763320577,55.09331763320577 0 0,0 -0.6305329207930553,-0.7084104207446037 l 25.660909223026053 -22.447094357316626" fill="#82ff25" stroke="none" /><path d="M 83.72743513129214 113.27417163493432 l -21.877186857635785 17.846082383498693 a49.2328525169267,49.2328525169267 0 0,0 -0.5300317186915182,-0.6612960651700737 l 22.181136488382162 -17.466858484750357" fill="#caff1d" stroke="none" /><path d="M 82.85270091963577 112.12312394758628 l -25.380223660898245 17.943793702815373 a52.08272004710038,52.08272004710038 0 0,0 -0.5112516506208484,-0.7364961336692432 l 25.68533621868123 -17.50425630695912" fill="#a7ff21" stroke="none" /><line stroke="#e1ed5e" stroke-width="0.3" x1="26.63291911575756" x2="22.317208475507996" y1="142.92168965132927" y2="145.44649492493687" /><path d="M 25.769776987707644 143.4266507060508 a86.0,86.0 0 0,1 -11.730757126820373,-40.83630448921669" fill="none" id="id21" stroke="none" /><text fill="#e1ed5e" style="font-size:6.75px; font-family:Arial;" text-anchor="middle"><textPath startOffset="21.46611528233685" xlink:href="#id21">September</textPath></text><path d="M 81.51974371655577 109.97397251340807 l -19.42684580164244 10.484856003938832 a43.07565498969679,43.07565498969679 0 0,0 -0.3465487555752116,-0.6555396452398801 l 19.604447065442535 -10.148901343612826" fill="#ffe215" stroke="none" /><path d="M 81.18737489456691 109.33194174019688 l -27.82850784657087 13.804241167056025 a52.06417427141595,52.06417427141595 0 0,0 -0.39134096932317836,-0.8062783081720257 l 28.06200207250877 -13.323173902918716" fill="#a7ff21" stroke="none" /><path d="M 80.87730276802145 108.67885076344099 l -30.634594741368034 13.90353425217718 a54.642037091551366,54.642037091551366 0 0,0 -0.38134655639099707,-0.8598358121109982 l 30.86938238249031 -13.374150103573486" fill="#88ff25" stroke="none" /><path d="M 80.45479744820244 107.68017299344265 l -57.64597714644093 22.651649461672637 a82.9367088607595,82.9367088607595 0 0,0 -0.5106757565420907,-1.3332132550386677 l 58.02734718257653 -21.65601263980081" fill="#4cddff" stroke="none" /><path d="M 79.86692584326677 105.97154293290107 l -30.52854429830228 9.054877140822326 a52.843096850161906,52.843096850161906 0 0,0 -0.25114905501842283,-0.8742828081797802 l 30.679885990206806 -8.52803685713795" fill="#9dff22" stroke="none" /><path d="M 79.35854240842038 103.8639653848113 l -30.564183598953633 5.721444181807717 a52.09508389755666,52.09508389755666 0 0,0 -0.15741040047325777,-0.8828411208628814 l 30.65814044176608 -5.194484310211622" fill="#a6ff21" stroke="none" /><path d="M 79.18660465613746 102.79330883721812 l -30.855536930141827 4.141037181109941 a52.13217544892552,52.13217544892552 0 0,0 -0.11170805785143649,-0.890423131614449 l 30.92224649724011 -3.609296295208084" fill="#a6ff21" stroke="none" /><path d="M 79.10278846688536 102.07522291339032 l -31.42886479914122 3.1210815026526686 a52.58345599057992,52.58345599057992 0 0,0 -0.08169316575425292,-0.9014772767164839 l 31.477932561172548 -2.5796228373876184" fill="#a0ff22" stroke="none" /><path d="M 79.0235259727143 100.99374915477108 l -30.979973563406645 1.4676595553389762 a52.014718869590816,52.014718869590816 0 0,0 -0.03467119640565085,-0.8947095212317431 l 31.000646892663497 -0.9341727870932364" fill="#a7ff21" stroke="none" /><line stroke="#e1ed5e" stroke-width="0.3" x1="15.007084014347285" x2="10.007500721073583" y1="101.09737516637583" y2="101.16192664675087" /><path d="M 14.007167355692545 101.11028546245083 a86.0,86.0 0 0,1 10.666146001902534,-42.60595125391555" fill="none" id="id22" stroke="none" /><text fill="#e1ed5e" style="font-size:6.75px; font-family:Arial;" text-anchor="middle"><textPath startOffset="22.20632615414155" xlink:href="#id22">October</textPath></text><path d="M 79.00175016825051 100.2711162175752 l -61.93154697212193 0.7996212493040837 a82.9367088607595,82.9367088607595 0 0,0 -0.006144041084494429,-1.4276587696259908 l 61.93613531049593 0.2665469985255825" fill="#4cddff" stroke="none" /><path d="M 79.08570108090925 98.10471618934814 l -62.742896757272284 -5.685851431955563 a84.0,84.0 0 0,0 0.1428914972710853,-1.4388978771822787 l 62.635728134318974 6.7650248398422725" fill="#4dd2ff" stroke="none" /><path d="M 79.32604984820605 96.31383870115002 l -32.237242847822344 -5.747894141892364 a53.74565793347071,53.74565793347071 0 0,0 0.17023112049680986,-0.9093814526171308 l 32.13352600341567 6.3019536719720675" fill="#92ff23" stroke="none" /><path d="M 79.54389044137918 95.25157060432595 l -12.1219159674724 -2.813832314834225 a33.44421548425081,33.44421548425081 0 0,0 0.13499869019399238,-0.5596567255586292 l 12.071684477017593 3.022074272052251" fill="#ff5607" stroke="none" /><path d="M 80.38941819471856 92.48833698450439 l -28.96847203382462 -11.096121581323816 a52.02090079481896,52.02090079481896 0 0,0 0.3274999345733204,-0.8334516113636005 l 28.77317854936961 11.593122197583181" fill="#a7ff21" stroke="none" /><path d="M 80.803312248108 91.48605970444005 l -28.41358434398381 -12.601734414505561 a52.08272004710038,52.08272004710038 0 0,0 0.3705256048230092,-0.8164040551973955 l 28.192456422197452 13.088960478545028" fill="#a7ff21" stroke="none" /><path d="M 81.26839172434947 90.50648371742162 l -28.271108516120176 -14.328306735584146 a52.69473064468649,52.69473064468649 0 0,0 0.41701748358645513,-0.8055450442899323 l 28.020281599373604 14.812824502134415" fill="#9fff22" stroke="none" /><line stroke="#e1ed5e" stroke-width="0.3" x1="26.266209847984243" x2="21.928928074336255" y1="57.711370442889674" y2="55.22380399835377" /><path d="M 25.398753493254645 57.213857153982495 a86.0,86.0 0 0,1 29.58750427330803,-30.492523968695096" fill="none" id="id23" stroke="none" /><text fill="#e1ed5e" style="font-size:6.75px; font-family:Arial;" text-anchor="middle"><textPath startOffset="21.46611528233685" xlink:href="#id23">November</textPath></text><path d="M 81.78341655067845 89.55222093294921 l -26.861014570989582 -15.405630069725461 a51.96526346776568,51.96526346776568 0 0,0 0.4517026718876799,-0.7721062878284326 l 26.591852224631577 15.865715769907787" fill="#a8ff21" stroke="none" /><line stroke="#e1ed5e" stroke-width="0.3" x1="56.762969772571076" x2="54.21961505331055" y1="26.818313649435495" y2="22.513508569990535" /><path d="M 56.25429882871897 25.957352633546506 a86.0,86.0 0 0,1 42.265352541879196,-11.944610805530505" fill="none" id="id24" stroke="none" /><text fill="#e1ed5e" style="font-size:6.75px; font-family:Arial;" text-anchor="middle"><textPath startOffset="22.20632615414155" xlink:href="#id24">December</textPath></text></svg>