<?xml version="1.0" encoding="utf-8" ?>
<svg baseProfile="full" height="200mm" version="1.1" viewBox="0,0,200,200" width="200mm" xmlns="http://www.w3.org/2000/svg" xmlns:ev="http://www.w3.org/2001/xml-events" xmlns:xlink="http://www.w3.org/1999/xlink"><defs /><rect fill="#1a1a1a" height="200" width="200" x="0" y="0" /><text alignment-baseline="middle" fill="#e1ed5e" style="dominant-baseline: central; font-size:9.0px; font-family:Arial;" text-anchor="middle" x="100.0" y="100.0">2024</text><line stroke="#e1ed5e" stroke-width="0.3" x1="100.0" x2="100.0" y1="15.0" y2="10.0" /><path d="M 100.0 14.0 a86.0,86.0 0 0,1 42.35913384403234,11.155469271406648" fill="none" id="id37" stroke="none" /><text fill="#e1ed5e" style="font-size:6.75px; font-family:Arial;" text-anchor="middle"><textPath startOffset="22.145653131862478" xlink:href="#id37">January</textPath></text><path d="M 100.0 79.0 l 0.0 -15.282573022645224 a36.282573022645224,36.282573022645224 0 0,0 0.6228386128559776,0.005346320402415532 l -0.2623456880071229 15.280321100437243" fill="#ff6709" stroke="none" /><path d="M 104.64783097203109 79.52079915486377 l 3.390918362594386 -14.941011972017668 a36.320971447325235,36.320971447325235 0 0,0 0.6068505250380065,0.14321507154065677 l -3.6469010413722778 14.880600756830784" fill="#ff6809" stroke="none" /><path d="M 106.72888874123014 80.10723608172694 l 5.7108323875356515 -16.88306120533447 a38.822776501476866,38.822776501476866 0 0,0 0.6294729196161509,0.2189633571844864 l -5.999811079196821 16.782539415581393" fill="#ff8f0d" stroke="none" /><path d="M 109.3889696526874 81.21577127319529 l 6.695401960587708 -13.395288993140776 a35.97538562520512,35.97538562520512 0 0,0 0.5500341434576185,0.2808513527978959 l -6.924363325758906 13.278379688670046" fill="#ff6309" stroke="none" /><line stroke="#e1ed5e" stroke-width="0.3" x1="143.13028292997686" x2="145.6673583964461" y1="26.7553504044142" y2="22.446841604673864" /><path d="M 143.63769802327073 25.89364864446614 a86.0,86.0 0 0,1 29.32050498858742,28.57503671076993" fill="none" id="id38" stroke="none" /><text fill="#e1ed5e" style="font-size:6.75px; font-family:Arial;" text-anchor="middle"><textPath startOffset="20.669276256404974" xlink:href="#id38">February</textPath></text><path d="M 111.5731344415666 82.4767994020092 l 4.907825074966941 -7.431072690178943 a29.905480800787657,29.905480800787657 0 0,0 0.42594477684568854,0.2865946551731948 l -5.03466613990963 7.3457283609486295" fill="#ff0000" stroke="none" /><path d="M 113.59037401385872 83.9905735841838 l 10.240090992391746 -12.062801440694926 a36.82310469314079,36.82310469314079 0 0,0 0.4783856466252064,0.4132181277049778 l -10.445656118779814 11.885239180525227" fill="#ff700a" stroke="none" /><path d="M 114.39649973595853 84.71141617570332 l 10.547803524488906 -11.20140182016429 a36.38595339678372,36.38595339678372 0 0,0 0.4510602284383481,0.4321054954487777 l -10.738536238792566 11.018684194409934" fill="#ff6909" stroke="none" /><path d="M 115.6541949942343 86.00192230759917 l 13.503752341831166 -12.075138612334513 a39.11519527404004,39.11519527404004 0 0,0 0.4432849383962272,0.5043768872011234 l -13.709048344185984 11.841549447322093" fill="#ff930d" stroke="none" /><path d="M 116.1254893667686 86.54754324733833 l 11.36321933435848 -9.479601715622156 a35.79816212668198,35.79816212668198 0 0,0 0.38960875330783157,0.4752593295383943 l -11.524274906904939 9.283140104385268" fill="#ff6008" stroke="none" /><line stroke="#e1ed5e" stroke-width="0.3" x1="172.87174338648825" x2="177.1583165268699" y1="56.24261187166439" y2="53.66864786411523" /><path d="M 173.72905801456457 55.72781907015455 a86.0,86.0 0 0,1 12.242430191666344,42.057860355516425" fill="none" id="id39" stroke="none" /><text fill="#e1ed5e" style="font-size:6.75px; font-family:Arial;" text-anchor="middle"><textPath startOffset="22.145653131862474" xlink:href="#id39">March</textPath></text><path d="M 118.36410011445183 89.81374322990088 l 20.743882228772467 -11.506281792957854 a44.72136527732195,44.72136527732195 0 0,0 0.3666186192400941,0.6745369662861159 l -20.9383461976279 11.148489993197135" fill="#ffe515" stroke="none" /><path d="M 118.8641267826498 90.77261029715802 l 23.93548047816831 -11.708042924094533 a47.645553002953726,47.645553002953726 0 0,0 0.3530779196776192,0.7377970556550008 l -24.13293765580584 11.295433366374429" fill="#f0ff19" stroke="none" /><path d="M 119.16976305983485 91.42560881287824 l 27.626244874734095 -12.356867940819946 a51.26386609780111,51.26386609780111 0 0,0 0.3524173972067329,0.806399972477887 l -27.834296153957798 11.88080589856621" fill="#bfff1e" stroke="none" /><path d="M 119.71291397450082 92.76114493625339 l 13.913367104511957 -5.1091811209921465 a35.82179192648507,35.82179192648507 0 0,0 0.20701555128187976,0.5790593408970465 l -13.99902282583778 4.869586823714183" fill="#ff6008" stroke="none" /><path d="M 119.83427380445688 93.10060997987247 l 31.26764604065162 -10.876510386645787 a54.10534952412209,54.10534952412209 0 0,0 0.2976169829028003,0.8798517268799004 l -31.449748445126787 10.338156985291725" fill="#9bff22" stroke="none" /><path d="M 120.05942366710727 93.78553927170692 l 16.951148772841734 -5.251509220627052 a38.74597965211684,38.74597965211684 0 0,0 0.19137502831343492,0.6370252279007107 l -17.038800121158797 4.959746389135618" fill="#ff8d0d" stroke="none" /><path d="M 120.26092885502905 94.47779374421319 l 47.50284913748595 -12.947112768209063 a70.23564161470298,70.23564161470298 0 0,0 0.30706527250756066,1.1659768549890779 l -47.71810389079825 12.129755408847187" fill="#39ff8d" stroke="none" /><path d="M 120.592083275326 95.88100663000786 l 14.626567660049174 -2.9257231729279787 a35.916311125697405,35.916311125697405 0 0,0 0.11574237816302677,0.6056130306226133 l -14.674636330494359 2.674207577272051" fill="#ff6209" stroke="none" /><path d="M 120.77682067341334 96.94652285012252 l 62.330462020240034 -9.160431449632455 a84.0,84.0 0 0,0 0.19742193377914985,1.4284467671996575 l -62.478528470574396 8.089096374232712" fill="#4dd2ff" stroke="none" /><path d="M 120.96210409425399 98.7389718711861 l 21.21959723845647 -1.2765182769572487 a42.257958647850344,42.257958647850344 0 0,0 0.03734478787209437,0.7244789079783731 l -21.238383615785136 0.9120675756021449" fill="#ffc212" stroke="none" /><line stroke="#e1ed5e" stroke-width="0.3" x1="184.99686870605535" x2="189.99668451229388" y1="99.2704041080226" y2="99.22748670261217" /><path d="M 185.99683186730306 99.26182062694052 a86.0,86.0 0 0,1 -10.086455211305974,41.156179273409016" fill="none" id="id40" stroke="none" /><text fill="#e1ed5e" style="font-size:6.75px; font-family:Arial;" text-anchor="middle"><textPath startOffset="21.40746469413373" xlink:href="#id40">April</textPath></text><path d="M 120.99922638620191 99.81974689727618 l 14.900993546587555 -0.12790710814970882 a35.90154250082048,35.90154250082048 0 0,0 0.0,0.6163204217470696 l -14.900993546587555 -0.12790710814970702" fill="#ff6109" stroke="none" /><path d="M 120.99303781780057 100.54070618675476 l 17.734190791932612 0.45676984729463016 a38.74007220216606,38.74007220216606 0 0,0 -0.022829548536504672,0.6646573964178318 l -17.723736556399263 -0.7611335082765727" fill="#ff8d0d" stroke="none" /><path d="M 120.98066250479742 100.90099992219065 l 17.936208922709746 0.77025798589827 a38.95274040039383,38.95274040039383 0 0,0 -0.03442385467343126,0.6678135842578838 l -17.920343478579742 -1.0780433635328845" fill="#ff910d" stroke="none" /><path d="M 120.86939407059847 102.33845913500097 l 17.81466819088501 1.9961707286306376 a38.92615687561536,38.92615687561536 0 0,0 -0.08010987095681645,0.6634246513740034 l -17.77777623366853 -2.3016890569280495" fill="#ff900d" stroke="none" /><path d="M 120.77682067341334 103.0534771498775 l 15.687088945785007 2.3054618604541726 a36.855595667870034,36.855595667870034 0 0,0 -0.09736635495279815,0.6251618447072066 l -15.64520109869394 -2.57441188709283" fill="#ff700a" stroke="none" /><path d="M 120.65975698304385 103.76489593502545 l 11.649627138406315 2.1229501341155737 a32.84148342632097,32.84148342632097 0 0,0 -0.10583356906729317,0.5537659543695794 l -11.611467277056862 -2.3226186535184676" fill="#ff3004" stroke="none" /><path d="M 120.51834098615036 104.47187691870673 l 40.21898822959231 8.765541292010443 a62.16311125697407,62.16311125697407 0 0,0 -0.23618767095662072,1.0406864577848134 l -40.06258969707803 -9.454662083734274" fill="#3bff2e" stroke="none" /><path d="M 120.35273937422433 105.17358676015961 l 16.18848626207116 4.115049903235397 a37.70331473580571,37.70331473580571 0 0,0 -0.1648362333941422,0.6259100269842878 l -16.115460547872285 -4.392340434592487" fill="#ff7d0b" stroke="none" /><path d="M 120.16314734710363 105.8691983318838 l 20.178272779967518 5.873601124950052 a42.015753199868726,42.015753199868726 0 0,0 -0.2075251685576027,0.6907837922251145 l -20.074471291406287 -6.2191225207658904" fill="#ffbe11" stroke="none" /><path d="M 119.94978838288452 106.5578916946017 l 36.88498780435328 12.124828120240876 a59.82671480144404,59.82671480144404 0 0,0 -0.3290884637618648,0.9728915679240523 l -36.671413919019045 -12.756221362639089" fill="#55ff2b" stroke="none" /><path d="M 119.4528033332814 107.91128576633889 l 30.411820861187493 12.368222789562104 a53.83065310141122,53.83065310141122 0 0,0 -0.3554723979470294,0.8530043498901766 l -30.19502261870398 -12.888459648893559" fill="#9eff22" stroke="none" /><path d="M 119.0197475246899 108.90220220490707 l 53.03307350500999 24.822156197207253 a79.55464391204464,79.55464391204464 0 0,0 -0.5895406056346361,1.2319131239456877 l -52.599153641415434 -25.728881823218046" fill="#47fffc" stroke="none" /><path d="M 118.8641267826498 109.22738970284198 l 16.888297665839854 8.260912671750548 a39.80045946832951,39.80045946832951 0 0,0 -0.30547816720563237,0.611160966122966 l -16.74399958542249 -8.54960549403726" fill="#ff9d0e" stroke="none" /><path d="M 118.5362547648365 109.86951160357373 l 18.836950725670732 10.029615265950603 a42.34066294716114,42.34066294716114 0 0,0 -0.34710200127253804,0.6386285874282976 l -18.662003374782856 -10.351498686853503" fill="#ffc312" stroke="none" /><line stroke="#e1ed5e" stroke-width="0.3" x1="174.33088141563837" x2="178.70328620479359" y1="141.23008692659167" y2="143.65538615756765" /><path d="M 175.20536237346943 141.71514677278685 a86.0,86.0 0 0,1 -30.301960400862466,31.631185727798858" fill="none" id="id41" stroke="none" /><text fill="#e1ed5e" style="font-size:6.75px; font-family:Arial;" text-anchor="middle"><textPath startOffset="22.145653131862474" xlink:href="#id41">May</textPath></text><path d="M 118.18653347947321 110.5 l 31.425040620094016 18.143255661306195 a57.286511322612405,57.286511322612405 0 0,0 -0.499009951231175,0.8474279911860901 l -31.108956958733074 -18.680034820785835" fill="#73ff27" stroke="none" /><path d="M 117.423217284605 111.72311816256416 l 14.961143258827914 10.066524879148695 a39.03249097472924,39.03249097472924 0 0,0 -0.3788201075387238,0.5527098580750703 l -14.78613341447387 -10.321869472293809" fill="#ff920d" stroke="none" /><path d="M 115.16444852881244 114.52719865689866 l 10.867297846260872 10.410625508495286 a36.04922874958976,36.04922874958976 0 0,0 -0.43192675055859847,0.4431948967430196 l -10.686984294551467 -10.595643097306043" fill="#ff6409" stroke="none" /><path d="M 114.65682725009322 115.03919595460226 l 14.45136092031789 14.828369399657063 a41.70561207745323,41.70561207745323 0 0,0 -0.5170056341709056,0.49527970239513947 l -14.194682800281672 -15.074261232357783" fill="#ffba11" stroke="none" /><path d="M 112.45986205192187 116.90419585922612 l 6.608768315129265 8.966063470177925 a32.13849688217919,32.13849688217919 0 0,0 -0.4469072089349215,0.32352635476768804 l -6.453880095820376 -9.078190596318692" fill="#ff2503" stroke="none" /><line stroke="#e1ed5e" stroke-width="0.3" x1="143.1302829299769" x2="145.66735839644613" y1="173.24464959558577" y2="177.55315839532614" /><path d="M 143.63769802327073 174.10635135553383 a86.0,86.0 0 0,1 -40.68552437913181,11.842963189579606" fill="none" id="id42" stroke="none" /><text fill="#e1ed5e" style="font-size:6.75px; font-family:Arial;" text-anchor="middle"><textPath startOffset="21.407464694133747" xlink:href="#id42">June</textPath></text><path d="M 107.74402155503746 119.51999308798841 l 3.431056481555818 8.648503665501918 a30.30423367246472,30.30423367246472 0 0,0 -0.48519637736001026,0.18768438196817708 l -3.2820878417022787 -8.706127935608135" fill="#ff0701" stroke="none" /><path d="M 105.69591212413111 120.21278271476187 l 4.831737918416436 17.146133323558843 a38.813915326550706,38.813915326550706 0 0,0 -0.6428667453866778,0.17521619015657705 l -4.536689772095063 -17.22655000785956" fill="#ff8e0d" stroke="none" /><path d="M 104.9986988182912 120.39639698878246 l 7.046316220673416 28.751374741653777 a50.602231703314736,50.602231703314736 0 0,0 -0.8454617168427452,0.19952666310198597 l -6.551722350090791 -28.868097548401987" fill="#c8ff1d" stroke="none" /><path d="M 104.64783097203109 120.47920084513623 l 3.95966696013769 17.447023233952393 a38.890712175910735,38.890712175910735 0 0,0 -0.6523224034668356,0.14217063170885222 l -3.6595821400517186 -17.51242532379496" fill="#ff900d" stroke="none" /><path d="M 103.94208987418118 120.62667999033965 l 5.839113197759195 30.552707625055117 a52.105677715786015,52.105677715786015 0 0,0 -0.8800035271700948,0.16036595711024307 l -5.313774937038043 -30.648441756096723" fill="#b4ff20" stroke="none" /><path d="M 103.2317021107853 120.74984581791261 l 4.64868734872727 29.84790752212373 a51.20774532326879,51.20774532326879 0 0,0 -0.8697389121545444,0.12782166898237732 l -4.13562333096504 -29.92331026440499" fill="#c0ff1e" stroke="none" /><path d="M 102.875027216393 120.80226474461374 l 2.5949247007727254 18.77558247449759 a39.95405316704956,39.95405316704956 0 0,0 -0.6802123863131105,0.08806711173463282 l -2.2722344925688396 -18.817361182432617" fill="#ffa00e" stroke="none" /><path d="M 102.15924093988457 120.88869738790638 l 1.7283848547352985 16.72055560521944 a37.80964883491959,37.80964883491959 0 0,0 -0.6461856892910424,0.06119445661259016 l -1.4410996020592408 -16.747761817337214" fill="#ff7f0b" stroke="none" /><line stroke="#e1ed5e" stroke-width="0.3" x1="101.45913802915013" x2="101.54496967792366" y1="184.9874750549273" y2="189.98673829345242" /><path d="M 101.47630435890484 185.9873277026323 a86.0,86.0 0 0,1 -42.54439059252881,-10.42667462771756" fill="none" id="id43" stroke="none" /><text fill="#e1ed5e" style="font-size:6.75px; font-family:Arial;" text-anchor="middle"><textPath startOffset="22.145653131862474" xlink:href="#id43">July</textPath></text><line stroke="#e1ed5e" stroke-width="0.3" x1="58.13341422392154" x2="55.67067388415222" y1="173.97424548756322" y2="178.32567169271397" /><path d="M 57.64086615596768 174.84453072859336 a86.0,86.0 0 0,1 -31.369924170532247,-30.572349798747897" fill="none" id="id44" stroke="none" /><text fill="#e1ed5e" style="font-size:6.75px; font-family:Arial;" text-anchor="middle"><textPath startOffset="22.145653131862474" xlink:href="#id44">August</textPath></text><line stroke="#e1ed5e" stroke-width="0.3" x1="26.387840678322732" x2="22.057713659400548" y1="142.50000000000003" y2="145.00000000000006" /><path d="M 25.521815274538298 143.00000000000003 a86.0,86.0 0 0,1 -11.493303480769221,-40.785679425670985" fill="none" id="id45" stroke="none" /><text fill="#e1ed5e" style="font-size:6.75px; font-family:Arial;" text-anchor="middle"><textPath startOffset="21.40746469413373" xlink:href="#id45">September</textPath></text><line stroke="#e1ed5e" stroke-width="0.3" x1="15.003131293944662" x2="10.003315487706104" y1="100.72959589197737" y2="100.7725132973878" /><path d="M 14.003168132696942 100.73817937305945 a86.0,86.0 0 0,1 10.791469493833604,-42.45332614584628" fill="none" id="id46" stroke="none" /><text fill="#e1ed5e" style="font-size:6.75px; font-family:Arial;" text-anchor="middle"><textPath startOffset="22.145653131862435" xlink:href="#id46">October</textPath></text><line stroke="#e1ed5e" stroke-width="0.3" x1="26.387840678322718" x2="22.05771365940052" y1="57.49999999999999" y2="54.99999999999999" /><path d="M 25.521815274538284 56.99999999999999 a86.0,86.0 0 0,1 29.574782752854787,-30.34633250058573" fill="none" id="id47" stroke="none" /><text fill="#e1ed5e" style="font-size:6.75px; font-family:Arial;" text-anchor="middle"><textPath startOffset="21.40746469413373" xlink:href="#id47">November</textPath></text><line stroke="#e1ed5e" stroke-width="0.3" x1="56.869717070023135" x2="54.33264160355391" y1="26.7553504044142" y2="22.446841604673864" /><path d="M 56.362301976729285 25.89364864446614 a86.0,86.0 0 0,1 42.16139366436587,-11.88097634709845" fill="none" id="id48" stroke="none" /><text fill="#e1ed5e" style="font-size:6.75px; font-family:Arial;" text-anchor="middle"><textPath startOffset="22.145653131862474" xlink:href="#id48">December</textPath></text></svg>