<?xml version="1.0" encoding="utf-8" ?>
<svg baseProfile="full" height="200mm" version="1.1" viewBox="0,0,200,200" width="200mm" xmlns="http://www.w3.org/2000/svg" xmlns:ev="http://www.w3.org/2001/xml-events" xmlns:xlink="http://www.w3.org/1999/xlink"><defs /><rect fill="#1a1a1a" height="200" width="200" x="0" y="0" /><text alignment-baseline="middle" fill="#e1ed5e" style="dominant-baseline: central; font-size:9.0px; font-family:Arial;" text-anchor="middle" x="100.0" y="100.0">2025</text><line stroke="#e1ed5e" stroke-width="0.3" x1="100.0" x2="100.0" y1="15.0" y2="10.0" /><path d="M 100.0 14.0 a86.0,86.0 0 0,1 42.46469731375804,11.215312516191453" fill="none" id="id49" stroke="none" /><text fill="#e1ed5e" style="font-size:6.75px; font-family:Arial;" text-anchor="middle"><textPath startOffset="22.20632615414155" xlink:href="#id49">January</textPath></text><path d="M 100.0 79.0 l 0.0 -37.91717912211081 a58.91717912211081,58.91717912211081 0 0,0 1.0141623879260009,0.008729215855371834 l -0.6526819086534725 37.911561282864" fill="#64ff29" stroke="none" /><path d="M 100.72285384407766 79.0124445844662 l 0.7230728177058687 -20.99391316156256 a42.00636151585835,42.00636151585835 0 0,0 0.7224277409247724,0.03110925819134141 l -1.0843413910199726 20.978356176847026" fill="#ffb710" stroke="none" /><path d="M 101.08401301168833 79.027996857942 l 0.6908772758447411 -13.36614989263452 a34.38399321438308,34.38399321438308 0 0,0 0.5908118887709847,0.035639386567948995 l -0.9208512134553377 13.352277236686266" fill="#ff4006" stroke="none" /><path d="M 102.16513564639614 79.11191278185805 l 1.9715845485040662 -19.020808269284387 a40.122716670200845,40.122716670200845 0 0,0 0.6863531320753118,0.07711977155056604 l -2.2987043840891035 18.984052544263218" fill="#ff9a0e" stroke="none" /><path d="M 102.52436894288641 79.15227682838746 l 2.760051142213173 -22.794125365272528 a43.96061918754354,43.96061918754354 0 0,0 0.7504397383052256,0.09742861579671919 l -3.152005609026245 22.74323842631167" fill="#ffd313" stroke="none" /><path d="M 102.88285421437855 79.19881850522331 l 2.721555503828828 -19.637333619194216 a40.825028020962705,40.825028020962705 0 0,0 0.6952522092935994,0.10246210290417791 l -3.059176693551083 19.58757703212907" fill="#ffa50f" stroke="none" /><path d="M 103.2404852339499 79.25152402106235 l 3.0179478971420397 -19.323593514175855 a40.557844354912,40.557844354912 0 0,0 0.6888475496839239,0.11366574797141042 l -3.3501246529648387 19.26878150326482" fill="#ffa10e" stroke="none" /><path d="M 103.95276090670814 79.375362276772 l 3.790153008997982 -19.77618544889086 a41.136106146436035,41.136106146436035 0 0,0 0.6942865620010846,0.13926735282855413 l -4.130005980466192 19.7080141399851" fill="#ffaa0f" stroke="none" /><path d="M 104.66035177308747 79.52364482259891 l 6.1703673001827966 -27.110964700816986 a48.804277362091426,48.804277362091426 0 0,0 0.8175327976616619,0.19348359978118929 l -6.636123784806982 27.00073518889493" fill="#e6ff1a" stroke="none" /><path d="M 105.01212808612495 79.60689891045804 l 4.795919234692342 -19.513401112215988 a41.09412014177093,41.09412014177093 0 0,0 0.6854716672843826,0.17474199065412968 l -5.131099790661749 19.427956125392992" fill="#ffa90f" stroke="none" /><path d="M 105.36241919743992 79.69619591428918 l 7.323598409541719 -27.729444833546 a49.68025809578626,49.68025809578626 0 0,0 0.824933850567214,0.22548558341675803 l -7.799830149332644 27.59927270930295" fill="#daff1c" stroke="none" /><path d="M 106.0581310904928 79.89281104454417 l 7.178144844855803 -23.82456117063097 a45.88243312835115,45.88243312835115 0 0,0 0.7542517643585304,0.23434969469565306 l -7.587181981925052 23.697471341052797" fill="#ffef16" stroke="none" /><path d="M 106.74666289553966 80.11325718540242 l 7.105547511109239 -20.944605962712853 a43.1170821847263,43.1170821847263 0 0,0 0.7007921943776146,0.24449263620290573 l -7.465021709550127 20.81919247333774" fill="#ffc712" stroke="none" /><path d="M 107.08798089147638 80.2323363322302 l 5.803766123310608 -16.186118231493055 a38.19517736512071,38.19517736512071 0 0,0 0.6169752015476276,0.22723717359790546 l -6.081523650630812 16.083817790088826" fill="#ff7c0b" stroke="none" /><path d="M 107.4271985657038 80.35727306442388 l 14.499810328840304 -38.3476774435836 a61.997425100724,61.997425100724 0 0,0 0.9949607612198191,0.38602931771042925 l -15.15775425505979 38.092405421982626" fill="#3fff2d" stroke="none" /><path d="M 108.43124777332544 80.76684994638697 l 12.33693499727177 -28.142705372138686 a51.7280300505892,51.7280300505892 0 0,0 0.8124204422462886,0.36450937094843466 l -12.81953755798484 27.92617567067372" fill="#beff1e" stroke="none" /><path d="M 110.05341064243156 81.56283822128135 l 5.49372859285762 -10.075064715588919 a32.47553845687801,32.47553845687801 0 0,0 0.48848763299726183,0.2718428388886376 l -5.6663403149269165 9.979006479140102" fill="#ff2003" stroke="none" /><line stroke="#e1ed5e" stroke-width="0.3" x1="143.23703022742887" x2="145.7803849466894" y1="26.81831364943548" y2="22.513508569990506" /><path d="M 143.74570117128098 25.957352633546492 a86.0,86.0 0 0,1 28.547481713284135,27.462654790039103" fill="none" id="id50" stroke="none" /><text fill="#e1ed5e" style="font-size:6.75px; font-family:Arial;" text-anchor="middle"><textPath startOffset="19.985693538727396" xlink:href="#id50">February</textPath></text><path d="M 111.90073688211348 82.69761687909136 l 7.204035779445442 -10.473888155618349 a33.7122171397413,33.7122171397413 0 0,0 0.4752922719367484,0.33297261041979936 l -7.383259190965841 10.348330702434614" fill="#ff3505" stroke="none" /><path d="M 112.19680574252982 82.90503203632743 l 11.21399688260042 -15.717469106219932 a40.30783678167883,40.30783678167883 0 0,0 0.5613436025928096,0.4078400001074141 l -11.482885801547019 15.522109871295843" fill="#ff9d0e" stroke="none" /><path d="M 113.34407831869373 83.78471172551755 l 7.743049898354438 -9.409101417639919 a33.1854836266699,33.1854836266699 0 0,0 0.4379574604522942,0.36677677814649723 l -7.9038648957658495 9.274423482099602" fill="#ff2c04" stroke="none" /><path d="M 113.6212207817346 84.01681056812373 l 16.841359734830753 -19.76171205543697 a46.96452697585653,46.96452697585653 0 0,0 0.6107763600346547,0.5296592407318576 l -17.179029893512173 19.468887821285442" fill="#ffff18" stroke="none" /><path d="M 113.89432698308785 84.25364557470407 l 20.4052277162188 -23.12511776493736 a51.840628881282,51.840628881282 0 0,0 0.6640266459608972,0.5961696790882186 l -20.800265349775685 22.770449077079846" fill="#bdff1f" stroke="none" /><path d="M 114.42810811169701 84.74124197986012 l 18.46313565061394 -19.526088729355937 a47.87295144042895,47.87295144042895 0 0,0 0.5938907632362267,0.571322443694215 l -18.796509657462583 19.205383198899423" fill="#f3ff19" stroke="none" /><path d="M 114.94478906791727 85.2469230424477 l 27.815208273994635 -27.458394119293967 a60.085153433703915,60.085153433703915 0 0,0 0.7202657304831009,0.7422971484079898 l -28.283738268180844 26.975532775335864" fill="#56ff2b" stroke="none" /><path d="M 115.4437574822437 85.77008943001954 l 17.69124501502667 -16.30075030153014 a45.05607221835146,45.05607221835146 0 0,0 0.5206258310783878,0.5748880460709134 l -17.969214486721093 15.993809468189676" fill="#ffe315" stroke="none" /><path d="M 115.68641384162765 86.03803664274999 l 22.425522656930543 -19.960223462442823 a51.02190179031232,51.02190179031232 0 0,0 0.5782679886583946,0.66106027476595 l -22.765782509166787 19.571247631473923" fill="#c8ff1d" stroke="none" /><path d="M 115.9244219780498 86.31012108654704 l 23.4430685185934 -20.15349566983956 a51.915058616824695,51.915058616824695 0 0,0 0.5767253416904468,0.6826608960245939 l -23.78650447377096 19.74697582418586" fill="#bcff1f" stroke="none" /><path d="M 116.38621287248628 86.86637796730983 l 25.62247541886029 -20.536527281312328 a53.836872557632304,53.836872557632304 0 0,0 0.573352231480822,0.7280991091499293 l -25.972181730935077 20.09243577820936" fill="#a3ff22" stroke="none" /><path d="M 116.82858285166822 87.43820079747576 l 19.88169795568326 -14.840815755307187 a45.809911847565964,45.809911847565964 0 0,0 0.46625194663237257,0.6359671312220796 l -20.134212514829258 14.496386180413612" fill="#ffee16" stroke="none" /><path d="M 117.04232023915458 87.72973835380427 l 19.75011369146944 -14.219839736356493 a45.336615067704706,45.336615067704706 0 0,0 0.45053235359233823,0.637246063459274 l -19.99195866486566 13.877767172565425" fill="#ffe715" stroke="none" /><path d="M 117.45458315368197 88.32363383020206 l 21.230390560317414 -14.202219092112529 a46.54275847444791,46.54275847444791 0 0,0 0.4397257086216152,0.6697324220775328 l -21.471712904296954 13.834668606057322" fill="#fff917" stroke="none" /><path d="M 117.65298651832404 88.62581576622439 l 21.90486909707641 -14.11376009766189 a47.058041258974285,47.058041258974285 0 0,0 0.43287214028347887,0.6846997714591205 l -22.144568833605845 13.734612678488563" fill="#feff18" stroke="none" /><line stroke="#e1ed5e" stroke-width="0.3" x1="172.23445277983987" x2="176.4835382374775" y1="55.19839476539836" y2="52.563006222186495" /><path d="M 173.08426987136738 54.67131705675599 a86.0,86.0 0 0,1 12.851231095245387,41.99856678651699" fill="none" id="id51" stroke="none" /><text fill="#e1ed5e" style="font-size:6.75px; font-family:Arial;" text-anchor="middle"><textPath startOffset="22.20632615414155" xlink:href="#id51">March</textPath></text><path d="M 117.84615892207809 88.93136811851018 l 18.733844631388685 -11.619196649276503 a43.04456090394111,43.04456090394111 0 0,0 0.38511395064557097,0.6330260759660732 l -18.931074380320478 11.29500280010335" fill="#ffc612" stroke="none" /><path d="M 118.21658344932153 89.55222093294921 l 11.795446100670922 -6.765056422350451 a34.597740147223654,34.597740147223654 0 0,0 0.29184406169669924,0.5191580209229135 l -11.910147803660054 6.561014891492744" fill="#ff4306" stroke="none" /><path d="M 118.3937258080291 89.86733742301442 l 23.4157684819186 -12.899185487723557 a47.73363424313108,47.73363424313108 0 0,0 0.39026087592446435,0.7230941327329968 l -23.63433745706153 12.494210371658102" fill="#f5ff19" stroke="none" /><path d="M 119.04729006885535 91.15688171328212 l 23.773482942563938 -11.037356022215326 a47.21071763957468,47.21071763957468 0 0,0 0.33586532523095725,0.740034723510466 l -23.959950584758243 10.626499289862796" fill="#fcff18" stroke="none" /><path d="M 119.196687751892 91.48605970444005 l 17.86441633813342 -7.923063399460829 a40.542576716851954,40.542576716851954 0 0,0 0.27744499624416447,0.6403813036972893 l -17.998152044220266 7.614382951176937" fill="#ffa10e" stroke="none" /><path d="M 119.47837535516314 92.15188598940014 l 26.572041966891682 -10.70625301382397 a49.64781436490867,49.64781436490867 0 0,0 0.3125600615865188,0.7954312641820425 l -26.7523955783599 10.247272744746143" fill="#daff1b" stroke="none" /><path d="M 119.61058180528143 92.48833698450437 l 17.83611850964132 -6.831970263767863 a40.09981521311078,40.09981521311078 0 0,0 0.24135393546999642,0.6467085534323703 l -17.95107703361294 6.523938573306159" fill="#ff9a0e" stroke="none" /><path d="M 119.85752413597 93.16781622104841 l 11.372765178717659 -3.9129158924255125 a33.027081881796974,33.027081881796974 0 0,0 0.18033212320896105,0.5391700952889105 l -11.43843459569839 3.716572694214288" fill="#ff2904" stroke="none" /><path d="M 120.08093135843002 93.85539295169968 l 38.874678119167214 -11.895345734109236 a61.65390324437309,61.65390324437309 0 0,0 0.3017932225508209,1.0174967169939282 l -39.07367723882973 11.224419630368779" fill="#43ff2d" stroke="none" /><path d="M 120.37134235888165 94.90015583598534 l 12.331663214005392 -3.087158399609364 a33.7122171397413,33.7122171397413 0 0,0 0.13608048780643225,0.5641414750671422 l -12.382976502072644 2.8744316928828155" fill="#ff3505" stroke="none" /><path d="M 120.53481517161879 95.60439243477599 l 26.113447217272583 -5.589749173928055 a47.7050074217685,47.7050074217685 0 0,0 0.16497005844519652,0.80445259290254 l -26.205796571632778 5.139420924862104" fill="#f5ff19" stroke="none" /><path d="M 120.67395015179393 96.31383870115 l 29.05037265581514 -5.1796758052908345 a50.508527460543455,50.508527460543455 0 0,0 0.14524361669985317,0.8572360475322596 l -29.135228134035216 4.678853969442737" fill="#cfff1d" stroke="none" /><path d="M 120.78858239683441 97.02765380044208 l 19.04355310897194 -2.7228423578392436 a40.237223955651146,40.237223955651146 0 0,0 0.09213174831398027,0.6864885385498142 l -19.087600856343755 2.394635477224765" fill="#ff9c0e" stroke="none" /><path d="M 120.83666639777658 97.38593545837742 l 19.03457974285391 -2.387983712010252 a40.183787222441005,40.183787222441005 0 0,0 0.08019468273673319,0.6870590676209151 l -19.072864778594234 2.0599809060644843" fill="#ff9b0e" stroke="none" /><path d="M 120.87857604477298 97.74499172005257 l 19.74265400132043 -2.1323220580581927 a40.85747175184029,40.85747175184029 0 0,0 0.06950220611108966,0.6998777306042518 l -19.77643333311375 1.792168796749506" fill="#ffa50f" stroke="none" /><path d="M 120.94382443527127 98.46500227214037 l 32.88417086136575 -2.4101198761834737 a53.972372845415165,53.972372845415165 0 0,0 0.05993351604021021,0.9271449659399589 l -32.92078496841038 1.8437158459904797" fill="#a1ff22" stroke="none" /><path d="M 120.96714384426684 98.82574320788733 l 19.52533909656197 -1.0935090741369708 a40.555935900154495,40.555935900154495 0 0,0 0.03303646323644036,0.6973475244788259 l -19.54126916803191 0.7572504430351452" fill="#ffa10e" stroke="none" /><line stroke="#e1ed5e" stroke-width="0.3" x1="184.98032266829074" x2="189.97916517819016" y1="98.17113171792111" y2="98.06355123074" /><path d="M 185.9800911702706 98.14961562048488 a86.0,86.0 0 0,1 -9.607161424134198,41.387399972396054" fill="none" id="id52" stroke="none" /><text fill="#e1ed5e" style="font-size:6.75px; font-family:Arial;" text-anchor="middle"><textPath startOffset="21.466115282336823" xlink:href="#id52">April</textPath></text><path d="M 120.99513854157772 99.54816195383933 l 13.438135235073021 -0.28920317704185705 a34.44124685710824,34.44124685710824 0 0,0 0.007654145425672657,0.5928219983825558 l -13.44112238761641 0.057844920598838494" fill="#ff4006" stroke="none" /><path d="M 120.99980553446 99.90962569577887 l 19.721788833398826 -0.0848742594730082 a40.72197146405743,40.72197146405743 0 0,0 -0.0030167276849245284,0.7009812720531801 l -19.720327808424397 -0.2546164907838566" fill="#ffa30f" stroke="none" /><path d="M 120.99824983174949 100.27111621757518 l 22.5598718164499 0.29127890013999935 a43.561752143224986,43.561752143224986 0 0,0 -0.01613431321434505,0.7496981365042048 l -22.551515440550546 -0.679566852434319" fill="#ffce13" stroke="none" /><path d="M 120.95626037817324 101.35467743843564 l 12.683835156641763 0.8199223052904822 a33.710308684983794,33.710308684983794 0 0,0 -0.042416303044987495,0.5787367551391853 l -12.667842294932438 -1.0381321969264377" fill="#ff3405" stroke="none" /><path d="M 120.92983693683757 101.71520430193887 l 21.139699589471338 1.7324025880841483 a42.21056617491139,42.21056617491139 0 0,0 -0.06557794108712914,0.723647115374775 l -21.106747052107135 -2.096031092007494" fill="#ffba11" stroke="none" /><path d="M 120.89721153311464 102.0752229133903 l 30.691572710914464 3.04786381842119 a51.8425373360395,51.8425373360395 0 0,0 -0.09582895160623058,0.8872570762570297 l -30.634561457807184 -3.575717216563011" fill="#bdff1f" stroke="none" /><path d="M 120.76222939487914 103.15116336523771 l 13.711713157364528 2.0810794136968647 a34.868740722789376,34.868740722789376 0 0,0 -0.09517214504101842,0.5926370380193284 l -13.67385925796222 -2.316795681409398" fill="#ff4706" stroke="none" /><path d="M 120.49622156327973 104.57218783832717 l 13.055467898914996 2.912344178501267 a34.37635939535306,34.37635939535306 0 0,0 -0.13380496011162296,0.5764282661597119 l -13.00340237287282 -3.136641102009544" fill="#ff3f05" stroke="none" /><path d="M 120.41448212921028 104.9243191809786 l 21.30376222680819 5.1388286166893415 a42.914785980430764,42.914785980430764 0 0,0 -0.17940155516813167,0.7166200343598095 l -21.212149357344998 -5.504776490446547" fill="#ffc412" stroke="none" /><path d="M 120.13307415673323 105.97154293290107 l 18.552849530393644 5.502842568200015 a40.35173124110145,40.35173124110145 0 0,0 -0.20324442134935314,0.6642145286132035 l -18.455378336538157 -5.821384069365275" fill="#ff9e0e" stroke="none" /><path d="M 119.9155931802556 106.66101706037122 l 18.55695769990252 6.2066045790784425 a40.56738662869952,40.56738662869952 0 0,0 -0.2271950777240972,0.6603352435247437 l -18.44737179123519 -6.525112525692486" fill="#ffa10e" stroke="none" /><path d="M 119.79798401119884 107.00284435728193 l 24.97673024538447 8.834644697324013 a47.49316894368544,47.49316894368544 0 0,0 -0.2792501967869131,0.7683766083703393 l -24.82095578759233 -9.263269102700484" fill="#f8ff18" stroke="none" /><path d="M 119.67450827220406 107.3425965602758 l 24.82095578759233 9.263269102700484 a47.49316894368544,47.49316894368544 0 0,0 -0.292435163078597,0.7634559319904874 l -24.657826344920228 -9.689148601524115" fill="#f8ff18" stroke="none" /><path d="M 119.41010516605496 108.01547362559984 l 18.294102027550455 7.554616064744711 a40.792584290085124,40.792584290085124 0 0,0 -0.273599784375644,0.6467090701942665 l -18.1613512619825 -7.868399660605141" fill="#ffa40f" stroke="none" /><path d="M 119.26925614724726 108.34839909993367 l 37.156257938168416 16.097936939419522 a61.49359304474266,61.49359304474266 0 0,0 -0.42916353774352506,0.9676504817465191 l -36.87365331569362 -16.735135757658732" fill="#45ff2d" stroke="none" /><path d="M 118.97047184881838 109.00673069616215 l 17.653900069543496 8.381653599894014 a40.542576716851954,40.542576716851954 0 0,0 -0.30473874777158044,0.6278520810450162 l -17.5070080651572 -8.684294636904305" fill="#ffa10e" stroke="none" /><path d="M 118.81262510543309 109.33194174019688 l 19.462869122436484 9.65449317837096 a42.72584895943776,42.72584895943776 0 0,0 -0.33249119387915577,0.6560366689713109 l -19.29379925877106 -9.988084059044965" fill="#ffc112" stroke="none" /><path d="M 118.64920377521936 109.65438752849418 l 19.073473019870832 9.874024771652499 a42.477749840962105,42.477749840962105 0 0,0 -0.3417385377086188,0.6464405258142302 l -18.900681973937317 -10.200880312552863" fill="#ffbe11" stroke="none" /><line stroke="#e1ed5e" stroke-width="0.3" x1="174.80103733775053" x2="179.2010983576182" y1="140.37084112569926" y2="142.7455964860345" /><path d="M 175.68104954172406 140.8457921977663 a86.0,86.0 0 0,1 -30.038265399797805,32.042727171017184" fill="none" id="id53" stroke="none" /><text fill="#e1ed5e" style="font-size:6.75px; font-family:Arial;" text-anchor="middle"><textPath startOffset="22.206326154141568" xlink:href="#id53">May</textPath></text><path d="M 118.30583269289576 110.29060199501025 l 22.954519356872776 12.903855653614071 a47.33285874405502,47.33285874405502 0 0,0 -0.4053676267390325,0.7067926257584461 l -22.728999733981365 -13.297068125230833" fill="#faff18" stroke="none" /><path d="M 117.94076556474637 110.91462005526583 l 16.703808719289924 10.162092859913216 a40.552118990639485,40.552118990639485 0 0,0 -0.3679339335290066,0.5932266535636387 l -16.526410146092953 -10.448115844842127" fill="#ffa10e" stroke="none" /><path d="M 117.75023020441432 111.22182372390056 l 34.05618067392039 21.530563369088043 a61.291296840447124,61.291296840447124 0 0,0 -0.5714541827939575,0.8869095820292561 l -33.680521627749386 -22.11359455103875" fill="#48ff2c" stroke="none" /><path d="M 117.14729908036423 112.12312394758627 l 15.601959200806409 11.030570139944302 a40.107449032140806,40.107449032140806 0 0,0 -0.40340493865970045,0.5602941770053175 l -15.409774469771106 -11.297497922400751" fill="#ff9a0e" stroke="none" /><path d="M 116.93607887273984 112.41649034213515 l 10.847791696259163 7.952933016088742 a34.450789130895764,34.450789130895764 0 0,0 -0.35474261919139954,0.47523570961718964 l -10.709287810372672 -8.138481605215246" fill="#ff4106" stroke="none" /><path d="M 116.71984013943494 112.70617746262583 l 26.09401242445089 19.83004321883675 a53.77389355063464,53.77389355063464 0 0,0 -0.5664008888115075,0.732149500397042 l -25.748804718421315 -20.276270713347046" fill="#a4ff21" stroke="none" /><path d="M 116.498646956653 112.99209946851258 l 9.991849685177874 7.8682273355700625 a33.71794250401381,33.71794250401381 0 0,0 -0.3630010877391347,0.4528996709233892 l -9.854930685383884 -8.039054840071703" fill="#ff3505" stroke="none" /><path d="M 115.80600337817218 113.82643327865902 l 16.08802258358078 14.073131930657759 a42.37469328405683,42.37469328405683 0 0,0 -0.48497059665185965,0.5448696064763607 l -15.843393137280584 -14.347975706874985" fill="#ffbc11" stroke="none" /><path d="M 115.56566222782051 114.09645910891815 l 15.952316465099388 14.44661803985975 a42.52164430038472,42.52164430038472 0 0,0 -0.49599188139559397,0.5383012276686311 l -15.701278175708072 -14.719070522329716" fill="#ffbe11" stroke="none" /><path d="M 115.07121518719521 114.62390073753431 l 24.682533296941447 23.949954426503822 a55.39226318499894,55.39226318499894 0 0,0 -0.6698754540581713,0.6785802982983734 l -24.26661721782774 -24.37127521878286" fill="#8fff24" stroke="none" /><path d="M 114.55890576462653 115.13401014063108 l 14.764426654218363 15.347649494953398 a42.29644663899912,42.29644663899912 0 0,0 -0.5290362316507825,0.5002367778024651 l -14.498054588176773 -15.599520909501784" fill="#ffbb11" stroke="none" /><path d="M 114.0293411484842 115.62618273729858 l 8.934987377108596 9.95198163851338 a34.37445094059556,34.37445094059556 0 0,0 -0.44368846628979836,0.39150348472734464 l -8.76235655791221 -10.104308265013014" fill="#ff3f05" stroke="none" /><path d="M 112.34349029814194 116.9893568818739 l 5.622268944378001 7.738389327068428 a30.565175244615432,30.565175244615432 0 0,0 -0.42830932352381457,0.30558733001638233 l -5.488232293005302 -7.83402091892903" fill="#ff0000" stroke="none" /><line stroke="#e1ed5e" stroke-width="0.3" x1="143.8653032363475" x2="146.44561519142675" y1="172.8068346515853" y2="177.08958963109032" /><path d="M 144.38136562736335 173.6633856474863 a86.0,86.0 0 0,1 -40.68145358897372,12.25698825130547" fill="none" id="id54" stroke="none" /><text fill="#e1ed5e" style="font-size:6.75px; font-family:Arial;" text-anchor="middle"><textPath startOffset="21.466115282336833" xlink:href="#id54">June</textPath></text><path d="M 109.89434966115114 118.52300852407294 l 9.676147045255892 18.114515894176073 a41.5368816455121,41.5368816455121 0 0,0 -0.6335543367494167,0.33144568536014246 l -9.36290180597998 -18.278390998480933" fill="#ffb010" stroke="none" /><path d="M 109.2508944713604 118.85261126421891 l 8.423075190866054 17.16557925444935 a40.12080821544333,40.12080821544333 0 0,0 -0.6226125308097701,0.29889185088987746 l -8.126349992056053 -17.30802538183879" fill="#ff9a0e" stroke="none" /><path d="M 108.2653958097858 119.30500536409082 l 10.182579043118022 23.782858990846854 a46.87101269273879,46.87101269273879 0 0,0 -0.7444200216802449,0.31116762943659376 l -9.771687561940317 -23.95461166330342" fill="#fffd17" stroke="none" /><path d="M 107.59598834532513 119.57807347666477 l 9.756902178621553 25.147662038639844 a47.97409954257672,47.97409954257672 0 0,0 -0.7724510327407651,0.29207488457510056 l -9.322580925120514 -25.311885173321574" fill="#f1ff19" stroke="none" /><path d="M 107.2578585660854 119.70592522655815 l 7.340526610702293 19.930378526524397 a42.23919299627397,42.23919299627397 0 0,0 -0.6844367214960732,0.2454146572363372 l -6.996370328576485 -20.053780724800696" fill="#ffba11" stroke="none" /><path d="M 106.2309692047433 120.05430185196036 l 11.982124901308808 38.56432951326659 a61.38290266880737,61.38290266880737 0 0,0 -1.0117218454844215,0.3048234927636071 l -11.31652808138414 -38.764868375135926" fill="#47ff2c" stroke="none" /><path d="M 105.18746579009965 120.34920634021253 l 5.817454289463791 22.820502823745652 a44.550331707612614,44.550331707612614 0 0,0 -0.7447260766456085,0.18303555054406617 l -5.423774928074971 -22.91725963260375" fill="#ffdc14" stroke="none" /><path d="M 104.83641907484287 120.43548508189849 l 3.622149852695773 15.304792271660249 a36.72757565659931,36.72757565659931 0 0,0 -0.6164633514571658,0.1403050517592914 l -3.3581663518457447 -15.364874056997225" fill="#ff6509" stroke="none" /><path d="M 104.48393922423573 120.51570834832081 l 4.490187481008164 20.54429647300722 a42.029262972948416,42.029262972948416 0 0,0 -0.7081101004599635,0.14839135637693127 l -4.135885919118822 -20.61854381011069" fill="#ffb711" stroke="none" /><path d="M 103.7750983002368 120.6578951692458 l 8.045827633560359 44.02795651532694 a65.757080973009,65.757080973009 0 0,0 -1.1152120010253737,0.19389390124561978 l -7.286766661062935 -44.15992899509357" fill="#33ff50" stroke="none" /><path d="M 103.06178313531738 120.77559828337769 l 3.116691366395135 21.148175732826648 a42.37660173881433,42.37660173881433 0 0,0 -0.7225642612062789,0.10014082258264735 l -2.7521985140020258 -21.198691120901895" fill="#ffbc11" stroke="none" /><path d="M 102.70371172650421 120.8252237178851 l 2.9499951217845126 22.7222110166546 a43.912907818605916,43.912907818605916 0 0,0 -0.7504351614366808,0.09086724720904397 l -2.5584325372964516 -22.769623792588998" fill="#ffd313" stroke="none" /><path d="M 101.98527174616119 120.90594882070398 l 2.1664726722519987 22.814089252583685 a43.916724728120926,43.916724728120926 0 0,0 -0.7531837122387285,0.06498785992373667 l -1.7734446422717283 -22.848001364786086" fill="#ffd313" stroke="none" /><path d="M 101.62511606390274 120.93702456842531 l 3.6938394360308306 47.589220697423805 a68.73236193995942,68.73236193995942 0 0,0 -1.1803547264366803,0.08140417270250784 l -2.87412194881522 -47.645753214642596" fill="#37ff78" stroke="none" /><path d="M 100.90346689309514 120.98055641714683 l 0.6779491202586948 15.743520735789408 a36.7581109327194,36.7581109327194 0 0,0 -0.6323789233750944,0.02178040875294444 l -0.40684984520894807 -15.752857942968445" fill="#ff6609" stroke="none" /><line stroke="#e1ed5e" stroke-width="0.3" x1="102.19456741930631" x2="102.32365962044197" y1="184.97166512339345" y2="189.96999836594603" /><path d="M 102.22038585953345 185.97133177190398 a86.0,86.0 0 0,1 -42.740103519485714,-10.115201625700543" fill="none" id="id55" stroke="none" /><text fill="#e1ed5e" style="font-size:6.75px; font-family:Arial;" text-anchor="middle"><textPath startOffset="22.20632615414155" xlink:href="#id55">July</textPath></text><path d="M 100.54218724476979 120.99299961872073 l 0.5921668208454811 22.928163589511296 a43.93580927569598,43.93580927569598 0 0,0 -0.7561986918773406,0.013018646260786953 l -0.19740843907547267 -22.934959713051242" fill="#ffd313" stroke="none" /><path d="M 99.81925306533755 120.99922214144158 l -0.19929743645386236 23.154423880716482 a44.15528157280906,44.15528157280906 0 0,0 -0.7599761268834605,-0.013083678230090818 l 0.5978332532299908 -23.14756272520723" fill="#ffd614" stroke="none" /><path d="M 99.45781275523022 120.99299961872073 l -0.5050515820990198 19.55514035550764 a40.56166126442701,40.56166126442701 0 0,0 -0.6978144151002116,-0.024034139394560426 l 0.8415863488738744 -19.543549417686982" fill="#ffa10e" stroke="none" /><path d="M 99.09653310690486 120.98055641714683 l -1.741796371220524 40.44847388749382 a61.48595922571264,61.48595922571264 0 0,0 -1.0570078526439992,-0.05463523240777015 l 2.437792292278012 -40.41249884832385" fill="#45ff2d" stroke="none" /><path d="M 98.37488393609728 120.93702456842531 l -1.6563275868651954 21.33913518538275 a42.40332010541941,42.40332010541941 0 0,0 -0.7272284134567205,-0.06274832753062348 l 2.0234003180634574 -21.307462605573463" fill="#ffbd11" stroke="none" /><path d="M 98.01472825383883 120.90594882070398 l -2.1679160251315652 22.82928851257875 a43.93199236618097,43.93199236618097 0 0,0 -0.7522148771928852,-0.07797014764210776 l 2.5605634989300436 -22.788588996480883" fill="#ffd313" stroke="none" /><path d="M 97.65516085044442 120.86867818915974 l -2.9714129018875277 26.445080306835006 a47.61149313865076,47.61149313865076 0 0,0 -0.8136409159542235,-0.09852058385413152 l 3.4261812408931402 -26.390014194255528" fill="#f6ff19" stroke="none" /><path d="M 96.93821686468263 120.77559828337769 l -2.78696372875757 18.910822974733666 a40.115082851170826,40.115082851170826 0 0,0 -0.6822699487052958,-0.10655653439759043 l 3.112069541071383 -18.86004813298897" fill="#ff9a0e" stroke="none" /><path d="M 96.58105272829116 120.7198165907248 l -6.6047586096799495 40.026761497898015 a61.56802278028536,61.56802278028536 0 0,0 -1.044167363696709,-0.18154188039077823 l 7.292774944848708 -39.907141038986225" fill="#44ff2d" stroke="none" /><path d="M 95.86986931433489 120.58985236759428 l -3.7920732771446954 18.904541983260575 a40.28111841507376,40.28111841507376 0 0,0 -0.6786573161155744,-0.1422192390535098 l 4.116922054689656 -18.836466763480523" fill="#ff9d0e" stroke="none" /><path d="M 95.16358092515715 120.4354850818985 l -5.368394406118923 22.683258440244916 a44.309866408166975,44.309866408166975 0 0,0 -0.7407063360025796,-0.18204759609381332 l 5.758054026864713 -22.587489585837073" fill="#ffd914" stroke="none" /><path d="M 94.81253420990036 120.34920634021253 l -6.317642215000329 24.78262223184891 a46.575202205325496,46.575202205325496 0 0,0 -0.7751656332737459,-0.20472828911840216 l 6.743298291085564 -24.67020259342693" fill="#fff917" stroke="none" /><path d="M 94.11515582081647 120.15858648285463 l -12.54284182857758 42.96561710784796 a65.7589894277665,65.7589894277665 0 0,0 -1.0838491379271087,-0.3265548543073868 l 13.280565940944934 -42.74334688443485" fill="#33ff50" stroke="none" /><path d="M 92.7421414339146 119.70592522655815 l -6.702047883129295 18.19683495444464 a40.391808791009055,40.391808791009055 0 0,0 -0.6503653995046074,-0.24591254453756112 l 7.014283503394186 -18.078774159800442" fill="#ff9e0e" stroke="none" /><path d="M 92.06813273071674 119.44442032107085 l -7.933549225930587 19.44854352067848 a42.00445306110085,42.00445306110085 0 0,0 -0.6671278059083962,-0.2788594769753776 l 8.267148491336446 -19.30909900068313" fill="#ffb710" stroke="none" /><path d="M 91.7346041902142 119.30500536409082 l -16.226325795915855 37.89888757157523 a62.22643967162461,62.22643967162461 0 0,0 -0.9810422697586721,-0.430060100887479 l 16.87628874033227 -37.613962917393295" fill="#3dff2e" stroke="none" /><path d="M 91.07499286063937 119.00905698771935 l -8.154738279282524 17.368488590578625 a40.187604131956014,40.187604131956014 0 0,0 -0.6236490995250282,-0.2993894668653826 l 8.452500046807794 -17.22554484721368" fill="#ff9b0e" stroke="none" /><path d="M 90.10565033884886 118.52300852407294 l -5.844712925765565 10.941766872237194 a33.40495592378298,33.40495592378298 0 0,0 -0.5048557609877258,-0.2752876142935063 l 6.032191498621931 -10.839538606183922" fill="#ff2f04" stroke="none" /><line stroke="#e1ed5e" stroke-width="0.3" x1="58.666819895761336" x2="56.23545636021788" y1="174.27360380694188" y2="178.64263932499728" /><path d="M 58.180547188652646 175.14741091055294 a86.0,86.0 0 0,1 -31.652253787137756,-30.449443065178592" fill="none" id="id56" stroke="none" /><text fill="#e1ed5e" style="font-size:6.75px; font-family:Arial;" text-anchor="middle"><textPath startOffset="22.20632615414155" xlink:href="#id56">August</textPath></text><path d="M 89.7882731507175 118.34994917583269 l -7.434444014686202 13.35931442679068 a36.28863106237315,36.28863106237315 0 0,0 -0.5432083771999229,-0.30844789344191176 l 7.663301158807331 -13.229363367554136" fill="#ff5e08" stroke="none" /><path d="M 89.4739219176387 118.17145234162733 l -14.041892112112446 24.24089687583662 a49.01420738541698,49.01420738541698 0 0,0 -0.7264188625914154,-0.42918106818670104 l 14.457078845732244 -23.99559723535617" fill="#e3ff1b" stroke="none" /><path d="M 89.1626897886671 117.98757091392108 l -9.864575360641338 16.37304325290057 a40.115082851170826,40.115082851170826 0 0,0 -0.5883942816475886,-0.3614398252179366 l 10.144948842221234 -16.200814960854252" fill="#ff9a0e" stroke="none" /><path d="M 87.95078237400918 117.19931262002967 l -11.065161077577526 15.794649119269327 a40.28493532458877,40.28493532458877 0 0,0 -0.5645121697810241,-0.40276444441104386 l 11.335400575207437 -15.601840413014063" fill="#ff9d0e" stroke="none" /><path d="M 87.65650970185807 116.9893568818739 l -9.251167594629957 12.733139820497472 a36.73902638514434,36.73902638514434 0 0,0 -0.5084244399862795,-0.37612024599015453 l 9.4689770050348 -12.572009625767551" fill="#ff6509" stroke="none" /><path d="M 87.36589467227662 116.77436683061367 l -26.455038095429476 35.124490576853425 a64.97270606767441,64.97270606767441 0 0,0 -0.8875620382310813,-0.6805447233287001 l 27.055728862154044 -34.663906511697355" fill="#32ff45" stroke="none" /><path d="M 87.07902340077011 116.55440617244103 l -6.170646029713099 7.90585602703744 a31.028929750689166,31.028929750689166 0 0,0 -0.41821457499676296,-0.33225495169748714 l 6.30581809742722 -7.7984671613348215" fill="#ff0801" stroke="none" /><path d="M 86.79598089348748 116.32954008644616 l -12.147249590914509 15.0226228495133 a40.319287510223866,40.319287510223866 0 0,0 -0.5359198828523106,-0.44102557834757766 l 12.404039602311508 -14.811302152308542" fill="#ff9d0e" stroke="none" /><path d="M 86.51685102203217 116.09983520530335 l -9.81858829727572 11.72409010633689 a36.29244797188816,36.29244797188816 0 0,0 -0.4754907322189247,-0.40522351754810876 l 10.018944506071701 -11.55334219856583" fill="#ff5e08" stroke="none" /><path d="M 86.24171649860922 115.8653595955263 l -15.03279293604144 17.33505968468201 a43.945351549483505,43.945351549483505 0 0,0 -0.5672249329378971,-0.5005100532056068 l 15.328960221885925 -17.073726489704118" fill="#ffd313" stroke="none" /><path d="M 85.70375840098266 115.38237550388516 l -8.195512890242771 8.818153768002267 a33.03853261034201,33.03853261034201 0 0,0 -0.41323993338320325,-0.3907441501499526 l 8.346088658016791 -8.675774981106384" fill="#ff2904" stroke="none" /><path d="M 85.44109423537348 115.13401014063109 l -29.403159202141268 30.56463972814317 a63.41159007603526,63.41159007603526 0 0,0 -0.7801136817176344,-0.763505429725796 l 29.924922836234696 -30.053984195494802" fill="#2fff2f" stroke="none" /><path d="M 85.18274418774928 114.88116024355367 l -8.231609292080401 8.267110893536415 a32.66638393262852,32.66638393262852 0 0,0 -0.3950444973917291,-0.4001779901879031 l 8.372694414527663 -8.124192409367849" fill="#ff2303" stroke="none" /><path d="M 84.67929136418377 114.36230785411682 l -13.95251472898559 13.079702554249009 a40.12462512495834,40.12462512495834 0 0,0 -0.4680319548658747,-0.5079562495731731 l 14.175593091847194 -12.83759504987449" fill="#ff9a0e" stroke="none" /><path d="M 84.43433777217949 114.09645910891817 l -15.883001620123775 14.383845646142184 a42.42813001726697,42.42813001726697 0 0,0 -0.48558217026761014,-0.5455567159169085 l 16.128242640039723 -14.108314760484411" fill="#ffbd11" stroke="none" /><path d="M 83.95833913139862 113.55231037782056 l -11.680269020559903 9.867720827642152 a36.290539517130654,36.290539517130654 0 0,0 -0.399030035263198,-0.4806573828551473 l 11.848395055716638 -9.665202187673243" fill="#ff5e08" stroke="none" /><path d="M 83.72743513129214 113.27417163493432 l -31.235871238997355 25.480329581631832 a61.31038138802217,61.31038138802217 0 0,0 -0.6600561446150879,-0.8235215286791697 l 31.669845295667304 -24.9388802193744" fill="#47ff2c" stroke="none" /><path d="M 83.50135304334701 112.99209946851258 l -11.995017629265151 9.445651063109331 a36.267638060040596,36.267638060040596 0 0,0 -0.382007347356357,-0.4937959915667309 l 12.155831793839576 -9.237777077429348" fill="#ff5e08" stroke="none" /><path d="M 83.06392112726016 112.41649034213515 l -15.762235352070102 11.555900541680595 a40.544485171609466,40.544485171609466 0 0,0 -0.40780069409387887,-0.5663994968397552 l 15.958815838539588 -11.282867439389701" fill="#ffa10e" stroke="none" /><path d="M 82.85270091963577 112.12312394758628 l -15.745325186271259 11.131929753695296 a40.28302686983127,40.28302686983127 0 0,0 -0.39542412455763826,-0.5696379435500833 l 15.93461021799103 -10.859250547958199" fill="#ff9d0e" stroke="none" /><path d="M 82.44556493220864 111.52570212397912 l -16.238822927664867 10.661911658536557 a40.42616097664415,40.42616097664415 0 0,0 -0.3769164624554089,-0.5849827199476478 l 16.41994425349732 -10.380807338667461" fill="#ff9f0e" stroke="none" /><path d="M 82.24976979558568 111.22182372390057 l -27.44239037631363 17.34927737944895 a53.46663233467632,53.46663233467632 0 0,0 -0.4851087646489749,-0.7821497906074836 l 27.73696378063056 -16.8743312574762" fill="#a8ff21" stroke="none" /><line stroke="#e1ed5e" stroke-width="0.3" x1="26.63291911575756" x2="22.317208475507996" y1="142.92168965132927" y2="145.44649492493687" /><path d="M 25.769776987707644 143.4266507060508 a86.0,86.0 0 0,1 -11.730757126820373,-40.83630448921669" fill="none" id="id57" stroke="none" /><text fill="#e1ed5e" style="font-size:6.75px; font-family:Arial;" text-anchor="middle"><textPath startOffset="21.46611528233685" xlink:href="#id57">September</textPath></text><path d="M 81.69416730710424 110.29060199501025 l -11.66524784246933 6.557605148799961 a34.38208475962558,34.38208475962558 0 0,0 -0.28557365115791356,-0.5183991273258273 l 11.77639790307876 -6.355835503076312" fill="#ff3f06" stroke="none" /><path d="M 81.51974371655577 109.97397251340807 l -15.74329063654597 8.496805762384108 a38.88985489685257,38.88985489685257 0 0,0 -0.31287349715816065,-0.5918387471673033 l 15.887216641929017 -8.224552000130679" fill="#ff870c" stroke="none" /><path d="M 81.18737489456691 109.33194174019688 l -17.518975746451744 8.690231166441256 a40.555935900154495,40.555935900154495 0 0,0 -0.3048391622276949,-0.628058964566392 l 17.665968165294156 -8.38738324590958" fill="#ffa10e" stroke="none" /><path d="M 80.87730276802145 108.67885076344099 l -34.85253639580712 15.81785029785306 a59.27406016176426,59.27406016176426 0 0,0 -0.41367342670862034,-0.9327243706327155 l 35.11965090724702 -15.215577590727648" fill="#5fff29" stroke="none" /><path d="M 80.58989483394504 108.01547362559985 l -19.520059110681057 8.060879507517607 a42.11896034655115,42.11896034655115 0 0,0 -0.270960068238848,-0.672500668095353 l 19.655921793177292 -7.723679471579449" fill="#ffb811" stroke="none" /><path d="M 80.32549172779594 107.34259656027581 l -18.7292545652665 6.989824510213787 a40.99106358486565,40.99106358486565 0 0,0 -0.2410191365868153,-0.6631811502866873 l 18.846797962858542 -6.666395562920983" fill="#ffa70f" stroke="none" /><path d="M 80.20201598880116 107.00284435728193 l -12.64309778377155 4.47205361533611 a34.410711580988156,34.410711580988156 0 0,0 -0.19271500931867822,-0.5601200249763337 l 12.718203624033457 -4.25376088727048" fill="#ff4006" stroke="none" /><path d="M 80.0844068197444 106.66101706037122 l -38.201668406499806 12.777021637628861 a61.2817545666596,61.2817545666596 0 0,0 -0.325983183638868,-1.0032730776813257 l 38.41594384115493 -12.117549659969733" fill="#48ff2c" stroke="none" /><path d="M 79.86692584326677 105.97154293290107 l -12.835132096224005 3.8069468063040537 a34.38781012389809,34.38781012389809 0 0,0 -0.1634360310346478,-0.5689422648245602 l 12.898760764144757 -3.5854470659748974" fill="#ff4006" stroke="none" /><path d="M 79.76711848015287 105.62410040840567 l -12.948406742852084 3.5992470760648936 a34.43933840235073,34.43933840235073 0 0,0 -0.15384859928767175,-0.5725278710331662 l 13.008443418481532 -3.3758282718561885" fill="#ff4006" stroke="none" /><path d="M 79.58551787078972 104.9243191809786 l -25.11999830627736 6.059369456585709 a46.840477416618704,46.840477416618704 0 0,0 -0.1823197197893821,-0.7854285811022729 l 25.220578591997295 -5.626072218134862" fill="#fffd17" stroke="none" /><path d="M 79.50377843672027 104.57218783832718 l -12.418434082189508 2.770238070775858 a33.72366786828633,33.72366786828633 0 0,0 -0.12151113080912261,-0.5676595500018274 l 12.464279251723072 -2.556064701357867" fill="#ff3505" stroke="none" /><path d="M 79.4281124754447 104.21870165774334 l -41.55819161340216 8.522388217561726 a63.42304080458029,63.42304080458029 0 0,0 -0.2101116761743663,-1.0713549101444682 l 41.69873322255219 -7.8057695803493035" fill="#2fff2f" stroke="none" /><path d="M 79.23777060512086 103.15116336523772 l -19.343949812756446 2.935905621194493 a40.56547817394202,40.56547817394202 0 0,0 -0.09883672317786589,-0.6912638117059706 l 19.39162058695091 -2.602496337508122" fill="#ffa10e" stroke="none" /><path d="M 79.1416061653843 102.43462659150553 l -12.639765843738523 1.4753345956340813 a33.72557632304383,33.72557632304383 0 0,0 -0.06234044063862756,-0.5771950560503553 l 12.663288585878202 -1.257543217698944" fill="#ff3505" stroke="none" /><path d="M 79.10278846688536 102.07522291339032 l -13.322280958298677 1.3229852537729592 a34.38781012389809,34.38781012389809 0 0,0 -0.05342458040187863,-0.5895357929362547 l 13.343080134977631 -1.0934680722881382" fill="#ff4006" stroke="none" /><path d="M 79.07016306316243 101.71520430193888 l -20.94758966878242 1.7166591418544932 a42.01781224440338,42.01781224440338 0 0,0 -0.052869295090141176,-0.7213595266544169 l 20.974035522536898 -1.3558264787033154" fill="#ffb711" stroke="none" /><path d="M 79.0235259727143 100.99374915477108 l -19.528308739709317 0.9251431045537789 a40.55021053588198,40.55021053588198 0 0,0 -0.027029355235100524,-0.6975075563777773 l 19.54134022779562 -0.5888583011620049" fill="#ffa10e" stroke="none" /><path d="M 79.0095281055655 100.63252640178507 l -12.137987882610652 0.3657658502824909 a33.14349762200479,33.14349762200479 0 0,0 -0.012275621281121795,-0.5703998848061037 l 12.142485566576783 -0.15677614968625841" fill="#ff2b04" stroke="none" /><line stroke="#e1ed5e" stroke-width="0.3" x1="15.007084014347285" x2="10.007500721073583" y1="101.09737516637583" y2="101.16192664675087" /><path d="M 14.007167355692545 101.11028546245083 a86.0,86.0 0 0,1 10.666146001902534,-42.60595125391555" fill="none" id="id58" stroke="none" /><text fill="#e1ed5e" style="font-size:6.75px; font-family:Arial;" text-anchor="middle"><textPath startOffset="22.20632615414155" xlink:href="#id58">October</textPath></text><path d="M 79.00019446554 99.90962569577889 l -19.735147892991804 -0.084931751229948 a40.73533064735997,40.73533064735997 0 0,0 0.00905292848517774,-0.7011592878542224 l 19.73076195738891 0.4246272971446425" fill="#ffa30f" stroke="none" /><path d="M 79.01574976396665 99.18683210126434 l -32.80843122541436 -1.2713708033547777 a53.833055648117295,53.833055648117295 0 0,0 0.0438518733287883,-0.9256437376705069 l 32.78168574385207 1.8359256476482937" fill="#a3ff22" stroke="none" /><path d="M 79.05617556472873 98.46500227214037 l -21.612534591121616 -1.5840082881323923 a42.670503771470116,42.670503771470116 0 0,0 0.05999374521594056,-0.732075650218747 l 21.582066362086177 1.9557978555589175" fill="#ffc011" stroke="none" /><path d="M 79.12142395522702 97.74499172005258 l -11.464211002016155 -1.2382018140112998 a32.53088364484566,32.53088364484566 0 0,0 0.06492180238270498,-0.556210355738437 l 11.441198846629861 1.4353559080745986" fill="#ff2103" stroke="none" /><path d="M 79.16333360222342 97.38593545837743 l -20.458575362295434 -2.566631120628594 a41.61894520008482,41.61894520008482 0 0,0 0.09529549524823046,-0.7100621279907846 l 20.411363867989373 2.9184115906840375" fill="#ffb110" stroke="none" /><path d="M 79.26566170972629 96.67025291283419 l -14.399910322099156 -2.3124952809779584 a35.58441125685378,35.58441125685378 0 0,0 0.10232744546191526,-0.6039423755408055 l 14.357971015117018 2.560023444834592" fill="#ff5307" stroke="none" /><path d="M 79.32604984820605 96.31383870115002 l -41.52951993171245 -7.4047053421386835 a63.184483959892155,63.184483959892155 0 0,0 0.20012715289148508,-1.0690872531030533 l 41.3959070549111 8.118470672704309" fill="#32ff2f" stroke="none" /><path d="M 79.3925641242962 95.95851677861259 l -14.062697524218576 -2.757944095246862 a35.3305867741056,35.3305867741056 0 0,0 0.12217771844152044,-0.5957819456543865 l 14.01314050986206 2.999601697064651" fill="#ff4f07" stroke="none" /><path d="M 79.62865764111835 94.90015583598534 l -19.72399637922436 -4.937784955628013 a41.33267698645906,41.33267698645906 0 0,0 0.17872184209477207,-0.6886881628188687 l 19.63607820525928 5.276569543995746" fill="#ffac10" stroke="none" /><path d="M 79.71946130924805 94.55025226153421 l -12.92177063047426 -3.4723135979870623 a34.38017630486807,34.38017630486807 0 0,0 0.1584978998367695,-0.5702012758785455 l 12.86008596007113 3.69422617728455" fill="#ff3f05" stroke="none" /><path d="M 79.81627453868168 94.20196356495316 l -55.05202680353942 -15.814407396782373 a78.27845263699979,78.27845263699979 0 0,0 0.38316968163353005,-1.2918576826160477 l 54.771651224794184 16.75969446614496" fill="#45ffed" stroke="none" /><path d="M 80.02781315780177 93.51064311812611 l -13.80525762216471 -4.485600113010769 a35.5157068855836,35.5157068855836 0 0,0 0.1939203364337863,-0.5797971232907115 l 13.725999991959151 4.722570339223803" fill="#ff5207" stroke="none" /><path d="M 80.2630227832202 92.82701384747504 l -11.422108168469947 -4.15112318493341 a33.15303989579231,33.15303989579231 0 0,0 0.1995424819071727,-0.5346746452308585 l 11.348961098061148 4.34712096719361" fill="#ff2b04" stroke="none" /><path d="M 80.52162464483688 92.15188598940014 l -18.954994695988017 -7.637236511360145 a41.435733543364336,41.435733543364336 0 0,0 0.27224917223553907,-0.6592729651789879 l 18.820723836866275 7.962384046992444" fill="#ffae10" stroke="none" /><path d="M 80.803312248108 91.48605970444005 l -15.422015666904247 -6.839832075315796 a37.87074005634486,37.87074005634486 0 0,0 0.26941908663338626,-0.5936292445434151 l 15.30199426330751 7.104283328701282" fill="#ff770b" stroke="none" /><path d="M 81.10775173730289 90.83032412892265 l -12.967782053995752 -6.2941348508903525 a35.41455878343582,35.41455878343582 0 0,0 0.2709044887729396,-0.5461269185502654 l 12.8575175522694 6.5164213579395796" fill="#ff5007" stroke="none" /><path d="M 81.26839172434947 90.50648371742162 l -17.438423117363666 -8.838106764296711 a40.55021053588198,40.55021053588198 0 0,0 0.3209077368778544,-0.6198916047668788 l 17.283705947325696 9.136971091323925" fill="#ffa10e" stroke="none" /><path d="M 81.43458229118936 90.18545643968196 l -17.28708035301631 -9.138754959166825 a40.55402744539699,40.55402744539699 0 0,0 0.3315618122117367,-0.6143336825160763 l 17.1272104415861 9.434969625015373" fill="#ffa10e" stroke="none" /><line stroke="#e1ed5e" stroke-width="0.3" x1="26.266209847984243" x2="21.928928074336255" y1="57.711370442889674" y2="55.22380399835377" /><path d="M 25.398753493254645 57.213857153982495 a86.0,86.0 0 0,1 29.58750427330803,-30.492523968695096" fill="none" id="id59" stroke="none" /><text fill="#e1ed5e" style="font-size:6.75px; font-family:Arial;" text-anchor="middle"><textPath startOffset="21.46611528233685" xlink:href="#id59">November</textPath></text><path d="M 81.78341655067845 89.55222093294921 l -36.00052924985122 -20.647426941815127 a62.50125715670534,62.50125715670534 0 0,0 0.5432857060666154,-0.9286513803169393 l 35.63978386931428 21.26405773448596" fill="#3aff2e" stroke="none" /><path d="M 81.96595687620814 89.24020034530311 l -9.381133213830358 -5.5971427606087385 a31.923995031959045,31.923995031959045 0 0,0 0.28561972962354293,-0.46948373684981926 l 9.283397685920598 5.757794270665633" fill="#ff1702" stroke="none" /><path d="M 82.34701348167596 88.62581576622439 l -16.38613834462711 -10.557927760181519 a40.49295689315683,40.49295689315683 0 0,0 0.3825685186623339,-0.5826781004401431 l 16.201973190606854 10.83842392459933" fill="#ffa00e" stroke="none" /><path d="M 82.54541684631803 88.32363383020206 l -20.84810394009652 -13.94648576865175 a46.08282087788919,46.08282087788919 0 0,0 0.4467302325575247,-0.6555214926627816 l 20.604949241870255 14.303285284584947" fill="#fff216" stroke="none" /><path d="M 82.95767976084542 87.72973835380427 l -15.678356406739741 -11.288224408025153 a40.319287510223866,40.319287510223866 0 0,0 0.4103685322736638,-0.5597422168398499 l 15.481725261952443 11.556429068536502" fill="#ff9d0e" stroke="none" /><path d="M 83.39014120810768 87.1503855733568 l -45.308671790988456 -35.05140952683552 a78.2841780012723,78.2841780012723 0 0,0 0.8337112840018938,-1.0587286659759443 l 44.698606426392594 35.82613058676451" fill="#45ffed" stroke="none" /><path d="M 84.07557802195018 86.31012108654704 l -10.189681180283733 -8.759847090026566 a34.43742994759323,34.43742994759323 0 0,0 0.3903042154759631,-0.44618518919481015 l 10.037385101229926 8.93394783542432" fill="#ff4006" stroke="none" /><path d="M 84.31358615837235 86.03803664274999 l -14.269879969224759 -12.701152937451699 a40.10363212262579,40.10363212262579 0 0,0 0.463400065188086,-0.5116979260773656 l 14.049136263420628 12.94490365079862" fill="#ff9a0e" stroke="none" /><path d="M 84.80347519578584 85.50635884689758 l -22.320399311051702 -21.28801565991105 a51.84444579079701,51.84444579079701 0 0,0 0.6214809397166691,-0.6404907380949252 l 21.950654107631916 21.6690705935561" fill="#bdff1f" stroke="none" /><path d="M 85.05521093208273 85.24692304244772 l -30.364482977621996 -29.974966666262446 a63.667323013540944,63.667323013540944 0 0,0 0.7766328026310915,-0.7732976945635017 l 29.84401437482359 30.493200211476058" fill="#30ff33" stroke="none" /><path d="M 85.31137513191541 84.99185889309783 l -8.357712304905423 -8.539514537909898 a32.94883523673927,32.94883523673927 0 0,0 0.4087487467916127,-0.39321597056231955 l 8.209480314501382 8.682113595234533" fill="#ff2803" stroke="none" /><path d="M 86.10567301691215 84.25364557470407 l -12.65603944304833 -14.343010851359354 a40.12844203447336,40.12844203447336 0 0,0 0.5218726842980076,-0.45256284920440304 l 12.40727296010355 14.558738693983438" fill="#ff9a0e" stroke="none" /><path d="M 86.93701828274178 83.55741782278169 l -39.18894515177469 -49.32774653165494 a84.0,84.0 0 0,0 1.1398697793622974,-0.889686443107113 l 38.334042817252964 49.99501136398527" fill="#4dd2ff" stroke="none" /><path d="M 87.51073957382395 83.11751280151077 l -11.378464975833648 -15.380957938098325 a40.13225894398837,40.13225894398837 0 0,0 0.5588984330224873,-0.406063480426394 l 11.11202122645738 15.574540653341387" fill="#ff9a0e" stroke="none" /><path d="M 88.09926311788651 82.69761687909137 l -11.127807256375059 -16.17862711802389 a40.63609099996971,40.63609099996971 0 0,0 0.5797324810123616,-0.39143795904958495 l 10.847670080956156 16.36777698937214" fill="#ffa20f" stroke="none" /><path d="M 88.70189139769569 82.29822771554957 l -21.688220411966373 -33.98090357436427 a61.31228984277968,61.31228984277968 0 0,0 0.8945195872395048,-0.5601480834659956 l 21.100081672354627 34.349195999153196" fill="#47ff2c" stroke="none" /><line stroke="#e1ed5e" stroke-width="0.3" x1="56.762969772571076" x2="54.21961505331055" y1="26.818313649435495" y2="22.513508569990535" /><path d="M 56.25429882871897 25.957352633546506 a86.0,86.0 0 0,1 42.265352541879196,-11.944610805530505" fill="none" id="id60" stroke="none" /><text fill="#e1ed5e" style="font-size:6.75px; font-family:Arial;" text-anchor="middle"><textPath startOffset="22.20632615414155" xlink:href="#id60">December</textPath></text><path d="M 89.3179101791058 81.91981866633112 l -6.853674908561971 -11.60032233640625 a34.47369058798582,34.47369058798582 0 0,0 0.513499193328643,-0.297451876855471 l 6.652978982768008 11.716578370651769" fill="#ff4106" stroke="none" /></svg>