<?xml version="1.0" encoding="utf-8" ?>
<svg baseProfile="full" height="200mm" version="1.1" viewBox="0,0,200,200" width="200mm" xmlns="http://www.w3.org/2000/svg" xmlns:ev="http://www.w3.org/2001/xml-events" xmlns:xlink="http://www.w3.org/1999/xlink"><defs /><rect fill="#1a1a1a" height="200" width="200" x="0" y="0" /><text alignment-baseline="middle" fill="#e1ed5e" style="dominant-baseline: central; font-size:9.0px; font-family:Arial;" text-anchor="middle" x="100.0" y="100.0">2025</text><line stroke="#e1ed5e" stroke-width="0.3" x1="100.0" x2="100.0" y1="15.0" y2="10.0" /><path d="M 100.0 14.0 a86.0,86.0 0 0,1 42.46469731375804,11.215312516191453" fill="none" id="id49" stroke="none" /><text fill="#e1ed5e" style="font-size:6.75px; font-family:Arial;" text-anchor="middle"><textPath startOffset="22.20632615414155" xlink:href="#id49">January</textPath></text><path d="M 100.0 79.0 l 0.0 -41.70472795122114 a62.70472795122114,62.70472795122114 0 0,0 1.0793588148790916,0.009290382085403663 l -0.7178783356065632 41.69854894574429" fill="#3cff2e" stroke="none" /><path d="M 100.72285384407766 79.0124445844662 l 0.7953005959180498 -23.09099614754745 a44.10468796854696,44.10468796854696 0 0,0 0.7585148759261279,0.03266324613580472 l -1.1926563042335092 23.07388517488745" fill="#ffcb12" stroke="none" /><path d="M 101.08401301168833 79.027996857942 l 0.759889039846425 -14.701295242253629 a35.72092093426182,35.72092093426182 0 0,0 0.61378399635625,0.03702512683159684 l -1.012835085042287 14.686036846041727" fill="#ff4706" stroke="none" /><path d="M 102.16513564639614 79.11191278185805 l 2.1685262229922944 -20.92079771356902 a42.03288574950855,42.03288574950855 0 0,0 0.7190291480378594,0.08079130267419442 l -2.5283220745398793 20.880370457424224" fill="#ffac0f" stroke="none" /><path d="M 102.52436894288641 79.15227682838746 l 3.035752782314299 -25.071031634058954 a46.25415653216939,46.25415653216939 0 0,0 0.7895920886702537,0.1025117145540792 l -3.4668595994923987 25.01506159634074" fill="#ffeb16" stroke="none" /><path d="M 102.88285421437855 79.19881850522331 l 2.993411812777578 -21.598907810056325 a42.80535101456036,42.80535101456036 0 0,0 0.7289772060212616,0.10743229075681879 l -3.364757999227496 21.544181035138536" fill="#ffb711" stroke="none" /><path d="M 103.2404852339499 79.25152402106235 l 3.319410856380764 -21.253828190999204 a42.511478359377605,42.511478359377605 0 0,0 0.7220287016499638,0.1191409223528879 l -3.684768764169603 21.19354100570669" fill="#ffb310" stroke="none" /><path d="M 103.95276090670814 79.375362276772 l 4.1687515736524965 -21.7516295556371 a43.14750274880885,43.14750274880885 0 0,0 0.7282344915136857,0.1460769881232423 l -4.5425524746333075 21.676648611436647" fill="#ffbd11" stroke="none" /><path d="M 104.66035177308747 79.52364482259891 l 6.7867255837915 -29.81908025651116 a51.581647952553894,51.581647952553894 0 0,0 0.8640572351022145,0.20449443097908118 l -7.299006505856238 29.697839913391213" fill="#c8ff1d" stroke="none" /><path d="M 105.01212808612495 79.60689891045804 l 5.274983835552224 -21.462595679051145 a43.10132276013728,43.10132276013728 0 0,0 0.7189528689901863,0.18327709445899248 l -5.6436455932274345 21.368615588423285" fill="#ffbc11" stroke="none" /><path d="M 105.36241919743992 79.69619591428918 l 8.055153003611156 -30.499340399166588 a52.54513044347449,52.54513044347449 0 0,0 0.8725046617454765,0.23848848310958007 l -8.578955554580343 30.356165375230717" fill="#bbff1f" stroke="none" /><path d="M 106.0581310904928 79.89281104454417 l 7.895170075418483 -26.204397721110823 a48.36794055909106,48.36794055909106 0 0,0 0.7951105034693693,0.2470447038275414 l -8.34506595159857 26.06461288240076" fill="#f5ff19" stroke="none" /><path d="M 106.74666289553966 80.11325718540242 l 7.815320990545001 -23.03676365025536 a45.326358577949556,45.326358577949556 0 0,0 0.7367000891873899,0.2570201956320394 l -8.210703083795664 22.898822601451112" fill="#ffdd14" stroke="none" /><path d="M 107.08798089147638 80.2323363322302 l 6.383504597894463 -17.802950352841016 a39.91280445140439,39.91280445140439 0 0,0 0.6447204141856836,0.23745596956398293 l -6.689007337852724 17.690431115470705" fill="#ff8b0c" stroke="none" /><path d="M 107.4271985657038 80.35727306442388 l 15.948197073446416 -42.17822877053737 a66.09265984739946,66.09265984739946 0 0,0 1.0606828113582931,0.4115284521108466 l -16.671863049804376 41.89745761453598" fill="#33ff50" stroke="none" /><path d="M 108.43124777332544 80.76684994638697 l 13.569272021955099 -30.953881552649523 a54.79745443641089,54.79745443641089 0 0,0 0.8606276350300084,0.38613853314454866 l -14.100081775451887 30.715722688988446" fill="#9dff22" stroke="none" /><path d="M 110.05341064243156 81.56283822128135 l 6.042497403752468 -11.081463410065828 a33.62183054009929,33.62183054009929 0 0,0 0.5057298261390254,0.2814381007043026 l -6.232351318963529 10.975809911801345" fill="#ff2403" stroke="none" /><line stroke="#e1ed5e" stroke-width="0.3" x1="143.23703022742887" x2="145.7803849466894" y1="26.81831364943548" y2="22.513508569990506" /><path d="M 143.74570117128098 25.957352633546492 a86.0,86.0 0 0,1 28.547481713284135,27.462654790039103" fill="none" id="id50" stroke="none" /><text fill="#e1ed5e" style="font-size:6.75px; font-family:Arial;" text-anchor="middle"><textPath startOffset="19.985693538727396" xlink:href="#id50">February</textPath></text><path d="M 111.90073688211348 82.69761687909136 l 7.92364725669788 -11.52012534252215 a34.98204111551661,34.98204111551661 0 0,0 0.49319490705280333,0.3455145504006356 l -8.120773303334333 11.382025949357578" fill="#ff3b05" stroke="none" /><path d="M 112.19680574252982 82.90503203632743 l 12.334163565505698 -17.287487844115088 a42.23649751774231,42.23649751774231 0 0,0 0.5882029295178721,0.42735444339207135 l -12.629911811377358 17.072614165906344" fill="#ffaf10" stroke="none" /><path d="M 113.34407831869373 83.78471172551755 l 8.516503521626573 -10.348977006554206 a34.40269216672775,34.40269216672775 0 0,0 0.4540212782059147,0.38022976354448706 l -8.693382336791606 10.200846085615899" fill="#ff3104" stroke="none" /><path d="M 113.6212207817346 84.01681056812373 l 18.523643961166762 -21.735710414221497 a49.55812481258121,49.55812481258121 0 0,0 0.6445062482739808,0.558909467433163 l -18.895044008087506 21.413635953368665" fill="#e4ff1a" stroke="none" /><path d="M 113.89432698308785 84.25364557470407 l 22.443506885019783 -25.43508688029678 a54.92130076966648,54.92130076966648 0 0,0 0.7034869739988656,0.6315975512168572 l -22.87800484661464 25.044990320310625" fill="#9cff22" stroke="none" /><path d="M 114.42810811169701 84.74124197986012 l 20.3074191504487 -21.47655066287172 a50.55729184020258,50.55729184020258 0 0,0 0.6271915086642824,0.6033577344118586 l -20.674093902725396 21.123809841697557" fill="#d6ff1c" stroke="none" /><path d="M 114.94478906791727 85.2469230424477 l 30.59367075376793 -30.20121441615344 a63.98937127244861,63.98937127244861 0 0,0 0.767067213925951,0.7905301910623862 l -31.109002231396992 29.670120029540943" fill="#30ff32" stroke="none" /><path d="M 115.4437574822437 85.77008943001954 l 19.458424322495095 -17.92903302581586 a47.45903441841868,47.45903441841868 0 0,0 0.5483922148500827,0.6055483805378011 l -19.764160177961212 17.591431858008505" fill="#fffc17" stroke="none" /><path d="M 115.68641384162765 86.03803664274999 l 24.665609183618237 -21.954051135131444 a54.02079099057075,54.02079099057075 0 0,0 0.6122565615103006,0.6999150890545834 l -25.039857608706384 21.526220489873914" fill="#a7ff21" stroke="none" /><path d="M 115.9244219780498 86.31012108654704 l 25.784797749884607 -22.166629312533694 a55.00316529503882,55.00316529503882 0 0,0 0.61103117561649,0.7232681827759948 l -26.162539538988216 21.719502180128593" fill="#9bff22" stroke="none" /><path d="M 116.38621287248628 86.86637796730983 l 28.181905709259222 -22.58792196992641 a57.11694932196048,57.11694932196048 0 0,0 0.6082844116560864,0.7724594305540774 l -28.566544201509274 22.099470145419293" fill="#7fff26" stroke="none" /><path d="M 116.82858285166822 87.43820079747576 l 21.867681711760238 -16.323265548210625 a48.28817512411288,48.28817512411288 0 0,0 0.4914756379767801,0.670372217868897 l -22.145419962250646 15.944430886670233" fill="#f6ff19" stroke="none" /><path d="M 117.04232023915458 87.72973835380427 l 21.722953489124638 -15.640260205139914 a47.76760070636058,47.76760070636058 0 0,0 0.4746902595078373,0.67141570815476 l -21.98895636843636 15.26401799665336" fill="#fdff18" stroke="none" /><path d="M 117.45458315368197 88.32363383020206 l 23.351095284931134 -15.620879433902866 a49.09422583547129,49.09422583547129 0 0,0 0.46383140905978065,0.7064470576419053 l -23.61652332934884 15.216614312283285" fill="#ebff1a" stroke="none" /><path d="M 117.65298651832404 88.62581576622439 l 24.0929475148632 -15.523584266281828 a49.660980241895174,49.660980241895174 0 0,0 0.45681575838614247,0.7225728252252095 l -24.3565908694953 15.106563793342412" fill="#e3ff1b" stroke="none" /><line stroke="#e1ed5e" stroke-width="0.3" x1="172.23445277983987" x2="176.4835382374775" y1="55.19839476539836" y2="52.563006222186495" /><path d="M 173.08426987136738 54.67131705675599 a86.0,86.0 0 0,1 12.851231095245387,41.99856678651699" fill="none" id="id51" stroke="none" /><text fill="#e1ed5e" style="font-size:6.75px; font-family:Arial;" text-anchor="middle"><textPath startOffset="22.20632615414155" xlink:href="#id51">March</textPath></text><path d="M 117.84615892207809 88.93136811851018 l 20.605169264211234 -12.779838756181208 a45.24659314297138,45.24659314297138 0 0,0 0.4048152396635805,0.6654098150065262 l -20.82210030216104 12.4232611679676" fill="#ffdc14" stroke="none" /><path d="M 118.21658344932153 89.55222093294921 l 12.973693773673002 -7.440818230707052 a35.956019058408025,35.956019058408025 0 0,0 0.3033016202733633,0.5395397391620568 l -13.099853035238798 7.216394981610201" fill="#ff4b07" stroke="none" /><path d="M 118.3937258080291 89.86733742301442 l 25.754770711245623 -14.187685740687114 a50.404058241428714,50.404058241428714 0 0,0 0.4120937412654333,0.7635471163722277 l -25.99517255172952 13.742257640982427" fill="#d8ff1c" stroke="none" /><path d="M 119.04729006885535 91.15688171328212 l 26.1482172864085 -12.139878041160502 a49.82890747342818,49.82890747342818 0 0,0 0.35449158689418736,0.7810752220808482 l -26.353311190266034 11.687980810237592" fill="#e0ff1b" stroke="none" /><path d="M 119.196687751892 91.48605970444005 l 19.648893737317913 -8.71449857993541 a42.494685636224304,42.494685636224304 0 0,0 0.2908038622971536,0.6712154083837621 l -19.795988309457748 8.374984026965047" fill="#ffb310" stroke="none" /><path d="M 119.47837535516314 92.15188598940014 l 29.226324505016535 -11.775701137485193 a52.509445906773735,52.509445906773735 0 0,0 0.33057559242921103,0.8412788251288097 l -29.424693647327448 11.2708733074606" fill="#bcff1f" stroke="none" /><path d="M 119.61058180528143 92.48833698450437 l 19.61776923738945 -7.514416098931826 a42.00769666477859,42.00769666477859 0 0,0 0.2528371479068378,0.677477853669074 l -19.744210973797912 7.175615108233419" fill="#ffab0f" stroke="none" /><path d="M 119.85752413597 93.16781622104841 l 12.508791234286761 -4.303777247354765 a34.22846766401226,34.22846766401226 0 0,0 0.18689184440005263,0.5587828267132016 l -12.581020372458585 4.08782131771925" fill="#ff2e04" stroke="none" /><path d="M 120.08093135843002 93.85539295169968 l 42.75787156871452 -13.083572386255291 a65.71482357645021,65.71482357645021 0 0,0 0.32167125409542646,1.0845155574635212 l -42.97674871992165 12.34562744204524" fill="#32ff4b" stroke="none" /><path d="M 120.37134235888165 94.90015583598534 l 13.563473640007063 -3.395534799237154 a34.98204111551661,34.98204111551661 0 0,0 0.14120617459634396,0.585390755937638 l -13.619912614864226 3.1615588116401097" fill="#ff3b05" stroke="none" /><path d="M 120.53481517161879 95.60439243477599 l 28.721920704007776 -6.148109485241031 a50.37257188551628,50.37257188551628 0 0,0 0.17419483985231543,0.8494359031580868 l -28.82349483977509 5.652797925919533" fill="#d9ff1c" stroke="none" /><path d="M 120.67395015179393 96.31383870115 l 31.95221576453915 -5.697073868272273 a53.45613567454103,53.45613567454103 0 0,0 0.15371983446228238,0.9072631645772932 l -32.045547460521654 5.146224915379142" fill="#afff20" stroke="none" /><path d="M 120.78858239683441 97.02765380044208 l 20.94581453637666 -2.9948272106964073 a42.1588311731583,42.1588311731583 0 0,0 0.09653167989765088,0.719273139492146 l -20.994262215332146 2.633835729139597" fill="#ffad10" stroke="none" /><path d="M 120.83666639777658 97.38593545837742 l 20.935944820289553 -2.626519518780875 a42.10005664212174,42.10005664212174 0 0,0 0.08401897678096353,0.719823283534866 l -20.978054150074104 2.2657524969211567" fill="#ffad10" stroke="none" /><path d="M 120.87857604477298 97.74499172005257 l 21.714748650171224 -2.345319810034286 a42.84103555126112,42.84103555126112 0 0,0 0.07287642517337496,0.7338556560833258 l -21.751902201026827 1.971188623246525" fill="#ffb811" stroke="none" /><path d="M 120.94382443527127 98.46500227214037 l 36.16897225550744 -2.6508668654480605 a57.26598473994602,57.26598473994602 0 0,0 0.06359090093741435,0.9837230915028349 l -36.20924374744927 2.0278847096921906" fill="#7eff26" stroke="none" /><path d="M 120.96714384426684 98.82574320788733 l 21.47572614922224 -1.202739747653868 a42.50937926898344,42.50937926898344 0 0,0 0.034627718834576854,0.7309364151609726 l -21.493247476290314 0.8328922258698955" fill="#ffb310" stroke="none" /><line stroke="#e1ed5e" stroke-width="0.3" x1="184.98032266829074" x2="189.97916517819016" y1="98.17113171792111" y2="98.06355123074" /><path d="M 185.9800911702706 98.14961562048488 a86.0,86.0 0 0,1 -9.607161424134198,41.387399972396054" fill="none" id="id52" stroke="none" /><text fill="#e1ed5e" style="font-size:6.75px; font-family:Arial;" text-anchor="middle"><textPath startOffset="21.466115282336823" xlink:href="#id52">April</textPath></text><path d="M 120.99513854157772 99.54816195383933 l 14.780471203978124 -0.31809169617594846 a35.783893646086696,35.783893646086696 0 0,0 0.007952532235557634,0.615932385641949 l -14.783756743331397 0.06362305247353671" fill="#ff4806" stroke="none" /><path d="M 120.99980553446 99.90962569577887 l 21.691799259631786 -0.0933523532956877 a42.692000133275585,42.692000133275585 0 0,0 -0.003162669539232121,0.7348930192717216 l -21.69019229280305 -0.2800501441797186" fill="#ffb610" stroke="none" /><path d="M 120.99824983174949 100.27111621757518 l 24.813378487083188 0.32037476335326426 a45.81544663978943,45.81544663978943 0 0,0 -0.016969032001079427,0.7884842385592601 l -24.8041873923971 -0.7474488177026392" fill="#ffe415" stroke="none" /><path d="M 120.95626037817324 101.35467743843564 l 13.950824054772974 0.901824383431983 a34.97994202512245,34.97994202512245 0 0,0 -0.044013830763128196,0.6005337516115338 l -13.933233665345508 -1.1418312715402872" fill="#ff3b05" stroke="none" /><path d="M 120.92983693683757 101.71520430193887 l 23.251345188686177 1.905452365149962 a44.32929064072235,44.32929064072235 0 0,0 -0.06886957161449678,0.7599699839571289 l -23.215101020794606 -2.3054037376556615" fill="#ffce13" stroke="none" /><path d="M 120.89721153311464 102.0752229133903 l 33.757355371339 3.3523150804618638 a54.92339986006064,54.92339986006064 0 0,0 -0.10152380839547634,0.9399843773475298 l -33.69464926144248 -3.932895779694185" fill="#9cff22" stroke="none" /><path d="M 120.76222939487914 103.15116336523771 l 15.081376837962232 2.2889585354861963 a36.254089894379106,36.254089894379106 0 0,0 -0.0989533728559025,0.6161827472320754 l -15.03974171074504 -2.548220512411477" fill="#ff5007" stroke="none" /><path d="M 120.49622156327973 104.57218783832717 l 14.359579209378701 3.203258377253368 a35.71252457268517,35.71252457268517 0 0,0 -0.139005787988691,0.5988332965358094 l -14.302312855459457 -3.4499603311377425" fill="#ff4706" stroke="none" /><path d="M 120.41448212921028 104.9243191809786 l 23.431796050683538 5.652146452055171 a45.10385499616832,45.10385499616832 0 0,0 -0.18855276906379856,0.7531745849053764 l -23.33103196732468 -6.054648876357943" fill="#ffda14" stroke="none" /><path d="M 120.13307415673323 105.97154293290107 l 20.406094553954112 6.052521774526063 a42.28477659680805,42.28477659680805 0 0,0 -0.2129808235476921,0.6960336543418363 l -20.298886957900287 -6.402882401419957" fill="#ffaf10" stroke="none" /><path d="M 119.9155931802556 106.66101706037122 l 20.410613088710964 6.826582606202595 a42.52197381134842,42.52197381134842 0 0,0 -0.238141619362209,0.6921510174876566 l -20.290080638405524 -7.176906326779552" fill="#ffb310" stroke="none" /><path d="M 119.79798401119884 107.00284435728193 l 27.471657019637714 9.717137777075367 a50.139572851764235,50.139572851764235 0 0,0 -0.29481051479780285,0.8111919206456419 l -27.30032224383468 -10.18857749472714" fill="#dcff1b" stroke="none" /><path d="M 119.67450827220406 107.3425965602758 l 27.30032224383468 10.18857749472714 a50.139572851764235,50.139572851764235 0 0,0 -0.30873017087958216,0.8059970554194431 l -27.120897793361596 -10.656998116979727" fill="#dcff1b" stroke="none" /><path d="M 119.41010516605496 108.01547362559984 l 20.12150075072362 8.309247023399449 a42.769666477859595,42.769666477859595 0 0,0 -0.2868602646732724,0.6780529285353044 l -19.97548950485804 -8.654374477600918" fill="#ffb711" stroke="none" /><path d="M 119.26925614724726 108.34839909993367 l 40.86779831395988 17.70596062730077 a65.53849998334056,65.53849998334056 0 0,0 -0.45739292694751815,1.0313003020604212 l -40.55696430228109 -18.406809265853877" fill="#32ff48" stroke="none" /><path d="M 118.97047184881838 109.00673069616215 l 19.417348988628277 9.218897377339864 a42.494685636224304,42.494685636224304 0 0,0 -0.31941179708854683,0.6580829086516152 l -19.255783934925017 -9.551769241956755" fill="#ffb310" stroke="none" /><path d="M 118.81262510543309 109.33194174019688 l 21.40701604640492 10.618880961956611 a44.89604504714624,44.89604504714624 0 0,0 -0.3493795906162012,0.6893590779361151 l -21.22105778600245 -10.98579425159542" fill="#ffd714" stroke="none" /><path d="M 118.64920377521936 109.65438752849418 l 20.978723148600807 10.860341576550848 a44.62316329590511,44.62316329590511 0 0,0 -0.35899864351972294,0.6790901413681333 l -20.788671996856188 -11.219846733005117" fill="#ffd313" stroke="none" /><line stroke="#e1ed5e" stroke-width="0.3" x1="174.80103733775053" x2="179.2010983576182" y1="140.37084112569926" y2="142.7455964860345" /><path d="M 175.68104954172406 140.8457921977663 a86.0,86.0 0 0,1 -30.038265399797805,32.042727171017184" fill="none" id="id53" stroke="none" /><text fill="#e1ed5e" style="font-size:6.75px; font-family:Arial;" text-anchor="middle"><textPath startOffset="22.206326154141568" xlink:href="#id53">May</textPath></text><path d="M 118.30583269289576 110.29060199501025 l 25.247447389122286 14.192822409670946 a49.963249258654585,49.963249258654585 0 0,0 -0.4278947926147681,0.7460706382832537 l -24.999400600355138 -14.625312893812513" fill="#deff1b" stroke="none" /><path d="M 117.94076556474637 110.91462005526583 l 18.372352968129796 11.177184799873226 a42.505181088195116,42.505181088195116 0 0,0 -0.38565428545798786,0.6217975031560445 l -18.177234043003846 -11.491778634394544" fill="#ffb310" stroke="none" /><path d="M 117.75023020441432 111.22182372390056 l 37.45805418407976 23.681252369871896 a65.31599640155932,65.31599640155932 0 0,0 -0.6089787828146379,0.9451485945734277 l -37.04487053788807 -24.322522564366775" fill="#32ff45" stroke="none" /><path d="M 117.14729908036423 112.12312394758627 l 17.16043964874622 12.132414316786104 a42.01609302635525,42.01609302635525 0 0,0 -0.42260228059965443,0.5869576059129386 l -16.949057575770965 -12.426005528150174" fill="#ffab0f" stroke="none" /><path d="M 116.93607887273984 112.41649034213515 l 11.93137812565259 8.74735187399145 a35.79438909805751,35.79438909805751 0 0,0 -0.3685777789517601,0.493770167025688 l -11.779039080005738 -8.951434920526454" fill="#ff4806" stroke="none" /><path d="M 116.71984013943494 112.70617746262583 l 28.700544568805128 21.81086718078899 a57.047679338953124,57.047679338953124 0 0,0 -0.6008837030145752,0.7767231860846394 l -28.320854048572485 -22.301668360986884" fill="#80ff25" stroke="none" /><path d="M 116.498646956653 112.99209946851258 l 10.989936026302162 8.654184939009875 a34.9883383866991,34.9883383866991 0 0,0 -0.37667793315220166,0.46996363848730865 l -10.839340181095107 -8.842076411075434" fill="#ff3b05" stroke="none" /><path d="M 115.80600337817218 113.82643327865902 l 17.69505592598491 15.478897749739884 a44.50981241462033,44.50981241462033 0 0,0 -0.5094066436984058,0.5723237643779115 l -17.425990432638166 -15.781195683858662" fill="#ffd113" stroke="none" /><path d="M 115.56566222782051 114.09645910891815 l 17.545794116862552 15.889691404185191 a44.671442374970844,44.671442374970844 0 0,0 -0.5210681080838678,0.5655165191238324 l -17.269679600782965 -16.189359178110358" fill="#ffd313" stroke="none" /><path d="M 115.07121518719521 114.62390073753431 l 27.148072723997405 26.342316515287298 a58.82770799320294,58.82770799320294 0 0,0 -0.7114213310175853,0.7206660523133854 l -26.690610767924284 -26.805723061581347" fill="#6aff28" stroke="none" /><path d="M 114.55890576462653 115.13401014063108 l 16.239245936174402 16.880726934258707 a44.42374970845967,44.42374970845967 0 0,0 -0.5556441500192457,0.5253962254023739 l -15.94626595176435 -17.157757796407004" fill="#ffd013" stroke="none" /><path d="M 114.0293411484842 115.62618273729858 l 9.827503691924562 10.9460855585568 a35.71042548229101,35.71042548229101 0 0,0 -0.4609325670444968,0.40671939870615054 l -9.637628771973478 -11.113628099035239" fill="#ff4706" stroke="none" /><path d="M 112.34349029814194 116.9893568818739 l 6.183877657110658 8.511377405652746 a31.520641055542598,31.520641055542598 0 0,0 -0.44169825101574645,0.3151399742838025 l -6.036452078246027 -8.616561641780768" fill="#ff0000" stroke="none" /><line stroke="#e1ed5e" stroke-width="0.3" x1="143.8653032363475" x2="146.44561519142675" y1="172.8068346515853" y2="177.08958963109032" /><path d="M 144.38136562736335 173.6633856474863 a86.0,86.0 0 0,1 -40.68145358897372,12.25698825130547" fill="none" id="id54" stroke="none" /><text fill="#e1ed5e" style="font-size:6.75px; font-family:Arial;" text-anchor="middle"><textPath startOffset="21.466115282336833" xlink:href="#id54">June</textPath></text><path d="M 109.89434966115114 118.52300852407294 l 10.642697834636397 19.9239757499299 a43.58831173158298,43.58831173158298 0 0,0 -0.6648444186255765,0.34781517733715134 l -10.298162513484325 -20.104220346211772" fill="#ffc312" stroke="none" /><path d="M 109.2508944713604 118.85261126421891 l 9.264456573007676 18.880249784047837 a42.03078665911438,42.03078665911438 0 0,0 -0.6522524250566761,0.3131208013417995 l -8.938091479950767 -19.036924861889197" fill="#ffab0f" stroke="none" /><path d="M 108.2653958097858 119.30500536409082 l 11.199717348894444 26.15852990860112 a49.45526938326725,49.45526938326725 0 0,0 -0.7854639913124296,0.3283240120716115 l -10.747781898084554 -26.347438963692703" fill="#e5ff1a" stroke="none" /><path d="M 107.59598834532513 119.57807347666477 l 10.731519602121617 27.659663197865587 a50.66854363109319,50.66854363109319 0 0,0 -0.8158354034466632,0.3084791413230375 l -10.25381397791468 -27.840290589295257" fill="#d5ff1c" stroke="none" /><path d="M 107.2578585660854 119.70592522655815 l 8.073772163592222 21.921224987142132 a44.36077699663479,44.36077699663479 0 0,0 -0.7188145089152971,0.25774130870178014 l -7.69523809404719 -22.05695383688387" fill="#ffcf13" stroke="none" /><path d="M 106.2309692047433 120.05430185196036 l 13.179019928601107 42.41652222578361 a65.41675274047913,65.41675274047913 0 0,0 -1.078208343539736,0.32485532923061333 l -12.446936610621126 -42.63709292411995" fill="#32ff46" stroke="none" /><path d="M 105.18746579009965 120.34920634021253 l 6.398560075616873 25.10004393811574 a46.90277546396561,46.90277546396561 0 0,0 -0.7840507268119924,0.19270059279097823 l -5.965556064061669 -25.206465789220747" fill="#fff417" stroke="none" /><path d="M 104.83641907484287 120.43548508189849 l 3.98396657406258 16.83358870088884 a38.29860393829341,38.29860393829341 0 0,0 -0.6428326759348384,0.14630662415925988 l -3.6936137487348795 -16.899672058625782" fill="#ff710a" stroke="none" /><path d="M 104.48393922423573 120.51570834832081 l 4.9387125224256305 22.596467226549866 a44.129877053276914,44.129877053276914 0 0,0 -0.7435013003581491,0.1558079264177872 l -4.549019760638104 -22.678131133694194" fill="#ffcb13" stroke="none" /><path d="M 103.7750983002368 120.6578951692458 l 8.84952573922837 48.42591118939986 a70.22786792389965,70.22786792389965 0 0,0 -1.191034637734376,0.2070766385374715 l -8.014642130021944 -48.571066406458336" fill="#39ff88" stroke="none" /><path d="M 103.06178313531738 120.77559828337769 l 3.428017815482286 23.260668014405113 a44.511911505014496,44.511911505014496 0 0,0 -0.7589734695984605,0.10518680710434128 l -3.027115754696995 -23.316229387002057" fill="#ffd113" stroke="none" /><path d="M 102.70371172650421 120.8252237178851 l 3.244670275055095 24.991933757731157 a46.20167927231533,46.20167927231533 0 0,0 -0.789548366657592,0.09560331165616077 l -2.8139944853461225 -25.044082598112666" fill="#ffea16" stroke="none" /><path d="M 101.98527174616119 120.90594882070398 l 2.3828817307070516 25.092989715024828 a46.20587745310365,46.20587745310365 0 0,0 -0.7924433008796792,0.0683753424274116 l -1.9505941120858306 -25.1302893097309" fill="#ffea16" stroke="none" /><path d="M 101.62511606390274 120.93702456842531 l 4.062817233292697 52.34291022032642 a73.50034984839903,73.50034984839903 0 0,0 -1.2622363452909233,0.08705120854104251 l -3.1612181272228437 -52.40508977338374" fill="#3effb2" stroke="none" /><path d="M 100.90346689309514 120.98055641714683 l 0.7456694901829132 17.316141772203515 a38.33218938460001,38.33218938460001 0 0,0 -0.659459042876615,0.02271310282293933 l -0.44749009563164577 -17.326411673452547" fill="#ff710a" stroke="none" /><line stroke="#e1ed5e" stroke-width="0.3" x1="102.19456741930631" x2="102.32365962044197" y1="184.97166512339345" y2="189.96999836594603" /><path d="M 102.22038585953345 185.97133177190398 a86.0,86.0 0 0,1 -42.740103519485714,-10.115201625700543" fill="none" id="id55" stroke="none" /><text fill="#e1ed5e" style="font-size:6.75px; font-family:Arial;" text-anchor="middle"><textPath startOffset="22.20632615414155" xlink:href="#id55">July</textPath></text><path d="M 100.54218724476979 120.99299961872073 l 0.6513183927941284 25.218458942903318 a46.22686835704528,46.22686835704528 0 0,0 -0.7956311254410124,0.013697511365000456 l -0.21712757746044806 -25.225933931547477" fill="#ffea16" stroke="none" /><path d="M 99.81925306533755 120.99922214144158 l -0.21920526687696837 25.467320385377402 a46.46826375237397,46.46826375237397 0 0,0 -0.7997858886098737,-0.0137690393808166 l 0.6575508453795099 -25.459773868717424" fill="#ffee16" stroke="none" /><path d="M 99.45781275523022 120.99299961872073 l -0.5555012086985887 21.508504257343905 a42.51567654016593,42.51567654016593 0 0,0 -0.7314308889878941,-0.025191958725727628 l 0.9256524493611258 -21.495755500192082" fill="#ffb310" stroke="none" /><path d="M 99.09653310690486 120.98055641714683 l -1.915784493731407 44.48887387132437 a65.5301036217639,65.5301036217639 0 0,0 -1.126530918359867,-0.05822878078452609 l 2.681303480504763 -44.44930528377765" fill="#32ff48" stroke="none" /><path d="M 98.37488393609728 120.93702456842531 l -1.821778228434577 23.47070241577549 a44.54129877053277,44.54129877053277 0 0,0 -0.7638953260656696,-0.06591210303684551 l 2.225517872241788 -23.435866060459983" fill="#ffd113" stroke="none" /><path d="M 98.01472825383883 120.90594882070398 l -2.3844692601745274 25.109707229824977 a46.222670176256955,46.222670176256955 0 0,0 -0.7914364520587045,-0.08203562424429381 l 2.816338308838825 -25.064942237124924" fill="#ffea16" stroke="none" /><path d="M 97.65516085044442 120.86867818915974 l -3.2682274782330714 29.086680638687582 a50.26971645620232,50.26971645620232 0 0,0 -0.8590677470053956,-0.10402114046337689 l 3.768422648289856 -29.02611396949886" fill="#daff1c" stroke="none" /><path d="M 96.93821686468263 120.77559828337769 l -3.065353668410892 20.799825982705258 a42.024489387931894,42.024489387931894 0 0,0 -0.7147447837873205,-0.11162843575868725 l 3.42293431580673 -20.743979239599465" fill="#ffab0f" stroke="none" /><path d="M 96.58105272829116 120.7198165907248 l -7.264508261891341 44.02503661103893 a65.6203645087129,65.6203645087129 0 0,0 -1.1128933481979566,-0.19349077373091517 l 8.021250581561347 -43.893467258787005" fill="#32ff49" stroke="none" /><path d="M 95.86986931433489 120.58985236759428 l -4.170863657475879 20.792917582694667 a42.20711025222404,42.20711025222404 0 0,0 -0.7111064759822922,-0.1490192760008524 l 4.528161594887558 -20.71804232596727" fill="#ffae10" stroke="none" /><path d="M 95.16358092515715 120.4354850818985 l -5.90464357912877 24.94909020660797 a46.63829007430114,46.63829007430114 0 0,0 -0.7796294540846068,-0.19161395152361757 l 6.333226317956587 -24.843754996770322" fill="#fff016" stroke="none" /><path d="M 94.81253420990036 120.34920634021253 l -6.9487117968672205 27.25815954738162 a49.12991037217206,49.12991037217206 0 0,0 -0.817684438994718,-0.21595789215672248 l 7.4168866786734275 -27.134510305921317" fill="#eaff1a" stroke="none" /><path d="M 94.11515582081647 120.15858648285463 l -13.795746896450689 47.25745464789156 a70.2299670142938,70.2299670142938 0 0,0 -1.1575404346611016,-0.3487574375144142 l 14.607162305552036 -47.01298184127142" fill="#39ff88" stroke="none" /><path d="M 92.7421414339146 119.70592522655815 l -7.371515765500988 20.014517665050874 a42.32885749508546,42.32885749508546 0 0,0 -0.6815546304896518,-0.25770564293969667 l 7.714940616750923 -19.884663772004544" fill="#ffb010" stroke="none" /><path d="M 92.06813273071674 119.44442032107085 l -8.726031836110838 21.391259459604747 a44.1025888781528,44.1025888781528 0 0,0 -0.7004510524244646,-0.2927885967216896 l 9.092954348032766 -21.237885819863084" fill="#ffcb12" stroke="none" /><path d="M 91.7346041902142 119.30500536409082 l -17.847174252789735 41.68460925683104 a66.34455069469897,66.34455069469897 0 0,0 -1.0459670992445753,-0.4585212381692379 l 18.562062026692054 -41.37122346536734" fill="#33ff53" stroke="none" /><path d="M 91.07499286063937 119.00905698771935 l -8.96931547454088 19.103427743430878 a42.10425482291007,42.10425482291007 0 0,0 -0.6533925366702906,-0.3136681242008074 l 9.296820679211411 -18.946205342730508" fill="#ffad10" stroke="none" /><path d="M 90.10565033884886 118.52300852407294 l -6.428541578397598 12.034740486436615 a34.64408756205644,34.64408756205644 0 0,0 -0.523583004562956,-0.2854992006603377 l 6.634747394829195 -11.92230063401651" fill="#ff3505" stroke="none" /><line stroke="#e1ed5e" stroke-width="0.3" x1="58.666819895761336" x2="56.23545636021788" y1="174.27360380694188" y2="178.64263932499728" /><path d="M 58.180547188652646 175.14741091055294 a86.0,86.0 0 0,1 -31.652253787137756,-30.449443065178592" fill="none" id="id56" stroke="none" /><text fill="#e1ed5e" style="font-size:6.75px; font-family:Arial;" text-anchor="middle"><textPath startOffset="22.20632615414155" xlink:href="#id56">August</textPath></text><path d="M 89.7882731507175 118.34994917583269 l -8.177070981534873 14.693776981400962 a37.81581314763602,37.81581314763602 0 0,0 -0.5660689282303146,-0.32142871094070097 l 8.428788676686395 -14.550845104665628" fill="#ff6909" stroke="none" /><path d="M 89.4739219176387 118.17145234162733 l -15.444537384231632 26.662321219746197 a51.81254789591177,51.81254789591177 0 0,0 -0.7678918851946924,-0.4536840609618448 l 15.901197140454707 -26.392518586490603" fill="#c5ff1e" stroke="none" /><path d="M 89.1626897886671 117.98757091392108 l -10.849948263423553 18.008547323543148 a42.024489387931894,42.024489387931894 0 0,0 -0.6164008020812849,-0.37864371751643555 l 11.158328265437147 -17.819115139198335" fill="#ffab0f" stroke="none" /><path d="M 87.95078237400918 117.19931262002967 l -12.170460544827632 17.37237737234531 a42.21130843301236,42.21130843301236 0 0,0 -0.5915064060751125,-0.42202411526544964 l 12.467694278751633 -17.160308995235642" fill="#ffae10" stroke="none" /><path d="M 87.65650970185807 116.9893568818739 l -10.175267166438859 14.005053763850398 a38.311198480658376,38.311198480658376 0 0,0 -0.5301814323693709,-0.3922155488189389 l 10.414833569226795 -13.827828266291693" fill="#ff710a" stroke="none" /><path d="M 87.36589467227662 116.77436683061367 l -29.097633111259196 38.63307761411749 a69.36514177189883,69.36514177189883 0 0,0 -0.9475650675397226,-0.7265524875421372 l 29.758326907292407 -38.126485784747985" fill="#38ff7c" stroke="none" /><path d="M 87.07902340077011 116.55440617244103 l -6.787032155627864 8.695572362260783 a32.03072002132409,32.03072002132409 0 0,0 -0.43171691928113753,-0.34298203060917365 l 6.935706567626361 -8.577456417646479" fill="#ff0901" stroke="none" /><path d="M 86.79598089348748 116.32954008644616 l -13.360638931319057 16.523233361719374 a42.24909206010729,42.24909206010729 0 0,0 -0.5615706493257788,-0.46213441285995116 l 13.643079709189525 -16.29080383000224" fill="#ffaf10" stroke="none" /><path d="M 86.51685102203217 116.09983520530335 l -10.799367550107247 12.895210025665115 a37.82001132842435,37.82001132842435 0 0,0 -0.4955043234617312,-0.4222795341908182 l 11.019737350146036 -12.707406101251346" fill="#ff6909" stroke="none" /><path d="M 86.24171649860922 115.8653595955263 l -16.53441933867537 19.066659622531496 a46.23736380901609,46.23736380901609 0 0,0 -0.5968090972320951,-0.5266146385034355 l 16.860170788814052 -18.779221842255772" fill="#ffeb16" stroke="none" /><path d="M 85.70375840098266 115.38237550388516 l -9.014163063332692 9.698999568037943 a34.24106220637724,34.24106220637724 0 0,0 -0.42828095400048616,-0.40496637395676494 l 9.179779851723994 -9.542398557335247" fill="#ff2e04" stroke="none" /><path d="M 85.44109423537348 115.13401014063109 l -32.34024217578668 33.617743046870835 a67.6480858294739,67.6480858294739 0 0,0 -0.8322326759871876,-0.8145148352127451 l 32.91412480414966 -33.05607810873552" fill="#35ff65" stroke="none" /><path d="M 85.18274418774928 114.88116024355367 l -9.053865136469732 9.092912994586698 a33.83173957951554,33.83173957951554 0 0,0 -0.40913749699513063,-0.41445412438099827 l 9.209043258520394 -8.935718376225035" fill="#ff2703" stroke="none" /><path d="M 84.67929136418377 114.36230785411682 l -15.34623209004576 14.386234665588713 a42.034984839902705,42.034984839902705 0 0,0 -0.49031526316091645,-0.5321403797206027 l 15.591593761202406 -14.119943031066766" fill="#ffac0f" stroke="none" /><path d="M 84.43433777217949 114.09645910891817 l -17.469555408719753 15.820648673068325 a44.56858694565688,44.56858694565688 0 0,0 -0.5100793074317728,-0.5730795092132135 l 17.739293565799862 -15.517594994114248" fill="#ffd213" stroke="none" /><path d="M 83.95833913139862 113.55231037782056 l -12.847011649541965 10.853407931272953 a37.81791223803019,37.81791223803019 0 0,0 -0.4158241529255407,-0.5008869794508488 l 13.031931802361044 -10.630659694708342" fill="#ff6909" stroke="none" /><path d="M 83.72743513129214 113.27417163493432 l -34.35602390532574 28.025560917577327 a65.33698730550094,65.33698730550094 0 0,0 -0.7034058338129856,-0.8776069312729714 l 34.83334765119359 -27.430026152726093" fill="#32ff45" stroke="none" /><path d="M 83.50135304334701 112.99209946851258 l -13.193200511767294 10.389177597850999 a37.79272315330024,37.79272315330024 0 0,0 -0.39807108191785123,-0.5145605339006725 l 13.370078410903213 -10.160539069837075" fill="#ff6909" stroke="none" /><path d="M 83.06392112726016 112.41649034213515 l -17.336725792396162 12.710219997381737 a42.496784726618465,42.496784726618465 0 0,0 -0.4274371282535936,-0.5936727864365332 l 17.552942713025363 -12.409913605494065" fill="#ffb310" stroke="none" /><path d="M 82.85270091963577 112.12312394758628 l -17.31812646932997 12.243898747184065 a42.209209342618195,42.209209342618195 0 0,0 -0.4143318153948047,-0.5968758824032407 l 17.52631919188691 -11.943981602593812" fill="#ffae10" stroke="none" /><path d="M 82.44556493220864 111.52570212397912 l -17.860919723624594 11.726930522105432 a42.36664112218039,42.36664112218039 0 0,0 -0.39500868032252306,-0.613062243852874 l 18.060133267324165 -11.41774667833111" fill="#ffb110" stroke="none" /><path d="M 82.24976979558568 111.22182372390057 l -30.18361205852428 19.08229752350612 a56.70972578549295,56.70972578549295 0 0,0 -0.5145337160414434,-0.8295921813606337 l 30.507610414233678 -18.559909010780224" fill="#85ff25" stroke="none" /><line stroke="#e1ed5e" stroke-width="0.3" x1="26.63291911575756" x2="22.317208475507996" y1="142.92168965132927" y2="145.44649492493687" /><path d="M 25.769776987707644 143.4266507060508 a86.0,86.0 0 0,1 -11.730757126820373,-40.83630448921669" fill="none" id="id57" stroke="none" /><text fill="#e1ed5e" style="font-size:6.75px; font-family:Arial;" text-anchor="middle"><textPath startOffset="21.46611528233685" xlink:href="#id57">September</textPath></text><path d="M 81.69416730710424 110.29060199501025 l -12.830490005256227 7.212644639557378 a35.71882184386766,35.71882184386766 0 0,0 -0.29667643600804755,-0.5385539068506833 l 12.952742850715792 -6.9907202143088725" fill="#ff4706" stroke="none" /><path d="M 81.51974371655577 109.97397251340807 l -17.315888688335686 9.345552094827633 a40.676873354879554,40.676873354879554 0 0,0 -0.3272502726933745,-0.6190341884506065 l 17.474191469253945 -9.0461028912909" fill="#ff970d" stroke="none" /><path d="M 81.18737489456691 109.33194174019688 l -19.268947068474276 9.558298771712002 a42.50937926898344,42.50937926898344 0 0,0 -0.3195222419494674,-0.6583104577777992 l 19.430622567038462 -9.225199357968917" fill="#ffb310" stroke="none" /><path d="M 80.87730276802145 108.67885076344099 l -38.33395791696894 17.397896117763214 a63.09725785492953,63.09725785492953 0 0,0 -0.4403555079832953,-0.9928854200433703 l 38.62775450968352 -16.73546236122715" fill="#37ff2e" stroke="none" /><path d="M 80.58989483394504 108.01547362559985 l -21.469918745300117 8.86608114559237 a44.228534301802554,44.228534301802554 0 0,0 -0.2845313980667131,-0.7061835957514554 l 21.619352757624217 -8.495198181998108" fill="#ffcd13" stroke="none" /><path d="M 80.32549172779594 107.34259656027581 l -20.600120696165412 7.688038413576362 a42.9879718788525,42.9879718788525 0 0,0 -0.2527605521727592,-0.6954884832418677 l 20.729405509343398 -7.332302133328378" fill="#ffba11" stroke="none" /><path d="M 80.20201598880116 107.00284435728193 l -13.906017423785778 4.91876726404759 a35.75030819978009,35.75030819978009 0 0,0 -0.20021733528093444,-0.5819252959835892 l 13.98862559000994 -4.678669264974704" fill="#ff4706" stroke="none" /><path d="M 80.0844068197444 106.66101706037122 l -42.01763488378254 14.05331893778584 a65.30550094958852,65.30550094958852 0 0,0 -0.34738716701593936,-1.0691477649509114 l 42.253314301814726 -13.327972272857124" fill="#32ff45" stroke="none" /><path d="M 79.86692584326677 105.97154293290107 l -14.117234052858787 4.187222904171631 a35.72511911505015,35.72511911505015 0 0,0 -0.16979190170490452,-0.5910678844396209 l 14.187218591449797 -3.9435975442274147" fill="#ff4706" stroke="none" /><path d="M 79.76711848015287 105.62410040840567 l -14.241823709335632 3.9587760379828154 a35.781794555692535,35.781794555692535 0 0,0 -0.15984566567680586,-0.5948451860305907 l 14.307857451354213 -3.713039918776686" fill="#ff4806" stroke="none" /><path d="M 79.58551787078972 104.9243191809786 l -27.629236133959342 6.664640160308894 a49.42168393696065,49.42168393696065 0 0,0 -0.19236668932219694,-0.8287106628960169 l 27.739863389212097 -6.188060840064303" fill="#e6ff1a" stroke="none" /><path d="M 79.50377843672027 104.57218783832718 l -13.658912054348383 3.0469572836564787 a34.99463565788159,34.99463565788159 0 0,0 -0.12609060697817015,-0.5890533380774993 l 13.709336700050994 -2.8113901261628156" fill="#ff3b05" stroke="none" /><path d="M 79.4281124754447 104.21870165774334 l -45.709441353747344 9.37368998267185 a67.66068037183888,67.66068037183888 0 0,0 -0.22415038420861144,-1.142937979959643 l 45.86402167093162 -8.585488275644252" fill="#35ff66" stroke="none" /><path d="M 79.23777060512086 103.15116336523772 l -21.2762178812149 3.2291733735798283 a42.51987472095425,42.51987472095425 0 0,0 -0.10359855908347364,-0.7245680809390276 l 21.328650491314974 -2.8624598206604004" fill="#ffb310" stroke="none" /><path d="M 79.1416061653843 102.43462659150553 l -13.902352656104105 1.622705838685792 a34.99673474827575,34.99673474827575 0 0,0 -0.06469012847172519,-0.5989502471691885 l 13.928225086076882 -1.3831592696318213" fill="#ff3b05" stroke="none" /><path d="M 79.10278846688536 102.07522291339032 l -14.653044237976804 1.4551383138073226 a35.72511911505015,35.72511911505015 0 0,0 -0.05550221115133734,-0.6124622751303539 l 14.675921045405218 -1.2026946501284026" fill="#ff4706" stroke="none" /><path d="M 79.07016306316243 101.71520430193888 l -23.040045398866372 1.888136305326314 a44.117282510911934,44.117282510911934 0 0,0 -0.05551097268171551,-0.7574031185688284 l 23.069132930212422 -1.4912600502607252" fill="#ffcb12" stroke="none" /><path d="M 79.0235259727143 100.99374915477108 l -21.47899243016507 1.0175556933470429 a42.503081997800955,42.503081997800955 0 0,0 -0.028331071200939712,-0.7310990614112141 l 21.493325634217214 -0.647679384921832" fill="#ffb310" stroke="none" /><path d="M 79.0095281055655 100.63252640178507 l -13.350452070531446 0.40230221849449604 a34.35651217805618,34.35651217805618 0 0,0 -0.012724895146795187,-0.5912758759561888 l 13.35539902836325 -0.17243652674817836" fill="#ff3004" stroke="none" /><line stroke="#e1ed5e" stroke-width="0.3" x1="15.007084014347285" x2="10.007500721073583" y1="101.09737516637583" y2="101.16192664675087" /><path d="M 14.007167355692545 101.11028546245083 a86.0,86.0 0 0,1 10.666146001902534,-42.60595125391555" fill="none" id="id58" stroke="none" /><text fill="#e1ed5e" style="font-size:6.75px; font-family:Arial;" text-anchor="middle"><textPath startOffset="22.20632615414155" xlink:href="#id58">October</textPath></text><path d="M 79.00019446554 99.90962569577889 l -21.706492756324003 -0.09341558790696743 a42.70669376603472,42.70669376603472 0 0,0 0.009491039801523127,-0.7350914921207821 l 21.701668709404764 0.46704333808822146" fill="#ffb610" stroke="none" /><path d="M 79.01574976396665 99.18683210126434 l -36.08566698371217 -1.3983680934776452 a57.11275114117216,57.11275114117216 0 0,0 0.04652348075636091,-0.9820371479657777 l 36.05624989472231 2.019316348066432" fill="#80ff26" stroke="none" /><path d="M 79.05617556472873 98.46500227214037 l -23.77141170118001 -1.7422349515056275 a44.83517142571552,44.83517142571552 0 0,0 0.06303721806598028,-0.7692137278232758 l 23.73789999929453 2.1511625965366816" fill="#ffd614" stroke="none" /><path d="M 79.12142395522702 97.74499172005258 l -12.609371585231575 -1.3618858522082768 a33.682704161530005,33.682704161530005 0 0,0 0.06722048768067948,-0.5759040875880279 l 12.584060744547306 1.5787336781211665" fill="#ff2503" stroke="none" /><path d="M 79.16333360222342 97.38593545837743 l -22.50218343000482 -2.823012025557942 a43.67857261853197,43.67857261853197 0 0,0 0.10001145366390303,-0.7452014959055622 l 22.45025597728308 3.2099318635281633" fill="#ffc512" stroke="none" /><path d="M 79.26566170972629 96.67025291283419 l -15.83831805027205 -2.5434905447760423 a37.041248792190046,37.041248792190046 0 0,0 0.10651676483460211,-0.6286679756221765 l 15.792189423917225 2.815744308714047" fill="#ff5d08" stroke="none" /><path d="M 79.32604984820605 96.31383870115002 l -45.67790565640754 -8.144361711569655 a67.39829407256855,67.39829407256855 0 0,0 0.2134737495212934,-1.140385305981331 l 45.530946182976386 8.929425095013558" fill="#35ff62" stroke="none" /><path d="M 79.3925641242962 95.95851677861259 l -15.46742104994434 -3.033435262326132 a36.762069769766434,36.762069769766434 0 0,0 0.12712797096678724,-0.6199211350139884 l 15.412913783062558 3.2992320535035224" fill="#ff5808" stroke="none" /><path d="M 79.62865764111835 94.90015583598534 l -21.694227317315004 -5.431020530111495 a43.36370905940759,43.36370905940759 0 0,0 0.1875039926810949,-0.7225293714926587 l 21.5975269927636 5.803646327153017" fill="#ffc011" stroke="none" /><path d="M 79.71946130924805 94.55025226153421 l -14.212526914423275 -3.8191631687319125 a35.71672275347349,35.71672275347349 0 0,0 0.16465958450236723,-0.5923681339978228 l 14.144680559354546 4.063242606148678" fill="#ff4706" stroke="none" /><path d="M 79.81627453868168 94.20196356495316 l -60.551176383954946 -17.394109305140535 a84.0,84.0 0 0,0 0.4111764115531722,-1.3862824530138431 l 60.24279407529007 18.433821144900918" fill="#4dd2ff" stroke="none" /><path d="M 80.02781315780177 93.51064311812611 l -15.184265463808318 -4.9336669220204055 a36.9656815380002,36.9656815380002 0 0,0 0.20183738489133016,-0.6034680904778195 l 15.097090785145216 5.194308115420547" fill="#ff5b08" stroke="none" /><path d="M 80.2630227832202 92.82701384747504 l -12.563063097636407 -4.565779077660908 a34.36700763002699,34.36700763002699 0 0,0 0.20684914625547457,-0.5542528730393442 l 12.482609362879305 4.781355087729593" fill="#ff3004" stroke="none" /><path d="M 80.52162464483688 92.15188598940014 l -20.848410019300317 -8.400120430363835 a43.47705994069237,43.47705994069237 0 0,0 0.28566149475068164,-0.6917519680052844 l 20.700726837663435 8.75774696882243" fill="#ffc212" stroke="none" /><path d="M 80.803312248108 91.48605970444005 l -16.962521546668977 -7.523063227209866 a39.55595908439676,39.55595908439676 0 0,0 0.2814080303572066,-0.620045292844141 l 16.830511199348418 7.813930528896077" fill="#ff850c" stroke="none" /><path d="M 81.10775173730289 90.83032412892265 l -14.263134421232593 -6.922856281036266 a36.854429747109585,36.854429747109585 0 0,0 0.28191881510404965,-0.56833112833048 l 14.14185559317513 7.167346997865707" fill="#ff5a08" stroke="none" /><path d="M 81.26839172434947 90.50648371742162 l -19.18034803342858 -9.720945670082923 a42.503081997800955,42.503081997800955 0 0,0 0.3363624423646045,-0.6497451766333229 l 19.01017615790386 10.04966356897658" fill="#ffb310" stroke="none" /><path d="M 81.43458229118936 90.18545643968196 l -19.013887633139685 -10.051625627463299 a42.507280178589276,42.507280178589276 0 0,0 0.34753122528166525,-0.6439225796011379 l 18.838048308639546 10.37742919039691" fill="#ffb310" stroke="none" /><line stroke="#e1ed5e" stroke-width="0.3" x1="26.266209847984243" x2="21.928928074336255" y1="57.711370442889674" y2="55.22380399835377" /><path d="M 25.398753493254645 57.213857153982495 a86.0,86.0 0 0,1 29.58750427330803,-30.492523968695096" fill="none" id="id59" stroke="none" /><text fill="#e1ed5e" style="font-size:6.75px; font-family:Arial;" text-anchor="middle"><textPath startOffset="21.46611528233685" xlink:href="#id59">November</textPath></text><path d="M 81.78341655067845 89.55222093294921 l -39.59662383190079 -22.709899402800755 a66.64681971145836,66.64681971145836 0 0,0 0.579320579316532,-0.9902466595768317 l 39.199843578113935 23.388125474731478" fill="#34ff58" stroke="none" /><path d="M 81.96595687620814 89.24020034530311 l -10.318215057533534 -6.156241617647522 a33.01519341618632,33.01519341618632 0 0,0 0.2953825361631578,-0.4855312238438074 l 10.21071672308416 6.332940614698404" fill="#ff1a02" stroke="none" /><line stroke="#e1ed5e" stroke-width="0.3" x1="56.762969772571076" x2="54.21961505331055" y1="26.818313649435495" y2="22.513508569990535" /><path d="M 56.25429882871897 25.957352633546506 a86.0,86.0 0 0,1 42.265352541879196,-11.944610805530505" fill="none" id="id60" stroke="none" /><text fill="#e1ed5e" style="font-size:6.75px; font-family:Arial;" text-anchor="middle"><textPath startOffset="22.20632615414155" xlink:href="#id60">December</textPath></text></svg>