<?xml version="1.0" encoding="utf-8" ?>
<svg baseProfile="full" height="200mm" version="1.1" viewBox="0,0,200,200" width="200mm" xmlns="http://www.w3.org/2000/svg" xmlns:ev="http://www.w3.org/2001/xml-events" xmlns:xlink="http://www.w3.org/1999/xlink"><defs /><rect fill="#1a1a1a" height="200" width="200" x="0" y="0" /><text alignment-baseline="middle" fill="#e1ed5e" style="dominant-baseline: central; font-size:9.0px; font-family:Arial;" text-anchor="middle" x="100.0" y="100.0">2026</text><line stroke="#e1ed5e" stroke-width="0.3" x1="100.0" x2="100.0" y1="15.0" y2="10.0" /><path d="M 100.0 14.0 a86.0,86.0 0 0,1 42.46469731375804,11.215312516191453" fill="none" id="id61" stroke="none" /><text fill="#e1ed5e" style="font-size:6.75px; font-family:Arial;" text-anchor="middle"><textPath startOffset="22.20632615414155" xlink:href="#id61">January</textPath></text><path d="M 100.0 79.0 l 0.0 -50.906451870165085 a71.90645187016509,71.90645187016509 0 0,0 1.2377513659435366,0.01065371677872837 l -0.8762708866710083 50.89890952999492" fill="#3bff97" stroke="none" /><path d="M 100.72285384407766 79.0124445844662 l 0.8877283950037398 -25.77457260098931 a46.78985565037084,46.78985565037084 0 0,0 0.8046945390148221,0.03465183956990562 l -1.3312637664078935 25.75547303489521" fill="#ffdc14" stroke="none" /><path d="M 101.44485096284872 79.0497635885617 l 1.771812012939094 -25.691148431332724 a46.75217321955499,46.75217321955499 0 0,0 0.8023781855694685,0.062279989901740065 l -2.2137803878709037 25.65684317924252" fill="#ffdb14" stroke="none" /><path d="M 102.52436894288641 79.15227682838746 l 2.4185745510300536 -19.9740108718532 a41.11990589361193,41.11990589361193 0 0,0 0.7019466965715853,0.09113282722007605 l -2.762035976109485 19.929419721468985" fill="#ff820b" stroke="none" /><path d="M 103.59715602781102 79.31037775812273 l 4.50799185110635 -25.928441176238895 a47.31740968179281,47.31740968179281 0 0,0 0.8012524637913504,0.14642376628101 l -4.953639436000602 25.84700192860715" fill="#ffe415" stroke="none" /><path d="M 104.66035177308747 79.52364482259891 l 5.620185767345263 -24.693612314783525 a46.32510567030864,46.32510567030864 0 0,0 0.7760035654177461,0.18365497226473426 l -6.044413019725533 24.59321143037792" fill="#ffd513" stroke="none" /><path d="M 105.01212808612495 79.60689891045804 l 3.7276178696194457 -15.166748880335236 a36.61811149214451,36.61811149214451 0 0,0 0.610809474706617,0.15570893534299296 l -3.9881362330110877 15.100336948823374" fill="#ff3505" stroke="none" /><path d="M 105.71112130821622 79.79150937346287 l 17.13336392464865 -60.62547187961136 a84.0,84.0 0 0,0 1.3880391291062915,0.40520668432518603 l -18.174393271478365 60.321566866367476" fill="#4dd2ff" stroke="none" /><path d="M 106.40334571778207 80.00007090966166 l 7.673903509140375 -23.96833355455094 a46.166839460882045,46.166839460882045 0 0,0 0.7547556680808294,0.24883107720471284 l -8.08534199946362 23.832688753086995" fill="#ffd213" stroke="none" /><path d="M 106.74666289553966 80.11325718540242 l 5.418744877660088 -15.972516698764833 a37.86665603317649,37.86665603317649 0 0,0 0.6154557690509118,0.21472043303105423 l -5.692882650774274 15.876875412561573" fill="#ff4b07" stroke="none" /><path d="M 107.4271985657038 80.35727306442388 l 5.650807426175475 -14.944701727840828 a36.97735066592232,36.97735066592232 0 0,0 0.5934280803869808,0.23024087573176624 l -5.907218671562123 14.845218148218514" fill="#ff3b05" stroke="none" /><path d="M 108.09893153111575 80.62456947434976 l 7.270242707890491 -17.392921763834366 a39.85126405614483,39.85126405614483 0 0,0 0.6306296342116157,0.2700026981517978 l -7.5685560998924215 17.265199537719777" fill="#ff6c0a" stroke="none" /><path d="M 110.05341064243156 81.56283822128135 l 7.890632493619123 -14.470797323969984 a37.482295238854775,37.482295238854775 0 0,0 0.5637978167735321,0.3137528746235261 l -8.13855439946469 14.332829051786277" fill="#ff4406" stroke="none" /><line stroke="#e1ed5e" stroke-width="0.3" x1="143.23703022742887" x2="145.7803849466894" y1="26.81831364943548" y2="22.513508569990506" /><path d="M 143.74570117128098 25.957352633546492 a86.0,86.0 0 0,1 28.547481713284135,27.462654790039103" fill="none" id="id62" stroke="none" /><text fill="#e1ed5e" style="font-size:6.75px; font-family:Arial;" text-anchor="middle"><textPath startOffset="19.985693538727396" xlink:href="#id62">February</textPath></text><path d="M 110.68208982089419 81.91981866633111 l 6.413598629603792 -10.855462570422377 a33.60854135098493,33.60854135098493 0 0,0 0.495546633398003,0.2985613019131711 l -6.599507329219432 10.743454659050592" fill="#ff0000" stroke="none" /><line stroke="#e1ed5e" stroke-width="0.3" x1="172.23445277983987" x2="176.4835382374775" y1="55.19839476539836" y2="52.563006222186495" /><path d="M 173.08426987136738 54.67131705675599 a86.0,86.0 0 0,1 12.851231095245387,41.99856678651699" fill="none" id="id63" stroke="none" /><text fill="#e1ed5e" style="font-size:6.75px; font-family:Arial;" text-anchor="middle"><textPath startOffset="22.20632615414155" xlink:href="#id63">March</textPath></text><line stroke="#e1ed5e" stroke-width="0.3" x1="184.98032266829074" x2="189.97916517819016" y1="98.17113171792111" y2="98.06355123074" /><path d="M 185.9800911702706 98.14961562048488 a86.0,86.0 0 0,1 -9.607161424134198,41.387399972396054" fill="none" id="id64" stroke="none" /><text fill="#e1ed5e" style="font-size:6.75px; font-family:Arial;" text-anchor="middle"><textPath startOffset="21.466115282336823" xlink:href="#id64">April</textPath></text><line stroke="#e1ed5e" stroke-width="0.3" x1="174.80103733775053" x2="179.2010983576182" y1="140.37084112569926" y2="142.7455964860345" /><path d="M 175.68104954172406 140.8457921977663 a86.0,86.0 0 0,1 -30.038265399797805,32.042727171017184" fill="none" id="id65" stroke="none" /><text fill="#e1ed5e" style="font-size:6.75px; font-family:Arial;" text-anchor="middle"><textPath startOffset="22.206326154141568" xlink:href="#id65">May</textPath></text><line stroke="#e1ed5e" stroke-width="0.3" x1="143.8653032363475" x2="146.44561519142675" y1="172.8068346515853" y2="177.08958963109032" /><path d="M 144.38136562736335 173.6633856474863 a86.0,86.0 0 0,1 -40.68145358897372,12.25698825130547" fill="none" id="id66" stroke="none" /><text fill="#e1ed5e" style="font-size:6.75px; font-family:Arial;" text-anchor="middle"><textPath startOffset="21.466115282336833" xlink:href="#id66">June</textPath></text><line stroke="#e1ed5e" stroke-width="0.3" x1="102.19456741930631" x2="102.32365962044197" y1="184.97166512339345" y2="189.96999836594603" /><path d="M 102.22038585953345 185.97133177190398 a86.0,86.0 0 0,1 -42.740103519485714,-10.115201625700543" fill="none" id="id67" stroke="none" /><text fill="#e1ed5e" style="font-size:6.75px; font-family:Arial;" text-anchor="middle"><textPath startOffset="22.20632615414155" xlink:href="#id67">July</textPath></text><line stroke="#e1ed5e" stroke-width="0.3" x1="58.666819895761336" x2="56.23545636021788" y1="174.27360380694188" y2="178.64263932499728" /><path d="M 58.180547188652646 175.14741091055294 a86.0,86.0 0 0,1 -31.652253787137756,-30.449443065178592" fill="none" id="id68" stroke="none" /><text fill="#e1ed5e" style="font-size:6.75px; font-family:Arial;" text-anchor="middle"><textPath startOffset="22.20632615414155" xlink:href="#id68">August</textPath></text><line stroke="#e1ed5e" stroke-width="0.3" x1="26.63291911575756" x2="22.317208475507996" y1="142.92168965132927" y2="145.44649492493687" /><path d="M 25.769776987707644 143.4266507060508 a86.0,86.0 0 0,1 -11.730757126820373,-40.83630448921669" fill="none" id="id69" stroke="none" /><text fill="#e1ed5e" style="font-size:6.75px; font-family:Arial;" text-anchor="middle"><textPath startOffset="21.46611528233685" xlink:href="#id69">September</textPath></text><line stroke="#e1ed5e" stroke-width="0.3" x1="15.007084014347285" x2="10.007500721073583" y1="101.09737516637583" y2="101.16192664675087" /><path d="M 14.007167355692545 101.11028546245083 a86.0,86.0 0 0,1 10.666146001902534,-42.60595125391555" fill="none" id="id70" stroke="none" /><text fill="#e1ed5e" style="font-size:6.75px; font-family:Arial;" text-anchor="middle"><textPath startOffset="22.20632615414155" xlink:href="#id70">October</textPath></text><line stroke="#e1ed5e" stroke-width="0.3" x1="26.266209847984243" x2="21.928928074336255" y1="57.711370442889674" y2="55.22380399835377" /><path d="M 25.398753493254645 57.213857153982495 a86.0,86.0 0 0,1 29.58750427330803,-30.492523968695096" fill="none" id="id71" stroke="none" /><text fill="#e1ed5e" style="font-size:6.75px; font-family:Arial;" text-anchor="middle"><textPath startOffset="21.46611528233685" xlink:href="#id71">November</textPath></text><line stroke="#e1ed5e" stroke-width="0.3" x1="56.762969772571076" x2="54.21961505331055" y1="26.818313649435495" y2="22.513508569990535" /><path d="M 56.25429882871897 25.957352633546506 a86.0,86.0 0 0,1 42.265352541879196,-11.944610805530505" fill="none" id="id72" stroke="none" /><text fill="#e1ed5e" style="font-size:6.75px; font-family:Arial;" text-anchor="middle"><textPath startOffset="22.20632615414155" xlink:href="#id72">December</textPath></text></svg>