<?xml version="1.0" encoding="utf-8" ?>
<svg baseProfile="full" height="200mm" version="1.1" viewBox="0,0,200,200" width="200mm" xmlns="http://www.w3.org/2000/svg" xmlns:ev="http://www.w3.org/2001/xml-events" xmlns:xlink="http://www.w3.org/1999/xlink"><defs /><rect fill="#1a1a1a" height="200" width="200" x="0" y="0" /><text alignment-baseline="middle" fill="#e1ed5e" style="dominant-baseline: central; font-size:9.0px; font-family:Arial;" text-anchor="middle" x="100.0" y="100.0">2025</text><line stroke="#e1ed5e" stroke-width="0.3" x1="100.0" x2="100.0" y1="15.0" y2="10.0" /><path d="M 100.0 14.0 a86.0,86.0 0 0,1 42.46469731375804,11.215312516191453" fill="none" id="id49" stroke="none" /><text fill="#e1ed5e" style="font-size:6.75px; font-family:Arial;" text-anchor="middle"><textPath startOffset="22.20632615414155" xlink:href="#id49">January</textPath></text><path d="M 100.0 79.0 l 0.0 -53.3721644209449 a74.3721644209449,74.3721644209449 0 0,0 1.280194554258021,0.01101903870034391 l -0.9187140749854928 53.36425675885312" fill="#3effb6" stroke="none" /><path d="M 100.72285384407766 79.0124445844662 l 1.0177962129152494 -29.551000655651613 a50.56852294047416,50.56852294047416 0 0,0 0.8696802691658401,0.037450261811323084 l -1.526317314470421 29.529102667316096" fill="#f2ff19" stroke="none" /><path d="M 101.08401301168833 79.027996857942 l 0.9724778165150415 -18.81417252710891 a39.839288760020466,39.839288760020466 0 0,0 0.6845489205644221,0.04129386031045928 l -1.2961887859190755 18.794645397418147" fill="#ff5f08" stroke="none" /><path d="M 102.16513564639614 79.11191278185805 l 2.775199451247984 -26.773661170789136 a47.91710728296094,47.91710728296094 0 0,0 0.8196866860731529,0.09210134990112608 l -3.2356528408308622 26.72192386741741" fill="#ffe415" stroke="none" /><path d="M 102.52436894288641 79.15227682838746 l 3.8850438451133837 -32.084976651586715 a53.319333105918474,53.319333105918474 0 0,0 0.9101997906788464,0.11817005573901929 l -4.4367583643000765 32.01334827268356" fill="#c9ff1d" stroke="none" /><path d="M 102.88285421437855 79.19881850522331 l 3.8308574423031487 -27.64148132795584 a48.90567968616749,48.90567968616749 0 0,0 0.8328660994758884,0.12274281311037522 l -4.306092522207693 27.571444030684496" fill="#fff316" stroke="none" /><path d="M 103.2404852339499 79.25152402106235 l 4.248058930264194 -27.199861227036465 a48.529592358860654,48.529592358860654 0 0,0 0.8242422967805527,0.13600704134931357 l -4.715630433183621 27.122707922747527" fill="#ffed16" stroke="none" /><path d="M 103.95276090670814 79.375362276772 l 5.335013686680556 -27.83692895502884 a49.34355278867474,49.34355278867474 0 0,0 0.8328101230732585,0.167053876017629 l -5.81339021922094 27.740971122934003" fill="#fffa17" stroke="none" /><path d="M 104.66035177308747 79.52364482259891 l 8.685399750398016 -38.16135322099051 a60.137259082381036,60.137259082381036 0 0,0 1.0073744417228332,0.23841298339294742 l -9.340997879083373 38.0061943254567" fill="#6bff28" stroke="none" /><path d="M 105.01212808612495 79.60689891045804 l 6.7507287163751 -27.467034117148298 a49.28445335152652,49.28445335152652 0 0,0 0.8220907588122508,0.20956923903554844 l -7.222528363872376 27.34676188194388" fill="#fff917" stroke="none" /><path d="M 105.36241919743992 79.69619591428918 l 10.30868612900314 -39.03192492751948 a61.370288248337026,61.370288248337026 0 0,0 1.0190451929116389,0.2785435458779268 l -10.97902921113849 38.84869484081526" fill="#5cff2a" stroke="none" /><path d="M 106.0581310904928 79.89281104454417 l 10.103945909668044 -33.53541654458891 a56.02447552447553,56.02447552447553 0 0,0 0.9209746874885384,0.28615131847775105 l -10.6797059698673 33.35652509122864" fill="#a3ff22" stroke="none" /><path d="M 106.74666289553966 80.11325718540242 l 10.001758011650484 -29.481595916557826 a52.13197168684974,52.13197168684974 0 0,0 0.8473133381136053,0.2956109862343192 l -10.507753353827363 29.3050640771513" fill="#dbff1b" stroke="none" /><path d="M 107.08798089147638 80.2323363322302 l 8.169372484078394 -22.783555728288302 a45.20390585024731,45.20390585024731 0 0,0 0.7301887527864913,0.268934679967641 l -8.560343562637462 22.639557780514338" fill="#ffb911" stroke="none" /><path d="M 107.4271985657038 80.35727306442388 l 20.409911255558043 -53.97813321209867 a78.70791403718232,78.70791403718232 0 0,0 1.2631377180137842,0.49007781056748745 l -21.336032138571493 53.618812697640635" fill="#45ffed" stroke="none" /><path d="M 108.43124777332544 80.76684994638697 l 17.36545118518414 -39.61362984136407 a64.25272897833874,64.25272897833874 0 0,0 1.0091285216363717,0.4527665522678791 l -18.044761825287292 39.30884295857967" fill="#37ff2e" stroke="none" /><path d="M 110.05341064243156 81.56283822128135 l 7.732964121559903 -14.181645971614607 a37.15295070782876,37.15295070782876 0 0,0 0.5588439118331994,0.31099603188771 l -7.975932122465138 14.046434542166718" fill="#ff3004" stroke="none" /><line stroke="#e1ed5e" stroke-width="0.3" x1="143.23703022742887" x2="145.7803849466894" y1="26.81831364943548" y2="22.513508569990506" /><path d="M 143.74570117128098 25.957352633546492 a86.0,86.0 0 0,1 28.547481713284135,27.462654790039103" fill="none" id="id50" stroke="none" /><text fill="#e1ed5e" style="font-size:6.75px; font-family:Arial;" text-anchor="middle"><textPath startOffset="19.985693538727396" xlink:href="#id50">February</textPath></text><path d="M 111.90073688211348 82.69761687909136 l 10.140389950335724 -14.743029247190739 a38.89369776564898,38.89369776564898 0 0,0 0.5483434654692189,0.3841496398835262 l -10.392664555388594 14.566294764543278" fill="#ff4f07" stroke="none" /><path d="M 112.19680574252982 82.90503203632743 l 15.784805180433333 -22.123885922967176 a48.17768207402354,48.17768207402354 0 0,0 0.6709423223698238,0.4874681310403566 l -16.163292819156947 21.848898557110147" fill="#ffe815" stroke="none" /><path d="M 113.34407831869373 83.78471172551755 l 10.899105415085208 -13.24423703299127 a38.15226846324407,38.15226846324407 0 0,0 0.503505412023831,0.42167130252948737 l -11.125468364068155 13.054664573067964" fill="#ff4206" stroke="none" /><path d="M 113.6212207817346 84.01681056812373 l 23.70587268490952 -27.816556228126807 a57.54762920006822,57.54762920006822 0 0,0 0.7484102098911993,0.649013959060975 l -24.181176693447483 27.40437727564616" fill="#8eff24" stroke="none" /><path d="M 113.89432698308785 84.25364557470407 l 28.722367906366145 -32.55088105655583 a64.41122292341805,64.41122292341805 0 0,0 0.8250433924716547,0.7407321039232005 l -29.278422286433788 32.05164994386333" fill="#36ff2f" stroke="none" /><path d="M 114.42810811169701 84.74124197986012 l 25.98868202978069 -27.48489318799117 a58.82632611291148,58.82632611291148 0 0,0 0.7297735080539904,0.7020415365491461 l -26.457938781447098 27.03346856467972" fill="#7dff26" stroke="none" /><path d="M 114.94478906791727 85.2469230424477 l 39.15264541756937 -38.65039434896867 a76.01620330888623,76.01620330888623 0 0,0 0.9112378528788874,0.9391107074603315 l -39.812147534151364 37.970719445958224" fill="#41ffcb" stroke="none" /><path d="M 115.4437574822437 85.77008943001954 l 24.9021699296881 -22.94491165801686 a54.861291147876514,54.861291147876514 0 0,0 0.6339257705260679,0.6999966690412988 l -25.293439340830204 22.51286220170601" fill="#b3ff20" stroke="none" /><path d="M 115.68641384162765 86.03803664274999 l 31.566132032574373 -28.095980586674912 a63.258783899027804,63.258783899027804 0 0,0 0.7169573937209157,0.8196062396402334 l -32.04508128987314 27.54845879083173" fill="#44ff2d" stroke="none" /><path d="M 115.9244219780498 86.31012108654704 l 32.998428060177666 -28.36803025571694 a64.51599010745352,64.51599010745352 0 0,0 0.7167093215447164,0.848357774951923 l -33.4818479952095 27.79581353113591" fill="#34ff2f" stroke="none" /><path d="M 116.38621287248628 86.86637796730983 l 36.066157941838526 -28.90718497711928 a67.22113252601058,67.22113252601058 0 0,0 0.715891999394982,0.9091101392608482 l -36.55840402182747 28.28208244390539" fill="#33ff52" stroke="none" /><path d="M 116.82858285166822 87.43820079747576 l 27.985448201222074 -20.889909982024797 a55.92239467849224,55.92239467849224 0 0,0 0.5691765019315626,0.776356108981233 l -28.340887315667263 20.405091429372067" fill="#a4ff21" stroke="none" /><path d="M 117.04232023915458 87.72973835380427 l 27.800230388414533 -20.015825069796353 a55.25618284154869,55.25618284154869 0 0,0 0.5491080017543064,0.7766743270307738 l -28.14065100997272 19.534324242433787" fill="#aeff20" stroke="none" /><path d="M 117.45458315368197 88.32363383020206 l 29.883865887201015 -19.991022277406053 a56.953948490533854,56.953948490533854 0 0,0 0.5380883338177785,0.8195454485231121 l -30.22355085637672 19.473658764905267" fill="#96ff23" stroke="none" /><path d="M 117.65298651832404 88.62581576622439 l 30.83326086319245 -19.8665075295888 a57.67925976462562,57.67925976462562 0 0,0 0.5305733931184126,0.8392396904373667 l -31.17066185255682 19.33282019143723" fill="#8cff24" stroke="none" /><line stroke="#e1ed5e" stroke-width="0.3" x1="172.23445277983987" x2="176.4835382374775" y1="55.19839476539836" y2="52.563006222186495" /><path d="M 173.08426987136738 54.67131705675599 a86.0,86.0 0 0,1 12.851231095245387,41.99856678651699" fill="none" id="id51" stroke="none" /><text fill="#e1ed5e" style="font-size:6.75px; font-family:Arial;" text-anchor="middle"><textPath startOffset="22.20632615414155" xlink:href="#id51">March</textPath></text><path d="M 117.84615892207809 88.93136811851018 l 26.3697315848018 -16.355163763826823 a52.02989084086645,52.02989084086645 0 0,0 0.46550450028052864,0.7651670022941554 l -26.647351883368554 15.898828988325585" fill="#dcff1b" stroke="none" /><path d="M 118.21658344932153 89.55222093294921 l 16.603252227070087 -9.522483266169653 a40.140158621865936,40.140158621865936 0 0,0 0.33859630367491494,0.6023250426468102 l -16.764706172037435 9.235274713588048" fill="#ff6509" stroke="none" /><path d="M 118.3937258080291 89.86733742301442 l 32.96000056952989 -18.156874131640897 a58.630223435101485,58.630223435101485 0 0,0 0.47934926213422296,0.8881613821987009 l -33.26765793088258 17.58683176610974" fill="#7fff26" stroke="none" /><path d="M 119.04729006885535 91.15688171328212 l 33.46351890742701 -15.536165770482267 a57.894166808800954,57.894166808800954 0 0,0 0.4118692563129696,0.9074993109468392 l -33.72599048070333 14.957844450693365" fill="#89ff24" stroke="none" /><path d="M 119.196687751892 91.48605970444005 l 25.145925624173735 -11.15249214905345 a48.50810165444312,48.50810165444312 0 0,0 0.33195546931614783,0.7661989911075624 l -25.334171803332563 10.717994013359283" fill="#ffed16" stroke="none" /><path d="M 119.47837535516314 92.15188598940014 l 37.40276638960691 -15.07010567283571 a61.32462050144977,61.32462050144977 0 0,0 0.3860719229213605,0.9825109329571979 l -37.656631862409974 14.424045734982728" fill="#5cff2a" stroke="none" /><path d="M 119.61058180528143 92.48833698450437 l 25.106093643261538 -9.61667108891527 a47.88487122633464,47.88487122633464 0 0,0 0.2882108572952024,0.7722618081280647 l -25.267909089058364 9.183086143757873" fill="#ffe315" stroke="none" /><path d="M 119.85752413597 93.16781622104841 l 16.00828719574658 -5.507814537133662 a37.929302404912164,37.929302404912164 0 0,0 0.20709887900457805,0.6191992881808215 l -16.100723368522928 5.231442146030527" fill="#ff3e05" stroke="none" /><path d="M 120.08093135843002 93.85539295169968 l 54.71993857205478 -16.743870801154696 a78.22437318778782,78.22437318778782 0 0,0 0.3829049650399075,1.2909651898599965 l -55.00004943420639 15.79947622454817" fill="#44ffe7" stroke="none" /><path d="M 120.37134235888165 94.90015583598534 l 17.358030630971 -4.345479529656519 a38.89369776564898,38.89369776564898 0 0,0 0.15699570700457563,0.6508485614392672 l -17.430259138236394 4.046045736557845" fill="#ff4f07" stroke="none" /><path d="M 120.53481517161879 95.60439243477599 l 36.7572491083654 -7.868122547353703 a58.58992836431861,58.58992836431861 0 0,0 0.20261151667174815,0.9880057113070017 l -36.88723992095215 7.2342411798832895" fill="#80ff26" stroke="none" /><path d="M 120.67395015179393 96.31383870115 l 40.89126094751465 -7.290903889154689 a62.53615896298823,62.53615896298823 0 0,0 0.17983058225953713,1.0613702761213761 l -41.010703391294406 6.585947824717474" fill="#4dff2c" stroke="none" /><path d="M 120.78858239683441 97.02765380044208 l 26.80567677299474 -3.8326688160767213 a48.07828756609244,48.07828756609244 0 0,0 0.11008554402979102,0.8202651704700682 l -26.867678316082365 3.3706853035419884" fill="#ffe615" stroke="none" /><path d="M 120.83666639777658 97.38593545837742 l 26.793045876315475 -3.361322288809928 a48.00307010063108,48.00307010063108 0 0,0 0.0957996058410202,0.8207525190125062 l -26.846935835160085 2.899626031472569" fill="#ffe515" stroke="none" /><path d="M 120.87857604477298 97.74499172005257 l 27.789730139757328 -3.0014533284393234 a48.95134743305475,48.95134743305475 0 0,0 0.08327061104936061,0.8385236893646876 l -27.837277876488915 2.522654108370201" fill="#fff417" stroke="none" /><path d="M 120.94382443527127 98.46500227214037 l 46.28770954735395 -3.3924811202751424 a67.41186252771618,67.41186252771618 0 0,0 0.07485737111609189,1.158010398509242 l -46.339247509474454 2.595211657512865" fill="#33ff55" stroke="none" /><path d="M 120.96714384426684 98.82574320788733 l 27.483838005995533 -1.539221731465783 a48.52690602080846,48.52690602080846 0 0,0 0.03952953645753563,0.8344060378125436 l -27.506261150686566 1.0659045870302395" fill="#ffed16" stroke="none" /><line stroke="#e1ed5e" stroke-width="0.3" x1="184.98032266829074" x2="189.97916517819016" y1="98.17113171792111" y2="98.06355123074" /><path d="M 185.9800911702706 98.14961562048488 a86.0,86.0 0 0,1 -9.607161424134198,41.387399972396054" fill="none" id="id52" stroke="none" /><text fill="#e1ed5e" style="font-size:6.75px; font-family:Arial;" text-anchor="middle"><textPath startOffset="21.466115282336823" xlink:href="#id52">April</textPath></text><path d="M 120.99513854157772 99.54816195383933 l 18.915498987079793 -0.4070819579280547 a39.919878901586216,39.919878901586216 0 0,0 0.008871704318826668,0.6871232764543114 l -18.919703698516336 0.08142242341328061" fill="#ff6108" stroke="none" /><path d="M 120.99980553446 99.90962569577887 l 27.7603603607082 -0.11946888024319778 a48.76061743134914,48.76061743134914 0 0,0 -0.0036122392715931657,0.8393571923032813 l -27.758303824147102 -0.3583977902637682" fill="#fff116" stroke="none" /><path d="M 120.99824983174949 100.27111621757518 l 31.75524170786405 0.41000374264546824 a52.75788845301041,52.75788845301041 0 0,0 -0.019540359488518285,0.9079637230631936 l -31.743479285690526 -0.9565572814987766" fill="#d1ff1c" stroke="none" /><path d="M 120.95626037817324 101.35467743843564 l 17.85374732883768 1.1541214062742668 a38.891011427596794,38.891011427596794 0 0,0 -0.048934969473413185,0.6676787794504637 l -17.83123580069993 -1.4612733222215009" fill="#ff4f07" stroke="none" /><path d="M 120.92983693683757 101.71520430193887 l 29.75620941275961 2.438527282758222 a50.85596111205867,50.85596111205867 0 0,0 -0.07900934585706051,0.8718615477900599 l -29.709825470625475 -2.9503702190968526" fill="#edff19" stroke="none" /><path d="M 120.89721153311464 102.0752229133903 l 43.20141168173279 4.2901685361547806 a64.41390926147024,64.41390926147024 0 0,0 -0.11906665280239778,1.1024093290643668 l -43.12116272742934 -5.033174187103939" fill="#36ff2f" stroke="none" /><path d="M 120.76222939487914 103.15116336523771 l 19.3005868598738 2.929324259148354 a40.52161862527716,40.52161862527716 0 0,0 -0.11060133762103935,0.6887146349434333 l -19.247303767891474 -3.261118123784992" fill="#ff6b09" stroke="none" /><path d="M 120.49622156327973 104.57218783832717 l 18.376857019063745 4.0994112944100864 a39.8285434078117,39.8285434078117 0 0,0 -0.15502679037928283,0.6678513555258904 l -18.30356966275391 -4.4151313072845415" fill="#ff5f08" stroke="none" /><path d="M 120.41448212921028 104.9243191809786 l 29.9871437348271 7.233407447788328 a51.84721985331741,51.84721985331741 0 0,0 -0.21674282325608396,0.865779838438145 l -29.858189597275956 -7.748515125623869" fill="#dfff1b" stroke="none" /><path d="M 120.13307415673323 105.97154293290107 l 26.114963152303623 7.745792939572348 a48.23946784922394,48.23946784922394 0 0,0 -0.242973533666622,0.7940515663770926 l -25.97776284613087 -8.194171478501497" fill="#ffe915" stroke="none" /><path d="M 119.9155931802556 106.66101706037122 l 26.120745805538213 8.736407289781617 a48.54302404912161,48.54302404912161 0 0,0 -0.27186212961523604,0.7901586045039203 l -25.966492844979747 -9.184738597374839" fill="#ffed16" stroke="none" /><path d="M 119.79798401119884 107.00284435728193 l 35.157208004877475 12.435632615698575 a58.291744840525325,58.291744840525325 0 0,0 -0.34274363197517266,0.9430832726630938 l -34.93794011189708 -13.038963685367799" fill="#84ff25" stroke="none" /><path d="M 119.67450827220406 107.3425965602758 l 34.93794011189708 13.038963685367799 a58.291744840525325,58.291744840525325 0 0,0 -0.358926479064553,0.9370437764922395 l -34.70831935323902 -13.638431028693182" fill="#84ff25" stroke="none" /><path d="M 119.41010516605496 108.01547362559984 l 25.750750555665526 10.633866233723674 a48.86001193928023,48.86001193928023 0 0,0 -0.3277087971704615,0.7746067928972279 l -25.563890777302756 -11.075547552287066" fill="#fff216" stroke="none" /><path d="M 119.26925614724726 108.34839909993367 l 52.30109290452318 22.65943187392026 a77.99872079140371,77.99872079140371 0 0,0 -0.5443527576922115,1.227371763664845 l -51.9032990620997 -23.55635197407779" fill="#44ffe5" stroke="none" /><path d="M 118.97047184881838 109.00673069616215 l 24.84960324047844 11.7980030268677 a48.50810165444312,48.50810165444312 0 0,0 -0.36461170828363026,0.7512081134849522 l -24.642838275580097 -12.224000096317928" fill="#ffed16" stroke="none" /><path d="M 118.81262510543309 109.33194174019688 l 27.39590536418006 13.589650107078446 a51.58127238615043,51.58127238615043 0 0,0 -0.40140381654578533,0.7920078112347773 l -27.157922877848005 -14.059212130015919" fill="#e3ff1b" stroke="none" /><path d="M 118.64920377521936 109.65438752849418 l 26.847791994668086 13.898662448278213 a51.232048439365514,51.232048439365514 0 0,0 -0.4121679086824564,0.7796663536952887 l -26.604571577760737 -14.358743817059635" fill="#e8ff1a" stroke="none" /><line stroke="#e1ed5e" stroke-width="0.3" x1="174.80103733775053" x2="179.2010983576182" y1="140.37084112569926" y2="142.7455964860345" /><path d="M 175.68104954172406 140.8457921977663 a86.0,86.0 0 0,1 -30.038265399797805,32.042727171017184" fill="none" id="id53" stroke="none" /><text fill="#e1ed5e" style="font-size:6.75px; font-family:Arial;" text-anchor="middle"><textPath startOffset="22.206326154141568" xlink:href="#id53">May</textPath></text><path d="M 118.30583269289576 110.29060199501025 l 32.31074699342176 18.163447850138756 a58.066092444141226,58.066092444141226 0 0,0 -0.4972890865385808,0.8670654390018633 l -31.9933059107308 -18.716933134998932" fill="#87ff25" stroke="none" /><path d="M 117.94076556474637 110.91462005526583 l 23.5122560818898 14.30414665694163 a48.521533344704075,48.521533344704075 0 0,0 -0.4402413256998164,0.7098091929178715 l -23.262550116522018 -14.706752181224775" fill="#ffed16" stroke="none" /><path d="M 117.75023020441432 111.22182372390056 l 47.9374288003917 30.30638868228575 a77.7139689578714,77.7139689578714 0 0,0 -0.7245722461722905,1.1245522166986586 l -47.408651690842355 -31.12706249890586" fill="#43ffe1" stroke="none" /><path d="M 117.14729908036423 112.12312394758627 l 21.961294353480312 15.52661397278276 a47.89561657854341,47.89561657854341 0 0,0 -0.4817391465723076,0.6690935404924909 l -21.690775414532403 -15.902341118726383" fill="#ffe315" stroke="none" /><path d="M 116.93607887273984 112.41649034213515 l 15.269335309790684 11.194536576586447 a39.933310591847174,39.933310591847174 0 0,0 -0.411196595192976,0.5508650360482086 l -15.074377447902616 -11.455714492143972" fill="#ff6109" stroke="none" /><path d="M 116.71984013943494 112.70617746262583 l 36.72989272315999 27.912739071167483 a67.13248337028824,67.13248337028824 0 0,0 -0.707107031653769,0.9140311573995963 l -36.24397887428815 -28.54084822268033" fill="#33ff50" stroke="none" /><path d="M 116.498646956653 112.99209946851258 l 14.06451261970863 11.07530498782634 a38.90175677980556,38.90175677980556 0 0,0 -0.418809066548223,0.5225287053567497 l -13.871785641105552 -11.31576152676134" fill="#ff4f07" stroke="none" /><path d="M 115.80600337817218 113.82643327865902 l 22.645476441522476 19.80931938269415 a51.08698618454716,51.08698618454716 0 0,0 -0.5846811917901673,0.656895517139011 l -22.30113640008397 -20.196189069574025" fill="#eaff1a" stroke="none" /><path d="M 115.56566222782051 114.09645910891815 l 22.454456712834546 20.335037869427346 a51.29383421456592,51.29383421456592 0 0,0 -0.5983147113585646,0.6493524505890814 l -22.10109559348026 -20.718541574817763" fill="#e7ff1a" stroke="none" /><path d="M 115.07121518719521 114.62390073753431 l 34.743096821820494 33.71191990334802 a69.41049803854682,69.41049803854682 0 0,0 -0.8394022236406344,0.8503100208548857 l -34.157653973124326 -34.304970418183565" fill="#36ff71" stroke="none" /><path d="M 114.55890576462653 115.13401014063108 l 20.782384797987483 21.603328393224746 a50.976846324407305,50.976846324407305 0 0,0 -0.6376090859613557,0.6028991883289885 l -20.40743987763532 -21.957862218299656" fill="#ecff1a" stroke="none" /><path d="M 114.0293411484842 115.62618273729858 l 12.576874821155204 14.00839441706316 a39.82585706975951,39.82585706975951 0 0,0 -0.5140525290860739,0.4535915890557599 l -12.333879939162543 -14.222809147891208" fill="#ff5f08" stroke="none" /><path d="M 112.34349029814194 116.9893568818739 l 7.913897327428881 10.892545201938248 a34.46392631758485,34.46392631758485 0 0,0 -0.48294246144261166,0.344566623321665 l -7.725227538137385 -11.027156087104132" fill="#ff0000" stroke="none" /><line stroke="#e1ed5e" stroke-width="0.3" x1="143.8653032363475" x2="146.44561519142675" y1="172.8068346515853" y2="177.08958963109032" /><path d="M 144.38136562736335 173.6633856474863 a86.0,86.0 0 0,1 -40.68145358897372,12.25698825130547" fill="none" id="id54" stroke="none" /><text fill="#e1ed5e" style="font-size:6.75px; font-family:Arial;" text-anchor="middle"><textPath startOffset="21.466115282336833" xlink:href="#id54">June</textPath></text><path d="M 109.89434966115114 118.52300852407294 l 13.620130057604564 25.497965383875417 a49.907683779635,49.907683779635 0 0,0 -0.7612326261165686,0.39824093190841764 l -13.179206528961501 -25.728635734728552" fill="#fcff18" stroke="none" /><path d="M 109.2508944713604 118.85261126421891 l 11.856307996148704 24.162243594091237 a47.91442094490875,47.91442094490875 0 0,0 -0.7435572764785753,0.3569526786109944 l -11.438638051669896 -24.36275054920179" fill="#ffe415" stroke="none" /><path d="M 108.2653958097858 119.30500536409082 l 14.332982977672224 33.476716618917166 a57.41599863551083,57.41599863551083 0 0,0 -0.9118987726856044,0.3811737609397629 l -13.754612745489158 -33.71847542287691" fill="#90ff24" stroke="none" /><path d="M 107.59598834532513 119.57807347666477 l 13.733800862121614 35.397811340505704 a58.96870202967764,58.96870202967764 0 0,0 -0.9494797237784779,0.3590119877826168 l -13.122450917582862 -35.62897157839495" fill="#7bff26" stroke="none" /><path d="M 107.2578585660854 119.70592522655815 l 10.332514239548583 28.053970899671533 a50.89625618284155,50.89625618284155 0 0,0 -0.8247143055332808,0.29571320803469664 l -9.848080373385567 -28.22767164874619" fill="#edff1a" stroke="none" /><path d="M 106.2309692047433 120.05430185196036 l 16.866021026654657 54.28309234020311 a77.8429131843766,77.8429131843766 0 0,0 -1.2830181102660987,0.3865628318651315 l -15.929127941948314 -54.56537054117397" fill="#43ffe3" stroke="none" /><path d="M 105.18746579009965 120.34920634021253 l 8.188639926210525 32.12210552254255 a54.149411564045714,54.149411564045714 0 0,0 -0.9051891934593441,0.22247348060864666 l -7.63449744800797 -32.25830026146522" fill="#bdff1f" stroke="none" /><path d="M 104.83641907484287 120.43548508189849 l 5.098532696031902 21.543002630043343 a43.13811188811189,43.13811188811189 0 0,0 -0.7240626301807466,0.16479429728360281 l -4.7269499164582935 -21.62757366090463" fill="#ff970d" stroke="none" /><path d="M 104.48393922423573 120.51570834832081 l 6.320381158773684 28.918120879687915 a50.600758997100456,50.600758997100456 0 0,0 -0.8525228853013507,0.1786544595396505 l -5.821666812042955 -29.022631319954108" fill="#f1ff19" stroke="none" /><path d="M 103.7750983002368 120.6578951692458 l 11.32529490071043 61.973685507737414 a84.0,84.0 0 0,0 -1.4246041141118002,0.24768568591597528 l -10.256841815126581 -62.15944977217439" fill="#4dd2ff" stroke="none" /><path d="M 103.06178313531738 120.77559828337769 l 4.387050089377018 29.76814041942438 a51.08967252259935,51.08967252259935 0 0,0 -0.8711310007605061,0.12073081894164933 l -3.8739904974296815 -29.83924580385863" fill="#eaff1a" stroke="none" /><line stroke="#e1ed5e" stroke-width="0.3" x1="102.19456741930631" x2="102.32365962044197" y1="184.97166512339345" y2="189.96999836594603" /><path d="M 102.22038585953345 185.97133177190398 a86.0,86.0 0 0,1 -42.740103519485714,-10.115201625700543" fill="none" id="id55" stroke="none" /><text fill="#e1ed5e" style="font-size:6.75px; font-family:Arial;" text-anchor="middle"><textPath startOffset="22.20632615414155" xlink:href="#id55">July</textPath></text><line stroke="#e1ed5e" stroke-width="0.3" x1="58.666819895761336" x2="56.23545636021788" y1="174.27360380694188" y2="178.64263932499728" /><path d="M 58.180547188652646 175.14741091055294 a86.0,86.0 0 0,1 -31.652253787137756,-30.449443065178592" fill="none" id="id56" stroke="none" /><text fill="#e1ed5e" style="font-size:6.75px; font-family:Arial;" text-anchor="middle"><textPath startOffset="22.20632615414155" xlink:href="#id56">August</textPath></text><line stroke="#e1ed5e" stroke-width="0.3" x1="26.63291911575756" x2="22.317208475507996" y1="142.92168965132927" y2="145.44649492493687" /><path d="M 25.769776987707644 143.4266507060508 a86.0,86.0 0 0,1 -11.730757126820373,-40.83630448921669" fill="none" id="id57" stroke="none" /><text fill="#e1ed5e" style="font-size:6.75px; font-family:Arial;" text-anchor="middle"><textPath startOffset="21.46611528233685" xlink:href="#id57">September</textPath></text><line stroke="#e1ed5e" stroke-width="0.3" x1="15.007084014347285" x2="10.007500721073583" y1="101.09737516637583" y2="101.16192664675087" /><path d="M 14.007167355692545 101.11028546245083 a86.0,86.0 0 0,1 10.666146001902534,-42.60595125391555" fill="none" id="id58" stroke="none" /><text fill="#e1ed5e" style="font-size:6.75px; font-family:Arial;" text-anchor="middle"><textPath startOffset="22.20632615414155" xlink:href="#id58">October</textPath></text><line stroke="#e1ed5e" stroke-width="0.3" x1="26.266209847984243" x2="21.928928074336255" y1="57.711370442889674" y2="55.22380399835377" /><path d="M 25.398753493254645 57.213857153982495 a86.0,86.0 0 0,1 29.58750427330803,-30.492523968695096" fill="none" id="id59" stroke="none" /><text fill="#e1ed5e" style="font-size:6.75px; font-family:Arial;" text-anchor="middle"><textPath startOffset="21.46611528233685" xlink:href="#id59">November</textPath></text><line stroke="#e1ed5e" stroke-width="0.3" x1="56.762969772571076" x2="54.21961505331055" y1="26.818313649435495" y2="22.513508569990535" /><path d="M 56.25429882871897 25.957352633546506 a86.0,86.0 0 0,1 42.265352541879196,-11.944610805530505" fill="none" id="id60" stroke="none" /><text fill="#e1ed5e" style="font-size:6.75px; font-family:Arial;" text-anchor="middle"><textPath startOffset="22.20632615414155" xlink:href="#id60">December</textPath></text></svg>