<?xml version="1.0" encoding="utf-8" ?>
<svg baseProfile="full" height="200mm" version="1.1" viewBox="0,0,200,200" width="200mm" xmlns="http://www.w3.org/2000/svg" xmlns:ev="http://www.w3.org/2001/xml-events" xmlns:xlink="http://www.w3.org/1999/xlink"><defs /><rect fill="#1a1a1a" height="200" width="200" x="0" y="0" /><text alignment-baseline="middle" fill="#e1ed5e" style="dominant-baseline: central; font-size:9.0px; font-family:Arial;" text-anchor="middle" x="100.0" y="100.0">2024</text><line stroke="#e1ed5e" stroke-width="0.3" x1="100.0" x2="100.0" y1="15.0" y2="10.0" /><path d="M 100.0 14.0 a86.0,86.0 0 0,1 42.35913384403234,11.155469271406648" fill="none" id="id37" stroke="none" /><text fill="#e1ed5e" style="font-size:6.75px; font-family:Arial;" text-anchor="middle"><textPath startOffset="22.145653131862478" xlink:href="#id37">January</textPath></text><path d="M 100.0 79.0 l 0.0 -10.865400000000001 a31.8654,31.8654 0 0,0 0.5470119641656522,0.004695439820235534 l -0.18651903931679747 10.8637989583742" fill="#ff6609" stroke="none" /><path d="M 104.64783097203109 79.52079915486377 l 2.4108299251925223 -10.622561478372162 a31.892699999999998,31.892699999999998 0 0,0 0.5328629981152366,0.1257542166444743 l -2.5928250770476438 10.57961111808146" fill="#ff6709" stroke="none" /><path d="M 106.72888874123014 80.10723608172694 l 4.060211466458262 -12.003293748285959 a33.6714,33.6714 0 0,0 0.5459484451030177,0.18990920921952206 l -4.265665683606298 11.931826106497846" fill="#ff800b" stroke="none" /><path d="M 109.3889696526874 81.21577127319529 l 4.760207613912507 -9.523603964489984 a31.647,31.647 0 0,0 0.48385667687763667,0.24706066682903927 l -4.922991512503722 9.440485345988112" fill="#ff6309" stroke="none" /><line stroke="#e1ed5e" stroke-width="0.3" x1="143.13028292997686" x2="145.6673583964461" y1="26.7553504044142" y2="22.446841604673864" /><path d="M 143.63769802327073 25.89364864446614 a86.0,86.0 0 0,1 29.32050498858742,28.57503671076993" fill="none" id="id38" stroke="none" /><text fill="#e1ed5e" style="font-size:6.75px; font-family:Arial;" text-anchor="middle"><textPath startOffset="20.669276256404974" xlink:href="#id38">February</textPath></text><path d="M 111.5731344415666 82.4767994020092 l 3.4893000341323295 -5.2832449802942225 a27.3315,27.3315 0 0,0 0.3892834810417532,0.26192729921465985 l -3.5794798032710835 5.222568007022444" fill="#ff2403" stroke="none" /><path d="M 113.59037401385872 83.9905735841838 l 7.280363359224123 -8.57624973095274 a32.249700000000004,32.249700000000004 0 0,0 0.4189704729281756,0.36189671577392957 l -7.4265133119151585 8.45000888271409" fill="#ff6c09" stroke="none" /><path d="M 114.39649973595853 84.71141617570332 l 7.499136712460796 -7.963823314076141 a31.9389,31.9389 0 0,0 0.39593211624744684,0.3792940110182431 l -7.634741314573556 7.833917172752317" fill="#ff6709" stroke="none" /><path d="M 115.6541949942343 86.00192230759917 l 9.600717789963898 -8.585021048749429 a33.8793,33.8793 0 0,0 0.3839475505156064,0.43686183220703323 l -9.746676404438094 8.418946938731096" fill="#ff830c" stroke="none" /><path d="M 116.1254893667686 86.54754324733833 l 8.078870172751069 -6.739680833083501 a31.521,31.521 0 0,0 0.34305832432282,0.4184753751705587 l -8.193375316312517 6.600003176214447" fill="#ff6109" stroke="none" /><line stroke="#e1ed5e" stroke-width="0.3" x1="172.87174338648825" x2="177.1583165268699" y1="56.24261187166439" y2="53.66864786411523" /><path d="M 173.72905801456457 55.72781907015455 a86.0,86.0 0 0,1 12.242430191666344,42.057860355516425" fill="none" id="id39" stroke="none" /><text fill="#e1ed5e" style="font-size:6.75px; font-family:Arial;" text-anchor="middle"><textPath startOffset="22.145653131862474" xlink:href="#id39">March</textPath></text><path d="M 118.36410011445183 89.81374322990088 l 14.748208801916267 -8.180582812066604 a37.8651,37.8651 0 0,0 0.3104120501085781,0.5711232097619428 l -14.886466201640186 7.926204768830057" fill="#ffba11" stroke="none" /><path d="M 118.8641267826498 90.77261029715802 l 17.017328770628396 -8.324028250933743 a39.9441,39.9441 0 0,0 0.29600621343445144,0.6185391398219666 l -17.157714242022756 8.030676609046672" fill="#ffd614" stroke="none" /><path d="M 119.16976305983485 91.42560881287824 l 19.641339231106784 -8.785321210324954 a42.5166,42.5166 0 0,0 0.29228364246844185,0.6688021735318154 l -19.789256755592195 8.44685696701729" fill="#fff717" stroke="none" /><path d="M 119.71291397450082 92.76114493625339 l 9.891940232404517 -3.6324574709880495 a31.5378,31.5378 0 0,0 0.18225819262800605,0.5098086025071391 l -9.952838595076466 3.4621139120999933" fill="#ff6209" stroke="none" /><path d="M 119.83427380445688 93.10060997987247 l 22.230254080035277 -7.732836334558932 a44.5368,44.5368 0 0,0 0.24498331792932834,0.724249648775198 l -22.35972281953697 7.350085011309573" fill="#edff1a" stroke="none" /><path d="M 120.05942366710727 93.78553927170692 l 12.051701739198043 -3.733648005558479 a33.6168,33.6168 0 0,0 0.16604086693819334,0.5526960441719698 l -12.114018926139863 3.526214357795786" fill="#ff7f0b" stroke="none" /><path d="M 120.26092885502905 94.47779374421319 l 33.77294230844793 -9.204965607771037 a56.0049,56.0049 0 0,0 0.24484947364186482,0.9297333328881835 l -33.925981262894524 8.623851770510056" fill="#67ff28" stroke="none" /><path d="M 120.592083275326 95.88100663000786 l 10.39900205403963 -2.080091651846029 a31.605,31.605 0 0,0 0.10184893011535386,0.5329166396248617 l -10.43317727643714 1.9012724471878528" fill="#ff6309" stroke="none" /><path d="M 120.77682067341334 96.94652285012252 l 44.31488081432332 -6.512761412973687 a65.7909,65.7909 0 0,0 0.15462579408417462,1.1187952192399515 l -44.4201511249627 5.7510778855336495" fill="#35ff68" stroke="none" /><path d="M 120.96210409425399 98.7389718711861 l 15.0864263166346 -0.907561944307372 a36.1137,36.1137 0 0,0 0.031914898611531975,0.6191405069300363 l -15.099782804702706 0.648449644000605" fill="#ffa20f" stroke="none" /><line stroke="#e1ed5e" stroke-width="0.3" x1="184.99686870605535" x2="189.99668451229388" y1="99.2704041080226" y2="99.22748670261217" /><path d="M 185.99683186730306 99.26182062694052 a86.0,86.0 0 0,1 -10.086455211305974,41.156179273409016" fill="none" id="id40" stroke="none" /><text fill="#e1ed5e" style="font-size:6.75px; font-family:Arial;" text-anchor="middle"><textPath startOffset="21.40746469413373" xlink:href="#id40">April</textPath></text><path d="M 120.99922638620191 99.81974689727618 l 10.594109711838863 -0.0909376903241713 a31.5945,31.5945 0 0,0 0.0,0.5423815860959951 l -10.594109711838863 -0.09093769032417001" fill="#ff6309" stroke="none" /><path d="M 120.99303781780057 100.54070618675476 l 12.608418513371026 0.32474813576490563 a33.6126,33.6126 0 0,0 -0.01980792599284861,0.5766861529386844 l -12.600985900381332 -0.5411405532677007" fill="#ff7f0b" stroke="none" /><path d="M 120.98066250479742 100.90099992219065 l 12.752046670415876 0.5476277527074735 a33.7638,33.7638 0 0,0 -0.029838212471722463,0.5788533506088925 l -12.740766868487581 -0.7664528966930967" fill="#ff810b" stroke="none" /><path d="M 120.86939407059847 102.33845913500097 l 12.66563526144621 1.4192108490320956 a33.7449,33.7449 0 0,0 -0.06944686558934647,0.5751196705517747 l -12.6394063095972 -1.6364241965072788" fill="#ff810b" stroke="none" /><path d="M 120.77682067341334 103.0534771498775 l 11.152997337488285 1.6391065340542357 a32.272800000000004,32.272800000000004 0 0,0 -0.08525937088191048,0.5474263220077469 l -11.123216474468107 -1.8303210379934332" fill="#ff6c0a" stroke="none" /><path d="M 120.65975698304385 103.76489593502545 l 8.282496574502277 1.5093467803517027 a29.4189,29.4189 0 0,0 -0.09480409714192312,0.49605509664482966 l -8.255366185078195 -1.6513044420298468" fill="#ff4306" stroke="none" /><path d="M 120.51834098615036 104.47187691870673 l 28.59435999829915 6.232007673909692 a50.2656,50.2656 0 0,0 -0.19098328177557528,0.841507578283569 l -28.48316585496591 -6.721949586132278" fill="#a8ff21" stroke="none" /><path d="M 120.35273937422433 105.17358676015961 l 11.50947411612386 2.925663312870259 a32.8755,32.8755 0 0,0 -0.14372936780019477,0.5457638204043765 l -11.457555267518934 -3.122807637647439" fill="#ff750a" stroke="none" /><path d="M 120.16314734710363 105.8691983318838 l 14.346079337464236 4.175934613135321 a35.9415,35.9415 0 0,0 -0.1775230783137878,0.5909165914544767 l -14.272279939146818 -4.4215888081805215" fill="#ffa00e" stroke="none" /><path d="M 119.94978838288452 106.5578916946017 l 26.223996829301704 8.620348632553922 a48.6045,48.6045 0 0,0 -0.26735849177076126,0.7903978744295557 l -26.07215291595858 -9.069248181457638" fill="#bbff1f" stroke="none" /><path d="M 119.4528033332814 107.91128576633889 l 21.621790904942266 8.79339412928567 a44.341499999999996,44.341499999999996 0 0,0 -0.2928104792612108,0.7026385563147418 l -21.467654581144572 -9.163265195041689" fill="#f0ff19" stroke="none" /><path d="M 119.0197475246899 108.90220220490707 l 37.704747492945266 17.647725651007782 a62.6304,62.6304 0 0,0 -0.46412330106035854,0.9698391938410353 l -37.39624493392499 -18.292377346913923" fill="#31ff41" stroke="none" /><path d="M 118.8641267826498 109.22738970284198 l 12.007016697156608 5.873233545858914 a34.3665,34.3665 0 0,0 -0.26377121202900006,0.52771911738803 l -11.904425571915876 -6.078484519410691" fill="#ff8a0c" stroke="none" /><path d="M 118.5362547648365 109.86951160357373 l 13.392444067594367 7.1307221335820135 a36.1725,36.1725 0 0,0 -0.29653638528757864,0.5455935493399958 l -13.26806233269145 -7.359570516396612" fill="#ffa30f" stroke="none" /><line stroke="#e1ed5e" stroke-width="0.3" x1="174.33088141563837" x2="178.70328620479359" y1="141.23008692659167" y2="143.65538615756765" /><path d="M 175.20536237346943 141.71514677278685 a86.0,86.0 0 0,1 -30.301960400862466,31.631185727798858" fill="none" id="id41" stroke="none" /><text fill="#e1ed5e" style="font-size:6.75px; font-family:Arial;" text-anchor="middle"><textPath startOffset="22.145653131862474" xlink:href="#id41">May</textPath></text><path d="M 118.18653347947321 110.5 l 22.342156379532845 12.899249999999997 a46.798500000000004,46.798500000000004 0 0,0 -0.4076512369758179,0.692280921457825 l -22.117431432427264 -13.28088208975137" fill="#d1ff1c" stroke="none" /><path d="M 117.423217284605 111.72311816256416 l 10.636874152251348 7.156963638245415 a33.820499999999996,33.820499999999996 0 0,0 -0.3282364288589265,0.478906759169694 l -10.5124479865771 -7.338505132485153" fill="#ff820c" stroke="none" /><path d="M 115.16444852881244 114.52719865689866 l 7.7262865254299395 7.401607715689867 a31.6995,31.6995 0 0,0 -0.37981012366285666,0.38971864632375053 l -7.598089600616276 -7.533149054081354" fill="#ff6409" stroke="none" /><path d="M 114.65682725009322 115.03919595460226 l 10.274435902315346 10.542476364176187 a35.721000000000004,35.721000000000004 0 0,0 -0.44281710154310416,0.4242087663502082 l -10.091946314906929 -10.717297260831975" fill="#ff9d0e" stroke="none" /><path d="M 112.45986205192187 116.90419585922612 l 4.698613979779738 6.374572258514168 a28.9191,28.9191 0 0,0 -0.40213935061400885,0.2911178777421356 l -4.5884936187917615 -6.45429090762938" fill="#ff3b05" stroke="none" /><line stroke="#e1ed5e" stroke-width="0.3" x1="143.1302829299769" x2="145.66735839644613" y1="173.24464959558577" y2="177.55315839532614" /><path d="M 143.63769802327073 174.10635135553383 a86.0,86.0 0 0,1 -40.68552437913181,11.842963189579606" fill="none" id="id42" stroke="none" /><text fill="#e1ed5e" style="font-size:6.75px; font-family:Arial;" text-anchor="middle"><textPath startOffset="21.407464694133747" xlink:href="#id42">June</textPath></text><path d="M 107.74402155503746 119.51999308798841 l 2.4393667898368023 6.148797822716349 a27.615000000000002,27.615000000000002 0 0,0 -0.4421394748210089,0.17102904709847666 l -2.333455052522264 -6.189766757952866" fill="#ff2803" stroke="none" /><path d="M 105.69591212413111 120.21278271476187 l 3.4352046020634726 12.190329255272886 a33.6651,33.6651 0 0,0 -0.5575879961615903,0.1519730878375259 l -3.2254352049671873 -12.247502837254554" fill="#ff800b" stroke="none" /><path d="M 104.9986988182912 120.39639698878246 l 5.009695955691442 20.44126906215778 a42.0462,42.0462 0 0,0 -0.702507601782014,0.16578988119152802 l -4.65805620016955 -20.52425508699553" fill="#fff116" stroke="none" /><path d="M 104.64783097203109 120.47920084513623 l 2.8151912197592264 12.404251951899019 a33.7197,33.7197 0 0,0 -0.5655878876346536,0.12326724767468779 l -2.601840915505437 -12.450750657707426" fill="#ff810b" stroke="none" /><path d="M 103.94208987418118 120.62667999033965 l 4.151414846500195 21.721956697826688 a43.1151,43.1151 0 0,0 -0.7281632585463245,0.13269560210151735 l -3.777916854402814 -21.790020473859567" fill="#ffff18" stroke="none" /><path d="M 103.2317021107853 120.74984581791261 l 3.3050617487001315 21.220867317979234 a42.4767,42.4767 0 0,0 -0.7214463088873345,0.10602776303835054 l -2.9402903342051117 -21.274476154316467" fill="#fff717" stroke="none" /><path d="M 102.875027216393 120.80226474461374 l 1.8449049647593825 13.348813286618638 a34.4757,34.4757 0 0,0 -0.5869441598019142,0.07599167251781204 l -1.615482983066693 -13.378516555336844" fill="#ff8b0c" stroke="none" /><path d="M 102.15924093988457 120.88869738790638 l 1.2288240188883057 11.887757683457512 a32.9511,32.9511 0 0,0 -0.5631506750925724,0.05333095443681625 l -1.024573780410718 -11.907100393399512" fill="#ff760a" stroke="none" /><path d="M 101.80034050326958 120.92268563240118 l 2.208477695360794 25.665858465266535 a46.7607,46.7607 0 0,0 -0.8003450193339824,0.06195176623211404 l -1.767563681251576 -25.699987998493704" fill="#d2ff1c" stroke="none" /><path d="M 100.72087961077811 120.9876233191556 l 0.5875889707452383 17.107011767443737 a38.1171,38.1171 0 0,0 -0.6541378736301928,0.016848271237933136 l -0.2938377830443015 -17.114577756031718" fill="#ffbd11" stroke="none" /><line stroke="#e1ed5e" stroke-width="0.3" x1="101.45913802915013" x2="101.54496967792366" y1="184.9874750549273" y2="189.98673829345242" /><path d="M 101.47630435890484 185.9873277026323 a86.0,86.0 0 0,1 -42.54439059252881,-10.42667462771756" fill="none" id="id43" stroke="none" /><text fill="#e1ed5e" style="font-size:6.75px; font-family:Arial;" text-anchor="middle"><textPath startOffset="22.145653131862474" xlink:href="#id43">July</textPath></text><path d="M 100.0 121.0 l 2.2294572513797645e-15 18.204899999999995 a39.204899999999995,39.204899999999995 0 0,0 -0.673004241400322,-0.005776931989190534 l 0.31251131655146763 -18.20221746620524" fill="#ffcc13" stroke="none" /><path d="M 98.55909050195518 120.95050786540614 l -1.7851427771277282 25.955584194451657 a47.0169,47.0169 0 0,0 -0.8047300775977239,-0.062291197474774386 l 2.2304418495006884 -25.92111522998183" fill="#ceff1d" stroke="none" /><path d="M 98.19965949673042 120.92268563240118 l -0.34062442321860525 3.958572121650303 a24.9732,24.9732 0 0,0 -0.4268043992225398,-0.04041882035323554 l 0.40852838582616036 -3.952141545791884" fill="#ff0000" stroke="none" /><path d="M 97.84075906011543 120.88869738790638 l -1.6645588405570149 16.103096816337025 a37.188900000000004,37.188900000000004 0 0,0 -0.6344498918551447,-0.07109143371820532 l 1.9407446340129588 -16.072149622111848" fill="#ffb110" stroke="none" /><path d="M 97.12497278360702 120.80226474461374 l -2.5915495328566287 18.751161440794824 a39.9294,39.9294 0 0,0 -0.6781816441975479,-0.09966934722950498 l 2.9130562826618616 -18.70391102026644" fill="#ffd614" stroke="none" /><path d="M 96.05791012581884 120.62667999033965 l -3.5029410621973884 18.32886783941582 a39.6606,39.6606 0 0,0 -0.6676267374262326,-0.13354404546251983 l 3.817064285154579 -18.26603439729044" fill="#ffd213" stroke="none" /><path d="M 95.70440661134978 120.55596938700252 l -4.954107855130291 23.707199494030007 a45.219300000000004,45.219300000000004 0 0,0 -0.7584731882940136,-0.1653057012006634 l 5.360343460043441 -23.618662334695625" fill="#e5ff1a" stroke="none" /><path d="M 94.6519064749342 120.30758222061772 l -2.7943788668468854 10.610711710272762 a31.9725,31.9725 0 0,0 -0.5295538170769267,-0.14433224766554018 l 2.9761140848585073 -10.561178968463077" fill="#ff6809" stroke="none" /><path d="M 94.30408787586889 120.21278271476187 l -5.701608036255245 20.232995497476633 a42.021,42.021 0 0,0 -0.6926261152244049,-0.2016133677006656 l 6.048094163861257 -20.13213843547345" fill="#fff116" stroke="none" /><path d="M 93.61358852112213 120.00534299687104 l -3.2098104092840196 10.054685390227382 a31.5546,31.5546 0 0,0 -0.5146063344105005,-0.1691613235013224 l 3.3819394813422634 -9.99810314532404" fill="#ff6209" stroke="none" /><path d="M 92.93061703081489 119.77432235084164 l -5.3197106843117945 14.88017756900834 a36.8025,36.8025 0 0,0 -0.5930650117261568,-0.21778168711221899 l 5.57436484769207 -14.786665032887402" fill="#ffac0f" stroke="none" /><path d="M 91.92203290615298 119.3841803445677 l -4.809621607676515 11.541340977155606 a33.5034,33.5034 0 0,0 -0.5289786810730941,-0.22578954393338702 l 5.007035363920041 -11.457076783562815" fill="#ff7e0b" stroke="none" /><path d="M 91.26138138417905 119.09545874513695 l -2.870636215297183 6.272858197777489 a27.8985,27.8985 0 0,0 -0.43377024362172567,-0.20302637635855544 l 2.977895172790398 -6.222655589848407" fill="#ff2c04" stroke="none" /><path d="M 90.93487009805054 118.94263497670748 l -6.8323884070993115 14.27706398194443 a36.8277,36.8277 0 0,0 -0.5679177708691089,-0.27779704045450326 l 7.076466427230489 -14.157673191392707" fill="#ffac0f" stroke="none" /><path d="M 90.28995756902619 118.62028667847754 l -20.63384016581935 39.568109191764776 a65.625,65.625 0 0,0 -0.9944099506669942,-0.5294672883669589 l 21.310038932272906 -39.208071435675244" fill="#35ff66" stroke="none" /><line stroke="#e1ed5e" stroke-width="0.3" x1="58.13341422392154" x2="55.67067388415222" y1="173.97424548756322" y2="178.32567169271397" /><path d="M 57.64086615596768 174.84453072859336 a86.0,86.0 0 0,1 -31.369924170532247,-30.572349798747897" fill="none" id="id44" stroke="none" /><text fill="#e1ed5e" style="font-size:6.75px; font-family:Arial;" text-anchor="middle"><textPath startOffset="22.145653131862474" xlink:href="#id44">August</textPath></text><path d="M 89.65649057296885 118.27599006163327 l -8.29549456047898 14.657344029429876 a37.842,37.842 0 0,0 -0.5625979729155597,-0.32481609110833864 l 8.54588500125494 -14.512781041045365" fill="#ffba11" stroke="none" /><path d="M 89.03521579738668 117.91015095944536 l -23.14337001645594 37.802955630101316 a65.3247,65.3247 0 0,0 -0.9513636445738413,-0.5937212767649976 l 23.788897789819494 -37.40009855649477" fill="#35ff62" stroke="none" /><path d="M 88.1277618465304 117.32195027204791 l -9.704367466646048 14.158962152371972 a38.165400000000005,38.165400000000005 0 0,0 -0.5372323613007988,-0.37502991175575856 l 9.945994919120613 -13.990287424811084" fill="#ffbe11" stroke="none" /><path d="M 87.54013794807813 116.9041958592261 l -8.320695878273428 11.288621994791198 a35.0238,35.0238 0 0,0 -0.4809051450946239,-0.360880186329076 l 8.513254012278818 -11.144122781198107" fill="#ff930d" stroke="none" /><path d="M 86.40962598614128 116.0094264158162 l -11.21749471103899 13.21418056361469 a38.3334,38.3334 0 0,0 -0.49800657764087064,-0.43016622059889587 l 11.442680768442722 -13.019670210551071" fill="#ffc011" stroke="none" /><path d="M 85.86807049272751 115.53346607816431 l -11.322501921226717 12.445413021825237 a37.825199999999995,37.825199999999995 0 0,0 -0.47654389590928214,-0.441081915666362 l 11.534475588449967 -12.249213360026499" fill="#ffb911" stroke="none" /><path d="M 85.34317274990678 115.03919595460226 l -10.473768752916607 10.747009429158776 a36.0066,36.0066 0 0,0 -0.43895145374516625,-0.43519975446194054 l 10.656712126791735 -10.565629664468178" fill="#ffa10e" stroke="none" /><path d="M 85.08716467003676 114.78537596483092 l -12.602837137351942 12.495121227878617 a38.7471,38.7471 0 0,0 -0.4642515131966415,-0.4763629508658179 l 12.815475451699394 -12.276935584945061" fill="#ffc612" stroke="none" /><path d="M 84.83555147118756 114.52719865689866 l -11.109474992207991 10.642625736043959 a36.3846,36.3846 0 0,0 -0.42820198246856805,-0.4547356665001763 l 11.290532808412811 -10.450348609599292" fill="#ffa60f" stroke="none" /><path d="M 84.3458050057657 113.99807769240083 l -12.534313931883409 11.208260808305342 a37.8147,37.8147 0 0,0 -0.42854667712976247,-0.48760745134519184 l 12.724871672971764 -10.99144107914885" fill="#ffb911" stroke="none" /><path d="M 84.1078160697243 113.72728997021213 l -8.195599252843186 7.079163437638394 a31.829700000000003,31.829700000000003 0 0,0 -0.3536210500922701,-0.4165647078412105 l 8.315914866442569 -6.93743194734763" fill="#ff6609" stroke="none" /><path d="M 83.20337586046588 112.60449989151573 l -6.740485267195042 5.0581858064652625 a29.427300000000002,29.427300000000002 0 0,0 -0.2997352399571785,-0.406648418821519 l 6.8263225267360506 -4.941731078374864" fill="#ff4306" stroke="none" /><path d="M 82.78059297857968 112.02048342749411 l -9.56538060039899 6.677378543972979 a32.6655,32.6655 0 0,0 -0.317026864383762,-0.46255166959853566 l 9.678597201598077 -6.512192139304392" fill="#ff720a" stroke="none" /><path d="M 82.37810715431573 111.42229804090323 l -13.704546066088655 8.883121186410435 a37.3317,37.3317 0 0,0 -0.34395349959665544,-0.5407520305237249 l 13.8550172573112 -8.646555481208038" fill="#ffb310" stroke="none" /><path d="M 81.99639281039703 110.81064883170644 l -23.667542011452074 14.2116789541613 a48.6066,48.6066 0 0,0 -0.4234011905336343,-0.7190277858677288 l 23.908016912115478 -13.803300000000013" fill="#bbff1f" stroke="none" /><line stroke="#e1ed5e" stroke-width="0.3" x1="26.387840678322732" x2="22.057713659400548" y1="142.50000000000003" y2="145.00000000000006" /><path d="M 25.521815274538298 143.00000000000003 a86.0,86.0 0 0,1 -11.493303480769221,-40.785679425670985" fill="none" id="id45" stroke="none" /><text fill="#e1ed5e" style="font-size:6.75px; font-family:Arial;" text-anchor="middle"><textPath startOffset="21.40746469413373" xlink:href="#id45">September</textPath></text><path d="M 81.81346652052679 110.50000000000001 l -16.41698377192046 9.478350000000008 a39.9567,39.9567 0 0,0 -0.33785603637382344,-0.5969592435324014 l 16.577273173315664 -9.195133986368484" fill="#ffd614" stroke="none" /><path d="M 81.4637452351635 109.86951160357371 l -13.145911879222044 6.999457629254481 a35.8932,35.8932 0 0,0 -0.28490984850801676,-0.5463522012857837 l 13.26412979670501 -6.772759184864194" fill="#ff9f0e" stroke="none" /><path d="M 81.29705330413844 109.54985784667822 l -9.390749535992084 4.794983624817135 a31.5441,31.5441 0 0,0 -0.24210860836464987,-0.48437939885642695 l 9.47167805756847 -4.633072369796955" fill="#ff6209" stroke="none" /><path d="M 81.1358732173502 109.22738970284198 l -19.945041247295645 9.756119132814819 a43.2033,43.2033 0 0,0 -0.32015855259907305,-0.6690082395014602 l 20.10957905785463 -9.412298391248253" fill="#feff18" stroke="none" /><path d="M 80.68587082218212 108.24405325689762 l -21.473448819897914 9.16573841101877 a44.3478,44.3478 0 0,0 -0.29285208150784986,-0.7027383865619021 l 21.627626745942248 -8.795767515015587" fill="#efff19" stroke="none" /><path d="M 79.83685265289637 105.86919833188381 l -6.377603505888878 1.8564274323748475 a27.6423,27.6423 0 0,0 -0.12870979888223685,-0.4567456697664868 l 6.408531796845691 -1.746673838705365" fill="#ff2803" stroke="none" /><path d="M 79.56144815229197 104.8234425847677 l -15.347308582443965 3.6219230369020696 a36.7689,36.7689 0 0,0 -0.1397028024986819,-0.615556324706159 l 15.407222246500313 -3.3579323782568844" fill="#ffab0f" stroke="none" /><path d="M 79.407916724674 104.11899336999214 l -10.32692976257599 2.0656751750510582 a31.5315,31.5315 0 0,0 -0.1016120721383414,-0.5316772986024783 l 10.360868126996488 -1.8880953114152654" fill="#ff6209" stroke="none" /><path d="M 79.2786578344484 103.40968896794605 l -31.102734590492965 5.117943140887016 a52.521,52.521 0 0,0 -0.1387517481621929,-0.8908857569894436 l 31.186007830793425 -4.5832692019661225" fill="#8eff24" stroke="none" /><path d="M 79.22317932658666 103.0534771498775 l -10.82264588878101 1.590556247371188 a31.9389,31.9389 0 0,0 -0.07506475477117726,-0.5431311720584897 l 10.848355160107399 -1.4045367671126128" fill="#ff6709" stroke="none" /><path d="M 79.13060592940153 102.33845913500099 l -13.915711966275058 1.5592845512186546 a35.0028,35.0028 0 0,0 -0.061784288211559,-0.5977069422588099 l 13.940428646968284 -1.3201730866769132" fill="#ff930d" stroke="none" /><path d="M 79.06263194458094 101.62068470465958 l -17.076517385999786 1.3218304451203495 a38.1276,38.1276 0 0,0 -0.04491075210870602,-0.6529924791053743 l 17.096692099273557 -1.028494541860632" fill="#ffbe11" stroke="none" /><path d="M 79.03789590574601 101.26102812881392 l -21.18639860806251 1.2745211297922272 a42.2247,42.2247 0 0,0 -0.03731539607966933,-0.7239087150574074 l 21.205155593598754 -0.910640621358089" fill="#fff417" stroke="none" /><path d="M 79.00696218219943 100.54070618675478 l -10.511214035372745 0.2707315877081128 a31.514699999999998,31.514699999999998 0 0,0 -0.009287184599881891,-0.5409319432052431 l 10.514312651571293 -0.09025272853381736" fill="#ff6109" stroke="none" /><line stroke="#e1ed5e" stroke-width="0.3" x1="15.003131293944662" x2="10.003315487706104" y1="100.72959589197737" y2="100.7725132973878" /><path d="M 14.003168132696942 100.73817937305945 a86.0,86.0 0 0,1 10.791469493833604,-42.45332614584628" fill="none" id="id46" stroke="none" /><text fill="#e1ed5e" style="font-size:6.75px; font-family:Arial;" text-anchor="middle"><textPath startOffset="22.145653131862435" xlink:href="#id46">October</textPath></text><path d="M 79.00077361379809 100.18025310272382 l -62.99767915860572 0.5407593081714642 a84.0,84.0 0 0,0 0.0,-1.4420248217905405 l 62.99767915860572 0.540759308171441" fill="#4dd2ff" stroke="none" /><path d="M 79.06263194458094 98.37931529534042 l -21.100679526251323 -1.6333260453559302 a42.163799999999995,42.163799999999995 0 0,0 0.06205382434747134,-0.7211595010791083 l 21.06953207920611 1.995306593810719" fill="#fff316" stroke="none" /><path d="M 79.17382384314186 97.30363454192245 l -14.597066868341864 -1.8898825495665588 a35.7189,35.7189 0 0,0 0.08394874179124692,-0.607411276582506 l 14.56247360999541 2.1401821343491316" fill="#ff9d0e" stroke="none" /><path d="M 79.2786578344484 96.59031103205396 l -20.940988392506455 -3.445831671006267 a42.2226,42.2226 0 0,0 0.12382316795011368,-0.7141791280098564 l 20.878750407064107 3.804803831936716" fill="#fff417" stroke="none" /><path d="M 79.407916724674 95.88100663000787 l -20.61473456692886 -4.1235242626991235 a42.0231,42.0231 0 0,0 0.14756569486935958,-0.7061552693327678 l 20.540911161235133 4.4767959833173006" fill="#fff116" stroke="none" /><path d="M 79.64726062577567 94.8264132398404 l -15.478258294097603 -3.934512731101374 a36.9705,36.9705 0 0,0 0.16163241904328057,-0.6137446220517128 l 15.408436394249598 4.199637857525871" fill="#ffae10" stroke="none" /><path d="M 79.83685265289637 94.1308016681162 l -20.16314734710364 -5.8691983318837995 a42.0,42.0 0 0,0 0.20744735999274067,-0.6905247928185531 l 20.059423667107268 6.2144607282930755" fill="#fff116" stroke="none" /><path d="M 80.28708602549916 92.7611449362534 l -13.799039782150585 -5.067198544622622 a35.7,35.7 0 0,0 0.2161878375154589,-0.5734639236699537 l 13.71002126082069 5.3033307484867205" fill="#ff9c0e" stroke="none" /><path d="M 80.83023694016515 91.42560881287825 l -19.169763059834857 -8.574391187121742 a42.0,42.0 0 0,0 0.3000310702899065,-0.6556220355706572 l 19.0197475246899 8.902202204907072" fill="#fff116" stroke="none" /><path d="M 81.1358732173502 90.77261029715801 l -39.865559129773835 -19.500242659015964 a65.3793,65.3793 0 0,0 0.5018019641978775,-1.003940072205334 l 39.52493725236422 20.18171458738507" fill="#35ff63" stroke="none" /><path d="M 81.63589988554816 89.8137432299009 l -11.051515448877117 -6.130089324245643 a33.6378,33.6378 0 0,0 0.28442623590877114,-0.5025539056552532 l 10.944655847946978 6.318900000000001" fill="#ff800b" stroke="none" /><line stroke="#e1ed5e" stroke-width="0.3" x1="26.387840678322718" x2="22.05771365940052" y1="57.49999999999999" y2="54.99999999999999" /><path d="M 25.521815274538284 56.99999999999999 a86.0,86.0 0 0,1 29.574782752854787,-30.34633250058573" fill="none" id="id47" stroke="none" /><text fill="#e1ed5e" style="font-size:6.75px; font-family:Arial;" text-anchor="middle"><textPath startOffset="21.40746469413373" xlink:href="#id47">November</textPath></text><path d="M 82.18462484594161 88.88188828441811 l -19.801789483735888 -12.357781171869265 a44.341499999999996,44.341499999999996 0 0,0 0.40853789413193337,-0.6422894259159841 l 19.586733897978068 12.695884272463921" fill="#f0ff19" stroke="none" /><path d="M 82.576782715395 88.27688183743585 l -16.843024149027656 -11.332738327750766 a41.3007,41.3007 0 0,0 0.4008336446053232,-0.5848282665377628 l 16.646000767607017 11.620201329358563" fill="#ffe815" stroke="none" /><path d="M 82.98947788004972 87.6856937992154 l -11.907365483965204 -8.62001434054922 a35.7,35.7 0 0,0 0.36362656670750815,-0.4933292742429324 l 11.757636897673876 8.823149924061017" fill="#ff9c0e" stroke="none" /><line stroke="#e1ed5e" stroke-width="0.3" x1="56.869717070023135" x2="54.33264160355391" y1="26.7553504044142" y2="22.446841604673864" /><path d="M 56.362301976729285 25.89364864446614 a86.0,86.0 0 0,1 42.16139366436587,-11.88097634709845" fill="none" id="id48" stroke="none" /><text fill="#e1ed5e" style="font-size:6.75px; font-family:Arial;" text-anchor="middle"><textPath startOffset="22.145653131862474" xlink:href="#id48">December</textPath></text></svg>