<?xml version="1.0" encoding="utf-8" ?>
<svg baseProfile="full" height="200mm" version="1.1" viewBox="0,0,200,200" width="200mm" xmlns="http://www.w3.org/2000/svg" xmlns:ev="http://www.w3.org/2001/xml-events" xmlns:xlink="http://www.w3.org/1999/xlink"><defs /><rect fill="#1a1a1a" height="200" width="200" x="0" y="0" /><text alignment-baseline="middle" fill="#e1ed5e" style="dominant-baseline: central; font-size:9.0px; font-family:Arial;" text-anchor="middle" x="100.0" y="100.0">2025</text><line stroke="#e1ed5e" stroke-width="0.3" x1="100.0" x2="100.0" y1="15.0" y2="10.0" /><path d="M 100.0 14.0 a86.0,86.0 0 0,1 42.46469731375804,11.215312516191453" fill="none" id="id49" stroke="none" /><text fill="#e1ed5e" style="font-size:6.75px; font-family:Arial;" text-anchor="middle"><textPath startOffset="22.20632615414155" xlink:href="#id49">January</textPath></text><path d="M 100.0 79.0 l 0.0 -29.30109087504097 a50.30109087504097,50.30109087504097 0 0,0 0.8658505922590863,0.0074526494063617355 l -0.504370112986558 29.296749602243167" fill="#c0ff1e" stroke="none" /><path d="M 100.72285384407766 79.0124445844662 l 0.5587657845706362 -16.223373457941427 a37.232993117655326,37.232993117655326 0 0,0 0.6403350858107688,0.027574175775645225 l -0.8379417027707365 16.211351555641585" fill="#ff8a0c" stroke="none" /><path d="M 101.08401301168833 79.027996857942 l 0.5338861780259083 -10.328900559617914 a31.342689264478672,31.342689264478672 0 0,0 0.5385538941929131,0.032487041624606784 l -0.7116021210584332 10.318180248613004" fill="#ff3004" stroke="none" /><path d="M 102.16513564639614 79.11191278185805 l 1.5235726750004148 -14.69862591360426 a35.77737721803455,35.77737721803455 0 0,0 0.6120202456100289,0.06876760565374347 l -1.776359624120169 14.670222354479915" fill="#ff740a" stroke="none" /><path d="M 102.52436894288641 79.15227682838746 l 2.1328725187414923 -17.614515483707372 a38.74317617866005,38.74317617866005 0 0,0 0.6613741919464428,0.08586535168105301 l -2.4357614391957814 17.575191808862183" fill="#ffa00e" stroke="none" /><path d="M 102.88285421437855 79.19881850522331 l 2.103124414459794 -15.1750554825418 a36.32009925558313,36.32009925558313 0 0,0 0.618533053700315,0.09115569364715792 l -2.3640264485887648 15.136605304733674" fill="#ff7c0b" stroke="none" /><path d="M 103.2404852339499 79.25152402106235 l 2.332166253863848 -14.932607928659092 a36.113628915211386,36.113628915211386 0 0,0 0.6133655568759294,0.10121057240341993 l -2.5888610168786528 14.890251093316047" fill="#ff790b" stroke="none" /><path d="M 103.95276090670814 79.375362276772 l 2.928899784166683 -15.28235539710043 a36.56048972330165,36.56048972330165 0 0,0 0.6170602687747652,0.12377648491460132 l -3.1915264624085737 15.22967495610862" fill="#ff800b" stroke="none" /><path d="M 104.66035177308747 79.52364482259891 l 4.768247458830803 -20.95042033191323 a42.486188491970594,42.486188491970594 0 0,0 0.7116968925105085,0.1684356604528636 l -5.128168038303835 20.865238759319496" fill="#ffd614" stroke="none" /><path d="M 105.01212808612495 79.60689891045804 l 3.706121303816398 -15.079284707040639 a36.52804438410038,36.52804438410038 0 0,0 0.6093071076890121,0.15532594853860843 l -3.965137300190435 15.013255762333163" fill="#ff7f0b" stroke="none" /><path d="M 105.36241919743992 79.69619591428918 l 5.659424764674884 -21.428360489727684 a43.16311625076081,43.16311625076081 0 0,0 0.7167176068725067,0.1959059961227063 l -6.027440260771102 21.327767952778682" fill="#ffdf14" stroke="none" /><path d="M 106.0581310904928 79.89281104454417 l 5.547023256555432 -18.410800805367742 a40.22828784119107,40.22828784119107 0 0,0 0.6613044473134628,0.20547051084539483 l -5.863113076579613 18.312590159639825" fill="#ffb610" stroke="none" /><path d="M 106.74666289553966 80.11325718540242 l 5.490922535915238 -16.18527055187776 a38.09131981834356,38.09131981834356 0 0,0 0.6191072829991395,0.21599437454823503 l -5.768711822977651 16.08835532415732" fill="#ff970d" stroke="none" /><path d="M 107.08798089147638 80.2323363322302 l 4.4849506881550285 -12.508075025511898 a34.287841191066995,34.287841191066995 0 0,0 0.5538591306244285,0.2039909920184574 l -4.6995921445520334 12.429020765687117" fill="#ff5d08" stroke="none" /><path d="M 107.4271985657038 80.35727306442388 l 11.204954322893094 -29.6337651596549 a52.681398941898024,52.681398941898024 0 0,0 0.845453254037541,0.3280227276621902 l -11.713390741930302 29.436499728102163" fill="#a2ff22" stroke="none" /><path d="M 108.43124777332544 80.76684994638697 l 9.533558715177172 -21.747714009075104 a44.74556393089564,44.74556393089564 0 0,0 0.7027565287474882,0.31530636958787417 l -9.90649736239144 21.580387308970696" fill="#fff517" stroke="none" /><path d="M 110.05341064243156 81.56283822128135 l 4.245364356449807 -7.785663217526705 a29.867901118966245,29.867901118966245 0 0,0 0.44926430825999264,0.2500151011385399 l -4.378752753781835 7.711432718827985" fill="#ff1802" stroke="none" /><line stroke="#e1ed5e" stroke-width="0.3" x1="143.23703022742887" x2="145.7803849466894" y1="26.81831364943548" y2="22.513508569990506" /><path d="M 143.74570117128098 25.957352633546492 a86.0,86.0 0 0,1 28.547481713284135,27.462654790039103" fill="none" id="id50" stroke="none" /><text fill="#e1ed5e" style="font-size:6.75px; font-family:Arial;" text-anchor="middle"><textPath startOffset="19.985693538727396" xlink:href="#id50">February</textPath></text><path d="M 111.90073688211348 82.69761687909136 l 5.567030879612188 -8.09386024404507 a30.8235638372583,30.8235638372583 0 0,0 0.4345665437746501,0.30444163523241896 l -5.70552856297049 7.996833766048716" fill="#ff2703" stroke="none" /><path d="M 112.19680574252982 82.90503203632743 l 8.665790792909839 -12.145919112913203 a35.920431668149256,35.920431668149256 0 0,0 0.5002427847592352,0.3634476574554142 l -8.873578894022863 11.994952220641114" fill="#ff760a" stroke="none" /><path d="M 113.34407831869373 83.78471172551755 l 5.98356243725311 -7.271029704052422 a30.41652230909687,30.41652230909687 0 0,0 0.40141475761338385,0.3361733154307836 l -6.107834731825611 7.166955231227819" fill="#ff2103" stroke="none" /><path d="M 113.6212207817346 84.01681056812373 l 13.014423105166395 -15.271170856829205 a41.06449271969662,41.06449271969662 0 0,0 0.5340460770082833,0.46311949540415287 l -13.275362980821443 15.04488636800538" fill="#ffc212" stroke="none" /><path d="M 113.89432698308785 84.25364557470407 l 15.768457608972767 -17.870295017050122 a44.832576431480874,44.832576431480874 0 0,0 0.5742604979919682,0.515576745125184 l -16.073729094560726 17.596219263155643" fill="#fff617" stroke="none" /><path d="M 114.42810811169701 84.74124197986012 l 14.267675709593535 -15.089089260844814 a41.76649187696053,41.76649187696053 0 0,0 0.518136713784478,0.49844710814148757 l -14.52529566699043 14.841259065941024" fill="#ffcc13" stroke="none" /><path d="M 114.94478906791727 85.2469230424477 l 21.494635524435527 -21.218901827613962 a51.203661220094574,51.203661220094574 0 0,0 0.6137995884922414,0.6325744304483167 l -21.85669937663088 20.84576320161553" fill="#b4ff20" stroke="none" /><path d="M 115.4437574822437 85.77008943001954 l 13.671185195726515 -12.596658743476082 a39.58970457418418,39.58970457418418 0 0,0 0.4574615990980102,0.5051405234987922 l -13.88599043544056 12.359465432707742" fill="#ffac10" stroke="none" /><path d="M 115.68641384162765 86.03803664274999 l 17.32967199840662 -15.424573639184887 a44.19989231705604,44.19989231705604 0 0,0 0.5009492381162997,0.5726715769988473 l -17.59261310010077 15.12398650598309" fill="#ffee16" stroke="none" /><path d="M 115.9244219780498 86.31012108654704 l 18.115996415264917 -15.573927748421596 a44.89009316915586,44.89009316915586 0 0,0 0.49868487123516764,0.5902855942370461 l -18.381391899987204 15.259783204555443" fill="#fff717" stroke="none" /><path d="M 116.38621287248628 86.86637796730983 l 19.80016705023636 -15.869921393403276 a46.37520483168687,46.37520483168687 0 0,0 0.49388692010599294,0.6271862335326132 l -20.07040805093632 15.526742765917625" fill="#f3ff19" stroke="none" /><path d="M 116.82858285166822 87.43820079747576 l 15.363891830494408 -11.468471578689208 a40.172245891661596,40.172245891661596 0 0,0 0.4088719469687598,0.5577008761658523 l -15.559026389976795 11.202308258851861" fill="#ffb510" stroke="none" /><path d="M 117.04232023915458 87.72973835380427 l 15.262208040383388 -10.988602685913762 a39.80649843157451,39.80649843157451 0 0,0 0.39557685106981566,0.5595154024564207 l -15.449097511257088 10.724260783125548" fill="#ffb010" stroke="none" /><path d="M 117.45458315368197 88.32363383020206 l 16.406115051890026 -10.974986058563761 a40.738564539538366,40.738564539538366 0 0,0 0.3848889654920353,0.5862123001584848 l -16.59260065273999 10.690955694427602" fill="#ffbd11" stroke="none" /><path d="M 117.65298651832404 88.62581576622439 l 16.9273288488129 -10.90662799250706 a41.136757338826726,41.136757338826726 0 0,0 0.37840410941847535,0.5985444271565904 l -17.11256055447733 10.613635917636264" fill="#ffc312" stroke="none" /><line stroke="#e1ed5e" stroke-width="0.3" x1="172.23445277983987" x2="176.4835382374775" y1="55.19839476539836" y2="52.563006222186495" /><path d="M 173.08426987136738 54.67131705675599 a86.0,86.0 0 0,1 12.851231095245387,41.99856678651699" fill="none" id="id51" stroke="none" /><text fill="#e1ed5e" style="font-size:6.75px; font-family:Arial;" text-anchor="middle"><textPath startOffset="22.20632615414155" xlink:href="#id51">March</textPath></text><path d="M 117.84615892207809 88.93136811851018 l 14.476870291838848 -8.978915225180643 a38.035277868814084,38.035277868814084 0 0,0 0.34029656282589466,0.5593580743292031 l -14.629282652950966 8.728389377644357" fill="#ff960d" stroke="none" /><path d="M 118.21658344932153 89.55222093294921 l 9.115114734520525 -5.227802742595878 a31.507865536776066,31.507865536776066 0 0,0 0.2657798866202559,0.4727927617807307 l -9.203752262433213 5.0701264708803535" fill="#ff3204" stroke="none" /><path d="M 118.3937258080291 89.86733742301442 l 18.094899886619576 -9.968046540925194 a41.65883234233813,41.65883234233813 0 0,0 0.34059448139025367,0.6310698466791701 l -18.263802467228295 9.655095710913566" fill="#ffca12" stroke="none" /><path d="M 119.04729006885535 91.15688171328212 l 18.371329308885674 -8.529288816174683 a41.25474039046772,41.25474039046772 0 0,0 0.2934934585054525,0.6466739317845894 l -18.515425084354476 8.211792875548031" fill="#ffc412" stroke="none" /><path d="M 119.196687751892 91.48605970444005 l 13.805006033478216 -6.122670674647725 a36.10183061004729,36.10183061004729 0 0,0 0.2470556404928417,0.5702384807305835 l -13.908352383813739 5.884133049330538" fill="#ff790b" stroke="none" /><path d="M 119.47837535516314 92.15188598940014 l 20.53395939344214 -8.273423808215345 a43.138044852287095,43.138044852287095 0 0,0 0.2715775130935649,0.6911351484477276 l -20.673330456417403 7.918739654871833" fill="#ffdf14" stroke="none" /><path d="M 119.61058180528143 92.48833698450437 l 13.783138445661542 -5.27951145599609 a35.75967976028841,35.75967976028841 0 0,0 0.2152314018262741,0.5767131505738153 l -13.871974435989442 5.0414751683929415" fill="#ff740a" stroke="none" /><path d="M 119.85752413597 93.16781622104841 l 8.788481467171886 -3.023766714847572 a30.294114893019334,30.294114893019334 0 0,0 0.1654097712582153,0.4945541623089873 l -8.83922853220187 2.872039449616271" fill="#ff1f03" stroke="none" /><path d="M 120.08093135843002 93.85539295169968 l 30.041013141809746 -9.192313732587667 a52.41593707570579,52.41593707570579 0 0,0 0.256573772797459,0.8650392122182218 l -30.19479281171891 8.673845133622915" fill="#a5ff21" stroke="none" /><path d="M 120.37134235888165 94.90015583598534 l 9.529484862529426 -2.3856497478698606 a30.8235638372583,30.8235638372583 0 0,0 0.12442034249839319,0.5158026450143635 l -9.569138005288638 2.221261871196091" fill="#ff2703" stroke="none" /><path d="M 120.53481517161879 95.60439243477599 l 20.179573156266336 -4.319565756368253 a41.63671052015544,41.63671052015544 0 0,0 0.1439851063693878,0.7021225139268578 l -20.25093755855072 3.9715675862779842" fill="#ffca12" stroke="none" /><path d="M 120.67395015179393 96.31383870115 l 22.44912804300561 -4.002675172256561 a43.8031743059132,43.8031743059132 0 0,0 0.12596153123044262,0.7434320875955238 l -22.514701435756276 3.6156572963451996" fill="#ffe815" stroke="none" /><path d="M 120.78858239683441 97.02765380044208 l 14.716202342812695 -2.104118850944128 a35.8658645067653,35.8658645067653 0 0,0 0.08212258393975343,0.6119086380365705 l -14.750240925810283 1.8504918708428935" fill="#ff750a" stroke="none" /><path d="M 120.83666639777658 97.38593545837742 l 14.709268034349698 -1.8453516156461074 a35.82457043869095,35.82457043869095 0 0,0 0.07149500480398102,0.6125255398968744 l -14.738853392157267 1.5918823374243802" fill="#ff750a" stroke="none" /><path d="M 120.87857604477298 97.74499172005257 l 15.256443448606882 -1.647785089624023 a36.34517065405684,36.34517065405684 0 0,0 0.0618263792063249,0.6225832011898733 l -15.282546953495435 1.3849263577297146" fill="#ff7d0b" stroke="none" /><path d="M 120.94382443527127 98.46500227214037 l 25.41175533275305 -1.8624576813683376 a46.479914790018256,46.479914790018256 0 0,0 0.05161353062230249,0.7984384740376368 l -25.440049454379768 1.4247601430776655" fill="#f2ff19" stroke="none" /><path d="M 120.96714384426684 98.82574320788733 l 15.088509970424818 -0.8450261727219335 a36.11215412706588,36.11215412706588 0 0,0 0.029416602668092668,0.6209379891048519 l -15.100820181326409 0.5851770769940817" fill="#ff790b" stroke="none" /><line stroke="#e1ed5e" stroke-width="0.3" x1="184.98032266829074" x2="189.97916517819016" y1="98.17113171792111" y2="98.06355123074" /><path d="M 185.9800911702706 98.14961562048488 a86.0,86.0 0 0,1 -9.607161424134198,41.387399972396054" fill="none" id="id52" stroke="none" /><text fill="#e1ed5e" style="font-size:6.75px; font-family:Arial;" text-anchor="middle"><textPath startOffset="21.466115282336823" xlink:href="#id52">April</textPath></text><path d="M 120.99513854157772 99.54816195383933 l 10.384528354440642 -0.2234862605301919 a31.386932908844045,31.386932908844045 0 0,0 0.00697536154677689,0.5402494389159987 l -10.386836723105134 0.044700563553730435" fill="#ff3004" stroke="none" /><path d="M 120.99980553446 99.90962569577887 l 15.240319565038826 -0.06558790625646037 a36.24046069572545,36.24046069572545 0 0,0 -0.002684732520666648,0.6238372879541262 l -15.239190535228657 -0.1967588599013505" fill="#ff7b0b" stroke="none" /><path d="M 120.99824983174949 100.27111621757518 l 17.433492404439058 0.2250903078917908 a38.43494545624795,38.43494545624795 0 0,0 -0.014235456974469244,0.6614657484494981 l -17.42703488477958 -0.5251458721314037" fill="#ff9c0e" stroke="none" /><path d="M 120.95626037817324 101.35467743843564 l 9.801631217657691 0.6336077349113748 a30.822089049112787,30.822089049112787 0 0,0 -0.03878217437294247,0.5291519567378037 l -9.789272484620412 -0.8022328281459488" fill="#ff2703" stroke="none" /><path d="M 120.92983693683757 101.71520430193887 l 16.33603219130199 1.338741088891002 a37.39079544922515,37.39079544922515 0 0,0 -0.058089990335822135,0.6410182027949746 l -16.310567604689094 -1.6197406802345473" fill="#ff8c0c" stroke="none" /><path d="M 120.89721153311464 102.0752229133903 l 23.717390953696277 2.3552842480898435 a44.83405121962639,44.83405121962639 0 0,0 -0.08287403251094544,0.767310614911399 l -23.67333461968428 -2.7631911848860335" fill="#fff617" stroke="none" /><path d="M 120.76222939487914 103.15116336523771 l 10.595939955938022 1.608186537889115 a31.717285453438834,31.717285453438834 0 0,0 -0.08657043612444479,0.5390741883848521 l -10.56668776545229 -1.7903399559671718" fill="#ff3505" stroke="none" /><path d="M 120.49622156327973 104.57218783832717 l 10.088816208883445 2.2505593350930604 a31.336790111896626,31.336790111896626 0 0,0 -0.12197388044283229,0.5254602845946844 l -10.04858176251006 -2.4238882770363097" fill="#ff2f04" stroke="none" /><path d="M 120.41448212921028 104.9243191809786 l 16.462814150221575 3.971109870909965 a37.93499227491924,37.93499227491924 0 0,0 -0.15858395781153234,0.6334640811185249 l -16.392018878114982 -4.253901791425886" fill="#ff940d" stroke="none" /><path d="M 120.13307415673323 105.97154293290107 l 14.337003507838025 4.2524073228814725 a35.954351795496045,35.954351795496045 0 0,0 -0.18109561104093044,0.5918309350036904 l -14.261681124290961 -4.498565230437221" fill="#ff770a" stroke="none" /><path d="M 119.9155931802556 106.66101706037122 l 14.34017815982682 4.796250380634825 a36.12100285593895,36.12100285593895 0 0,0 -0.20229338720876988,0.587959274664251 l -14.25549394167482 -5.042382358388377" fill="#ff790b" stroke="none" /><path d="M 119.79798401119884 107.00284435728193 l 19.30115740742513 6.827109324017113 a41.47300903600356,41.47300903600356 0 0,0 -0.24385287805035472,0.6709783897508019 l -19.18078026836955 -7.158335510774045" fill="#ffc712" stroke="none" /><path d="M 119.67450827220406 107.3425965602758 l 19.18078026836955 7.158335510774045 a41.47300903600356,41.47300903600356 0 0,0 -0.25536653861073544,0.6666814506224227 l -19.054719450165308 -7.487440528229612" fill="#ffc712" stroke="none" /><path d="M 119.41010516605496 108.01547362559984 l 14.137052344011146 5.837947256736919 a36.29502785710942,36.29502785710942 0 0,0 -0.24343424101293695,0.575406636442284 l -14.0344671218059 -6.080428418845366" fill="#ff7c0b" stroke="none" /><path d="M 119.26925614724726 108.34839909993367 l 28.713077175824658 12.439931558293411 a52.29205487148275,52.29205487148275 0 0,0 -0.36494603995891756,0.82285697716653 l -28.494690051134466 -12.932336871952629" fill="#a7ff21" stroke="none" /><path d="M 118.97047184881838 109.00673069616215 l 13.642326307310746 6.477053396369244 a36.10183061004729,36.10183061004729 0 0,0 -0.2713598281925327,0.5590816202027741 l -13.5288132225035 -6.710923972537293" fill="#ff790b" stroke="none" /><path d="M 118.81262510543309 109.33194174019688 l 15.04023532470506 7.460660010094193 a37.788988248513505,37.788988248513505 0 0,0 -0.29407270128586305,0.5802333383214076 l -14.909583953632927 -7.718447560118294" fill="#ff920d" stroke="none" /><path d="M 118.64920377521936 109.65438752849418 l 14.739323420079495 7.630306468866065 a37.59726578959689,37.59726578959689 0 0,0 -0.3024744644168776,0.5721676961986152 l -14.605796447437724 -7.882889180150815" fill="#ff8f0d" stroke="none" /><line stroke="#e1ed5e" stroke-width="0.3" x1="174.80103733775053" x2="179.2010983576182" y1="140.37084112569926" y2="142.7455964860345" /><path d="M 175.68104954172406 140.8457921977663 a86.0,86.0 0 0,1 -30.038265399797805,32.042727171017184" fill="none" id="id53" stroke="none" /><text fill="#e1ed5e" style="font-size:6.75px; font-family:Arial;" text-anchor="middle"><textPath startOffset="22.206326154141568" xlink:href="#id53">May</textPath></text><path d="M 118.30583269289576 110.29060199501025 l 17.738462439480475 9.97165548437319 a41.34912683178051,41.34912683178051 0 0,0 -0.3541218057875146,0.6174412174063719 l -17.564188637540582 -10.275516547637878" fill="#ffc612" stroke="none" /><path d="M 117.94076556474637 110.91462005526583 l 12.908128415011928 7.852915571857182 a36.10920455077485,36.10920455077485 0 0,0 -0.3276228714469105,0.5282323861657044 l -12.771040903897054 -8.07394428938816" fill="#ff790b" stroke="none" /><path d="M 117.75023020441432 111.22182372390056 l 26.317444174043402 16.638078266233563 a52.13572732805843,52.13572732805843 0 0,0 -0.48609151691114527,0.7544248289229418 l -26.027147793755205 -17.088624695077957" fill="#a9ff21" stroke="none" /><path d="M 117.14729908036423 112.12312394758627 l 12.056657033986147 8.524044919933079 a35.76557891287045,35.76557891287045 0 0,0 -0.3597339525611076,0.49963899688675506 l -11.908143289049436 -8.730317522270965" fill="#ff740a" stroke="none" /><path d="M 116.93607887273984 112.41649034213515 l 8.38280003008594 6.145752886233097 a31.39430684957161,31.39430684957161 0 0,0 -0.32326976886366476,0.4330726833834947 l -8.275768994527184 -6.289138449125907" fill="#ff3004" stroke="none" /><path d="M 116.71984013943494 112.70617746262583 l 20.164554617340425 15.323974827871622 a46.32653682288497,46.32653682288497 0 0,0 -0.48795781557706086,0.6307512540088349 l -19.897789984545298 -15.668804075993709" fill="#f4ff19" stroke="none" /><path d="M 116.498646956653 112.99209946851258 l 7.7213575063768625 6.080295251989872 a30.827988201694836,30.827988201694836 0 0,0 -0.3318883780851189,0.4140817818322001 l -7.61555121623689 -6.212304867400323" fill="#ff2703" stroke="none" /><path d="M 115.80600337817218 113.82643327865902 l 12.432270085364134 10.875231943511944 a37.51762722973922,37.51762722973922 0 0,0 -0.4293823660409691,0.48241564009823845 l -12.243228869674827 -11.087621753351048" fill="#ff8e0d" stroke="none" /><path d="M 115.56566222782051 114.09645910891815 l 12.327401068153844 11.163849152905339 a37.63118591694368,37.63118591694368 0 0,0 -0.438947341035055,0.47639064554081706 l -12.133407319123068 -11.37439105324749" fill="#ff900d" stroke="none" /><path d="M 115.07121518719521 114.62390073753431 l 19.07381213224716 18.50770039733409 a47.577157170279506,47.577157170279506 0 0,0 -0.5753650045999393,0.5828417119728754 l -18.752406502591683 -18.833282603287632" fill="#e3ff1b" stroke="none" /><path d="M 114.55890576462653 115.13401014063108 l 11.409440710763672 11.86013524691949 a37.457160915773215,37.457160915773215 0 0,0 -0.4685073294300392,0.4430029227291661 l -11.203597546942826 -12.054772806394578" fill="#ff8d0d" stroke="none" /><path d="M 114.0293411484842 115.62618273729858 l 6.904650693050514 7.6905488522160494 a31.33531532375111,31.33531532375111 0 0,0 -0.4044608020279106,0.356889631938545 l -6.7712475381160155 -7.8082616259268836" fill="#ff2f04" stroke="none" /><path d="M 112.34349029814194 116.9893568818739 l 4.34469591560612 5.9799609081852125 a28.391638185308302,28.391638185308302 0 0,0 -0.3978515826446819,0.28385654060229787 l -4.241117005112553 -6.05386171063173" fill="#ff0000" stroke="none" /><line stroke="#e1ed5e" stroke-width="0.3" x1="143.8653032363475" x2="146.44561519142675" y1="172.8068346515853" y2="177.08958963109032" /><path d="M 144.38136562736335 173.6633856474863 a86.0,86.0 0 0,1 -40.68145358897372,12.25698825130547" fill="none" id="id54" stroke="none" /><text fill="#e1ed5e" style="font-size:6.75px; font-family:Arial;" text-anchor="middle"><textPath startOffset="21.466115282336833" xlink:href="#id54">June</textPath></text><path d="M 109.89434966115114 118.52300852407294 l 7.47739337307323 13.998274361689365 a36.87019523385926,36.87019523385926 0 0,0 -0.5623742361442554,0.2942076209028348 l -7.235328234402479 -14.124911401536917" fill="#ff840c" stroke="none" /><path d="M 109.2508944713604 118.85261126421891 l 6.509062576096247 13.26496878993932 a35.775902429889044,35.775902429889044 0 0,0 -0.5551863520362158,0.2665231875964352 l -6.279763556059798 -13.375046254035315" fill="#ff740a" stroke="none" /><path d="M 108.2653958097858 119.30500536409082 l 7.86874658908116 18.378574796264935 a40.99222810056651,40.99222810056651 0 0,0 -0.6510513338251956,0.2721395103407584 l -7.551223795758503 -18.511299349625666" fill="#ffc111" stroke="none" /><path d="M 107.59598834532513 119.57807347666477 l 7.539798160458733 19.433247613594737 a41.84465564867269,41.84465564867269 0 0,0 -0.6737582941356198,0.2547577356365836 l -7.204169645562837 -19.56015359933795" fill="#ffcd13" stroke="none" /><path d="M 107.2578585660854 119.70592522655815 l 5.672506295844687 15.401510500002264 a37.412917271407835,37.412917271407835 0 0,0 -0.6062325679637163,0.2173734301501436 l -5.406554167251236 -15.496871471192367" fill="#ff8d0d" stroke="none" /><path d="M 106.2309692047433 120.05430185196036 l 9.259373685966223 29.801186421706156 a52.20651715904303,52.20651715904303 0 0,0 -0.8604753374314054,0.25925416058125744 l -8.745023374094572 -29.95615595139314" fill="#a8ff21" stroke="none" /><path d="M 105.18746579009965 120.34920634021253 l 4.495528431796648 17.634899075674603 a39.19888571562339,39.19888571562339 0 0,0 -0.6552685748664692,0.16104907309695865 l -4.191306572186968 -17.709669407085592" fill="#ffa70f" stroke="none" /><path d="M 104.83641907484287 120.43548508189849 l 2.799072727827618 11.827016659950761 a33.15372910716794,33.15372910716794 0 0,0 -0.556477213464956,0.12665240205036252 l -2.5950753649698 -11.873445795578808" fill="#ff4c07" stroke="none" /><path d="M 104.48393922423573 120.51570834832081 l 3.4698623281885963 15.875925157321063 a37.25069057540147,37.25069057540147 0 0,0 -0.6276005901537731,0.13151980571296273 l -3.1960702766054454 -15.933300943760567" fill="#ff8a0c" stroke="none" /><path d="M 103.7750983002368 120.6578951692458 l 6.217538649081442 34.02328930491731 a55.58673158855752,55.58673158855752 0 0,0 -0.9427272203700882,0.16390521120641763 l -5.630962457239304 -34.12527309464474" fill="#7fff26" stroke="none" /><path d="M 103.06178313531738 120.77559828337769 l 2.4084718080450824 16.342582263128907 a37.519102017884734,37.519102017884734 0 0,0 -0.6397389389023342,0.08866198761737626 l -2.1268042779559178 -16.381618816238884" fill="#ff8e0d" stroke="none" /><path d="M 102.70371172650421 120.8252237178851 l 2.279654688075953 17.5589425504655 a38.70630647502224,38.70630647502224 0 0,0 -0.661458664231156,0.08009343251745797 l -1.9770686007934166 -17.595581511708307" fill="#ffa00e" stroke="none" /><path d="M 101.98527174616119 120.90594882070398 l 1.6741755087717292 17.629942888642727 a38.70925605131326,38.70925605131326 0 0,0 -0.6638742153751468,0.0572818607395825 l -1.3704569756550407 -17.656149001660975" fill="#ffa00e" stroke="none" /><path d="M 101.62511606390274 120.93702456842531 l 2.854471970195555 36.775311682257055 a57.885926307411395,57.885926307411395 0 0,0 -0.9940866977742444,0.06855803887969722 l -2.2210225116423805 -36.818998065653034" fill="#64ff29" stroke="none" /><path d="M 100.90346689309514 120.98055641714683 l 0.5238957443901815 12.166050915519083 a33.17732571749614,33.17732571749614 0 0,0 -0.5707758365520247,0.0196586738850451 l -0.3143995561635045 -12.173266387830221" fill="#ff4c07" stroke="none" /><line stroke="#e1ed5e" stroke-width="0.3" x1="102.19456741930631" x2="102.32365962044197" y1="184.97166512339345" y2="189.96999836594603" /><path d="M 102.22038585953345 185.97133177190398 a86.0,86.0 0 0,1 -42.740103519485714,-10.115201625700543" fill="none" id="id55" stroke="none" /><text fill="#e1ed5e" style="font-size:6.75px; font-family:Arial;" text-anchor="middle"><textPath startOffset="22.20632615414155" xlink:href="#id55">July</textPath></text><path d="M 100.54218724476979 120.99299961872073 l 0.45760613612365214 17.71809560965769 a38.72400393276838,38.72400393276838 0 0,0 -0.6664959995265405,0.011474333062550569 l -0.1525504467044437 -17.7233474199994" fill="#ffa00e" stroke="none" /><path d="M 99.81925306533755 120.99922214144158 l -0.15401019885711997 17.892941774575867 a38.893604569502315,38.893604569502315 0 0,0 -0.6694150712758506,-0.011524587529957516 l 0.46198496002563855 -17.88763970976675" fill="#ffa20f" stroke="none" /><path d="M 99.45781275523022 120.99299961872073 l -0.39028647822161006 15.111539357546294 a36.11657849150241,36.11657849150241 0 0,0 -0.6213421321964353,-0.02140027934902715 l 0.6503489620926884 -15.102582279771172" fill="#ff790b" stroke="none" /><path d="M 99.09653310690486 120.98055641714683 l -1.3460002811545655 31.25718833981129 a52.2861557189007,52.2861557189007 0 0,0 -0.8988536224434974,-0.046460465208394745 l 1.8838419720115518 -31.229388067840695" fill="#a7ff21" stroke="none" /><path d="M 98.37488393609728 120.93702456842531 l -1.2799529465332398 16.490149155032295 a37.5397490519219,37.5397490519219 0 0,0 -0.6438168538860117,-0.055551227193324254 l 1.5636141181607932 -16.465673675560307" fill="#ff8e0d" stroke="none" /><path d="M 98.01472825383883 120.90594882070398 l -1.6752908821952832 17.641688353591864 a38.72105435647737,38.72105435647737 0 0,0 -0.662991855792964,-0.06872181666308232 l 1.9787153345938406 -17.61023716847302" fill="#ffa00e" stroke="none" /><path d="M 97.65516085044442 120.86867818915974 l -2.2962056113162874 20.435847792708703 a41.56444590102533,41.56444590102533 0 0,0 -0.7103018957115275,-0.08600766764061465 l 2.6476349300792044 -20.393294596342738" fill="#ffc912" stroke="none" /><path d="M 96.93821686468263 120.77559828337769 l -2.1536696392625143 14.613633063788866 a35.7714780654525,35.7714780654525 0 0,0 -0.6083947176521054,-0.09501874262794376 l 2.404900220523137 -14.574396013813818" fill="#ff740a" stroke="none" /><path d="M 96.58105272829116 120.7198165907248 l -5.103930110589092 30.931303520930552 a52.349571609157735,52.349571609157735 0 0,0 -0.8878263700761476,-0.15435999465978215 l 5.635605452137289 -30.838864947749766" fill="#a6ff21" stroke="none" /><path d="M 95.86986931433489 120.58985236759428 l -2.9303837012927456 14.60877932977702 a35.89978463411208,35.89978463411208 0 0,0 -0.6048404922092835,-0.1267502058964108 l 3.1814156549314156 -14.556173143154068" fill="#ff760a" stroke="none" /><path d="M 95.16358092515715 120.4354850818985 l -4.148510411077104 17.528841340206114 a39.01306240928882,39.01306240928882 0 0,0 -0.6521622576613795,-0.16028561590426946 l 4.449625953481694 -17.454834465987815" fill="#ffa40f" stroke="none" /><path d="M 94.81253420990036 120.34920634021253 l -4.882056443639119 19.1511574159737 a40.76363593801208,40.76363593801208 0 0,0 -0.6784419212422983,-0.17918267766275825 l 5.210988807692906 -19.064283389007358" fill="#ffbd11" stroke="none" /><path d="M 94.11515582081647 120.15858648285463 l -9.69267642687332 33.202349977694865 a55.58820637670303,55.58820637670303 0 0,0 -0.9162128263312964,-0.2760474087652013 l 10.262764227644862 -33.03058719982394" fill="#7fff26" stroke="none" /><path d="M 92.7421414339146 119.70592522655815 l -5.179111912308189 14.061887697953368 a35.985322346551804,35.985322346551804 0 0,0 -0.5794147190909342,-0.21908506821350116 l 5.4203968521594055 -13.970654379633235" fill="#ff770b" stroke="none" /><path d="M 92.06813273071674 119.44442032107085 l -6.1307737604100065 15.029164992769262 a37.23151832950981,37.23151832950981 0 0,0 -0.5913225699588042,-0.24717288220046144 l 6.388567789866273 -14.921407067548827" fill="#ff8a0c" stroke="none" /><path d="M 91.7346041902142 119.30500536409082 l -12.539146047309757 29.286955794402118 a52.85837351935952,52.85837351935952 0 0,0 -0.8333483163561217,-0.3653154120409972 l 13.041415038323622 -29.066775829066668" fill="#a0ff22" stroke="none" /><path d="M 91.07499286063937 119.00905698771935 l -6.3017010472727035 13.421770140540072 a35.82752001498197,35.82752001498197 0 0,0 -0.555987376659543,-0.26690772809382207 l 6.531801091932488 -13.311308135946689" fill="#ff750a" stroke="none" /><path d="M 90.10565033884886 118.52300852407294 l -4.516592967658766 8.455420811354045 a30.586122945830798,30.586122945830798 0 0,0 -0.4622541760184682,-0.25205783343814997 l 4.661469955545874 -8.376422326156131" fill="#ff2403" stroke="none" /><line stroke="#e1ed5e" stroke-width="0.3" x1="58.666819895761336" x2="56.23545636021788" y1="174.27360380694188" y2="178.64263932499728" /><path d="M 58.180547188652646 175.14741091055294 a86.0,86.0 0 0,1 -31.652253787137756,-30.449443065178592" fill="none" id="id56" stroke="none" /><text fill="#e1ed5e" style="font-size:6.75px; font-family:Arial;" text-anchor="middle"><textPath startOffset="22.20632615414155" xlink:href="#id56">August</textPath></text><path d="M 89.7882731507175 118.34994917583269 l -5.745082432904309 10.323618346897966 a32.81452783370008,32.81452783370008 0 0,0 -0.49120415654390415,-0.2789185397266362 l 5.92193535636942 -10.223196641376695" fill="#ff4706" stroke="none" /><path d="M 89.4739219176387 118.17145234162733 l -10.851090887048645 18.732530707623077 a42.648415187976966,42.648415187976966 0 0,0 -0.6320741455342644,-0.37344054638924484 l 11.17193290361129 -18.542971588940084" fill="#ffd814" stroke="none" /><path d="M 89.1626897886671 117.98757091392108 l -7.623004289295637 12.652524247893169 a35.7714780654525,35.7714780654525 0 0,0 -0.5246837758725975,-0.3223036289799671 l 7.839667265100544 -12.519432152084823" fill="#ff740a" stroke="none" /><path d="M 87.95078237400918 117.19931262002967 l -8.550775605878359 12.205561170377822 a35.90273421040311,35.90273421040311 0 0,0 -0.5031044539822146,-0.35895166966457076 l 8.759607387709462 -12.056565238869032" fill="#ff760a" stroke="none" /><path d="M 87.65650970185807 116.9893568818739 l -7.148983881884205 9.839732164765252 a33.16257783604101,33.16257783604101 0 0,0 -0.4589306447056058,-0.3395059194710444 l 7.317299497008375 -9.71521629655444" fill="#ff4c07" stroke="none" /><path d="M 87.36589467227662 116.77436683061367 l -20.4435428289766 27.1429972946418 a54.98059366075191,54.98059366075191 0 0,0 -0.7510644196020401,-0.5758841699210046 l 20.90773597707213 -26.78707378289343" fill="#86ff25" stroke="none" /><path d="M 87.07902340077011 116.55440617244103 l -4.768462851417647 6.10937340953539 a28.75001170466782,28.75001170466782 0 0,0 -0.38749882844259437,-0.30785250496834926 l 4.8729191725776 -6.026386990561911" fill="#ff0601" stroke="none" /><path d="M 86.79598089348748 116.32954008644616 l -9.386976362322178 11.60896584309386 a35.92928039702233,35.92928039702233 0 0,0 -0.477568353271556,-0.3930062420545258 l 9.585414844138423 -11.445664482182153" fill="#ff760a" stroke="none" /><path d="M 86.51685102203217 116.09983520530335 l -7.587467069651408 9.059973278250085 a32.817477409991106,32.817477409991106 0 0,0 -0.42996290510195784,-0.3664237155739133 l 7.742295451330422 -8.92802517245322" fill="#ff4706" stroke="none" /><path d="M 86.24171649860922 115.8653595955263 l -11.616824935897375 13.395937432722459 a38.73137787349595,38.73137787349595 0 0,0 -0.4999255311940792,-0.4411261559339548 l 11.84569281999804 -13.193988135016214" fill="#ffa00e" stroke="none" /><path d="M 85.70375840098266 115.38237550388516 l -6.333210263116346 6.81436570147298 a30.30296362189241,30.30296362189241 0 0,0 -0.3790239359633237,-0.3583907889345787 l 6.449570033470486 -6.70434027579247" fill="#ff1f03" stroke="none" /><path d="M 85.44109423537348 115.13401014063109 l -22.721749342709995 23.619301513781878 a53.77421695772274,53.77421695772274 0 0,0 -0.6615510243800974,-0.647466915389505 l 23.124950319465885 -23.224684495469806" fill="#94ff23" stroke="none" /><path d="M 85.18274418774928 114.88116024355367 l -6.3611043199790736 6.388538735580565 a30.015379933517487,30.015379933517487 0 0,0 -0.3629851012684186,-0.3677019911752085 l 6.470130046303026 -6.278096250424692" fill="#ff1a02" stroke="none" /><path d="M 84.67929136418377 114.36230785411682 l -10.782023121834907 10.107543916342388 a35.77885200618007,35.77885200618007 0 0,0 -0.4173408722239536,-0.4529410909757801 l 10.95441040205459 -9.920451570565264" fill="#ff740a" stroke="none" /><path d="M 84.43433777217949 114.09645910891817 l -12.273836941849009 11.115340807734436 a37.55892129781357,37.55892129781357 0 0,0 -0.4298549690801924,-0.48294661462284044 l 12.463350760577539 -10.902420023370732" fill="#ff8f0d" stroke="none" /><path d="M 83.95833913139862 113.55231037782056 l -9.02610985153104 7.625434997923476 a32.81600262184559,32.81600262184559 0 0,0 -0.3608260129946831,-0.4346381769424596 l 9.156031864419258 -7.468935563867255" fill="#ff4706" stroke="none" /><path d="M 83.72743513129214 113.27417163493432 l -24.138006120851678 19.690321640040466 a52.15047520951356,52.15047520951356 0 0,0 -0.561442301080859,-0.7004855962986074 l 24.473366333987396 -19.2719082101636" fill="#a8ff21" stroke="none" /><path d="M 83.50135304334701 112.99209946851258 l -9.269336742349171 7.299274011992652 a32.798305164099446,32.798305164099446 0 0,0 -0.3454648337666771,-0.4465598667716656 l 9.393608393333917 -7.138636151107734" fill="#ff4606" stroke="none" /><path d="M 83.06392112726016 112.41649034213515 l -12.180512926803365 8.930002171951358 a36.1033053981928,36.1033053981928 0 0,0 -0.3631308410539588,-0.5043569779030611 l 12.33242356023293 -8.719011588597159" fill="#ff790b" stroke="none" /><path d="M 82.85270091963577 112.12312394758628 l -12.167445332740309 8.602372140531752 a35.901259422257596,35.901259422257596 0 0,0 -0.3524120499543369,-0.5076758420919161 l 12.31371828985678 -8.391655036252823" fill="#ff760a" stroke="none" /><path d="M 82.44556493220864 111.52570212397912 l -12.548803400560532 8.239158335126884 a36.011868533171025,36.011868533171025 0 0,0 -0.3357594628333377,-0.5211061425571025 l 12.688767726770916 -8.021930592648333" fill="#ff780b" stroke="none" /><path d="M 82.24976979558568 111.22182372390057 l -21.206534685904987 13.406924377849835 a46.089095931457464,46.089095931457464 0 0,0 -0.41817154765135217,-0.674225683533429 l 21.434170873224296 -13.03990236295114" fill="#f7ff19" stroke="none" /><line stroke="#e1ed5e" stroke-width="0.3" x1="26.63291911575756" x2="22.317208475507996" y1="142.92168965132927" y2="145.44649492493687" /><path d="M 25.769776987707644 143.4266507060508 a86.0,86.0 0 0,1 -11.730757126820373,-40.83630448921669" fill="none" id="id57" stroke="none" /><text fill="#e1ed5e" style="font-size:6.75px; font-family:Arial;" text-anchor="middle"><textPath startOffset="21.46611528233685" xlink:href="#id57">September</textPath></text><path d="M 81.69416730710424 110.29060199501025 l -9.014502002147928 5.067491539094424 a31.341214476333164,31.341214476333164 0 0,0 -0.2603165314815304,-0.47255011868685853 l 9.100394943080975 -4.911570902009743" fill="#ff3004" stroke="none" /><path d="M 81.51974371655577 109.97397251340807 l -12.165873102744015 6.566039023878967 a34.82466407603352,34.82466407603352 0 0,0 -0.2801685546455609,-0.5299733211128522 l 12.277094165614463 -6.355650687679989" fill="#ff6609" stroke="none" /><path d="M 81.18737489456691 109.33194174019688 l -13.538061434667322 6.715511518221649 a36.11215412706588,36.11215412706588 0 0,0 -0.2714374250278422,-0.5592414926669355 l 13.651652116309883 -6.481481069589429" fill="#ff790b" stroke="none" /><path d="M 80.87730276802145 108.67885076344099 l -26.932840464487775 12.223490242577538 a50.57687625825179,50.57687625825179 0 0,0 -0.35297581533760314,-0.7958672806924942 l 27.139257364556656 -11.758074625392348" fill="#bcff1f" stroke="none" /><path d="M 80.58989483394504 108.01547362559985 l -15.084429779078901 6.2291702191737395 a37.32000561824056,37.32000561824056 0 0,0 -0.2400873902344714,-0.5958772131383864 l 15.18941978357076 -5.968593638192548" fill="#ff8b0c" stroke="none" /><path d="M 80.32549172779594 107.34259656027581 l -14.473323246734688 5.401495784134728 a36.448405824242705,36.448405824242705 0 0,0 -0.21430923068237387,-0.5896869606857872 l 14.564156738422286 -5.151561026442824" fill="#ff7e0b" stroke="none" /><path d="M 80.20201598880116 107.00284435728193 l -9.770150778128249 3.455849100984604 a31.363336298515847,31.363336298515847 0 0,0 -0.17564837718650142,-0.5105164032868099 l 9.828189986257978 -3.287159994608497" fill="#ff3004" stroke="none" /><path d="M 80.0844068197444 106.66101706037122 l -29.520934401586338 9.87364252258454 a52.12835338733087,52.12835338733087 0 0,0 -0.27729242929181935,-0.8534183446147691 l 29.686519081894406 -9.364025277991967" fill="#a9ff21" stroke="none" /><path d="M 79.86692584326677 105.97154293290107 l -9.918548284761709 2.941877452664056 a31.3456388407697,31.3456388407697 0 0,0 -0.14897740751513053,-0.518609899559915 l 9.967718329162944 -2.770710077599545" fill="#ff3004" stroke="none" /><path d="M 79.76711848015287 105.62410040840567 l -10.006083032639408 2.781374250385744 a31.385458120698534,31.385458120698534 0 0,0 -0.14020620005701867,-0.5217594283988224 l 10.052477309038201 -2.608723888811383" fill="#ff3004" stroke="none" /><path d="M 79.58551787078972 104.9243191809786 l -19.41187003344075 4.682472145965421 a40.96863149023831,40.96863149023831 0 0,0 -0.1594644167910341,-0.6869685339642427 l 19.48959501616234 -4.347634954652604" fill="#ffc011" stroke="none" /><path d="M 79.50377843672027 104.57218783832718 l -9.596538402714499 2.14074462648958 a30.832412566131374,30.832412566131374 0 0,0 -0.11109353025052204,-0.5189919883898503 l 9.631965971689462 -1.9752388186835659" fill="#ff2703" stroke="none" /><path d="M 79.4281124754447 104.21870165774334 l -32.11474000070272 6.585808264664314 a53.78306568659581,53.78306568659581 0 0,0 -0.178175784980505,-0.9085144889772554 l 32.223345718658884 -6.032030048619103" fill="#94ff23" stroke="none" /><path d="M 79.23777060512086 103.15116336523772 l -14.94833857551625 2.2687668069959135 a36.11952806779344,36.11952806779344 0 0,0 -0.0880042824010114,-0.6155017461424236 l 14.985176908933859 -2.0111195888730893" fill="#ff790b" stroke="none" /><path d="M 79.1416061653843 102.43462659150553 l -9.767575969559728 1.1400877928853568 a30.833887354276886,30.833887354276886 0 0,0 -0.056995263946135674,-0.5277053583674961 l 9.785753535006915 -0.9717861126330786" fill="#ff2703" stroke="none" /><path d="M 79.10278846688536 102.07522291339032 l -10.29500015717959 1.0223574655250518 a31.3456388407697,31.3456388407697 0 0,0 -0.0486982915301476,-0.5373815890720018 l 10.311073044986813 -0.8449944879044838" fill="#ff3004" stroke="none" /><path d="M 79.07016306316243 101.71520430193888 l -16.18757625722591 1.3265750955512587 a37.241841846528395,37.241841846528395 0 0,0 -0.04685988682208781,-0.6393659253339319 l 16.208012702712335 -1.0477360337205661" fill="#ff8a0c" stroke="none" /><path d="M 79.0235259727143 100.99374915477108 l -15.090804808430734 0.7149187467677509 a36.10772976262933,36.10772976262933 0 0,0 -0.024068152583906,-0.6210920737586482 l 15.100875093865842 -0.455049425995106" fill="#ff790b" stroke="none" /><path d="M 79.0095281055655 100.63252640178507 l -9.379819232943028 0.2826512590401074 a30.384076969895595,30.384076969895595 0 0,0 -0.01125359266884555,-0.5229102311779462 l 9.38329488829688 -0.12115121207203232" fill="#ff2003" stroke="none" /><line stroke="#e1ed5e" stroke-width="0.3" x1="15.007084014347285" x2="10.007500721073583" y1="101.09737516637583" y2="101.16192664675087" /><path d="M 14.007167355692545 101.11028546245083 a86.0,86.0 0 0,1 10.666146001902534,-42.60595125391555" fill="none" id="id58" stroke="none" /><text fill="#e1ed5e" style="font-size:6.75px; font-family:Arial;" text-anchor="middle"><textPath startOffset="22.20632615414155" xlink:href="#id58">October</textPath></text><path d="M 79.00019446554 99.90962569577889 l -15.250642986458926 -0.06563233390729467 a36.250784212744044,36.250784212744044 0 0,0 0.008056292947528854,-0.6239687671324204 l 15.247253686393682 0.3281373591001871" fill="#ff7b0b" stroke="none" /><path d="M 79.01574976396665 99.18683210126434 l -25.353226349130427 -0.9824715948673761 a46.37225525539586,46.37225525539586 0 0,0 0.0377743793092855,-0.7973574444555352 l 25.332558361587644 1.4187401459459206" fill="#f3ff19" stroke="none" /><path d="M 79.05617556472873 98.46500227214037 l -16.701422805082533 -1.224067081781413 a37.746219392293646,37.746219392293646 0 0,0 0.05307031482952282,-0.6475922630983462 l 16.677878006433513 1.5113732620875375" fill="#ff920d" stroke="none" /><path d="M 79.12142395522702 97.74499172005258 l -8.859147651752311 -0.9568397416154082 a29.910669975186103,29.910669975186103 0 0,0 0.05969264857553341,-0.5114101593090058 l 8.841364650173187 1.1091936392492758" fill="#ff1902" stroke="none" /><path d="M 79.16333360222342 97.38593545837743 l -15.809682833576817 -1.9834041837883443 a36.9336111241163,36.9336111241163 0 0,0 0.0845674186709336,-0.6301254965279774 l 15.77319941584805 2.255248022380981" fill="#ff850c" stroke="none" /><path d="M 79.26566170972629 96.67025291283419 l -11.127755036350376 -1.7870167545382136 a32.270331008005996,32.270331008005996 0 0,0 0.09279739131903367,-0.5476954565240834 l 11.095345783511119 1.978297999378125" fill="#ff3e05" stroke="none" /><path d="M 79.32604984820605 96.31383870115002 l -32.09258351200336 -5.722101410397023 a53.59871716840676,53.59871716840676 0 0,0 0.1697657081817451,-0.9068952014199095 l 31.989332079911755 6.273674689279506" fill="#97ff23" stroke="none" /><path d="M 79.3925641242962 95.95851677861259 l -10.867168593379358 -2.131244265372774 a32.074184184652836,32.074184184652836 0 0,0 0.11091665897341117,-0.5408690204040171 l 10.828872638490951 2.3179889419401936" fill="#ff3b05" stroke="none" /><path d="M 79.62865764111835 94.90015583598534 l -15.242025480466674 -3.815750249783144 a36.71239290228944,36.71239290228944 0 0,0 0.1587438067307797,-0.6117046430078855 l 15.174085341865588 4.077551318339894" fill="#ff820c" stroke="none" /><path d="M 79.71946130924805 94.55025226153421 l -9.98549956183777 -2.6832844277155043 a31.33973968818765,31.33973968818765 0 0,0 0.14448101946776382,-0.5197750993899292 l 9.937831771803646 2.854770830524376" fill="#ff2f04" stroke="none" /><path d="M 79.81627453868168 94.20196356495316 l -42.54231136316401 -12.220829687138513 a65.26281661126458,65.26281661126458 0 0,0 0.31945869931038723,-1.0770559226482912 l 42.32564676674192 12.951314996533345" fill="#33ff53" stroke="none" /><path d="M 80.02781315780177 93.51064311812611 l -10.668227898433429 -3.4663173681024038 a32.21723863476755,32.21723863476755 0 0,0 0.17591027471728837,-0.5259493311223067 l 10.606980329944367 3.6494398021470325" fill="#ff3d05" stroke="none" /><path d="M 80.2630227832202 92.82701384747504 l -8.826612031213106 -3.207845111143705 a30.391450910623156,30.391450910623156 0 0,0 0.18292094970860948,-0.49013720264460076 l 8.770086493002868 3.3593054508176476" fill="#ff2003" stroke="none" /><path d="M 80.52162464483688 92.15188598940014 l -14.64776744953557 -5.901793493995734 a36.79203146214711,36.79203146214711 0 0,0 0.24173821129413925,-0.5853882531516756 l 14.54400755135523 6.153056317600721" fill="#ff830c" stroke="none" /><path d="M 80.803312248108 91.48605970444005 l -11.917602864838617 -5.28558679334823 a34.037127206329885,34.037127206329885 0 0,0 0.24214609246901678,-0.5335368170745983 l 11.824854455406248 5.489945619264899" fill="#ff5a08" stroke="none" /><path d="M 81.10775173730289 90.83032412892265 l -10.02105560617196 -4.863890761803956 a32.139074863055384,32.139074863055384 0 0,0 0.24584859855669114,-0.49561577280545416 l 9.935846994661855 5.035666123108372" fill="#ff3c05" stroke="none" /><path d="M 81.26839172434947 90.50648371742162 l -13.475813135617111 -6.829784690205503 a36.10772976262933,36.10772976262933 0 0,0 0.28575067031203766,-0.5519793424312551 l 13.35625303214496 7.060736754897094" fill="#ff790b" stroke="none" /><path d="M 81.43458229118936 90.18545643968196 l -13.358860656711958 -7.062115266563417 a36.11067933892036,36.11067933892036 0 0,0 0.2952338654386426,-0.5470235144044638 l 13.235318692054843 7.291019764300353" fill="#ff790b" stroke="none" /><line stroke="#e1ed5e" stroke-width="0.3" x1="26.266209847984243" x2="21.928928074336255" y1="57.711370442889674" y2="55.22380399835377" /><path d="M 25.398753493254645 57.213857153982495 a86.0,86.0 0 0,1 29.58750427330803,-30.492523968695096" fill="none" id="id59" stroke="none" /><text fill="#e1ed5e" style="font-size:6.75px; font-family:Arial;" text-anchor="middle"><textPath startOffset="21.46611528233685" xlink:href="#id59">November</textPath></text><path d="M 81.78341655067845 89.55222093294921 l -27.819969826931 -15.955620833752963 a53.07074301231331,53.07074301231331 0 0,0 0.4613119383604475,-0.7885316391198851 l 27.54119821410023 16.43213188522674" fill="#9dff22" stroke="none" /><path d="M 81.96595687620814 89.24020034530311 l -7.249416838844374 -4.325279265659794 a29.441687344913152,29.441687344913152 0 0,0 0.26341085351932364,-0.4329781839652678 l 7.1738901870388325 4.4494252228321365" fill="#ff1101" stroke="none" /><path d="M 82.34701348167596 88.62581576622439 l -12.662643684032153 -8.158803157716937 a36.06348611826397,36.06348611826397 0 0,0 0.3407198565041194,-0.5189397169015018 l 12.520327192170113 8.375560938596106" fill="#ff780b" stroke="none" /><path d="M 82.54541684631803 88.32363383020206 l -16.110697110504383 -10.777364148812277 a40.38314059646987,40.38314059646987 0 0,0 0.3914771154714637,-0.5744443612155334 l 15.922795529364178 11.053086533298226" fill="#ffb811" stroke="none" /><path d="M 82.95767976084542 87.72973835380427 l -12.115694165056546 -8.72315126956595 a35.92928039702233,35.92928039702233 0 0,0 0.36568716792022277,-0.49879688607568307 l 11.96374438462269 8.930410599313134" fill="#ff760a" stroke="none" /><path d="M 83.39014120810768 87.1503855733568 l -35.012981986336435 -27.086522774717153 a65.2672409757011,65.2672409757011 0 0,0 0.6950834340526437,-0.8826853744189724 l 34.54154447168982 27.685200543089174" fill="#33ff53" stroke="none" /><path d="M 84.07557802195018 86.31012108654704 l -7.874234876219537 -6.769308307712602 a31.383983332553022,31.383983332553022 0 0,0 0.3556973041183316,-0.4066235071035139 l 7.756545708523363 6.903847371019059" fill="#ff3004" stroke="none" /><path d="M 84.31358615837235 86.03803664274999 l -11.027272055435146 -9.81501380257077 a35.76262933657943,35.76262933657943 0 0,0 0.4132394969910567,-0.4563093738404031 l 10.856688917828045 10.003375963680728" fill="#ff740a" stroke="none" /><path d="M 84.80347519578584 85.50635884689758 l -17.248436295171306 -16.450645745337415 a44.835526007771904,44.835526007771904 0 0,0 0.5374621024678308,-0.553901940845698 l 16.962709929000354 16.745111881733237" fill="#fff617" stroke="none" /><path d="M 85.05521093208273 85.24692304244772 l -23.46462726659206 -23.163622468748294 a53.971838569221404,53.971838569221404 0 0,0 0.6583644209801688,-0.655537194928956 l 23.06242704544458 23.564095514327356" fill="#92ff23" stroke="none" /><path d="M 85.31137513191541 84.99185889309783 l -6.458552387687458 -6.599042895522816 a30.233648579053327,30.233648579053327 0 0,0 0.37506533626555766,-0.36081255632358616 l 6.344003807809473 6.709238538608716" fill="#ff1e03" stroke="none" /><path d="M 86.10567301691215 84.25364557470407 l -9.780151646951365 -11.083785083904294 a35.78180158247109,35.78180158247109 0 0,0 0.46534437656016897,-0.403542057773344 l 9.587913471744422 11.250492135097318" fill="#ff740a" stroke="none" /><path d="M 86.93701828274178 83.55741782278169 l -30.283867887195896 -38.118784605001665 a69.68423147151084,69.68423147151084 0 0,0 0.9456065422912181,-0.7380609052207289 l 29.62322878974525 38.634423899445615" fill="#39ff8b" stroke="none" /><path d="M 87.51073957382395 83.11751280151077 l -8.792886074189909 -11.885874865269061 a35.78475115876211,35.78475115876211 0 0,0 0.4983532418806865,-0.36207482419566217 l 8.58698751595544 12.03546892428139" fill="#ff740a" stroke="none" /><path d="M 88.09926311788651 82.69761687909137 l -8.599186416503512 -12.502286150875195 a36.1740952291774,36.1740952291774 0 0,0 0.516075672131064,-0.34845659753506025 l 8.382706049965908 12.648454660708921" fill="#ff7a0b" stroke="none" /><path d="M 88.70189139769569 82.29822771554957 l -16.75991020224313 -26.259272622626035 a52.15194999765907,52.15194999765907 0 0,0 0.7608742212249154,-0.4764593675283089 l 16.30541682864597 26.543876331477275" fill="#a8ff21" stroke="none" /><line stroke="#e1ed5e" stroke-width="0.3" x1="56.762969772571076" x2="54.21961505331055" y1="26.818313649435495" y2="22.513508569990535" /><path d="M 56.25429882871897 25.957352633546506 a86.0,86.0 0 0,1 42.265352541879196,-11.944610805530505" fill="none" id="id60" stroke="none" /><text fill="#e1ed5e" style="font-size:6.75px; font-family:Arial;" text-anchor="middle"><textPath startOffset="22.20632615414155" xlink:href="#id60">December</textPath></text><path d="M 89.3179101791058 81.91981866633112 l -5.296284058395507 -8.96432980586888 a31.41200430731776,31.41200430731776 0 0,0 0.4678941708163063,-0.27103450421580516 l 5.14119315511388 9.054168467474732" fill="#ff3104" stroke="none" /><path d="M 89.94658935756843 81.56283822128135 l -7.438036503442337 -13.640771993454813 a36.53689311297345,36.53689311297345 0 0,0 0.5547604454065443,-0.2963338173652904 l 7.202131011507487 13.766784537321852" fill="#ff800b" stroke="none" /><path d="M 90.26544431104013 81.39251694778311 l -4.9570623601747315 -9.475363519707713 a31.693688843110632,31.693688843110632 0 0,0 0.4855767616617073,-0.24873127722687102 l 4.79322511092426 9.559287322247089" fill="#ff3505" stroke="none" /><path d="M 90.91171255644093 81.06846463323043 l -19.326280054611768 -40.257986626652624 a65.65658504611639,65.65658504611639 0 0,0 1.023060247559504,-0.4803405039694243 l 18.630441595752654 40.58469211326206" fill="#34ff58" stroke="none" /><path d="M 91.90106846888425 80.62456947434976 l -3.991071858736781 -9.548016948252801 a31.348588417060725,31.348588417060725 0 0,0 0.4996608670869087,-0.20382421342196452 l 3.8261271220614916 9.615302047858343" fill="#ff3004" stroke="none" /><path d="M 92.57280143429618 80.3572730644239 l -4.204074659832348 -11.118524680514783 a32.88679245283019,32.88679245283019 0 0,0 0.5312276785071083,-0.19565563720896686 l 4.0120646555526704 11.189243585530072" fill="#ff4806" stroke="none" /><path d="M 93.25333710446033 80.11325718540243 l -6.898122460988016 -20.333191299058438 a42.47144061051547,42.47144061051547 0 0,0 0.6943416726524427,-0.22891353276425602 l 6.547097966093164 20.448918556081928" fill="#ffd614" stroke="none" /><path d="M 94.28887869178378 79.79150937346287 l -2.479881762865836 -8.774926088104241 a30.118615103703355,30.118615103703355 0 0,0 0.5001154600152206,-0.13670044719311122 l 2.328468413626893 8.816313076123647" fill="#ff1c02" stroke="none" /><path d="M 94.98787191387505 79.60689891045804 l -2.291114404648202 -9.32197399165424 a30.59939603914041,30.59939603914041 0 0,0 0.5125782247534311,-0.12131070506089905 l 2.130312492932237 9.36003060885601" fill="#ff2403" stroke="none" /><path d="M 95.692805502759 79.44645832069477 l -1.825803594644883 -8.712569238467601 a29.90182124631303,29.90182124631303 0 0,0 0.504676660371552,-0.1012333903190127 l 1.6755605248061947 8.742706584863823" fill="#ff1902" stroke="none" /><path d="M 96.04723909329186 79.375362276772 l -11.858282720124423 -61.87391316968403 a84.0,84.0 0 0,0 1.4224195155884267,-0.2599380745970552 l 10.791468083433102 62.06886672563182" fill="#4dd2ff" stroke="none" /><path d="M 98.19473922651362 79.07773832637324 l -0.6425203614421773 -7.446558043115812 a28.474226321456996,28.474226321456996 0 0,0 0.48868526269382645,-0.03793138170138801 l 0.5142449093860166 7.456514687005662" fill="#ff0100" stroke="none" /><path d="M 99.27714615592234 79.0124445844662 l -0.45738890878363214 -13.279966826206248 a34.287841191066995,34.287841191066995 0 0,0 0.5900339306247384,-0.015238835658380533 l 0.22872834296401467 13.28587245400699" fill="#ff5d08" stroke="none" /><path d="M 99.63851952072746 79.00311137660856 l -0.1270825843371651 -7.381695616510433 a28.382789456435226,28.382789456435226 0 0,0 0.48856306360969903,-0.004205216533352565 l 1.8082618953204455e-15 7.382789456435226" fill="#ff0000" stroke="none" /></svg>