<?xml version="1.0" encoding="utf-8" ?>
<svg baseProfile="full" height="200mm" version="1.1" viewBox="0,0,200,200" width="200mm" xmlns="http://www.w3.org/2000/svg" xmlns:ev="http://www.w3.org/2001/xml-events" xmlns:xlink="http://www.w3.org/1999/xlink"><defs /><rect fill="#1a1a1a" height="200" width="200" x="0" y="0" /><text alignment-baseline="middle" fill="#e1ed5e" style="dominant-baseline: central; font-size:9.0px; font-family:Arial;" text-anchor="middle" x="100.0" y="100.0">2026</text><line stroke="#e1ed5e" stroke-width="0.3" x1="100.0" x2="100.0" y1="15.0" y2="10.0" /><path d="M 100.0 14.0 a86.0,86.0 0 0,1 42.46469731375804,11.215312516191453" fill="none" id="id61" stroke="none" /><text fill="#e1ed5e" style="font-size:6.75px; font-family:Arial;" text-anchor="middle"><textPath startOffset="22.20632615414155" xlink:href="#id61">January</textPath></text><path d="M 100.0 79.0 l 0.0 -49.83923482334569 a70.83923482334569,70.83923482334569 0 0,0 1.2193809788210563,0.010495597057026983 l -0.857900499548528 49.83185060289723" fill="#39ff8a" stroke="none" /><path d="M 100.72285384407766 79.0124445844662 l 0.8691178094828731 -25.234227276502445 a46.2491899277767,46.2491899277767 0 0,0 0.7953961398563593,0.03425143094244001 l -1.3033547817285638 25.21552811903581" fill="#ffd714" stroke="none" /><path d="M 101.44485096284872 79.0497635885617 l 1.7346672520197777 -25.152552034392432 a46.21229748194418,46.21229748194418 0 0,0 0.7931126373618409,0.061560805034574735 l -2.16737007874396 25.11896596716939" fill="#ffd614" stroke="none" /><path d="M 102.52436894288641 79.15227682838746 l 2.367870879981717 -19.555270140321472 a40.69810657817685,40.69810657817685 0 0,0 0.6947462755187782,0.09019800591395377 l -2.7041318840083415 19.511613811243382" fill="#ff7e0b" stroke="none" /><path d="M 103.59715602781102 79.31037775812273 l 4.413485053368927 -25.384870108050716 a46.76568416943198,46.76568416943198 0 0,0 0.7919097836005164,0.14471645119304402 l -4.849789958072344 25.305138175506933" fill="#ffdf14" stroke="none" /><path d="M 104.66035177308747 79.52364482259891 l 5.502362626331622 -24.175928543046698 a45.79418309584228,45.79418309584228 0 0,0 0.7671099470485013,0.1815501401380191 l -5.917696260342647 24.077632490767808" fill="#ffd013" stroke="none" /><path d="M 105.01212808612495 79.60689891045804 l 3.6494710495536387 -14.848788929183954 a36.29068904938512,36.29068904938512 0 0,0 0.6053478951188241,0.1543166570989223 l -3.9045278333574878 14.783769275916164" fill="#ff3404" stroke="none" /><path d="M 105.71112130821622 79.79150937346287 l 16.774175307528353 -59.35450258820588 a82.67925043919578,82.67925043919578 0 0,0 1.366214699699789,0.3988355349161691 l -17.79338022495157 59.05696872437101" fill="#4be1ff" stroke="none" /><path d="M 106.40334571778207 80.00007090966166 l 7.513025656928454 -23.46585472890996 a45.639234823345696,45.639234823345696 0 0,0 0.746130156884125,0.24598738177679402 l -7.915838636054996 23.33305362287393" fill="#ffcd13" stroke="none" /><path d="M 106.74666289553966 80.11325718540242 l 5.305144799608031 -15.637664406465918 a37.513058754635956,37.513058754635956 0 0,0 0.6097086683613815,0.21271538244775728 l -5.5735354720326855 15.544028170845953" fill="#ff4906" stroke="none" /><path d="M 107.4271985657038 80.35727306442388 l 5.532342324170547 -14.631396835088513 a36.642397032988484,36.642397032988484 0 0,0 0.5880526035658747,0.2281552742382202 l -5.783378092736089 14.533998856959746" fill="#ff3a05" stroke="none" /><path d="M 108.09893153111575 80.62456947434976 l 7.117827313233563 -17.02829170382347 a39.45606090181534,39.45606090181534 0 0,0 0.62437570910894,0.26732509380186475 l -7.409886780132818 16.903247082058815" fill="#ff6a09" stroke="none" /><path d="M 110.05341064243156 81.56283822128135 l 7.725211074564918 -14.167427495237918 a37.136755807144255,37.136755807144255 0 0,0 0.5586003128329087,0.31086046930778727 l -7.9679354764698616 14.032351628369952" fill="#ff4206" stroke="none" /><line stroke="#e1ed5e" stroke-width="0.3" x1="143.23703022742887" x2="145.7803849466894" y1="26.81831364943548" y2="22.513508569990506" /><path d="M 143.74570117128098 25.957352633546492 a86.0,86.0 0 0,1 28.547481713284135,27.462654790039103" fill="none" id="id62" stroke="none" /><text fill="#e1ed5e" style="font-size:6.75px; font-family:Arial;" text-anchor="middle"><textPath startOffset="19.985693538727396" xlink:href="#id62">February</textPath></text><path d="M 110.68208982089419 81.91981866633111 l 6.2791421601875435 -10.627885627212665 a33.3442123755612,33.3442123755612 0 0,0 0.4916491915985262,0.29621313683776024 l -6.461153418003707 10.51822588091629" fill="#ff0000" stroke="none" /><path d="M 110.99172775467656 82.1063720568725 l 13.524781392617438 -22.01723074415352 a46.83946906109701,46.83946906109701 0 0,0 0.6833674396843835,0.4279246280381116 l -13.901767984674084 21.781161774792462" fill="#ffe015" stroke="none" /><path d="M 111.2981086023043 82.29822771554956 l 8.61417376548908 -13.496607952969628 a37.01132149131368,37.01132149131368 0 0,0 0.5340786110079513,0.34737958496264326 l -8.84521940228131 13.346329443847456" fill="#ff4006" stroke="none" /><path d="M 111.60114157652 82.49532879139004 l 8.846578114939113 -13.348379571258189 a37.01378098770252,37.01378098770252 0 0,0 0.5280550012466698,0.35654509402848494 l -9.075037810592326 13.194122564931034" fill="#ff4006" stroke="none" /><path d="M 111.90073688211348 82.69761687909136 l 13.96588524990556 -20.30488528653186 a45.644153816123364,45.644153816123364 0 0,0 0.6435148859527712,0.45082330193706366 l -14.313331275441982 20.06147714183086" fill="#ffcd13" stroke="none" /><path d="M 112.19680574252982 82.90503203632743 l 9.03368333192566 -12.661555034424989 a36.55385516299044,36.55385516299044 0 0,0 0.5090641022734188,0.36985671978250706 l -9.250292750552868 12.504179079825807" fill="#ff3805" stroke="none" /><path d="M 112.48926042617603 83.11751280151076 l 32.22828908490375 -43.564923729570204 a75.19008393519422,75.19008393519422 0 0,0 1.0338774255008263,0.7786950423603637 l -32.97341266416296 43.003712097703996" fill="#40ffc3" stroke="none" /><path d="M 112.77801427241765 83.33499621200491 l 8.009517749675494 -10.445961382785448 a34.16322467304314,34.16322467304314 0 0,0 0.4635908020281624,0.3618399743384356 l -8.188141106863085 10.306543019223788" fill="#ff0f01" stroke="none" /><path d="M 113.06298171725822 83.55741782278167 l 7.9678323775304465 -10.029236929020458 a33.80905719305095,33.80905719305095 0 0,0 0.4525529083193031,0.3659329789156571 l -8.139288684414241 9.89059785284067" fill="#ff0801" stroke="none" /><path d="M 113.34407831869373 83.78471172551755 l 15.655002832522554 -19.023448289536294 a45.636775326956865,45.636775326956865 0 0,0 0.6022803961598194,0.5043925111269042 l -15.980140765641492 18.75115462101557" fill="#ffcd13" stroke="none" /><path d="M 113.6212207817346 84.01681056812373 l 10.07433252820465 -11.821258004563571 a36.53171969549092,36.53171969549092 0 0,0 0.4750971045207959,0.4119995273558246 l -10.27632343137221 11.646093483788075" fill="#ff3805" stroke="none" /><path d="M 113.89432698308785 84.25364557470407 l 13.416989183161347 -15.205390462998054 a41.278547725941834,41.278547725941834 0 0,0 0.5287369422034708,0.4747052472561341 l -13.676737112960808 14.972186206972621" fill="#ff880c" stroke="none" /><path d="M 114.16331599549186 84.49514656593476 l 8.634010512184473 -9.451816762558215 a33.80167870388444,33.80167870388444 0 0,0 0.42621038263277244,0.3961161005716405 l -8.795428778612093 9.301796075911932" fill="#ff0801" stroke="none" /><path d="M 114.42810811169701 84.74124197986012 l 43.28432433509102 -45.77627406041963 a84.0,84.0 0 0,0 1.042067025550327,1.0024676529507923 l -44.06587460425377 45.02442332070654" fill="#4dd2ff" stroke="none" /><line stroke="#e1ed5e" stroke-width="0.3" x1="172.23445277983987" x2="176.4835382374775" y1="55.19839476539836" y2="52.563006222186495" /><path d="M 173.08426987136738 54.67131705675599 a86.0,86.0 0 0,1 12.851231095245387,41.99856678651699" fill="none" id="id63" stroke="none" /><text fill="#e1ed5e" style="font-size:6.75px; font-family:Arial;" text-anchor="middle"><textPath startOffset="22.20632615414155" xlink:href="#id63">March</textPath></text><line stroke="#e1ed5e" stroke-width="0.3" x1="184.98032266829074" x2="189.97916517819016" y1="98.17113171792111" y2="98.06355123074" /><path d="M 185.9800911702706 98.14961562048488 a86.0,86.0 0 0,1 -9.607161424134198,41.387399972396054" fill="none" id="id64" stroke="none" /><text fill="#e1ed5e" style="font-size:6.75px; font-family:Arial;" text-anchor="middle"><textPath startOffset="21.466115282336823" xlink:href="#id64">April</textPath></text><line stroke="#e1ed5e" stroke-width="0.3" x1="174.80103733775053" x2="179.2010983576182" y1="140.37084112569926" y2="142.7455964860345" /><path d="M 175.68104954172406 140.8457921977663 a86.0,86.0 0 0,1 -30.038265399797805,32.042727171017184" fill="none" id="id65" stroke="none" /><text fill="#e1ed5e" style="font-size:6.75px; font-family:Arial;" text-anchor="middle"><textPath startOffset="22.206326154141568" xlink:href="#id65">May</textPath></text><line stroke="#e1ed5e" stroke-width="0.3" x1="143.8653032363475" x2="146.44561519142675" y1="172.8068346515853" y2="177.08958963109032" /><path d="M 144.38136562736335 173.6633856474863 a86.0,86.0 0 0,1 -40.68145358897372,12.25698825130547" fill="none" id="id66" stroke="none" /><text fill="#e1ed5e" style="font-size:6.75px; font-family:Arial;" text-anchor="middle"><textPath startOffset="21.466115282336833" xlink:href="#id66">June</textPath></text><line stroke="#e1ed5e" stroke-width="0.3" x1="102.19456741930631" x2="102.32365962044197" y1="184.97166512339345" y2="189.96999836594603" /><path d="M 102.22038585953345 185.97133177190398 a86.0,86.0 0 0,1 -42.740103519485714,-10.115201625700543" fill="none" id="id67" stroke="none" /><text fill="#e1ed5e" style="font-size:6.75px; font-family:Arial;" text-anchor="middle"><textPath startOffset="22.20632615414155" xlink:href="#id67">July</textPath></text><line stroke="#e1ed5e" stroke-width="0.3" x1="58.666819895761336" x2="56.23545636021788" y1="174.27360380694188" y2="178.64263932499728" /><path d="M 58.180547188652646 175.14741091055294 a86.0,86.0 0 0,1 -31.652253787137756,-30.449443065178592" fill="none" id="id68" stroke="none" /><text fill="#e1ed5e" style="font-size:6.75px; font-family:Arial;" text-anchor="middle"><textPath startOffset="22.20632615414155" xlink:href="#id68">August</textPath></text><line stroke="#e1ed5e" stroke-width="0.3" x1="26.63291911575756" x2="22.317208475507996" y1="142.92168965132927" y2="145.44649492493687" /><path d="M 25.769776987707644 143.4266507060508 a86.0,86.0 0 0,1 -11.730757126820373,-40.83630448921669" fill="none" id="id69" stroke="none" /><text fill="#e1ed5e" style="font-size:6.75px; font-family:Arial;" text-anchor="middle"><textPath startOffset="21.46611528233685" xlink:href="#id69">September</textPath></text><line stroke="#e1ed5e" stroke-width="0.3" x1="15.007084014347285" x2="10.007500721073583" y1="101.09737516637583" y2="101.16192664675087" /><path d="M 14.007167355692545 101.11028546245083 a86.0,86.0 0 0,1 10.666146001902534,-42.60595125391555" fill="none" id="id70" stroke="none" /><text fill="#e1ed5e" style="font-size:6.75px; font-family:Arial;" text-anchor="middle"><textPath startOffset="22.20632615414155" xlink:href="#id70">October</textPath></text><line stroke="#e1ed5e" stroke-width="0.3" x1="26.266209847984243" x2="21.928928074336255" y1="57.711370442889674" y2="55.22380399835377" /><path d="M 25.398753493254645 57.213857153982495 a86.0,86.0 0 0,1 29.58750427330803,-30.492523968695096" fill="none" id="id71" stroke="none" /><text fill="#e1ed5e" style="font-size:6.75px; font-family:Arial;" text-anchor="middle"><textPath startOffset="21.46611528233685" xlink:href="#id71">November</textPath></text><line stroke="#e1ed5e" stroke-width="0.3" x1="56.762969772571076" x2="54.21961505331055" y1="26.818313649435495" y2="22.513508569990535" /><path d="M 56.25429882871897 25.957352633546506 a86.0,86.0 0 0,1 42.265352541879196,-11.944610805530505" fill="none" id="id72" stroke="none" /><text fill="#e1ed5e" style="font-size:6.75px; font-family:Arial;" text-anchor="middle"><textPath startOffset="22.20632615414155" xlink:href="#id72">December</textPath></text></svg>