<?xml version="1.0" encoding="utf-8" ?>
<svg baseProfile="full" height="200mm" version="1.1" viewBox="0,0,200,200" width="200mm" xmlns="http://www.w3.org/2000/svg" xmlns:ev="http://www.w3.org/2001/xml-events" xmlns:xlink="http://www.w3.org/1999/xlink"><defs /><rect fill="#1a1a1a" height="200" width="200" x="0" y="0" /><text alignment-baseline="middle" fill="#e1ed5e" style="dominant-baseline: central; font-size:9.0px; font-family:Arial;" text-anchor="middle" x="100.0" y="100.0">2023</text><line stroke="#e1ed5e" stroke-width="0.3" x1="100.0" x2="100.0" y1="15.0" y2="10.0" /><path d="M 100.0 14.0 a86.0,86.0 0 0,1 42.46469731375804,11.215312516191453" fill="none" id="id25" stroke="none" /><text fill="#e1ed5e" style="font-size:6.75px; font-family:Arial;" text-anchor="middle"><textPath startOffset="22.20632615414155" xlink:href="#id25">January</textPath></text><line stroke="#e1ed5e" stroke-width="0.3" x1="143.23703022742887" x2="145.7803849466894" y1="26.81831364943548" y2="22.513508569990506" /><path d="M 143.74570117128098 25.957352633546492 a86.0,86.0 0 0,1 28.547481713284135,27.462654790039103" fill="none" id="id26" stroke="none" /><text fill="#e1ed5e" style="font-size:6.75px; font-family:Arial;" text-anchor="middle"><textPath startOffset="19.985693538727396" xlink:href="#id26">February</textPath></text><line stroke="#e1ed5e" stroke-width="0.3" x1="172.23445277983987" x2="176.4835382374775" y1="55.19839476539836" y2="52.563006222186495" /><path d="M 173.08426987136738 54.67131705675599 a86.0,86.0 0 0,1 12.851231095245387,41.99856678651699" fill="none" id="id27" stroke="none" /><text fill="#e1ed5e" style="font-size:6.75px; font-family:Arial;" text-anchor="middle"><textPath startOffset="22.20632615414155" xlink:href="#id27">March</textPath></text><path d="M 119.47837535516314 92.15188598940014 l 19.245014963703756 -7.754089795318164 a41.748409806706604,41.748409806706604 0 0,0 0.2628290027918421,0.6688711439754776 l -19.3756375163773 7.421669646446901" fill="#ffc712" stroke="none" /><path d="M 120.18372546131832 94.20196356495316 l 19.665203273218 -5.649084223783986 a41.4605076267523,41.4605076267523 0 0,0 0.19113931606208684,0.6876298171861983 l -19.759529359846454 5.309743103178836" fill="#ffc212" stroke="none" /><path d="M 120.37134235888165 94.90015583598534 l 18.90070077192848 -4.73167780646922 a40.483974556907306,40.483974556907306 0 0,0 0.16341491226196503,0.6774603114486704 l -18.97934848445127 4.405632263361143" fill="#ffb410" stroke="none" /><path d="M 120.53481517161879 95.60439243477599 l 19.657269806414067 -4.2077634081725135 a41.10257518680912,41.10257518680912 0 0,0 0.14213799760823123,0.6931153556201338 l -19.726787099937294 3.868772396388968" fill="#ffbd11" stroke="none" /><line stroke="#e1ed5e" stroke-width="0.3" x1="184.98032266829074" x2="189.97916517819016" y1="98.17113171792111" y2="98.06355123074" /><path d="M 185.9800911702706 98.14961562048488 a86.0,86.0 0 0,1 -9.607161424134198,41.387399972396054" fill="none" id="id28" stroke="none" /><text fill="#e1ed5e" style="font-size:6.75px; font-family:Arial;" text-anchor="middle"><textPath startOffset="21.466115282336823" xlink:href="#id28">April</textPath></text><path d="M 120.8583938346157 102.4346265915055 l 19.50330025627841 2.276457804111956 a40.63570678688322,40.63570678688322 0 0,0 -0.08707359409987407,0.6940622174494391 l -19.461225152931686 -2.61183777584879" fill="#ffb610" stroke="none" /><path d="M 120.76222939487914 103.15116336523771 l 19.3326063617605 2.934183982032613 a40.55400481689619,40.55400481689619 0 0,0 -0.110689733796588,0.6892650780129554 l -19.279234873602626 -3.2665282897387735" fill="#ffb510" stroke="none" /><path d="M 120.70491114924044 103.5080841355445 l 23.11129926650534 3.9158044062228643 a44.44068424627926,44.44068424627926 0 0,0 -0.13428188191938994,0.7531241060874498 l -23.040470942246763 -4.313047263043533" fill="#ffec16" stroke="none" /><path d="M 120.64145759157962 103.86396538481128 l 26.822549906874485 5.021031286802876 a48.2884579756685,48.2884579756685 0 0,0 -0.15997291704138494,0.8156984575202292 l -26.732147056857436 -5.481993471391051" fill="#ddff1b" stroke="none" /><path d="M 120.49622156327973 104.57218783832717 l 25.319978765630076 5.648245878953662 a46.94232075588217,46.94232075588217 0 0,0 -0.18271613011867963,0.7871363064258627 l -25.219002069580842 -6.08325084272809" fill="#efff19" stroke="none" /><path d="M 120.41448212921028 104.9243191809786 l 15.767549434325515 3.803400234453121 a37.21978632742543,37.21978632742543 0 0,0 -0.1555941011382544,0.621521089933597 l -15.6997440188922 -4.074249163784113" fill="#ff840c" stroke="none" /><path d="M 120.23288151984713 105.62410040840565 l 33.9497081316474 9.436943876785657 a56.236892484406845,56.236892484406845 0 0,0 -0.26727885469469437,0.9304327568837959 l -33.7822366400666 -10.019934109174034" fill="#7aff26" stroke="none" /><path d="M 120.02730092923936 106.31721596034902 l 22.302990036248584 7.035037078550847 a44.3862162662879,44.3862162662879 0 0,0 -0.23610877642919353,0.7266680941987267 l -22.178589008803144 -7.417904072727369" fill="#ffec16" stroke="none" /><path d="M 119.79798401119884 107.00284435728193 l 37.57741237474194 13.291695258510464 a60.858889643673194,60.858889643673194 0 0,0 -0.35783792253113816,0.9846162775332724 l -37.34305019120558 -13.936559333049866" fill="#44ff2d" stroke="none" /><path d="M 119.54520255179757 107.68017299344265 l 21.7480059024448 8.545751682569607 a44.36676341629099,44.36676341629099 0 0,0 -0.2854206548286511,0.7083906581071764 l -21.597682633358755 -8.918841708519597" fill="#ffeb16" stroke="none" /><path d="M 119.12269723197855 108.67885076344098 l 20.587042601437773 9.343445029276022 a43.60810226641141,43.60810226641141 0 0,0 -0.3161076226853474,0.6808676970099451 l -20.423160361912593 -9.696432793564798" fill="#ffe115" stroke="none" /><path d="M 118.97047184881838 109.00673069616215 l 35.36359310988893 16.78979638080348 a60.146915333786204,60.146915333786204 0 0,0 -0.4520949861956503,0.9314495776747045 l -35.06934486707856 -17.39603491444346" fill="#4cff2c" stroke="none" /><path d="M 118.64920377521936 109.65438752849418 l 14.901627101066094 7.714328427788935 a37.7800284073365,37.7800284073365 0 0,0 -0.3039448113624662,0.5749490385049548 l -14.766629781478734 -7.969692481380024" fill="#ff8c0c" stroke="none" /><line stroke="#e1ed5e" stroke-width="0.3" x1="174.80103733775053" x2="179.2010983576182" y1="140.37084112569926" y2="142.7455964860345" /><path d="M 175.68104954172406 140.8457921977663 a86.0,86.0 0 0,1 -30.038265399797805,32.042727171017184" fill="none" id="id29" stroke="none" /><text fill="#e1ed5e" style="font-size:6.75px; font-family:Arial;" text-anchor="middle"><textPath startOffset="22.206326154141568" xlink:href="#id29">May</textPath></text><path d="M 118.48025628344425 109.97397251340804 l 17.17010163554738 9.266869416675357 a40.51120854690298,40.51120854690298 0 0,0 -0.3364814501052148,0.6108115695849666 l -17.008043775990654 -9.56105150465813" fill="#ffb510" stroke="none" /><path d="M 118.12598468904814 110.60418214915192 l 22.391909943785524 13.099861650814253 a46.94232075588217,46.94232075588217 0 0,0 -0.41402931157606804,0.693936941122997 l -22.16309975651123 -13.483360685823353" fill="#efff19" stroke="none" /><path d="M 117.75023020441432 111.22182372390056 l 19.87240927412014 12.563480657728224 a44.510714506268144,44.510714506268144 0 0,0 -0.41499911561618474,0.6440878433579875 l -19.653205295126906 -12.903690101007664" fill="#ffed16" stroke="none" /><path d="M 117.55443506779139 111.5257021239791 l 19.731258733333597 12.954937587756659 a44.60408818625332,44.60408818625332 0 0,0 -0.42691824816301244,0.6381848559751423 l -19.50533737975986 -13.292659357937609" fill="#ffef16" stroke="none" /><path d="M 117.35343817320211 111.8261652097733 l 25.79707056785778 17.58040195946784 a52.217933675044776,52.217933675044776 0 0,0 -0.5125789275067366,0.7384081750163439 l -25.490630733188908 -18.021851396671202" fill="#abff21" stroke="none" /><path d="M 116.93607887273984 112.41649034213515 l 15.801289421932534 11.584532581299186 a40.592910516890015,40.592910516890015 0 0,0 -0.4179885500634178,0.5599639695225672 l -15.599539605174025 -11.854809430331068" fill="#ffb610" stroke="none" /><path d="M 116.71984013943494 112.70617746262583 l 18.858220237549535 14.33123109846218 a44.68579015624035,44.68579015624035 0 0,0 -0.47067581665639574,0.6084119407669766 l -18.60873760367507 -14.653721033342409" fill="#fff016" stroke="none" /><path d="M 116.0416608686014 113.55231037782055 l 29.776088478203683 25.155424753050845 a59.97962082381276,59.97962082381276 0 0,0 -0.6730784247731416,0.7829422691150084 l -29.338667543859763 -25.664244121327382" fill="#4eff2b" stroke="none" /><path d="M 115.32070863581623 114.36230785411682 l 17.277308738259766 16.19651106799403 a44.681899586240974,44.681899586240974 0 0,0 -0.5308495818433372,0.556593664254079 l -16.995952605037463 -16.49151184883062" fill="#fff016" stroke="none" /><path d="M 115.07121518719521 114.62390073753431 l 20.95525288332613 20.333299889185767 a50.19872784536528,50.19872784536528 0 0,0 -0.6070684546007737,0.6149571394427489 l -20.60214380366982 -20.69099752260918" fill="#c4ff1e" stroke="none" /><path d="M 114.81725581225074 114.88116024355365 l 16.769952897617443 16.842278996085206 a44.76749212622738,44.76749212622738 0 0,0 -0.5507468439441476,0.539021703644341 l -16.477556101297502 -17.128450802652118" fill="#fff116" stroke="none" /><path d="M 112.92097659922987 116.55440617244103 l 12.016915184610758 15.39611912289026 a40.530661396899895,40.530661396899895 0 0,0 -0.5536705890442067,0.42453099795400234 l -11.750115867073056 -15.600689462671633" fill="#ffb510" stroke="none" /><path d="M 112.04921762599082 117.19931262002967 l 27.55999026934158 39.339723387924366 a69.03297721237573,69.03297721237573 0 0,0 -0.9790950950805473,0.6734305342621303 l -26.878738289638147 -39.80829471155159" fill="#38ff82" stroke="none" /><path d="M 111.7513745106137 117.40417183066458 l 10.953096738633526 16.22189621689746 a40.573457666893106,40.573457666893106 0 0,0 -0.5821813978398989,0.38583808510696055 l -10.672240642053664 -16.40803232309574" fill="#ffb610" stroke="none" /><path d="M 111.1453310114006 117.79835938074945 l 10.98083189994968 17.53566513681694 a41.69005125671586,41.69005125671586 0 0,0 -0.6114953782360323,0.37563040553746235 l -10.677357321781338 -17.722084009182783" fill="#ffc612" stroke="none" /><line stroke="#e1ed5e" stroke-width="0.3" x1="143.8653032363475" x2="146.44561519142675" y1="172.8068346515853" y2="177.08958963109032" /><path d="M 144.38136562736335 173.6633856474863 a86.0,86.0 0 0,1 -40.68145358897372,12.25698825130547" fill="none" id="id30" stroke="none" /><text fill="#e1ed5e" style="font-size:6.75px; font-family:Arial;" text-anchor="middle"><textPath startOffset="21.466115282336833" xlink:href="#id30">June</textPath></text><path d="M 110.5260780823613 118.17145234162733 l 15.809593345341131 27.292527166103756 a52.54085098499351,52.54085098499351 0 0,0 -0.7864895854353449,0.4465893127275009 l -15.337454992984588 -27.560619644625888" fill="#a7ff21" stroke="none" /><path d="M 110.21172684928248 118.3499491758327 l 15.155834704428216 27.234257305180464 a52.1673562650528,52.1673562650528 0 0,0 -0.7884156592213758,0.42990707974504244 l -14.684796233338192 -27.491105036685276" fill="#abff21" stroke="none" /><path d="M 109.57404056367764 118.69057910512821 l 9.34049853794722 18.23465501777407 a41.48774161674798,41.48774161674798 0 0,0 -0.6384095991675915,0.3201118261885084 l -9.025235031096866 -18.392734684871883" fill="#ffc312" stroke="none" /><path d="M 109.2508944713604 118.85261126421891 l 9.767340380216678 19.905088296446035 a43.17235842648058,43.17235842648058 0 0,0 -0.6699678430354012,0.3216252785357652 l -9.423259869181045 -20.07026785148136" fill="#ffdb14" stroke="none" /><path d="M 108.59647513512805 119.15986991738527 l 9.691141455676064 21.599668087560563 a44.674118446242204,44.674118446242204 0 0,0 -0.7043179521638793,0.30875229223199097 l -9.31790282885443 -21.763284933087007" fill="#fff016" stroke="none" /><path d="M 107.93186726928326 119.44442032107085 l 19.115246607577966 46.8596960791372 a71.6085345519669,71.6085345519669 0 0,0 -1.145323691977785,0.45574793382511536 l -18.305801839558317 -47.181790857368384" fill="#3cffa2" stroke="none" /><path d="M 106.91757812671514 119.82793768551818 l 7.187138541583121 20.60058195647242 a42.81831655653677,42.81831655653677 0 0,0 -0.6980002734275043,0.2367995900441346 l -6.831468535218389 -20.721244533414676" fill="#ffd614" stroke="none" /><path d="M 106.2309692047433 120.05430185196036 l 9.250062910691307 29.77121979986877 a52.175137405051565,52.175137405051565 0 0,0 -0.8599581318051028,0.25909833076875494 l -8.736229804445959 -29.92603349974325" fill="#abff21" stroke="none" /><path d="M 104.48393922423573 120.51570834832081 l 4.823979820009301 22.071521962335385 a43.59253998641388,43.59253998641388 0 0,0 -0.7344482316749761,0.15391076785389024 l -4.443340126904947 -22.151288710915818" fill="#ffe115" stroke="none" /><path d="M 103.7750983002368 120.6578951692458 l 10.513997297744698 57.534145262633025 a79.48693880071636,79.48693880071636 0 0,0 -1.3480645242101597,0.23437829712162597 l -9.52208380206249 -57.706602138275656" fill="#47fffd" stroke="none" /><path d="M 103.06178313531738 120.77559828337769 l 3.098842944773452 21.027066032623793 a42.254183906626324,42.254183906626324 0 0,0 -0.7204769123664974,0.09985153505341957 l -2.736437441220124 -21.077292133169813" fill="#ffce13" stroke="none" /><path d="M 102.34483914955558 120.86867818915974 l 3.3193816973545824 29.541944675483773 a50.7278453652813,50.7278453652813 0 0,0 -0.8685752208469861,0.09003137303060299 l -2.8103738799019933 -29.594705416970132" fill="#beff1f" stroke="none" /><path d="M 101.62511606390274 120.93702456842531 l 1.8106801719837646 23.327721686131635 a44.39788797628605,44.39788797628605 0 0,0 -0.7624538927149583,0.05258328447384533 l -1.408863518489876 -23.355433315121765" fill="#ffec16" stroke="none" /><path d="M 101.26447882468166 120.96189622390904 l 1.187952594323605 19.693282730459337 a40.729080466868396,40.729080466868396 0 0,0 -0.7001754290993799,0.036191071995694886 l -0.8487890968107453 -19.710813609217233" fill="#ffb811" stroke="none" /><line stroke="#e1ed5e" stroke-width="0.3" x1="102.19456741930631" x2="102.32365962044197" y1="184.97166512339345" y2="189.96999836594603" /><path d="M 102.22038585953345 185.97133177190398 a86.0,86.0 0 0,1 -42.740103519485714,-10.115201625700543" fill="none" id="id31" stroke="none" /><text fill="#e1ed5e" style="font-size:6.75px; font-family:Arial;" text-anchor="middle"><textPath startOffset="22.20632615414155" xlink:href="#id31">July</textPath></text><path d="M 100.54218724476979 120.99299961872073 l 1.626561734309384 62.97899885616221 a84.0,84.0 0 0,0 -1.4457612404293283,0.02489009088336136 l -0.5422408039873879 -62.99766642432473" fill="#4dd2ff" stroke="none" /><path d="M 99.81925306533755 120.99922214144158 l -0.1685356614875752 19.580513500501844 a40.58123880689187,40.58123880689187 0 0,0 -0.6984616923286997,-0.012024651453130114 l 0.5055570437089428 -19.574711371769556" fill="#ffb610" stroke="none" /><path d="M 99.45781275523022 120.99299961872073 l -0.5054565952599642 19.570822098697477 a40.57734823689248,40.57734823689248 0 0,0 -0.6980842905238124,-0.024043434449821006 l 0.8422612374584196 -19.55922186582156" fill="#ffb610" stroke="none" /><path d="M 98.73552117531835 120.96189622390904 l -1.1778792435927856 19.526291770607287 a40.56178595689495,40.56178595689495 0 0,0 -0.6965757383509791,-0.048039941244003515 l 1.5138177427226949 -19.503123484847" fill="#ffb510" stroke="none" /><path d="M 98.01472825383883 120.90594882070398 l -3.6850066617900628 38.805045618717934 a59.97962082381276,59.97962082381276 0 0,0 -1.0269865007714019,-0.10645134989940505 l 4.352425759167057 -38.73586490036277" fill="#4eff2b" stroke="none" /><path d="M 97.65516085044442 120.86867818915974 l -2.175126836625358 19.358266848599307 a40.48008398690793,40.48008398690793 0 0,0 -0.6917710502608494,-0.083763840324027 l 2.508025309937597 -19.31795747954993" fill="#ffb410" stroke="none" /><path d="M 96.22490169976321 120.6578951692458 l -4.913246259339868 26.88600881194686 a48.33125424566171,48.33125424566171 0 0,0 -0.8171028802656747,-0.15659971172415796 l 5.375316754177238 -26.79745190187423" fill="#ddff1b" stroke="none" /><path d="M 95.51606077576429 120.51570834832081 l -4.38369924404839 20.05707273897776 a41.530537886741186,41.530537886741186 0 0,0 -0.6970798947596472,-0.1586531145500006 l 4.7282992882009 -19.97864289085007" fill="#ffc312" stroke="none" /><path d="M 95.16358092515715 120.4354850818985 l -5.118068132310697 21.62554636962964 a43.22293583647255,43.22293583647255 0 0,0 -0.72253664995946,-0.17758192933067968 l 5.489558067013367 -21.53424318198493" fill="#ffdb14" stroke="none" /><path d="M 94.11515582081647 120.15858648285463 l -6.018218959258901 20.615462987468213 a42.47594639659112,42.47594639659112 0 0,0 -0.7000946681997547,-0.21093278056445194 l 6.372188601898902 -20.508814837798035" fill="#ffd113" stroke="none" /><path d="M 93.08242187328487 119.8279376855182 l -6.5476267490991615 18.767541586237094 a40.87692212684493,40.87692212684493 0 0,0 -0.6623627153060592,-0.23749970397211945 l 6.869709025034947 -18.652054341225018" fill="#ffba11" stroke="none" /><path d="M 92.7421414339146 119.70592522655815 l -8.96464084359131 24.340036463681194 a46.938430185882794,46.938430185882794 0 0,0 -0.7557752874576866,-0.28576954459584497 l 9.382286351809281 -24.182118668978717" fill="#efff19" stroke="none" /><path d="M 92.06813273071674 119.44442032107085 l -8.163068489014112 20.011194012884932 a42.61211634656951,42.61211634656951 0 0,0 -0.6767789034664599,-0.2828936365373755 l 8.506318851978033 -19.867715333327585" fill="#ffd313" stroke="none" /><path d="M 91.7346041902142 119.30500536409082 l -7.700860037191274 17.986451919226717 a40.565676526894336,40.565676526894336 0 0,0 -0.6395455626941141,-0.28035798017350305 l 8.009326274543131 -17.85122938575876" fill="#ffb510" stroke="none" /><path d="M 91.07499286063937 119.00905698771935 l -8.991698046781288 19.151099592271567 a42.15691965664176,42.15691965664176 0 0,0 -0.6542098129633874,-0.3140604664872924 l 9.320020527744916 -18.993484849284712" fill="#ffcc13" stroke="none" /><path d="M 90.7491055286396 118.85261126421891 l -8.62418964612218 17.57543504258931 a40.57734823689248,40.57734823689248 0 0,0 -0.6244005485403635,-0.31308739738089586 l 8.925444102345303 -17.42437980429911" fill="#ffb610" stroke="none" /><path d="M 90.10565033884886 118.52300852407294 l -6.786058626365991 12.704040799626624 a35.402890137713825,35.402890137713825 0 0,0 -0.5350509392205263,-0.2917524330025414 l 7.003732377455157 -12.585347714864318" fill="#ff6809" stroke="none" /><line stroke="#e1ed5e" stroke-width="0.3" x1="58.666819895761336" x2="56.23545636021788" y1="174.27360380694188" y2="178.64263932499728" /><path d="M 58.180547188652646 175.14741091055294 a86.0,86.0 0 0,1 -31.652253787137756,-30.449443065178592" fill="none" id="id32" stroke="none" /><text fill="#e1ed5e" style="font-size:6.75px; font-family:Arial;" text-anchor="middle"><textPath startOffset="22.20632615414155" xlink:href="#id32">August</textPath></text><path d="M 89.1626897886671 117.98757091392108 l -11.157215990436043 18.518544723397657 a42.61989748656827,42.61989748656827 0 0,0 -0.625134043934083,-0.38400838795480646 l 11.474329234302436 -18.323747868614475" fill="#ffd313" stroke="none" /><path d="M 88.54995079064634 117.60387380957326 l -13.126580221233962 20.181455777244363 a45.07484715617859,45.07484715617859 0 0,0 -0.6467710427897948,-0.42864457981405824 l 13.472025962763718 -19.952513176338986" fill="#fff517" stroke="none" /><path d="M 88.24862548938628 117.40417183066458 l -15.31604761603794 22.683569844141044 a48.37015994565553,48.37015994565553 0 0,0 -0.6860342442620538,-0.4718606087976569 l 15.704238744922884 -22.416568445978285" fill="#dcff1b" stroke="none" /><path d="M 87.65650970185807 116.9893568818739 l -11.630764834746474 16.00837443979695 a40.78743901685914,40.78743901685914 0 0,0 -0.5644496569731202,-0.41756636214324694 l 11.904599462138158 -15.805798128913935" fill="#ffb911" stroke="none" /><path d="M 87.36589467227662 116.77436683061367 l -11.960775314889103 15.880383098456587 a40.880812696844316,40.880812696844316 0 0,0 -0.5584538437411114,-0.42819859368714364 l 12.232357887123703 -15.672145162942076" fill="#ffba11" stroke="none" /><path d="M 86.79598089348748 116.32954008644616 l -12.297277351035348 15.208163653658655 a40.557895386895574,40.557895386895574 0 0,0 -0.5390914345639105,-0.44363554948808315 l 12.557238914143948 -14.994232985313392" fill="#ffb510" stroke="none" /><path d="M 86.51685102203217 116.09983520530335 l -30.85228920401668 36.83981929612207 a69.05243006237262,69.05243006237262 0 0,0 -0.9047003541146201,-0.7710052688315151 l 31.48185503470836 -36.30328963706761" fill="#38ff82" stroke="none" /><path d="M 85.97065885151581 115.62618273729859 l -13.078918914192387 14.567581955305343 a40.57734823689248,40.57734823689248 0 0,0 -0.5157196440889017,-0.47109766728046837 l 13.327738107748145 -14.340291521438298" fill="#ffb610" stroke="none" /><path d="M 85.70375840098266 115.38237550388516 l -8.335133510549168 8.968381839818427 a33.24362378805657,33.24362378805657 0 0,0 -0.4158051763864508,-0.39316974752391837 l 8.488274521326435 -8.823577455548579" fill="#ff4706" stroke="none" /><path d="M 84.9287848128048 114.62390073753433 l -14.053003032882122 13.635909172854369 a40.58123880689187,40.58123880689187 0 0,0 -0.4821311056783587,-0.5055125367689993 l 14.28564068993944 -13.391989519502868" fill="#ffb610" stroke="none" /><path d="M 84.43433777217949 114.09645910891817 l -14.744747292814102 13.353028238849861 a40.89248440684246,40.89248440684246 0 0,0 -0.46800698776561456,-0.5258108120626859 l 14.972413130228054 -13.097243257046312" fill="#ffba11" stroke="none" /><path d="M 83.95833913139862 113.55231037782056 l -14.880614333802354 12.571435446504214 a40.48008398690793,40.48008398690793 0 0,0 -0.44509587224869734,-0.5361466510499019 l 15.094806205944588 -12.313427538340552" fill="#ffb410" stroke="none" /><path d="M 83.72743513129214 113.27417163493432 l -18.145723697539538 14.802181017230232 a44.41734082628297,44.41734082628297 0 0,0 -0.47818881690366294,-0.5966140739791644 l 18.397830426498064 -14.48763910967281" fill="#ffec16" stroke="none" /><path d="M 83.28015986056508 112.70617746262583 l -15.707955785908938 11.937199885069278 a40.729080466868396,40.729080466868396 0 0,0 -0.41939070327759886,-0.5618423828895617 l 15.911107755881622 -11.66504462267041" fill="#ffb811" stroke="none" /><path d="M 82.85270091963577 112.12312394758628 l -31.875995610271357 22.536298219616025 a60.037979373803495,60.037979373803495 0 0,0 -0.5893416478063986,-0.8489905988422314 l 32.25919816523989 -21.98426635858678" fill="#4dff2c" stroke="none" /><path d="M 82.24976979558568 111.22182372390057 l -19.80992776225379 12.523979394697156 a44.436793676279876,44.436793676279876 0 0,0 -0.4031800235766993,-0.6500545733199051 l 20.022572425498446 -12.181128490011986" fill="#ffec16" stroke="none" /><path d="M 82.05923443525364 110.91462005526583 l -16.665534220028086 10.1388078102457 a40.5073179769036,40.5073179769036 0 0,0 -0.3572728554045407,-0.5988098559542592 l 16.83758795113086 -9.850435860405328" fill="#ffb510" stroke="none" /><line stroke="#e1ed5e" stroke-width="0.3" x1="26.63291911575756" x2="22.317208475507996" y1="142.92168965132927" y2="145.44649492493687" /><path d="M 25.769776987707644 143.4266507060508 a86.0,86.0 0 0,1 -11.730757126820373,-40.83630448921669" fill="none" id="id33" stroke="none" /><text fill="#e1ed5e" style="font-size:6.75px; font-family:Arial;" text-anchor="middle"><textPath startOffset="21.46611528233685" xlink:href="#id33">September</textPath></text><path d="M 81.51974371655577 109.97397251340807 l -23.021288813044972 12.424811556874428 a47.16019267584759,47.16019267584759 0 0,0 -0.3794093459150261,-0.7176994983260064 l 23.231750667184883 -12.026697043462294" fill="#ecff1a" stroke="none" /><path d="M 81.02952815118164 109.00673069616217 l -17.832923021226037 8.466649456986383 a40.74075217686655,40.74075217686655 0 0,0 -0.29532269573129405,-0.6360988134648087 l 17.97602033379716 -8.158430576242749" fill="#ffb811" stroke="none" /><path d="M 80.58989483394504 108.01547362559985 l -36.84839393007444 15.21667848604736 a60.86667078367196,60.86667078367196 0 0,0 -0.3915680048443007,-0.9718396757651931 l 37.10486454917613 -14.580139442439362" fill="#44ff2d" stroke="none" /><path d="M 80.32549172779594 107.34259656027581 l -33.23513242005001 12.403469790019424 a56.47421725436917,56.47421725436917 0 0,0 -0.3320569385540353,-0.913678082120337 l 33.44371361960927 -11.82954391089297" fill="#77ff27" stroke="none" /><path d="M 79.18660465613746 102.79330883721812 l -7.7621252690413085 1.0417335927845517 a28.83171740875687,28.83171740875687 0 0,0 -0.06178017948644924,-0.49244881656779665 l 7.7789069577746055 -0.9079670219293465" fill="#ff0000" stroke="none" /><path d="M 79.0235259727143 100.99374915477108 l -31.695940622468136 1.5015781089939326 a52.73148891496325,52.73148891496325 0 0,0 -0.03514897030428714,-0.9070387426149494 l 31.717091725623625 -0.9557621193649865" fill="#a4ff21" stroke="none" /><line stroke="#e1ed5e" stroke-width="0.3" x1="15.007084014347285" x2="10.007500721073583" y1="101.09737516637583" y2="101.16192664675087" /><path d="M 14.007167355692545 101.11028546245083 a86.0,86.0 0 0,1 10.666146001902534,-42.60595125391555" fill="none" id="id34" stroke="none" /><text fill="#e1ed5e" style="font-size:6.75px; font-family:Arial;" text-anchor="middle"><textPath startOffset="22.20632615414155" xlink:href="#id34">October</textPath></text><path d="M 79.01574976396665 99.18683210126434 l -38.860970547654425 -1.505914836490137 a59.89013771382696,59.89013771382696 0 0,0 0.048785912318211055,-1.0297935024419698 l 38.82929102710272 2.1746194455551158" fill="#4fff2b" stroke="none" /><path d="M 79.12142395522702 97.74499172005258 l -23.23939076335382 -2.5099900721158757 a44.374544556289756,44.374544556289756 0 0,0 0.08855816657050566,-0.758712289615155 l 23.192742243779726 2.9096461000558924" fill="#ffec16" stroke="none" /><path d="M 79.21141760316559 97.0276538004421 l -19.330184965672565 -2.7638249074750423 a40.52677082690052,40.52677082690052 0 0,0 0.10468278453787475,-0.6897287554960245 l 19.27974628769539 3.0961527753631586" fill="#ffb510" stroke="none" /><path d="M 79.3925641242962 95.95851677861259 l -19.20756065410965 -3.766942892632631 a40.573457666893106,40.573457666893106 0 0,0 0.1403082410920447,-0.6841928130224042 l 19.139873117102606 4.097011361818438" fill="#ffb610" stroke="none" /><path d="M 79.54389044137918 95.25157060432595 l -19.138520336756976 -4.442580457263129 a40.64737849688137,40.64737849688137 0 0,0 0.1640744977104479,-0.6801947189587801 l 19.05921303878571 4.771360407881306" fill="#ffb710" stroke="none" /><path d="M 80.2630227832202 92.82701384747504 l -18.447424824057457 -6.704325660375795 a40.62792564688446,40.62792564688446 0 0,0 0.24453254192682092,-0.655225638432952 l 18.32928769362901 7.020874435838088" fill="#ffb610" stroke="none" /><path d="M 80.65960295795068 91.81776055985345 l -12.297210396155123 -5.202515733696586 a34.35243623788057,34.35243623788057 0 0,0 0.23508401080573274,-0.5426063088399662 l 12.205835675506709 5.413421187123151" fill="#ff5808" stroke="none" /><path d="M 80.95270993114464 91.15688171328213 l -13.444730777929768 -6.24200839975207 a35.82307169764713,35.82307169764713 0 0,0 0.2644797018161735,-0.5570617027580793 l 13.335292882271842 6.4725125181506815" fill="#ff6f0a" stroke="none" /><path d="M 81.10775173730289 90.83032412892265 l -14.03180817979733 -6.810578132615771 a36.59729512752424,36.59729512752424 0 0,0 0.27995185786788684,-0.5643658625677334 l 13.912496308976031 7.051103583682466" fill="#ff7b0b" stroke="none" /><path d="M 81.43458229118936 90.18545643968196 l -15.106400526850424 -7.985946146529396 a38.08738343728771,38.08738343728771 0 0,0 0.3113950122925153,-0.5769676650718587 l 14.966697415339436 8.244794794933727" fill="#ff910d" stroke="none" /><line stroke="#e1ed5e" stroke-width="0.3" x1="26.266209847984243" x2="21.928928074336255" y1="57.711370442889674" y2="55.22380399835377" /><path d="M 25.398753493254645 57.213857153982495 a86.0,86.0 0 0,1 29.58750427330803,-30.492523968695096" fill="none" id="id35" stroke="none" /><text fill="#e1ed5e" style="font-size:6.75px; font-family:Arial;" text-anchor="middle"><textPath startOffset="21.46611528233685" xlink:href="#id35">November</textPath></text><path d="M 81.96595687620814 89.24020034530311 l -16.732135113434754 -9.98303155759687 a40.483974556907306,40.483974556907306 0 0,0 0.36220472580122065,-0.5953693338970393 l 16.557814589347316 10.269568664700985" fill="#ffb410" stroke="none" /><path d="M 82.95767976084542 87.72973835380427 l -16.083538436037816 -11.57995050189361 a40.818563576854196,40.818563576854196 0 0,0 0.4154501495172846,-0.5666735370493124 l 15.881825674006897 11.855086482614423" fill="#ffb911" stroke="none" /><path d="M 83.84228863543731 86.58626213691792 l -15.143925485084166 -12.572117553757591 a40.68239362687581,40.68239362687581 0 0,0 0.45194145957567544,-0.5349561384632022 l 14.925273412021367 12.830932641849909" fill="#ffb711" stroke="none" /><path d="M 84.07557802195018 86.31012108654704 l -15.465167666696187 -13.295067979556677 a41.3943679367628,41.3943679367628 0 0,0 0.4691522081429514,-0.5363220750668967 l 15.234023594975392 13.559305610826517" fill="#ffc112" stroke="none" /><path d="M 84.80347519578584 85.50635884689758 l -14.369739257835311 -13.705096852732918 a40.85746927684802,40.85746927684802 0 0,0 0.48977548150640743,-0.5047566861726274 l 14.131699512625786 13.95041773445567" fill="#ffba11" stroke="none" /><path d="M 85.05521093208273 85.24692304244772 l -14.488868250307744 -14.303004703057702 a41.35935280676836,41.35935280676836 0 0,0 0.5045135960639812,-0.5023470543485896 l 14.24051885407645 14.550287608056403" fill="#ffc111" stroke="none" /><path d="M 85.57189188830299 84.74124197986013 l -13.538881168235418 -14.31833681936795 a40.7057370468721,40.7057370468721 0 0,0 0.5132646787776851,-0.47702358131840694 l 13.290408605662877 14.549264986761004" fill="#ffb711" stroke="none" /><path d="M 85.83668400450813 84.49514656593479 l -13.266792874675525 -14.523412393497269 a40.67072191687767,40.67072191687767 0 0,0 0.5209513010561813,-0.46771522176166547 l 13.014830586023372 14.749626624028213" fill="#ffb711" stroke="none" /><path d="M 86.65592168130627 83.78471172551755 l -12.487051118580007 -15.173856803756717 a40.65126906688075,40.65126906688075 0 0,0 0.5441396942257252,-0.43998979035129043 l 12.224008025789782 15.386552691372142" fill="#ffb710" stroke="none" /><path d="M 87.80319425747018 82.90503203632743 l -11.433799244834358 -16.02554274615881 a40.68628419687519,40.68628419687519 0 0,0 0.5736162760354366,-0.40185485876408505 l 11.156251829215261 16.219982447686835" fill="#ffb711" stroke="none" /><path d="M 88.39885842347998 82.49532879139004 l -10.802322774703201 -16.29935357768301 a40.55400481689619,40.55400481689619 0 0,0 0.5852000331439237,-0.3806303799547447 l 10.52015571577499 16.482882881797288" fill="#ffb510" stroke="none" /><path d="M 88.70189139769569 82.29822771554957 l -10.580856972392079 -16.5779890504348 a40.66683134687828,40.66683134687828 0 0,0 0.593311345637697,-0.3715315102078401 l 10.29392647438214 16.757664901965573" fill="#ffb711" stroke="none" /><line stroke="#e1ed5e" stroke-width="0.3" x1="56.762969772571076" x2="54.21961505331055" y1="26.818313649435495" y2="22.513508569990535" /><path d="M 56.25429882871897 25.957352633546506 a86.0,86.0 0 0,1 42.265352541879196,-11.944610805530505" fill="none" id="id36" stroke="none" /><text fill="#e1ed5e" style="font-size:6.75px; font-family:Arial;" text-anchor="middle"><textPath startOffset="22.20632615414155" xlink:href="#id36">December</textPath></text><path d="M 89.3179101791058 81.91981866633112 l -9.9940505642282 -16.915626950230564 a40.64737849688137,40.64737849688137 0 0,0 0.6054587052639704,-0.3507207617441951 l 9.701395126498909 17.085151869364807" fill="#ffb710" stroke="none" /><path d="M 92.23578459929587 80.48803036053334 l -7.524475531603161 -18.909488022735147 a41.35157166676959,41.35157166676959 0 0,0 0.6636274193058925,-0.25747712862013683 l 7.197864947297592 19.036207855245834" fill="#ffc111" stroke="none" /><path d="M 93.25333710446033 80.11325718540243 l -6.413350333541784 -18.90425691009081 a40.962514666831346,40.962514666831346 0 0,0 0.6696730918700216,-0.2207806895292928 l 6.086994419429353 19.011851323879338" fill="#ffbb11" stroke="none" /><path d="M 97.11714578562143 79.19881850522333 l -2.6870202345220617 -19.388145019493884 a40.573457666893106,40.573457666893106 0 0,0 0.6926184279567198,-0.08992175023076757 l 2.352887078057484 19.431525092888787" fill="#ffb610" stroke="none" /><path d="M 98.91598698831166 79.02799685794201 l -1.212008619565081 -23.448287339403443 a44.47958994627308,44.47958994627308 0 0,0 0.7649624609838178,-0.03294089271124856 l 0.808205326191939 23.465675958638883" fill="#ffed16" stroke="none" /><path d="M 99.63851952072746 79.00311137660856 l -0.44655440667991775 -25.93847712112162 a46.94232075588217,46.94232075588217 0 0,0 0.8080348859524471,-0.0069550113691104415 l 6.354036015229009e-15 25.94232075588217" fill="#efff19" stroke="none" /></svg>