<?xml version="1.0" encoding="utf-8" ?>
<svg baseProfile="full" height="200mm" version="1.1" viewBox="0,0,200,200" width="200mm" xmlns="http://www.w3.org/2000/svg" xmlns:ev="http://www.w3.org/2001/xml-events" xmlns:xlink="http://www.w3.org/1999/xlink"><defs /><rect fill="#1a1a1a" height="200" width="200" x="0" y="0" /><text alignment-baseline="middle" fill="#e1ed5e" style="dominant-baseline: central; font-size:9.0px; font-family:Arial;" text-anchor="middle" x="100.0" y="100.0">2025</text><line stroke="#e1ed5e" stroke-width="0.3" x1="100.0" x2="100.0" y1="15.0" y2="10.0" /><path d="M 100.0 14.0 a86.0,86.0 0 0,1 42.46469731375804,11.215312516191453" fill="none" id="id49" stroke="none" /><text fill="#e1ed5e" style="font-size:6.75px; font-family:Arial;" text-anchor="middle"><textPath startOffset="22.20632615414155" xlink:href="#id49">January</textPath></text><path d="M 100.0 79.0 l 0.0 -50.04534005037783 a71.04534005037783,71.04534005037783 0 0,0 1.2229287414995398,0.010526133770469341 l -0.8614482622270113 50.03792529321592" fill="#39ff8c" stroke="none" /><path d="M 100.72285384407766 79.0124445844662 l 0.9543543554951194 -27.70901073033232 a48.72544080604534,48.72544080604534 0 0,0 0.8379828401416302,0.03608530384022748 l -1.431178028026081 27.688477699967898" fill="#fff917" stroke="none" /><path d="M 101.08401301168833 79.027996857942 l 0.9118607713770246 -17.64143673206822 a38.66498740554157,38.66498740554157 0 0,0 0.6643711827170394,0.04007668406049327 l -1.2153940029336758 17.623126778627423" fill="#ff5808" stroke="none" /><path d="M 102.16513564639614 79.11191278185805 l 2.602214127010824 -25.104789963509926 a46.23929471032746,46.23929471032746 0 0,0 0.7909854412464884,0.08887643062734565 l -3.0339662717670377 25.056277579411983" fill="#ffd313" stroke="none" /><path d="M 102.52436894288641 79.15227682838746 l 3.6428790634360504 -30.085037480828895 a51.304785894206546,51.304785894206546 0 0,0 0.8758100047681648,0.11370527453434852 l -4.160203796712062 30.01787388313041" fill="#dfff1b" stroke="none" /><path d="M 102.88285421437855 79.19881850522331 l 3.5920702385707677 -25.91851665679983 a47.166246851385395,47.166246851385395 0 0,0 0.8032434738483173,0.11837720811873054 l -4.037682692847741 25.85284496452013" fill="#ffe215" stroke="none" /><path d="M 103.2404852339499 79.25152402106235 l 3.9832664840492527 -25.504423873354085 a46.81360201511335,46.81360201511335 0 0,0 0.7950973616299634,0.1311978773260256 l -4.421693051818091 25.432079733088433" fill="#ffdc14" stroke="none" /><path d="M 103.95276090670814 79.375362276772 l 5.002468553037958 -26.101781530260133 a47.57682619647355,47.57682619647355 0 0,0 0.8029916826178405,0.16107257737959566 l -5.451026645122924 26.011804996803328" fill="#ffe815" stroke="none" /><path d="M 104.66035177308747 79.52364482259891 l 8.144016430623898 -35.78265786008834 a57.69773299748111,57.69773299748111 0 0,0 0.9665093230702215,0.2287415301069045 l -8.758749440656642 35.63717041784057" fill="#86ff25" stroke="none" /><path d="M 105.01212808612495 79.60689891045804 l 6.329938421351759 -25.754943189611044 a47.52141057934509,47.52141057934509 0 0,0 0.7926822725282856,0.2020723610745039 l -6.77232958256507 25.642167832367672" fill="#ffe715" stroke="none" /><path d="M 105.36241919743992 79.69619591428918 l 9.666119191451028 -36.59896459158718 a58.85390428211587,58.85390428211587 0 0,0 0.9772609833618803,0.2671223430003178 l -10.294678064036619 36.42715570776057" fill="#77ff27" stroke="none" /><path d="M 106.0581310904928 79.89281104454417 l 9.474140956920353 -31.44506772235013 a53.841309823677584,53.841309823677584 0 0,0 0.8850860811213144,0.27500055378267035 l -10.014012410752386 31.27732703368494" fill="#bbff1f" stroke="none" /><path d="M 106.74666289553966 80.11325718540242 l 9.37832269358391 -27.643932167250977 a50.19143576826197,50.19143576826197 0 0,0 0.8157733461719096,0.28460730234983733 l -9.852778043819091 27.478404011728934" fill="#efff19" stroke="none" /><path d="M 107.08798089147638 80.2323363322302 l 7.660154471896628 -21.363398062445224 a43.695214105793454,43.695214105793454 0 0,0 0.7058185192303127,0.25995891728003906 l -8.026755316899518 21.228375877358857" fill="#ffab0f" stroke="none" /><path d="M 107.4271985657038 80.35727306442388 l 19.137708958672075 -50.61353724721675 a75.11083123425692,75.11083123425692 0 0,0 1.2054102198482581,0.467680438129757 l -20.00610234352 50.276614105196444" fill="#3fffc1" stroke="none" /><path d="M 108.43124777332544 80.76684994638697 l 16.283017919912773 -37.144410341036746 a61.55667506297229,61.55667506297229 0 0,0 0.9667853411189666,0.4337684014438058 l -16.91998537949852 36.858621609076415" fill="#54ff2b" stroke="none" /><path d="M 110.05341064243156 81.56283822128135 l 7.250948565783968 -13.29766747936131 a36.14609571788413,36.14609571788413 0 0,0 0.5436990910179077,0.3025679555009497 l -7.478771745873911 13.17088412630018" fill="#ff2d04" stroke="none" /><line stroke="#e1ed5e" stroke-width="0.3" x1="143.23703022742887" x2="145.7803849466894" y1="26.81831364943548" y2="22.513508569990506" /><path d="M 143.74570117128098 25.957352633546492 a86.0,86.0 0 0,1 28.547481713284135,27.462654790039103" fill="none" id="id50" stroke="none" /><text fill="#e1ed5e" style="font-size:6.75px; font-family:Arial;" text-anchor="middle"><textPath startOffset="19.985693538727396" xlink:href="#id50">February</textPath></text><path d="M 111.90073688211348 82.69761687909136 l 9.508313346738372 -13.824058290556845 a37.778337531486144,37.778337531486144 0 0,0 0.5326185400652996,0.37313332472430055 l -9.744863026387323 13.65834012306861" fill="#ff4906" stroke="none" /><path d="M 112.19680574252982 82.90503203632743 l 14.800897648695477 -20.744847173860553 a46.48362720403023,46.48362720403023 0 0,0 0.6473502137468135,0.4703274608004177 l -15.15579317879608 20.48700047824346" fill="#ffd714" stroke="none" /><path d="M 113.34407831869373 83.78471172551755 l 10.21973612388862 -12.418689652461365 a37.08312342569269,37.08312342569269 0 0,0 0.48939562683073934,0.40985476320597225 l -10.431989287678476 12.240933731861574" fill="#ff3d05" stroke="none" /><path d="M 113.6212207817346 84.01681056812373 l 22.228224629422975 -26.082678687858536 a55.269521410579344,55.269521410579344 0 0,0 0.7187832877645076,0.6233217841412466 l -22.673901715834248 25.69619191029762" fill="#a7ff21" stroke="none" /><path d="M 113.89432698308785 84.25364557470407 l 26.932028792935057 -30.52190086515322 a61.70528967254408,61.70528967254408 0 0,0 0.7903830918629042,0.7096137438141443 l -27.453422872393954 30.05378811256978" fill="#53ff2b" stroke="none" /><path d="M 114.42810811169701 84.74124197986012 l 24.36874059263591 -25.77168905860497 a56.468513853904284,56.468513853904284 0 0,0 0.7005235270117318,0.673903077961223 l -24.80874736326006 25.348402893881445" fill="#96ff23" stroke="none" /><path d="M 114.94478906791727 85.2469230424477 l 36.71216026279784 -36.241215795930316 a72.58690176322418,72.58690176322418 0 0,0 0.870129388613111,0.8967448214984233 l -37.33055391511406 35.60390677888178" fill="#3cffa0" stroke="none" /><path d="M 115.4437574822437 85.77008943001954 l 23.349953588063066 -21.514696261797265 a52.750629722921914,52.750629722921914 0 0,0 0.6095369411321796,0.6730659144777623 l -23.716834169811282 21.109577560049953" fill="#caff1d" stroke="none" /><path d="M 115.68641384162765 86.03803664274999 l 29.598533782253174 -26.344685806992924 a60.62468513853904,60.62468513853904 0 0,0 0.6871032538573048,0.7854777969662292 l -30.047628899688327 25.831292453823746" fill="#60ff29" stroke="none" /><path d="M 115.9244219780498 86.31012108654704 l 30.941551112202095 -26.599777919998147 a61.80352644836272,61.80352644836272 0 0,0 0.686576512831965,0.8126900338131511 l -31.394838238521178 26.063228936555888" fill="#51ff2b" stroke="none" /><path d="M 116.38621287248628 86.86637796730983 l 33.81806149502208 -27.105325740010453 a64.34005037783376,64.34005037783376 0 0,0 0.6852090343514906,0.8701458895594988 l -34.279624609967534 26.519187456497914" fill="#32ff2f" stroke="none" /><path d="M 116.82858285166822 87.43820079747576 l 26.24104318959898 -19.58778812916099 a53.7455919395466,53.7455919395466 0 0,0 0.5470210671460661,0.7461361208325944 l -26.574326869258673 19.133189564656902" fill="#bcff1f" stroke="none" /><path d="M 117.04232023915458 87.72973835380427 l 26.067370479752814 -18.768187179115753 a53.12090680100756,53.12090680100756 0 0,0 0.5278887082830651,0.7466611412381928 l -26.386571807839765 18.31669953754577" fill="#c5ff1e" stroke="none" /><path d="M 117.45458315368197 88.32363383020206 l 28.021127615314793 -18.744930408609285 a54.712846347607055,54.712846347607055 0 0,0 0.5169148954528623,0.7872968492672356 l -28.33963914612558 18.259815495364375" fill="#aeff20" stroke="none" /><path d="M 117.65298651832404 88.62581576622439 l 28.911344359025602 -18.62817698548305 a55.39294710327456,55.39294710327456 0 0,0 0.5095423210933415,0.8059735851165757 l -29.2277142763649 18.127755752652266" fill="#a5ff21" stroke="none" /><line stroke="#e1ed5e" stroke-width="0.3" x1="172.23445277983987" x2="176.4835382374775" y1="55.19839476539836" y2="52.563006222186495" /><path d="M 173.08426987136738 54.67131705675599 a86.0,86.0 0 0,1 12.851231095245387,41.99856678651699" fill="none" id="id51" stroke="none" /><text fill="#e1ed5e" style="font-size:6.75px; font-family:Arial;" text-anchor="middle"><textPath startOffset="22.20632615414155" xlink:href="#id51">March</textPath></text><path d="M 117.84615892207809 88.93136811851018 l 24.72603834819767 -15.33570431367265 a50.095717884130984,50.095717884130984 0 0,0 0.4481997125684993,0.7367224812831431 l -24.986353859052393 14.907814059182426" fill="#f0ff19" stroke="none" /><path d="M 118.21658344932153 89.55222093294921 l 15.56832878450473 -8.928922376482777 a38.9471032745592,38.9471032745592 0 0,0 0.3285324637563154,0.5844225943850566 l -15.71971888955348 8.659616272162927" fill="#ff5d08" stroke="none" /><path d="M 118.3937258080291 89.86733742301442 l 30.90551890594598 -17.0251094372573 a56.28463476070529,56.28463476070529 0 0,0 0.46017218699333134,0.8526291744555847 l -31.193999192157776 16.490599279469254" fill="#99ff23" stroke="none" /><path d="M 119.04729006885535 91.15688171328212 l 31.377651649953155 -14.567756573081851 a55.594458438287155,55.594458438287155 0 0,0 0.39550872763607636,0.8714510546775618 l -31.62376269455258 14.025483509562227" fill="#a2ff22" stroke="none" /><path d="M 119.196687751892 91.48605970444005 l 23.57851536276528 -10.457328610595397 a46.79345088161209,46.79345088161209 0 0,0 0.3202216004860885,0.739115604055977 l -23.755027673094048 10.049913861952817" fill="#ffdc14" stroke="none" /><path d="M 119.47837535516314 92.15188598940014 l 35.07135569825521 -14.130747200805367 a58.81108312342569,58.81108312342569 0 0,0 0.37024783463620703,0.9422403542873007 l -35.30939708277312 13.524957841622282" fill="#77ff26" stroke="none" /><path d="M 119.61058180528143 92.48833698450437 l 23.54116621173762 -9.017239229828514 a46.20906801007557,46.20906801007557 0 0,0 0.2781244840995184,0.7452353425928849 l -23.692895284338768 8.610680750206296" fill="#ffd313" stroke="none" /><path d="M 119.85752413597 93.16781622104841 l 15.010449454825824 -5.164498281750374 a36.87405541561713,36.87405541561713 0 0,0 0.20133709445544656,0.6019722857526982 l -15.097123843053042 4.905352893075363" fill="#ff3905" stroke="none" /><path d="M 120.08093135843002 93.85539295169968 l 51.309103969926376 -15.700182240961173 a74.65743073047858,74.65743073047858 0 0,0 0.36544493408975115,1.2320986453424012 l -51.571754801127824 14.814654208872241" fill="#3fffbc" stroke="none" /><path d="M 120.37134235888165 94.90015583598534 l 16.276059907941786 -4.074614606753216 a37.778337531486144,37.778337531486144 0 0,0 0.1524935182545556,0.6321840824723793 l -16.34378622645716 3.793845292621431" fill="#ff4906" stroke="none" /><path d="M 120.53481517161879 95.60439243477599 l 34.46607517050039 -7.377682219045182 a56.24685138539043,56.24685138539043 0 0,0 0.19450885477007546,0.9484942542726418 l -34.58796332118546 6.783312308609128" fill="#99ff23" stroke="none" /><path d="M 120.67395015179393 96.31383870115 l 38.3424034121432 -6.836443085380663 a59.9471032745592,59.9471032745592 0 0,0 0.17238542733359868,1.0174285503024318 l -38.45440070099702 6.175428746762393" fill="#69ff28" stroke="none" /><path d="M 120.78858239683441 97.02765380044208 l 25.13480995083254 -3.5937687047551585 a46.3904282115869,46.3904282115869 0 0,0 0.10622082827777747,0.7914685491417868 l -25.192946778168153 3.160581813548707" fill="#ffd614" stroke="none" /><path d="M 120.83666639777658 97.38593545837742 l 25.122966370451017 -3.1518024196221828 a46.31989924433249,46.31989924433249 0 0,0 0.09244050601139539,0.7919738030399763 l -25.173497229466 2.7188848782573536" fill="#ffd513" stroke="none" /><path d="M 120.87857604477298 97.74499172005257 l 26.057524738618564 -2.8143650177345574 a47.20906801007557,47.20906801007557 0 0,0 0.08030683824681183,0.8086789017077463 l -26.102108702547604 2.365410585322376" fill="#ffe215" stroke="none" /><path d="M 120.94382443527127 98.46500227214037 l 43.40247748208968 -3.181019040929697 a64.51889168765743,64.51889168765743 0 0,0 0.07164487729553809,1.1083145409886956 l -43.45080295038963 2.433445435687966" fill="#30ff2f" stroke="none" /><path d="M 120.96714384426684 98.82574320788733 l 25.770699648818805 -1.4432780794984421 a46.81108312342569,46.81108312342569 0 0,0 0.03813184413922292,0.8049029620388835 l -25.791725101191524 0.9994640108365589" fill="#ffdc14" stroke="none" /><line stroke="#e1ed5e" stroke-width="0.3" x1="184.98032266829074" x2="189.97916517819016" y1="98.17113171792111" y2="98.06355123074" /><path d="M 185.9800911702706 98.14961562048488 a86.0,86.0 0 0,1 -9.607161424134198,41.387399972396054" fill="none" id="id52" stroke="none" /><text fill="#e1ed5e" style="font-size:6.75px; font-family:Arial;" text-anchor="middle"><textPath startOffset="21.466115282336823" xlink:href="#id52">April</textPath></text><path d="M 120.99513854157772 99.54816195383933 l 17.736447253008492 -0.38170749179675906 a38.740554156171285,38.740554156171285 0 0,0 0.008609613833457458,0.6668240795286174 l -17.740389873959664 0.0763471542076789" fill="#ff5908" stroke="none" /><path d="M 120.99980553446 99.90962569577887 l 26.029985653485614 -0.1120220774644546 a47.03022670025189,47.03022670025189 0 0,0 -0.0034840500548985534,0.8095705328606216 l -26.02805730614121 -0.33605793359985175" fill="#ffdf14" stroke="none" /><path d="M 120.99824983174949 100.27111621757518 l 29.7758557647766 0.38444715415303343 a50.778337531486144,50.778337531486144 0 0,0 -0.018807177441877737,0.8738956343393397 l -29.764826524649717 -0.8969326042824879" fill="#e6ff1a" stroke="none" /><path d="M 120.95626037817324 101.35467743843564 l 16.74087730822043 1.0821820486963376 a37.77581863979849,37.77581863979849 0 0,0 -0.04753176798739689,0.6485332100225424 l -16.7197689815687 -1.3701883952156504" fill="#ff4906" stroke="none" /><path d="M 120.92983693683757 101.71520430193887 l 27.90142829747065 2.286527601265276 a48.994962216624685,48.994962216624685 0 0,0 -0.07611811536699144,0.8399570602544986 l -27.85793558582658 -2.7664660500683453" fill="#fffd17" stroke="none" /><path d="M 120.89721153311464 102.0752229133903 l 40.50855650553746 4.022751289828553 a61.70780856423174,61.70780856423174 0 0,0 -0.11406452894653124,1.0560958745911455 l -40.43330967508988 -4.719443486304489" fill="#53ff2b" stroke="none" /><path d="M 120.76222939487914 103.15116336523771 l 18.097531607603067 2.746731938968741 a39.304785894206546,39.304785894206546 0 0,0 -0.10728006536481412,0.6680330694335168 l -18.047569787876963 -3.0578442380954627" fill="#ff6309" stroke="none" /><path d="M 120.49622156327973 104.57218783832717 l 17.231380225144253 3.843884437907534 a38.65491183879093,38.65491183879093 0 0,0 -0.15045860084319734,0.6481717145650621 l -17.162661058370503 -4.139924809821161" fill="#ff5808" stroke="none" /><path d="M 120.41448212921028 104.9243191809786 l 28.117967888895496 6.7825305451813955 a49.92443324937028,49.92443324937028 0 0,0 -0.2087047799774372,0.833671851162722 l -27.997051794623 -7.2655302357415135" fill="#f3ff19" stroke="none" /><path d="M 120.13307415673323 105.97154293290107 l 24.48715028778636 7.262977730552586 a46.541561712846345,46.541561712846345 0 0,0 -0.2344214854748934,0.7661029780683267 l -24.358502029805333 -7.6834076811729695" fill="#ffd814" stroke="none" /><path d="M 119.9155931802556 106.66101706037122 l 24.492572493362204 8.191844538801265 a46.82619647355163,46.82619647355163 0 0,0 -0.2622471455877821,0.7622129602458805 l -24.347934516831188 -8.612230202136447" fill="#ffdc14" stroke="none" /><path d="M 119.79798401119884 107.00284435728193 l 32.9657687469668 11.660487629577506 a55.967254408060455,55.967254408060455 0 0,0 -0.32907609988303554,0.9054760943169933 l -32.76016838607854 -12.22621152090063" fill="#9dff22" stroke="none" /><path d="M 119.67450827220406 107.3425965602758 l 32.76016838607854 12.22621152090063 a55.967254408060455,55.967254408060455 0 0,0 -0.34461362620989244,0.8996774341530979 l -32.54486048027514 -12.788312521886871" fill="#9dff22" stroke="none" /><path d="M 119.41010516605496 108.01547362559984 l 24.14563999965887 9.971029983338838 a47.123425692695214,47.123425692695214 0 0,0 -0.3160613462701553,0.7470756595702787 l -23.970427672196408 -10.38518016857528" fill="#ffe115" stroke="none" /><path d="M 119.26925614724726 108.34839909993367 l 49.04103117815672 21.247011167373472 a74.44584382871537,74.44584382871537 0 0,0 -0.5195572437048375,1.1714644254478368 l -48.66803284972061 -22.088023929313998" fill="#3effb9" stroke="none" /><path d="M 118.97047184881838 109.00673069616215 l 23.300663515881027 11.062603134065064 a46.79345088161209,46.79345088161209 0 0,0 -0.3517235158772283,0.72465461977127 l -23.106786743389087 -11.462046709801609" fill="#ffdc14" stroke="none" /><path d="M 118.81262510543309 109.33194174019688 l 25.68824807487709 12.74257224066226 a49.675062972292196,49.675062972292196 0 0,0 -0.38656975568489726,0.7627388018485266 l -25.465099649405925 -13.182865254213482" fill="#f7ff19" stroke="none" /><path d="M 118.64920377521936 109.65438752849418 l 25.174300022348405 13.032323047339995 a49.34760705289673,49.34760705289673 0 0,0 -0.397007354128118,0.7509882978826368 l -24.946240159995394 -13.463726360308767" fill="#fbff18" stroke="none" /><line stroke="#e1ed5e" stroke-width="0.3" x1="174.80103733775053" x2="179.2010983576182" y1="140.37084112569926" y2="142.7455964860345" /><path d="M 175.68104954172406 140.8457921977663 a86.0,86.0 0 0,1 -30.038265399797805,32.042727171017184" fill="none" id="id53" stroke="none" /><text fill="#e1ed5e" style="font-size:6.75px; font-family:Arial;" text-anchor="middle"><textPath startOffset="22.206326154141568" xlink:href="#id53">May</textPath></text><path d="M 118.30583269289576 110.29060199501025 l 30.296734976199556 17.031273398962618 a55.75566750629723,55.75566750629723 0 0,0 -0.4775021668666281,0.8325652767093913 l -29.999080813180548 -17.550258521530324" fill="#a0ff22" stroke="none" /><path d="M 117.94076556474637 110.91462005526583 l 22.046676647574248 13.412532381695858 a46.806045340050375,46.806045340050375 0 0,0 -0.42467651021829356,0.6847137544165152 l -21.812535497687993 -13.790042467477646" fill="#ffdc14" stroke="none" /><path d="M 117.75023020441432 111.22182372390056 l 44.949365488256596 28.41731347714866 a74.17884130982367,74.17884130982367 0 0,0 -0.6916122080375727,1.073397505567126 l -44.453548416841976 -29.18683258263724" fill="#3effb5" stroke="none" /><path d="M 117.14729908036423 112.12312394758627 l 20.592390355356454 14.558800163516104 a46.2191435768262,46.2191435768262 0 0,0 -0.4648770048818597,0.6456735004890481 l -20.33873355809899 -14.911107269456284" fill="#ffd313" stroke="none" /><path d="M 116.93607887273984 112.41649034213515 l 14.317558341738083 10.496752300751886 a38.75314861460957,38.75314861460957 0 0,0 -0.39904436990476294,0.5345851443863726 l -14.134752705138228 -10.741650324647573" fill="#ff5a08" stroke="none" /><path d="M 116.71984013943494 112.70617746262583 l 34.44042397919109 26.172866206749827 a64.25692695214106,64.25692695214106 0 0,0 -0.6768187708728648,0.8748794974416366 l -33.984798391100156 -26.761823698304717" fill="#33ff2f" stroke="none" /><path d="M 116.498646956653 112.99209946851258 l 13.187835350741944 10.38495272378167 a37.785894206549116,37.785894206549116 0 0,0 -0.40679589795671534,0.507540430429731 l -13.007121540730374 -10.61042098778965" fill="#ff4906" stroke="none" /><path d="M 115.80600337817218 113.82643327865902 l 21.23392561299369 18.574553522967623 a49.211586901763226,49.211586901763226 0 0,0 -0.5632175907905019,0.632780933881815 l -20.91104917255485 -18.937308626590305" fill="#feff18" stroke="none" /><path d="M 115.56566222782051 114.09645910891815 l 21.054812635616162 19.067502623398113 a49.405541561712845,49.405541561712845 0 0,0 -0.5762888033551528,0.625447677621041 l -20.723477424265287 -19.42710155582049" fill="#fbff18" stroke="none" /><path d="M 115.07121518719521 114.62390073753431 l 32.57747017973429 31.610569172496813 a66.39294710327457,66.39294710327457 0 0,0 -0.802910064146119,0.8133436559502989 l -32.02851949053263 -32.16665332242778" fill="#32ff4a" stroke="none" /><path d="M 114.55890576462653 115.13401014063108 l 19.486965266578803 20.256737334689003 a49.10831234256927,49.10831234256927 0 0,0 -0.6142378040922172,0.5808001825598555 l -19.13539162809578 -20.58917215399478" fill="#ffff18" stroke="none" /><path d="M 114.0293411484842 115.62618273729858 l 11.792925844857537 13.135215140096966 a38.65239294710327,38.65239294710327 0 0,0 -0.4989060327034199,0.4402265670510049 l -11.56507745924753 -13.336264848920258" fill="#ff5808" stroke="none" /><path d="M 112.34349029814194 116.9893568818739 l 7.420603739269209 10.213584825710923 a33.62468513853904,33.62468513853904 0 0,0 -0.47118218790275157,0.33617598040560354 l -7.243694223517573 -10.339805067960745" fill="#ff0000" stroke="none" /><line stroke="#e1ed5e" stroke-width="0.3" x1="143.8653032363475" x2="146.44561519142675" y1="172.8068346515853" y2="177.08958963109032" /><path d="M 144.38136562736335 173.6633856474863 a86.0,86.0 0 0,1 -40.68145358897372,12.25698825130547" fill="none" id="id54" stroke="none" /><text fill="#e1ed5e" style="font-size:6.75px; font-family:Arial;" text-anchor="middle"><textPath startOffset="21.466115282336833" xlink:href="#id54">June</textPath></text><path d="M 109.89434966115114 118.52300852407294 l 12.771152297426822 23.90861157821144 a48.10579345088161,48.10579345088161 0 0,0 -0.7337487277856527,0.38386265527093666 l -12.357712667114674 -24.124903652427093" fill="#fff016" stroke="none" /><path d="M 109.2508944713604 118.85261126421891 l 11.117273804553173 22.656148765288382 a46.2367758186398,46.2367758186398 0 0,0 -0.7175228338956133,0.3444545640607024 l -10.725638302657327 -22.844157605848643" fill="#ffd313" stroke="none" /><path d="M 108.2653958097858 119.30500536409082 l 13.439571260340209 31.390026714119603 a55.14609571788413,55.14609571788413 0 0,0 -0.8758474675809145,0.3661043124821551 l -12.897252333261832 -31.61671606962173" fill="#a8ff21" stroke="none" /><path d="M 107.59598834532513 119.57807347666477 l 12.87773770814746 33.191374657452315 a56.60201511335013,56.60201511335013 0 0,0 -0.9113727083238413,0.34460317522536854 l -12.304494779063344 -33.408126082784314" fill="#95ff23" stroke="none" /><path d="M 107.2578585660854 119.70592522655815 l 9.688462034540537 26.305294691899434 a49.032745591939545,49.032745591939545 0 0,0 -0.794518295883601,0.2848859932968857 l -9.234224178027201 -26.46816822623628" fill="#fffe18" stroke="none" /><path d="M 106.2309692047433 120.05430185196036 l 15.814718528531648 50.89948748800301 a74.29974811083123,74.29974811083123 0 0,0 -1.2246191530449884,0.3689677051083618 l -14.936224401046413 -51.1641705622171" fill="#3effb7" stroke="none" /><path d="M 105.18746579009965 120.34920634021253 l 7.678220924772668 30.11985201370068 a52.08312342569269,52.08312342569269 0 0,0 -0.8706480666144444,0.2139841120116112 l -7.158619573415012 -30.24755738402632" fill="#d3ff1c" stroke="none" /><path d="M 104.83641907484287 120.43548508189849 l 4.780728031159897 20.200171831585166 a41.758186397984886,41.758186397984886 0 0,0 -0.7009009191993681,0.15952276727229792 l -4.432306962567666 -20.279471332435147" fill="#ff8c0c" stroke="none" /><path d="M 104.48393922423573 120.51570834832081 l 5.9264155345872 27.11557997962661 a48.75566750629723,48.75566750629723 0 0,0 -0.8214367365446754,0.17214005482272626 l -5.458787336613146 -27.213576015175878" fill="#fffa17" stroke="none" /><path d="M 103.7750983002368 120.6578951692458 l 10.619360122004759 58.11070619037454 a80.07304785894206,80.07304785894206 0 0,0 -1.358004683444285,0.23610652121815215 l -9.617506467088424 -58.2848912901137" fill="#47ffff" stroke="none" /><path d="M 103.06178313531738 120.77559828337769 l 4.113593966497534 27.91261561378356 a49.214105793450884,49.214105793450884 0 0,0 -0.839150675949587,0.1162986373282393 l -3.632514699361117 -27.979288816604402" fill="#fdff18" stroke="none" /><path d="M 102.70371172650421 120.8252237178851 l 3.8935783841201297 29.990120661740242 a51.241813602015114,51.241813602015114 0 0,0 -0.8756800807083808,0.10603266272522324 l -3.376770880360368 -30.052698853190815" fill="#e0ff1b" stroke="none" /><path d="M 101.98527174616119 120.90594882070398 l 2.859439022178671 30.11138700240055 a51.24685138539043,51.24685138539043 0 0,0 -0.8788973678239576,0.07583496310310578 l -2.3406973366131716 -30.15614621778232" fill="#e0ff1b" stroke="none" /><path d="M 101.62511606390274 120.93702456842531 l 4.8753481917081976 62.81107370527595 a84.0,84.0 0 0,0 -1.4425489568842786,0.09948662193485935 l -3.7934364740449884 -62.885688671727095" fill="#4dd2ff" stroke="none" /><path d="M 100.90346689309514 120.98055641714683 l 0.8947974254871764 20.77923165843605 a41.7984886649874,41.7984886649874 0 0,0 -0.719092537400842,0.02476700094967011 l -0.5369845364116822 -20.791555457811814" fill="#ff8c0c" stroke="none" /><line stroke="#e1ed5e" stroke-width="0.3" x1="102.19456741930631" x2="102.32365962044197" y1="184.97166512339345" y2="189.96999836594603" /><path d="M 102.22038585953345 185.97133177190398 a86.0,86.0 0 0,1 -42.740103519485714,-10.115201625700543" fill="none" id="id55" stroke="none" /><text fill="#e1ed5e" style="font-size:6.75px; font-family:Arial;" text-anchor="middle"><textPath startOffset="22.20632615414155" xlink:href="#id55">July</textPath></text><path d="M 100.54218724476979 120.99299961872073 l 0.7815768630974442 30.261949072542375 a51.272040302267,51.272040302267 0 0,0 -0.8824658165089053,0.015192449320223716 l -0.26055135669587093 -30.27091899914176" fill="#dfff1b" stroke="none" /><path d="M 99.81925306533755 120.99922214144158 l -0.2630445673814902 30.560580813495335 a51.5617128463476,51.5617128463476 0 0,0 -0.8874514990880517,-0.015278282367230629 l 0.7890557563622097 -30.551525053848945" fill="#dbff1b" stroke="none" /><path d="M 99.45781275523022 120.99299961872073 l -0.666597008383141 25.810033116455262 a46.81863979848866,46.81863979848866 0 0,0 -0.8054581772128354,-0.027741608210890584 l 1.1107755372706194 -25.794734709818275" fill="#ffdc14" stroke="none" /><path d="M 99.09653310690486 120.98055641714683 l -2.298926072942334 53.386292891130246 a74.43576826196474,74.43576826196474 0 0,0 -1.279628594256086,-0.06614218188439148 l 3.217542735611909 -53.33881090248365" fill="#3effb9" stroke="none" /><path d="M 98.37488393609728 120.93702456842531 l -2.1861193063055038 28.1646552158918 a49.249370277078086,49.249370277078086 0 0,0 -0.8446400263304998,-0.07287909553167482 l 2.6706036503775454 -28.12285186808146" fill="#fdff18" stroke="none" /><path d="M 98.01472825383883 120.90594882070398 l -2.8613440448449916 30.13144788647943 a51.26700251889169,51.26700251889169 0 0,0 -0.8778068083586852,-0.09098826482186659 l 3.3795834498092705 -30.077730253201803" fill="#dfff1b" stroke="none" /><path d="M 97.65516085044442 120.86867818915974 l -3.92184683955896 34.90378417532007 a56.123425692695214,56.123425692695214 0 0,0 -0.9591027812153046,-0.11613398998086938 l 4.522077043825655 -34.83110465661385" fill="#9bff22" stroke="none" /><path d="M 96.93821686468263 120.77559828337769 l -3.678399890049023 24.959624853821637 a46.22921914357683,46.22921914357683 0 0,0 -0.7862580538794393,-0.12279733780239509 l 4.107493807536979 -24.892609208672138" fill="#ffd313" stroke="none" /><path d="M 96.58105272829116 120.7198165907248 l -8.717351823763336 52.82969188785379 a74.544080604534,74.544080604534 0 0,0 -1.2642357608559618,-0.21980359208940184 l 9.625436556091348 -52.671809717243384" fill="#3fffba" stroke="none" /><path d="M 95.86986931433489 120.58985236759428 l -5.0050030367367775 24.951334829051813 a46.448362720403026,46.448362720403026 0 0,0 -0.7825632063382642,-0.1639937286077223 l 5.433757704504429 -24.86148511971755" fill="#ffd714" stroke="none" /><path d="M 95.16358092515715 120.4354850818985 l -7.085525078581094 29.93870874299008 a51.76574307304786,51.76574307304786 0 0,0 -0.8653425746962072,-0.2126801511800852 l 7.599820938020512 -29.812307333495966" fill="#d8ff1c" stroke="none" /><path d="M 94.81253420990036 120.34920634021253 l -8.338398590994997 32.70957348748808 a54.75566750629723,54.75566750629723 0 0,0 -0.9113156716041557,-0.24068675168990553 l 8.90020470541064 -32.561195386494596" fill="#aeff20" stroke="none" /><path d="M 94.11515582081647 120.15858648285463 l -16.554785958305324 56.70856768410576 a80.07556675062972,80.07556675062972 0 0,0 -1.3198170280130244,-0.39765004391615494 l 17.528477960758597 -56.41520227108388" fill="#47ffff" stroke="none" /><path d="M 92.7421414339146 119.70592522655815 l -8.845759972411388 24.017261152339852 a46.594458438287155,46.594458438287155 0 0,0 -0.7502368545491527,-0.283675383174703 l 9.257867047720824 -23.861437519058516" fill="#ffd914" stroke="none" /><path d="M 92.06813273071674 119.44442032107085 l -10.47116842578044 25.66934029671414 a48.722921914357684,48.722921914357684 0 0,0 -0.7738326207197538,-0.323462098220542 l 10.911472505997658 -25.485293155473624" fill="#fff917" stroke="none" /><path d="M 91.7346041902142 119.30500536409082 l -21.416466388748084 50.02119777798848 a75.41309823677582,75.41309823677582 0 0,0 -1.188938937438146,-0.521195890478277 l 22.274326000843974 -49.645137334215754" fill="#40ffc5" stroke="none" /><path d="M 91.07499286063937 119.00905698771935 l -10.763106846483362 22.923960531909596 a46.324937027707804,46.324937027707804 0 0,0 -0.7188909587150711,-0.3451113471148552 l 11.156110473198675 -22.735294908295177" fill="#ffd513" stroke="none" /><path d="M 90.10565033884886 118.52300852407294 l -7.714198488363006 14.441592348143702 a37.3727959697733,37.3727959697733 0 0,0 -0.5648225189282692,-0.3079862720211532 l 7.9616438191599155 -14.306665424362782" fill="#ff4206" stroke="none" /><line stroke="#e1ed5e" stroke-width="0.3" x1="58.666819895761336" x2="56.23545636021788" y1="174.27360380694188" y2="178.64263932499728" /><path d="M 58.180547188652646 175.14741091055294 a86.0,86.0 0 0,1 -31.652253787137756,-30.449443065178592" fill="none" id="id56" stroke="none" /><text fill="#e1ed5e" style="font-size:6.75px; font-family:Arial;" text-anchor="middle"><textPath startOffset="22.20632615414155" xlink:href="#id56">August</textPath></text><path d="M 89.7882731507175 118.34994917583269 l -9.812419790044629 17.632414879164656 a41.17884130982368,41.17884130982368 0 0,0 -0.6164104544047144,-0.3500139433356529 l 10.114479011370552 -17.46089777003437" fill="#ff820c" stroke="none" /><path d="M 89.4739219176387 118.17145234162733 l -18.533321359119746 31.994572258935776 a57.97481108312343,57.97481108312343 0 0,0 -0.859220184767993,-0.5076424301411853 l 19.081309414916124 -31.67081125650084" fill="#82ff25" stroke="none" /><path d="M 89.1626897886671 117.98757091392108 l -13.019851154697179 21.610112783235397 a46.22921914357683,46.22921914357683 0 0,0 -0.6780743365290078,-0.4165286395944316 l 13.389904691158495 -21.382795676812588" fill="#ffd313" stroke="none" /><path d="M 87.95078237400918 117.19931262002967 l -14.604455332929982 20.846713928919268 a46.45340050377834,46.45340050377834 0 0,0 -0.6509507760358435,-0.46443609488651894 l 14.96113343681471 -20.59223357218853" fill="#ffd714" stroke="none" /><path d="M 87.65650970185807 116.9893568818739 l -12.21023923339049 16.80595252546648 a41.77329974811083,41.77329974811083 0 0,0 -0.5780927972386385,-0.42765923115025894 l 12.497717001047693 -16.593283345576452" fill="#ff8c0c" stroke="none" /><path d="M 87.36589467227662 116.77436683061367 l -34.916927054824775 46.359384208248706 a79.03778337531486,79.03778337531486 0 0,0 -1.0796985435206157,-0.827866802463822 l 35.709754326838876 -45.751478063957514" fill="#45fff2" stroke="none" /><path d="M 87.07902340077011 116.55440617244103 l -8.144384314376039 10.434617300728995 a34.2367758186398,34.2367758186398 0 0,0 -0.46145061280864447,-0.3666042750200629 l 8.322792419902042 -10.292879111703801" fill="#ff0b01" stroke="none" /><path d="M 86.79598089348748 116.32954008644616 l -16.032659879480182 19.827747906332554 a46.49874055415617,46.49874055415617 0 0,0 -0.6180565463674037,-0.5086184605849159 l 16.371586554392277 -19.548834326890457" fill="#ffd714" stroke="none" /><path d="M 86.51685102203217 116.09983520530335 l -12.959154703185353 15.474148914489112 a41.183879093198996,41.183879093198996 0 0,0 -0.539576521286449,-0.4598388173029559 l 13.223596701048859 -15.248785706963204" fill="#ff820c" stroke="none" /><path d="M 86.24171649860922 115.8653595955263 l -19.841170989231298 22.879839080845944 a51.28463476070529,51.28463476070529 0 0,0 -0.6619567823943714,-0.5840998960676741 l 20.232070124532257 -22.534916043005982" fill="#dfff1b" stroke="none" /><path d="M 85.70375840098266 115.38237550388516 l -10.816923594410621 11.63872192377445 a36.88916876574307,36.88916876574307 0 0,0 -0.46140298732715435,-0.4362853238402115 l 11.015662416128594 -11.450801963188306" fill="#ff3a05" stroke="none" /><path d="M 85.44109423537348 115.13401014063109 l -38.80803200279419 40.34102283258303 a76.97732997481108,76.97732997481108 0 0,0 -0.9470046126179356,-0.9268433314964941 l 39.49668656778792 -39.66702939816397" fill="#42ffd9" stroke="none" /><path d="M 85.18274418774928 114.88116024355367 l -10.864565764698174 10.911422882193058 a36.39798488664987,36.39798488664987 0 0,0 -0.44017188052627376,-0.4458917910494657 l 11.05077827027998 -10.722790597162927" fill="#ff3104" stroke="none" /><path d="M 84.67929136418377 114.36230785411682 l -18.415355792193175 17.263366559446407 a46.241813602015114,46.241813602015114 0 0,0 -0.5393856353621695,-0.5853965772288502 l 18.709787835551072 -16.943818727416215" fill="#ffd313" stroke="none" /><line stroke="#e1ed5e" stroke-width="0.3" x1="26.63291911575756" x2="22.317208475507996" y1="142.92168965132927" y2="145.44649492493687" /><path d="M 25.769776987707644 143.4266507060508 a86.0,86.0 0 0,1 -11.730757126820373,-40.83630448921669" fill="none" id="id57" stroke="none" /><text fill="#e1ed5e" style="font-size:6.75px; font-family:Arial;" text-anchor="middle"><textPath startOffset="21.46611528233685" xlink:href="#id57">September</textPath></text><line stroke="#e1ed5e" stroke-width="0.3" x1="15.007084014347285" x2="10.007500721073583" y1="101.09737516637583" y2="101.16192664675087" /><path d="M 14.007167355692545 101.11028546245083 a86.0,86.0 0 0,1 10.666146001902534,-42.60595125391555" fill="none" id="id58" stroke="none" /><text fill="#e1ed5e" style="font-size:6.75px; font-family:Arial;" text-anchor="middle"><textPath startOffset="22.20632615414155" xlink:href="#id58">October</textPath></text><line stroke="#e1ed5e" stroke-width="0.3" x1="26.266209847984243" x2="21.928928074336255" y1="57.711370442889674" y2="55.22380399835377" /><path d="M 25.398753493254645 57.213857153982495 a86.0,86.0 0 0,1 29.58750427330803,-30.492523968695096" fill="none" id="id59" stroke="none" /><text fill="#e1ed5e" style="font-size:6.75px; font-family:Arial;" text-anchor="middle"><textPath startOffset="21.46611528233685" xlink:href="#id59">November</textPath></text><line stroke="#e1ed5e" stroke-width="0.3" x1="56.762969772571076" x2="54.21961505331055" y1="26.818313649435495" y2="22.513508569990535" /><path d="M 56.25429882871897 25.957352633546506 a86.0,86.0 0 0,1 42.265352541879196,-11.944610805530505" fill="none" id="id60" stroke="none" /><text fill="#e1ed5e" style="font-size:6.75px; font-family:Arial;" text-anchor="middle"><textPath startOffset="22.20632615414155" xlink:href="#id60">December</textPath></text></svg>