<?xml version="1.0" encoding="utf-8" ?>
<svg baseProfile="full" height="200mm" version="1.1" viewBox="0,0,200,200" width="200mm" xmlns="http://www.w3.org/2000/svg" xmlns:ev="http://www.w3.org/2001/xml-events" xmlns:xlink="http://www.w3.org/1999/xlink"><defs /><rect fill="#1a1a1a" height="200" width="200" x="0" y="0" /><text alignment-baseline="middle" fill="#e1ed5e" style="dominant-baseline: central; font-size:9.0px; font-family:Arial;" text-anchor="middle" x="100.0" y="100.0">2021</text><line stroke="#e1ed5e" stroke-width="0.3" x1="100.0" x2="100.0" y1="15.0" y2="10.0" /><path d="M 100.0 14.0 a86.0,86.0 0 0,1 42.46469731375804,11.215312516191453" fill="none" id="id1" stroke="none" /><text fill="#e1ed5e" style="font-size:6.75px; font-family:Arial;" text-anchor="middle"><textPath startOffset="22.20632615414155" xlink:href="#id1">January</textPath></text><line stroke="#e1ed5e" stroke-width="0.3" x1="143.23703022742887" x2="145.7803849466894" y1="26.81831364943548" y2="22.513508569990506" /><path d="M 143.74570117128098 25.957352633546492 a86.0,86.0 0 0,1 28.547481713284135,27.462654790039103" fill="none" id="id2" stroke="none" /><text fill="#e1ed5e" style="font-size:6.75px; font-family:Arial;" text-anchor="middle"><textPath startOffset="19.985693538727396" xlink:href="#id2">February</textPath></text><line stroke="#e1ed5e" stroke-width="0.3" x1="172.23445277983987" x2="176.4835382374775" y1="55.19839476539836" y2="52.563006222186495" /><path d="M 173.08426987136738 54.67131705675599 a86.0,86.0 0 0,1 12.851231095245387,41.99856678651699" fill="none" id="id3" stroke="none" /><text fill="#e1ed5e" style="font-size:6.75px; font-family:Arial;" text-anchor="middle"><textPath startOffset="22.20632615414155" xlink:href="#id3">March</textPath></text><path d="M 120.91429891909075 98.10471618934814 l 14.002439002070105 -1.2689211363446207 a35.05981717011129,35.05981717011129 0 0,0 0.0492932951972227,0.6015030567443431 l -14.022206781086823 1.0277041623925087" fill="#ff0000" stroke="none" /><line stroke="#e1ed5e" stroke-width="0.3" x1="184.98032266829074" x2="189.97916517819016" y1="98.17113171792111" y2="98.06355123074" /><path d="M 185.9800911702706 98.14961562048488 a86.0,86.0 0 0,1 -9.607161424134198,41.387399972396054" fill="none" id="id4" stroke="none" /><text fill="#e1ed5e" style="font-size:6.75px; font-family:Arial;" text-anchor="middle"><textPath startOffset="21.466115282336823" xlink:href="#id4">April</textPath></text><path d="M 120.99824983174949 100.27111621757518 l 42.15089855932068 0.544225936750188 a63.154411764705884,63.154411764705884 0 0,0 -0.02339100266052905,1.0868879804547282 l -42.13528549397515 -1.2697037329950311" fill="#48ff2c" stroke="none" /><line stroke="#e1ed5e" stroke-width="0.3" x1="174.80103733775053" x2="179.2010983576182" y1="140.37084112569926" y2="142.7455964860345" /><path d="M 175.68104954172406 140.8457921977663 a86.0,86.0 0 0,1 -30.038265399797805,32.042727171017184" fill="none" id="id5" stroke="none" /><text fill="#e1ed5e" style="font-size:6.75px; font-family:Arial;" text-anchor="middle"><textPath startOffset="22.206326154141568" xlink:href="#id5">May</textPath></text><line stroke="#e1ed5e" stroke-width="0.3" x1="143.8653032363475" x2="146.44561519142675" y1="172.8068346515853" y2="177.08958963109032" /><path d="M 144.38136562736335 173.6633856474863 a86.0,86.0 0 0,1 -40.68145358897372,12.25698825130547" fill="none" id="id6" stroke="none" /><text fill="#e1ed5e" style="font-size:6.75px; font-family:Arial;" text-anchor="middle"><textPath startOffset="21.466115282336833" xlink:href="#id6">June</textPath></text><line stroke="#e1ed5e" stroke-width="0.3" x1="102.19456741930631" x2="102.32365962044197" y1="184.97166512339345" y2="189.96999836594603" /><path d="M 102.22038585953345 185.97133177190398 a86.0,86.0 0 0,1 -42.740103519485714,-10.115201625700543" fill="none" id="id7" stroke="none" /><text fill="#e1ed5e" style="font-size:6.75px; font-family:Arial;" text-anchor="middle"><textPath startOffset="22.20632615414155" xlink:href="#id7">July</textPath></text><line stroke="#e1ed5e" stroke-width="0.3" x1="58.666819895761336" x2="56.23545636021788" y1="174.27360380694188" y2="178.64263932499728" /><path d="M 58.180547188652646 175.14741091055294 a86.0,86.0 0 0,1 -31.652253787137756,-30.449443065178592" fill="none" id="id8" stroke="none" /><text fill="#e1ed5e" style="font-size:6.75px; font-family:Arial;" text-anchor="middle"><textPath startOffset="22.20632615414155" xlink:href="#id8">August</textPath></text><line stroke="#e1ed5e" stroke-width="0.3" x1="26.63291911575756" x2="22.317208475507996" y1="142.92168965132927" y2="145.44649492493687" /><path d="M 25.769776987707644 143.4266507060508 a86.0,86.0 0 0,1 -11.730757126820373,-40.83630448921669" fill="none" id="id9" stroke="none" /><text fill="#e1ed5e" style="font-size:6.75px; font-family:Arial;" text-anchor="middle"><textPath startOffset="21.46611528233685" xlink:href="#id9">September</textPath></text><line stroke="#e1ed5e" stroke-width="0.3" x1="15.007084014347285" x2="10.007500721073583" y1="101.09737516637583" y2="101.16192664675087" /><path d="M 14.007167355692545 101.11028546245083 a86.0,86.0 0 0,1 10.666146001902534,-42.60595125391555" fill="none" id="id10" stroke="none" /><text fill="#e1ed5e" style="font-size:6.75px; font-family:Arial;" text-anchor="middle"><textPath startOffset="22.20632615414155" xlink:href="#id10">October</textPath></text><line stroke="#e1ed5e" stroke-width="0.3" x1="26.266209847984243" x2="21.928928074336255" y1="57.711370442889674" y2="55.22380399835377" /><path d="M 25.398753493254645 57.213857153982495 a86.0,86.0 0 0,1 29.58750427330803,-30.492523968695096" fill="none" id="id11" stroke="none" /><text fill="#e1ed5e" style="font-size:6.75px; font-family:Arial;" text-anchor="middle"><textPath startOffset="21.46611528233685" xlink:href="#id11">November</textPath></text><line stroke="#e1ed5e" stroke-width="0.3" x1="56.762969772571076" x2="54.21961505331055" y1="26.818313649435495" y2="22.513508569990535" /><path d="M 56.25429882871897 25.957352633546506 a86.0,86.0 0 0,1 42.265352541879196,-11.944610805530505" fill="none" id="id12" stroke="none" /><text fill="#e1ed5e" style="font-size:6.75px; font-family:Arial;" text-anchor="middle"><textPath startOffset="22.20632615414155" xlink:href="#id12">December</textPath></text><path d="M 91.23893434514133 80.91482961587045 l -7.819146632744497 -17.033287002211015 a39.74224960254372,39.74224960254372 0 0,0 0.6241764081559832,-0.2800497600340014 l 7.52478810612174 17.165357092761546" fill="#ff5407" stroke="none" /><path d="M 91.56875222667455 80.76684994638697 l -10.776984435220443 -24.584185442138104 a47.84260731319554,47.84260731319554 0 0,0 0.7570893085635743,-0.32414613104821527 l 10.352211368866561 24.766051101149106" fill="#ffdc14" stroke="none" /><path d="M 91.90106846888425 80.62456947434976 l -5.668608277541673 -13.561261190647883 a35.6983306836248,35.6983306836248 0 0,0 0.5689908146941561,-0.23210563982227397 l 5.434333593259137 13.656827716653734" fill="#ff0c01" stroke="none" /><path d="M 92.57280143429618 80.3572730644239 l -7.394726711879194 -19.55684855867176 a41.90818759936407,41.90818759936407 0 0,0 0.6769522823115774,-0.24932723861067382 l 7.056992103795047 19.681239065088757" fill="#ff7a0b" stroke="none" /><path d="M 92.91201910852362 80.23233633223022 l -8.519099449850788 -23.75890895522092 a46.24006359300477,46.24006359300477 0 0,0 0.7515507541690777,-0.26220130104370337 l 8.108866691618426 23.902031109436834" fill="#ffc212" stroke="none" /><path d="M 93.25333710446033 80.11325718540243 l -9.544811834925852 -28.134682451732935 a50.70965818759936,50.70965818759936 0 0,0 0.8290236540008911,-0.27331606449245804 l 9.059105358682553 28.294812240484625" fill="#f6ff19" stroke="none" /><path d="M 93.59665428221793 80.00007090966166 l -10.170019669418593 -31.7645932611256 a54.35294117647059,54.35294117647059 0 0,0 0.893496682395761,-0.27761376853934644 l 9.621737614312103 31.934947164547474" fill="#c0ff1e" stroke="none" /><path d="M 94.28887869178378 79.79150937346287 l -10.265717852308383 -36.324681581285425 a58.74741653418124,58.74741653418124 0 0,0 0.9754927689581993,-0.2666390232091081 l 9.63892719412646 36.496007145320824" fill="#82ff25" stroke="none" /><path d="M 94.98787191387505 79.60689891045804 l -11.952610698231197 -48.63219655693631 a71.07949125596184,71.07949125596184 0 0,0 1.1906705412667171,-0.28179324809552575 l 11.113716470001947 48.83073571717271" fill="#39ff87" stroke="none" /><path d="M 95.33964822691252 79.52364482259891 l -13.942157311617445 -61.25815795719316 a83.82472178060414,83.82472178060414 0 0,0 1.4096814472679606,-0.3081017641586628 l 12.885633140195962 61.4890732194477" fill="#4dd4ff" stroke="none" /><path d="M 97.11714578562143 79.19881850522333 l -8.648562643135705 -62.403544484330034 a84.0,84.0 0 0,0 1.433941085968569,-0.1861667073434532 l 7.573106828659279 62.54316951483762" fill="#4dd2ff" stroke="none" /></svg>